<svg width="1529" height="765" viewBox="0 0 1529 765" fill="none" xmlns="http://www.w3.org/2000/svg">
<g clip-path="url(#clip0_280_2390)">
<rect width="1528.44" height="764.221" fill="white"/>
<rect x="-20.377" y="120.721" width="1565.26" height="528.475" stroke="black" stroke-opacity="0.15" stroke-width="1.3086"/>
<path d="M430.312 120.066V649.857" stroke="black" stroke-opacity="0.15" stroke-width="1.3086"/>
<path d="M1116.1 119.629V649.419" stroke="black" stroke-opacity="0.15" stroke-width="1.3086"/>
<path d="M109.926 -10.4688V775.344" stroke="black" stroke-opacity="0.15" stroke-width="1.3086"/>
<path d="M18.4023 -7.8877V777.925" stroke="black" stroke-opacity="0.15" stroke-width="1.3086"/>
<path d="M1510.04 -0.438477V785.375" stroke="black" stroke-opacity="0.15" stroke-width="1.3086"/>
<path d="M1418.52 -9.21973V776.593" stroke="black" stroke-opacity="0.15" stroke-width="1.3086"/>
<path d="M790.391 -23.5547V790.393" stroke="black" stroke-opacity="0.15" stroke-width="1.3086"/>
<path d="M736.742 -23.5547V790.393" stroke="black" stroke-opacity="0.15" stroke-width="1.3086"/>
<path d="M1498.34 384.176C1496.36 384.176 1494.59 382.794 1494.59 380.549V377.296C1494.59 375.05 1496.36 373.668 1498.34 373.668C1500.32 373.668 1502.1 375.05 1502.1 377.296V380.549C1502.1 382.794 1500.32 384.176 1498.34 384.176ZM1498.34 382.981C1499.7 382.981 1500.82 381.974 1500.82 380.549V377.296C1500.82 375.871 1499.7 374.863 1498.34 374.863C1496.98 374.863 1495.87 375.871 1495.87 377.296V380.549C1495.87 381.974 1496.98 382.981 1498.34 382.981ZM1509.23 384.032H1503.21V382.895H1505.57V375.28L1503.38 376.014V374.834L1506.87 373.812V382.895H1509.23V384.032Z" fill="#FF66E7"/>
<path d="M1096.38 137.665C1093.31 137.665 1090.78 135.341 1090.78 132.128V126.568C1090.78 123.355 1093.31 121.031 1096.38 121.031C1099.46 121.031 1101.99 123.355 1101.99 126.568V132.128C1101.99 135.341 1099.46 137.665 1096.38 137.665ZM1096.38 136.731C1098.93 136.731 1100.98 134.726 1100.98 132.128V126.568C1100.98 123.971 1098.93 121.966 1096.38 121.966C1093.83 121.966 1091.78 123.971 1091.78 126.568V132.128C1091.78 134.726 1093.83 136.731 1096.38 136.731ZM1110.01 137.665C1106.57 137.665 1104.5 135.227 1104.5 132.356H1105.5C1105.5 134.817 1107.26 136.754 1110.01 136.754C1112.45 136.754 1114.55 134.817 1114.55 132.174C1114.55 129.12 1112.47 127.48 1110.04 127.48C1108.42 127.48 1106.32 128.232 1105.68 130.237H1104.7L1106.09 121.259H1114.41V122.148H1106.91L1105.93 128.437C1106.96 127.138 1108.69 126.614 1110.17 126.614C1113.09 126.614 1115.55 128.619 1115.55 132.128C1115.55 135.273 1113.09 137.665 1110.01 137.665Z" fill="black"/>
<path d="M1098.14 168.778C1095.06 168.778 1092.53 166.453 1092.53 163.241V157.681C1092.53 154.468 1095.06 152.144 1098.14 152.144C1101.21 152.144 1103.74 154.468 1103.74 157.681V163.241C1103.74 166.453 1101.21 168.778 1098.14 168.778ZM1098.14 167.843C1100.69 167.843 1102.74 165.838 1102.74 163.241V157.681C1102.74 155.083 1100.69 153.078 1098.14 153.078C1095.58 153.078 1093.53 155.083 1093.53 157.681V163.241C1093.53 165.838 1095.58 167.843 1098.14 167.843ZM1105.03 153.26V152.371H1115.44V153.123L1109.13 168.55H1108.06L1114.35 153.26H1105.03Z" fill="black"/>
<path d="M1096.38 222.676C1093.31 222.676 1090.78 220.352 1090.78 217.139V211.579C1090.78 208.366 1093.31 206.042 1096.38 206.042C1099.46 206.042 1101.99 208.366 1101.99 211.579V217.139C1101.99 220.352 1099.46 222.676 1096.38 222.676ZM1096.38 221.742C1098.93 221.742 1100.98 219.737 1100.98 217.139V211.579C1100.98 208.981 1098.93 206.976 1096.38 206.976C1093.83 206.976 1091.78 208.981 1091.78 211.579V217.139C1091.78 219.737 1093.83 221.742 1096.38 221.742ZM1109.9 206.042C1113.16 206.042 1115.44 208.366 1115.44 211.511C1115.44 212.513 1115.12 213.835 1114.16 215.293L1109.49 222.494L1108.35 222.448L1112.45 216.182C1111.65 216.683 1110.86 216.934 1109.72 216.934C1106.62 216.934 1104.38 214.701 1104.38 211.534C1104.38 208.366 1106.64 206.042 1109.9 206.042ZM1109.9 216.114C1112.59 216.114 1114.43 214.222 1114.43 211.534C1114.43 208.868 1112.54 206.976 1109.9 206.976C1107.26 206.976 1105.39 208.868 1105.39 211.534C1105.39 214.2 1107.26 216.114 1109.9 216.114Z" fill="#FF66E7"/>
<path d="M1105.09 253.561H1096V252.672H1100.06V238.635L1096.39 240.094V239.137L1101.06 237.382V252.672H1105.09V253.561ZM1105.01 238.271V237.382H1115.42V238.134L1109.11 253.561H1108.04L1114.33 238.271H1105.01Z" fill="#FF66E7"/>
<path d="M1092.99 283.739H1102.49V284.673H1091.96V283.921C1091.96 279.341 1101.35 278.293 1101.35 273.189C1101.35 270.819 1099.55 269.178 1097.22 269.178C1094.67 269.178 1092.99 271.069 1092.96 273.508H1091.96C1091.96 270.591 1094.01 268.267 1097.22 268.267C1100.16 268.267 1102.35 270.226 1102.35 273.189C1102.35 278.84 1093.35 279.933 1092.99 283.739ZM1109.96 284.901C1106.52 284.901 1104.45 282.463 1104.45 279.591H1105.45C1105.45 282.052 1107.21 283.989 1109.96 283.989C1112.4 283.989 1114.5 282.052 1114.5 279.409C1114.5 276.356 1112.43 274.715 1109.99 274.715C1108.37 274.715 1106.27 275.467 1105.64 277.472H1104.66L1106.05 268.495H1114.36V269.383H1106.87L1105.89 275.672C1106.91 274.373 1108.64 273.849 1110.12 273.849C1113.04 273.849 1115.5 275.855 1115.5 279.364C1115.5 282.508 1113.04 284.901 1109.96 284.901Z" fill="#FF66E7"/>
<path d="M1099.36 307.354C1101.12 307.855 1102.57 309.086 1102.57 311.365C1102.57 313.803 1100.71 316.013 1097.26 316.013C1093.82 316.013 1091.52 313.643 1091.52 310.658H1092.5C1092.5 313.233 1094.53 315.102 1097.22 315.102C1099.98 315.102 1101.57 313.347 1101.57 311.319C1101.57 308.744 1099.2 307.878 1097.01 307.878H1095.69V306.99H1097.04C1099.32 306.967 1100.89 305.691 1100.89 303.594C1100.89 301.635 1099.34 300.29 1097.01 300.29C1094.49 300.29 1092.8 302.204 1092.8 304.688H1091.82C1091.82 301.772 1093.78 299.379 1097.06 299.379C1100 299.379 1101.89 301.065 1101.89 303.549C1101.89 305.44 1100.87 306.739 1099.36 307.354ZM1112.25 307.354C1114 307.855 1115.46 309.086 1115.46 311.365C1115.46 313.803 1113.59 316.013 1110.15 316.013C1106.71 316.013 1104.41 313.643 1104.41 310.658H1105.39C1105.39 313.233 1107.41 315.102 1110.1 315.102C1112.86 315.102 1114.46 313.347 1114.46 311.319C1114.46 308.744 1112.09 307.878 1109.9 307.878H1108.58V306.99H1109.92C1112.2 306.967 1113.77 305.691 1113.77 303.594C1113.77 301.635 1112.22 300.29 1109.9 300.29C1107.37 300.29 1105.68 302.204 1105.68 304.688H1104.7C1104.7 301.772 1106.66 299.379 1109.94 299.379C1112.88 299.379 1114.77 301.065 1114.77 303.549C1114.77 305.44 1113.75 306.739 1112.25 307.354Z" fill="#FF66E7"/>
<path d="M1102.71 365.149H1105.54V365.969H1102.71V369.684H1101.74V365.969H1093.51V365.217L1101.76 353.505H1102.71V365.149ZM1101.85 354.736L1094.6 365.149H1101.74V356.308C1101.74 355.624 1101.78 355.078 1101.85 354.736ZM1115.55 369.684H1106.46V368.795H1110.51V354.758L1106.84 356.217V355.26L1111.52 353.505V368.795H1115.55V369.684Z" fill="black"/>
<path d="M-0.4375 78.4375H1529.32" stroke="black" stroke-opacity="0.15" stroke-width="1.3146"/>
<path d="M-0.4375 670.446L1528.44 677.896" stroke="black" stroke-opacity="0.15" stroke-width="1.3146"/>
<path d="M0 743.626L1528.88 751.075" stroke="black" stroke-opacity="0.15" stroke-width="1.3146"/>
<path d="M-2.19141 33.3037H1538.52" stroke="black" stroke-opacity="0.15" stroke-width="1.3146"/>
<path d="M814.01 78.8976C800.317 78.8976 791.146 69.2247 791.146 57.4161C791.146 42.1528 801.447 33.0452 814.826 33.0452C820.228 33.0452 825.002 34.4898 828.645 36.3114L829.65 47.9943H828.708C824.813 38.9495 820.165 35.1179 812.816 35.1179C804.776 35.1179 797.428 42.7182 797.428 55.5317C797.428 67.7172 804.714 76.8249 814.764 76.8249C821.861 76.8249 826.07 72.8677 830.027 63.3204H830.969L828.205 76.2596C824.625 77.8298 820.354 78.8976 814.01 78.8976ZM858.221 78.8976C846.035 78.8976 835.986 69.3503 835.986 56.4739C835.986 43.095 845.533 33.0452 858.221 33.0452C870.406 33.0452 880.456 42.5925 880.456 55.4689C880.456 68.8478 870.909 78.8976 858.221 78.8976ZM842.204 54.7152C842.204 67.0263 849.302 76.7621 859.603 76.7621C868.145 76.7621 874.238 68.2825 874.238 57.2276C874.238 44.9166 867.14 35.1808 856.839 35.1808C848.297 35.1808 842.204 43.6603 842.204 54.7152ZM882.742 92.7162C881.235 86.9375 880.356 82.0382 880.104 75.6943L885.757 76.3224C894.425 72.1768 896.247 58.2954 896.247 47.4918V35.432L887.328 35.8717L887.956 33.6733H926.396L925.768 35.432L922.251 35.4948C920.869 35.5576 920.178 36.3742 920.178 37.8188L918.985 76.5108L926.711 75.6943C926.711 82.2267 925.768 86.9375 924.072 92.7162H923.382C923.884 82.9804 922.377 78.2695 918.357 78.2695H888.647C884.438 78.2695 883.559 82.9804 883.433 92.7162H882.742ZM892.792 76.5108H912.138C913.96 76.5108 914.776 75.3174 914.776 72.9305V35.432H898.131V46.7381C898.131 58.2326 897.754 70.5437 892.792 76.5108ZM931.376 78.2695L932.004 76.5108L935.584 76.448C936.903 76.3852 937.594 75.5686 937.594 74.2496V35.3064L931.376 35.7461L932.004 33.6733H956.249C959.139 33.6733 962.028 33.2964 964.917 32.0402L966.487 45.7331H965.545C963.284 38.5098 961.337 35.432 956.5 35.432H942.996V54.4011H951.727C954.365 54.4011 956.877 53.2705 957.945 46.9265H958.887V62.8807H957.945C956.877 57.0392 954.365 55.9086 951.727 55.9086H942.996V76.5108H958.008C962.216 76.5108 964.54 72.5537 967.555 64.9535H968.497L965.357 79.9026C962.844 78.8976 961.023 78.2695 958.259 78.2695H931.376ZM973.025 78.2695L973.653 76.5108L977.234 76.448C978.49 76.3852 979.244 75.6314 979.244 74.3124V35.3064L973.025 35.7461L973.653 33.6733H992.874C1002.8 33.6733 1009.27 38.6354 1009.27 46.3612C1009.27 54.6524 1001.54 59.426 993.376 59.426H984.645V76.6364L992.12 76.1967L991.492 78.2695H973.025ZM984.645 57.6673H992.246C998.59 57.6673 1002.99 53.2077 1002.99 47.0522C1002.99 39.7032 998.59 35.432 991.492 35.432H984.645V57.6673ZM1033.72 78.2695L1034.35 76.5108L1037.93 76.448C1039.25 76.3852 1039.94 75.6314 1039.94 74.3124V35.3064L1033.72 35.7461L1034.35 33.6733H1051.56L1050.93 35.432L1047.42 35.4948C1046.1 35.5576 1045.34 36.3742 1045.34 37.8188V76.6364L1051.56 76.1967L1050.93 78.2695H1033.72ZM1008.22 35.432L1008.85 33.6733H1024.8L1024.18 35.7461L1016.83 35.3064L1036.8 56.2227V56.7251L1024.05 73.9355C1021.1 77.8298 1016.01 78.8976 1010.04 78.8976L1009.73 78.5208C1014.06 76.6364 1017.14 74.8149 1019.9 71.0462L1032.28 54.0871L1018.77 39.766C1015.63 36.4998 1012.87 35.4948 1008.22 35.432ZM1049.24 56.7251V56.2227L1069.15 35.3064L1061.3 35.7461L1061.67 33.6733H1077.63L1077.25 35.432C1073.11 35.4948 1070.34 36.4998 1067.26 39.766L1053.76 54.0871L1066.13 71.0462C1068.84 74.8149 1071.98 76.6364 1076.31 78.5208L1076 78.8976C1070.03 78.8976 1064.94 77.8298 1061.99 73.9355L1049.24 56.7251ZM1107.09 78.2695L1107.72 76.5108L1109.98 76.448C1112.74 76.3852 1114.31 75.7571 1113.12 73.1818L1109.35 65.1419H1089.5L1084.6 76.6364L1092.33 76.1967L1091.7 78.2695H1077.38L1078.01 76.5108L1080.71 76.448C1082.59 76.3852 1083.47 74.5636 1084.67 71.6743L1097.86 40.5826C1095.97 37.0651 1094.09 35.4948 1089.44 34.8039L1089.75 33.6733H1100.37L1120.53 76.6364L1124.68 76.1967L1124.05 78.2695H1107.09ZM1090.19 63.3832H1108.53L1098.99 42.8438C1098.99 42.8438 1098.99 42.781 1098.92 42.781L1090.19 63.3832ZM1158.58 78.2695L1159.21 76.5108L1162.79 76.448C1164.1 76.3852 1164.8 75.6314 1164.8 74.3124V56.5995H1138.79V76.6364L1145.01 76.1967L1144.38 78.2695H1127.17L1127.8 76.5108L1131.38 76.448C1132.64 76.3852 1133.39 75.6314 1133.39 74.3124V35.3064L1127.17 35.7461L1127.8 33.6733H1145.01L1144.38 35.432L1140.86 35.4948C1139.55 35.5576 1138.79 36.3742 1138.79 37.8188V54.8408H1164.8V35.3064L1158.58 35.7461L1159.21 33.6733H1176.42L1175.79 35.432L1172.27 35.4948C1170.95 35.5576 1170.2 36.3742 1170.2 37.8188V76.6364L1176.42 76.1967L1175.79 78.2695H1158.58ZM1192.59 75.8827V78.2695H1180.97L1181.59 76.5108L1185.17 76.448C1186.43 76.3852 1187.18 75.6314 1187.18 74.3124V35.3064L1180.97 35.7461L1181.59 33.6733H1198.8L1198.18 35.432L1194.66 35.4948C1193.34 35.5576 1192.59 36.3742 1192.59 37.8188V69.2875L1215.51 42.1528C1216.83 40.6454 1217.4 39.1379 1217.4 36.0601V33.6733H1229.02L1228.39 35.432L1224.87 35.4948C1223.55 35.5576 1222.8 36.3742 1222.8 37.8188V76.6364L1229.02 76.1967L1228.39 78.2695H1211.18L1211.81 76.5108L1215.39 76.448C1216.64 76.3852 1217.4 75.6314 1217.4 74.3124V42.7182L1193.97 70.4809C1193.09 71.5487 1192.59 72.8049 1192.59 75.8827ZM1233.53 78.2695L1234.16 76.5108L1237.74 76.448C1239.06 76.3852 1239.75 75.5686 1239.75 74.2496V35.3064L1233.53 35.7461L1234.16 33.6733H1258.41C1261.3 33.6733 1264.19 33.2964 1267.08 32.0402L1268.65 45.7331H1267.7C1265.44 38.5098 1263.5 35.432 1258.66 35.432H1245.15V54.4011H1253.88C1256.52 54.4011 1259.04 53.2705 1260.1 46.9265H1261.05V62.8807H1260.1C1259.04 57.0392 1256.52 55.9086 1253.88 55.9086H1245.15V76.5108H1260.17C1264.37 76.5108 1266.7 72.5537 1269.71 64.9535H1270.66L1267.52 79.9026C1265 78.8976 1263.18 78.2695 1260.42 78.2695H1233.53Z" fill="black" fill-opacity="0.3"/>
<path d="M801.403 128.711V121.26H802.406V137.438H801.403V129.599H791.788V137.438H790.786V121.26H791.788V128.711H801.403ZM816.68 129.121L816.794 125.84H817.683V137.438H816.68V134.134C815.86 136.207 814.014 137.665 811.394 137.665C807.862 137.665 805.424 135.068 805.424 131.605C805.424 128.141 807.885 125.612 811.44 125.612C813.923 125.612 815.769 126.956 816.68 129.053V129.121ZM811.554 136.777C814.561 136.777 816.68 134.475 816.68 131.627C816.68 128.779 814.561 126.501 811.554 126.501C808.569 126.501 806.404 128.642 806.404 131.627C806.404 134.612 808.569 136.777 811.554 136.777ZM830.062 125.84H831.133L823.842 142.678H822.794L825.072 137.392L819.877 125.84H820.971C824.161 133.017 825.004 134.931 825.574 136.435C826.143 134.931 826.918 133.086 830.062 125.84ZM840.931 131.422V125.84H841.91V137.438H840.931V132.265C839.951 132.607 838.857 132.767 837.672 132.767C834.095 132.767 832.25 131.194 832.25 128.324V125.84H833.229V128.301C833.229 130.67 834.733 131.878 837.695 131.878C838.72 131.878 839.837 131.764 840.931 131.422ZM854.385 131.103V125.84H855.365V137.438H854.385V131.946H846.182V137.438H845.202V125.84H846.182V131.103H854.385ZM859.622 130.078H862.971C865.751 130.078 867.733 131.308 867.733 133.746C867.733 136.184 865.751 137.438 862.971 137.438H858.642V125.84H859.622V130.078ZM869.875 137.438V125.84H870.855V137.438H869.875ZM859.622 136.572H862.903C865.136 136.572 866.753 135.683 866.753 133.746C866.753 131.81 865.136 130.921 862.903 130.921H859.622V136.572ZM879.483 124.496C877.729 124.496 876.453 123.516 876.453 121.67H877.319C877.319 122.923 878.093 123.767 879.483 123.767C880.85 123.767 881.648 122.923 881.648 121.67H882.491C882.491 123.516 881.215 124.496 879.483 124.496ZM875.108 136.025L883.858 125.84H884.792V137.438H883.812V127.23L875.063 137.438H874.129V125.84H875.108V136.025ZM903.829 125.84V136.526H905.31V140.308H904.399V137.438H893.576V125.84H894.556V136.572H902.849V125.84H903.829ZM912.588 125.612C916.12 125.612 918.444 128.278 918.421 131.855H907.735C907.826 134.886 909.968 136.822 912.748 136.822C915.14 136.822 916.553 135.432 917.122 134.134L918.011 134.27C917.396 136.025 915.505 137.665 912.748 137.665C909.353 137.665 906.755 135.273 906.755 131.582C906.755 128.278 909.216 125.612 912.588 125.612ZM912.588 126.432C909.877 126.432 907.872 128.483 907.735 131.058H917.396C917.305 128.529 915.414 126.432 912.588 126.432ZM930.216 131.103V125.84H931.196V137.438H930.216V131.946H922.013V137.438H921.034V125.84H922.013V131.103H930.216ZM937.959 137.438H936.98V126.706H932.856V125.84H942.061V126.706H937.959V137.438ZM949.996 125.612C953.527 125.612 955.988 128.187 955.988 131.673C955.988 135.136 953.504 137.665 949.973 137.665C947.489 137.665 945.621 136.298 944.709 134.202V142.678H943.73V125.84H944.595L944.709 129.121V129.144C945.552 127.07 947.398 125.612 949.996 125.612ZM949.836 136.777C952.821 136.777 954.985 134.612 954.985 131.65C954.985 128.642 952.821 126.501 949.836 126.501C946.851 126.501 944.709 128.779 944.709 131.65C944.709 134.475 946.851 136.777 949.836 136.777Z" fill="black"/>
<path d="M801.403 159.823V152.372H802.406V168.55H801.403V160.712H791.788V168.55H790.786V152.372H791.788V159.823H801.403ZM816.68 160.233L816.794 156.952H817.683V168.55H816.68V165.246C815.86 167.319 814.014 168.778 811.394 168.778C807.862 168.778 805.424 166.18 805.424 162.717C805.424 159.254 807.885 156.724 811.44 156.724C813.923 156.724 815.769 158.069 816.68 160.165V160.233ZM811.554 167.889C814.561 167.889 816.68 165.588 816.68 162.74C816.68 159.892 814.561 157.613 811.554 157.613C808.569 157.613 806.404 159.755 806.404 162.74C806.404 165.724 808.569 167.889 811.554 167.889ZM827.602 162.352C829.47 162.58 830.495 163.788 830.495 165.314C830.495 167.274 828.991 168.55 826.075 168.55H820.971V156.952H825.847C828.513 156.952 829.698 158.114 829.698 159.8C829.698 161.167 829.014 162.056 827.602 162.352ZM825.87 157.727H821.883V162.102H825.87C827.807 162.102 828.786 161.418 828.786 159.914C828.786 158.57 827.807 157.727 825.87 157.727ZM821.883 167.775H826.121C828.422 167.775 829.584 166.841 829.584 165.314C829.584 163.765 828.422 162.808 826.303 162.808H821.883V167.775ZM833.877 167.137L842.627 156.952H843.561V168.55H842.581V158.342L833.832 168.55H832.898V156.952H833.877V167.137ZM846.827 168.55V156.952H854.141V157.818H847.806V168.55H846.827ZM865.81 160.233L865.924 156.952H866.813V168.55H865.81V165.246C864.99 167.319 863.145 168.778 860.524 168.778C856.993 168.778 854.555 166.18 854.555 162.717C854.555 159.254 857.015 156.724 860.57 156.724C863.053 156.724 864.899 158.069 865.81 160.165V160.233ZM860.684 167.889C863.691 167.889 865.81 165.588 865.81 162.74C865.81 159.892 863.691 157.613 860.684 157.613C857.699 157.613 855.534 159.755 855.534 162.74C855.534 165.724 857.699 167.889 860.684 167.889ZM880.354 156.952V167.638H881.836V171.421H880.924V168.55H870.101V156.952H871.081V167.684H879.375V156.952H880.354ZM884.921 167.137L893.671 156.952H894.605V168.55H893.625V158.342L884.876 168.55H883.941V156.952H884.921V167.137ZM900.65 156.952H905.754V168.55H904.82C904.82 164.426 904.82 163.583 904.888 163.036L898.121 168.55H896.845C901.539 164.813 902.792 163.856 903.498 163.423H900.696C898.531 163.423 896.982 162.238 896.982 160.188C896.982 158.297 898.326 156.952 900.65 156.952ZM897.916 160.233C897.916 161.646 898.919 162.694 900.832 162.694H904.82V157.795H900.832C898.919 157.795 897.916 158.866 897.916 160.233Z" fill="black"/>
<path d="M800.182 206.294L801.412 206.271L793.255 214.018L801.412 222.448H800.159L792.184 214.2C792.23 216.752 792.23 219.167 792.23 222.448H791.227V206.271H792.23C792.23 209.324 792.23 211.511 792.184 213.79L800.182 206.294ZM802.494 222.471V221.582C803.519 221.491 804.909 221.013 804.909 218.37V210.851H813.544V222.448H812.565V211.717H805.843V218.438C805.843 221.582 803.975 222.425 802.494 222.471ZM827.424 214.132L827.538 210.851H828.426V222.448H827.424V219.144C826.604 221.218 824.758 222.676 822.138 222.676C818.606 222.676 816.168 220.079 816.168 216.615C816.168 213.152 818.629 210.623 822.183 210.623C824.667 210.623 826.512 211.967 827.424 214.063V214.132ZM822.297 221.787C825.305 221.787 827.424 219.486 827.424 216.638C827.424 213.79 825.305 211.511 822.297 211.511C819.312 211.511 817.148 213.653 817.148 216.638C817.148 219.623 819.312 221.787 822.297 221.787ZM837.138 222.676C833.697 222.676 831.054 220.033 831.054 216.638C831.054 213.22 833.697 210.623 837.138 210.623C838.664 210.623 840.008 211.147 841.057 212.218L841.034 213.266C840.077 212.263 838.846 211.511 837.206 211.511C834.312 211.511 832.057 213.744 832.057 216.638C832.057 219.532 834.312 221.787 837.206 221.787C838.846 221.787 840.077 221.013 841.034 220.033L841.057 221.081C840.008 222.129 838.664 222.676 837.138 222.676ZM849.153 222.676C845.713 222.676 843.069 220.033 843.069 216.638C843.069 213.22 845.713 210.623 849.153 210.623C850.68 210.623 852.024 211.147 853.072 212.218L853.049 213.266C852.092 212.263 850.862 211.511 849.221 211.511C846.328 211.511 844.072 213.744 844.072 216.638C844.072 219.532 846.328 221.787 849.221 221.787C850.862 221.787 852.092 221.013 853.049 220.033L853.072 221.081C852.024 222.129 850.68 222.676 849.153 222.676ZM866.687 222.676C863.246 222.676 860.603 220.033 860.603 216.638C860.603 213.22 863.246 210.623 866.687 210.623C868.213 210.623 869.558 211.147 870.606 212.218L870.583 213.266C869.626 212.263 868.396 211.511 866.755 211.511C863.861 211.511 861.606 213.744 861.606 216.638C861.606 219.532 863.861 221.787 866.755 221.787C868.396 221.787 869.626 221.013 870.583 220.033L870.606 221.081C869.558 222.129 868.213 222.676 866.687 222.676ZM878.725 222.676C875.285 222.676 872.619 220.033 872.619 216.638C872.619 213.22 875.285 210.623 878.725 210.623C882.143 210.623 884.809 213.22 884.809 216.638C884.809 220.033 882.143 222.676 878.725 222.676ZM878.725 221.787C881.596 221.787 883.829 219.509 883.829 216.615C883.829 213.744 881.596 211.511 878.725 211.511C875.831 211.511 873.576 213.744 873.576 216.615C873.576 219.509 875.831 221.787 878.725 221.787ZM889.391 216.182L896.614 222.448H895.338L888.343 216.365C888.389 218.256 888.389 220.238 888.389 222.448H887.409V210.851H888.389C888.389 212.856 888.389 214.428 888.343 215.955L895.338 210.851H896.591L889.391 216.182ZM908.128 214.132L908.242 210.851H909.131V222.448H908.128V219.144C907.308 221.218 905.462 222.676 902.842 222.676C899.31 222.676 896.872 220.079 896.872 216.615C896.872 213.152 899.333 210.623 902.888 210.623C905.371 210.623 907.217 211.967 908.128 214.063V214.132ZM903.001 221.787C906.009 221.787 908.128 219.486 908.128 216.638C908.128 213.79 906.009 211.511 903.001 211.511C900.017 211.511 897.852 213.653 897.852 216.638C897.852 219.623 900.017 221.787 903.001 221.787Z" fill="#FF66E7"/>
<path d="M800.182 237.406L801.412 237.383L793.255 245.13L801.412 253.561H800.159L792.184 245.312C792.23 247.864 792.23 250.28 792.23 253.561H791.227V237.383H792.23C792.23 240.436 792.23 242.624 792.184 244.902L800.182 237.406ZM802.494 253.583V252.695C803.519 252.604 804.909 252.125 804.909 249.482V241.963H813.544V253.561H812.565V242.829H805.843V249.55C805.843 252.695 803.975 253.538 802.494 253.583ZM827.424 245.244L827.538 241.963H828.426V253.561H827.424V250.257C826.604 252.33 824.758 253.788 822.138 253.788C818.606 253.788 816.168 251.191 816.168 247.728C816.168 244.264 818.629 241.735 822.183 241.735C824.667 241.735 826.512 243.079 827.424 245.176V245.244ZM822.297 252.9C825.305 252.9 827.424 250.598 827.424 247.75C827.424 244.902 825.305 242.624 822.297 242.624C819.312 242.624 817.148 244.766 817.148 247.75C817.148 250.735 819.312 252.9 822.297 252.9ZM837.138 253.788C833.697 253.788 831.054 251.145 831.054 247.75C831.054 244.333 833.697 241.735 837.138 241.735C838.664 241.735 840.008 242.259 841.057 243.33L841.034 244.378C840.077 243.376 838.846 242.624 837.206 242.624C834.312 242.624 832.057 244.857 832.057 247.75C832.057 250.644 834.312 252.9 837.206 252.9C838.846 252.9 840.077 252.125 841.034 251.145L841.057 252.193C840.008 253.242 838.664 253.788 837.138 253.788ZM849.153 253.788C845.713 253.788 843.069 251.145 843.069 247.75C843.069 244.333 845.713 241.735 849.153 241.735C850.68 241.735 852.024 242.259 853.072 243.33L853.049 244.378C852.092 243.376 850.862 242.624 849.221 242.624C846.328 242.624 844.072 244.857 844.072 247.75C844.072 250.644 846.328 252.9 849.221 252.9C850.862 252.9 852.092 252.125 853.049 251.145L853.072 252.193C852.024 253.242 850.68 253.788 849.153 253.788ZM863.246 247.295L870.469 253.561H869.193L862.198 247.477C862.244 249.368 862.244 251.35 862.244 253.561H861.264V241.963H862.244C862.244 243.968 862.244 245.54 862.198 247.067L869.193 241.963H870.446L863.246 247.295ZM876.834 253.788C873.393 253.788 870.727 251.145 870.727 247.75C870.727 244.333 873.393 241.735 876.834 241.735C880.252 241.735 882.917 244.333 882.917 247.75C882.917 251.145 880.252 253.788 876.834 253.788ZM876.834 252.9C879.705 252.9 881.938 250.621 881.938 247.728C881.938 244.857 879.705 242.624 876.834 242.624C873.94 242.624 871.684 244.857 871.684 247.728C871.684 250.621 873.94 252.9 876.834 252.9ZM891.783 241.735C895.315 241.735 897.776 244.31 897.776 247.796C897.776 251.259 895.292 253.788 891.761 253.788C889.277 253.788 887.409 252.421 886.497 250.325V258.801H885.518V241.963H886.383L886.497 245.244V245.267C887.34 243.193 889.186 241.735 891.783 241.735ZM891.624 252.9C894.609 252.9 896.773 250.735 896.773 247.773C896.773 244.766 894.609 242.624 891.624 242.624C888.639 242.624 886.497 244.902 886.497 247.773C886.497 250.598 888.639 252.9 891.624 252.9ZM901.361 246.201H904.71C907.49 246.201 909.472 247.431 909.472 249.869C909.472 252.307 907.49 253.561 904.71 253.561H900.381V241.963H901.361V246.201ZM911.614 253.561V241.963H912.594V253.561H911.614ZM901.361 252.695H904.642C906.875 252.695 908.493 251.806 908.493 249.869C908.493 247.933 906.875 247.044 904.642 247.044H901.361V252.695Z" fill="#FF66E7"/>
<path d="M800.893 268.518L802.123 268.496L793.966 276.242L802.123 284.673H800.87L792.895 276.425C792.941 278.977 792.941 281.392 792.941 284.673H791.938V268.496H792.941C792.941 271.549 792.941 273.736 792.895 276.015L800.893 268.518ZM803.205 284.696V283.807C804.23 283.716 805.62 283.237 805.62 280.594V273.075H814.255V284.673H813.276V273.941H806.554V280.663C806.554 283.807 804.686 284.65 803.205 284.696ZM828.135 276.356L828.249 273.075H829.137V284.673H828.135V281.369C827.315 283.442 825.469 284.901 822.849 284.901C819.317 284.901 816.879 282.303 816.879 278.84C816.879 275.377 819.34 272.847 822.894 272.847C825.378 272.847 827.223 274.192 828.135 276.288V276.356ZM823.008 284.012C826.016 284.012 828.135 281.711 828.135 278.863C828.135 276.015 826.016 273.736 823.008 273.736C820.023 273.736 817.859 275.878 817.859 278.863C817.859 281.848 820.023 284.012 823.008 284.012ZM837.848 284.901C834.408 284.901 831.765 282.258 831.765 278.863C831.765 275.445 834.408 272.847 837.848 272.847C839.375 272.847 840.719 273.372 841.768 274.442L841.745 275.491C840.788 274.488 839.557 273.736 837.917 273.736C835.023 273.736 832.767 275.969 832.767 278.863C832.767 281.756 835.023 284.012 837.917 284.012C839.557 284.012 840.788 283.237 841.745 282.258L841.768 283.306C840.719 284.354 839.375 284.901 837.848 284.901ZM849.864 284.901C846.423 284.901 843.78 282.258 843.78 278.863C843.78 275.445 846.423 272.847 849.864 272.847C851.391 272.847 852.735 273.372 853.783 274.442L853.76 275.491C852.803 274.488 851.573 273.736 849.932 273.736C847.039 273.736 844.783 275.969 844.783 278.863C844.783 281.756 847.039 284.012 849.932 284.012C851.573 284.012 852.803 283.237 853.76 282.258L853.783 283.306C852.735 284.354 851.391 284.901 849.864 284.901ZM863.957 278.407L871.18 284.673H869.904L862.909 278.589C862.955 280.48 862.955 282.463 862.955 284.673H861.975V273.075H862.955C862.955 275.08 862.955 276.653 862.909 278.179L869.904 273.075H871.157L863.957 278.407ZM871.671 284.696V283.807C872.696 283.716 874.086 283.237 874.086 280.594V273.075H882.722V284.673H881.742V273.941H875.02V280.663C875.02 283.807 873.152 284.65 871.671 284.696ZM891.178 272.847C894.71 272.847 897.034 275.513 897.011 279.091H886.325C886.416 282.121 888.558 284.058 891.338 284.058C893.73 284.058 895.143 282.668 895.712 281.369L896.601 281.506C895.986 283.26 894.095 284.901 891.338 284.901C887.943 284.901 885.345 282.508 885.345 278.817C885.345 275.513 887.806 272.847 891.178 272.847ZM891.178 273.668C888.467 273.668 886.462 275.718 886.325 278.293H895.986C895.895 275.764 894.003 273.668 891.178 273.668ZM903.065 284.673H902.085V273.941H897.961V273.075H907.166V273.941H903.065V284.673ZM913.703 284.901C910.262 284.901 907.596 282.258 907.596 278.863C907.596 275.445 910.262 272.847 913.703 272.847C917.12 272.847 919.786 275.445 919.786 278.863C919.786 282.258 917.12 284.901 913.703 284.901ZM913.703 284.012C916.573 284.012 918.806 281.734 918.806 278.84C918.806 275.969 916.573 273.736 913.703 273.736C910.809 273.736 908.553 275.969 908.553 278.84C908.553 281.734 910.809 284.012 913.703 284.012ZM924.369 278.407L931.591 284.673H930.315L923.32 278.589C923.366 280.48 923.366 282.463 923.366 284.673H922.386V273.075H923.366C923.366 275.08 923.366 276.653 923.32 278.179L930.315 273.075H931.569L924.369 278.407Z" fill="#FF66E7"/>
<path d="M800.182 299.631L801.412 299.608L793.255 307.355L801.412 315.785H800.159L792.184 307.537C792.23 310.089 792.23 312.504 792.23 315.785H791.227V299.608H792.23C792.23 302.661 792.23 304.848 792.184 307.127L800.182 299.631ZM802.494 315.808V314.919C803.519 314.828 804.909 314.35 804.909 311.707V304.188H813.544V315.785H812.565V305.053H805.843V311.775C805.843 314.919 803.975 315.762 802.494 315.808ZM827.424 307.469L827.538 304.188H828.426V315.785H827.424V312.481C826.604 314.555 824.758 316.013 822.138 316.013C818.606 316.013 816.168 313.416 816.168 309.952C816.168 306.489 818.629 303.96 822.183 303.96C824.667 303.96 826.512 305.304 827.424 307.4V307.469ZM822.297 315.124C825.305 315.124 827.424 312.823 827.424 309.975C827.424 307.127 825.305 304.848 822.297 304.848C819.312 304.848 817.148 306.99 817.148 309.975C817.148 312.96 819.312 315.124 822.297 315.124ZM837.138 316.013C833.697 316.013 831.054 313.37 831.054 309.975C831.054 306.557 833.697 303.96 837.138 303.96C838.664 303.96 840.008 304.484 841.057 305.555L841.034 306.603C840.077 305.6 838.846 304.848 837.206 304.848C834.312 304.848 832.057 307.081 832.057 309.975C832.057 312.869 834.312 315.124 837.206 315.124C838.846 315.124 840.077 314.35 841.034 313.37L841.057 314.418C840.008 315.466 838.664 316.013 837.138 316.013ZM849.153 316.013C845.713 316.013 843.069 313.37 843.069 309.975C843.069 306.557 845.713 303.96 849.153 303.96C850.68 303.96 852.024 304.484 853.072 305.555L853.049 306.603C852.092 305.6 850.862 304.848 849.221 304.848C846.328 304.848 844.072 307.081 844.072 309.975C844.072 312.869 846.328 315.124 849.221 315.124C850.862 315.124 852.092 314.35 853.049 313.37L853.072 314.418C852.024 315.466 850.68 316.013 849.153 316.013ZM864.75 315.785H863.77V305.053H859.646V304.188H868.851V305.053H864.75V315.785ZM876.786 303.96C880.318 303.96 882.779 306.534 882.779 310.021C882.779 313.484 880.295 316.013 876.763 316.013C874.28 316.013 872.412 314.646 871.5 312.55V321.026H870.52V304.188H871.386L871.5 307.469V307.491C872.343 305.418 874.189 303.96 876.786 303.96ZM876.627 315.124C879.612 315.124 881.776 312.96 881.776 309.998C881.776 306.99 879.612 304.848 876.627 304.848C873.642 304.848 871.5 307.127 871.5 309.998C871.5 312.823 873.642 315.124 876.627 315.124ZM895.979 307.469L896.093 304.188H896.982V315.785H895.979V312.481C895.159 314.555 893.313 316.013 890.693 316.013C887.161 316.013 884.723 313.416 884.723 309.952C884.723 306.489 887.184 303.96 890.739 303.96C893.222 303.96 895.068 305.304 895.979 307.4V307.469ZM890.852 315.124C893.86 315.124 895.979 312.823 895.979 309.975C895.979 307.127 893.86 304.848 890.852 304.848C887.868 304.848 885.703 306.99 885.703 309.975C885.703 312.96 887.868 315.124 890.852 315.124ZM906.9 309.588C908.769 309.815 909.794 311.023 909.794 312.55C909.794 314.509 908.29 315.785 905.374 315.785H900.27V304.188H905.146C907.812 304.188 908.997 305.35 908.997 307.036C908.997 308.403 908.313 309.291 906.9 309.588ZM905.169 304.962H901.181V309.337H905.169C907.105 309.337 908.085 308.653 908.085 307.15C908.085 305.805 907.105 304.962 905.169 304.962ZM901.181 315.01H905.419C907.721 315.01 908.883 314.076 908.883 312.55C908.883 311 907.721 310.043 905.602 310.043H901.181V315.01ZM913.176 308.426H916.526C919.305 308.426 921.288 309.656 921.288 312.094C921.288 314.532 919.305 315.785 916.526 315.785H912.196V304.188H913.176V308.426ZM923.429 315.785V304.188H924.409V315.785H923.429ZM913.176 314.919H916.457C918.69 314.919 920.308 314.031 920.308 312.094C920.308 310.157 918.69 309.269 916.457 309.269H913.176V314.919Z" fill="#FF66E7"/>
<path d="M803.773 353.506H804.73V369.684H803.727C803.727 358.77 803.727 356.833 803.841 354.714C801.038 358.906 796.937 364.762 793.497 369.684H792.54V353.506H793.542C793.542 364.466 793.519 366.425 793.405 368.522C795.821 364.944 799.899 359.043 803.773 353.506ZM817.578 363.349V358.086H818.558V369.684H817.578V364.192H809.375V369.684H808.395V358.086H809.375V363.349H817.578ZM827.258 369.911C823.817 369.911 821.174 367.268 821.174 363.873C821.174 360.456 823.817 357.858 827.258 357.858C828.784 357.858 830.129 358.382 831.177 359.453L831.154 360.501C830.197 359.499 828.967 358.747 827.326 358.747C824.432 358.747 822.177 360.98 822.177 363.873C822.177 366.767 824.432 369.023 827.326 369.023C828.967 369.023 830.197 368.248 831.154 367.268L831.177 368.316C830.129 369.365 828.784 369.911 827.258 369.911ZM837.337 369.684H836.357V358.952H832.233V358.086H841.438V358.952H837.337V369.684ZM849.373 357.858C852.904 357.858 855.365 360.433 855.365 363.919C855.365 367.382 852.882 369.911 849.35 369.911C846.866 369.911 844.998 368.544 844.087 366.448V374.924H843.107V358.086H843.973L844.087 361.367V361.39C844.93 359.316 846.775 357.858 849.373 357.858ZM849.213 369.023C852.198 369.023 854.363 366.858 854.363 363.896C854.363 360.889 852.198 358.747 849.213 358.747C846.228 358.747 844.087 361.025 844.087 363.896C844.087 366.722 846.228 369.023 849.213 369.023ZM866.327 358.086H867.398L860.107 374.924H859.059L861.338 369.638L856.143 358.086H857.236C860.426 365.263 861.269 367.177 861.839 368.681C862.408 367.177 863.183 365.332 866.327 358.086ZM871.568 363.418L878.791 369.684H877.515L870.52 363.6C870.565 365.491 870.565 367.473 870.565 369.684H869.586V358.086H870.565C870.565 360.091 870.565 361.663 870.52 363.19L877.515 358.086H878.768L871.568 363.418ZM890.72 358.086V368.772H892.201V372.555H891.289V369.684H880.466V358.086H881.446V368.818H889.74V358.086H890.72ZM895.286 368.271L904.036 358.086H904.97V369.684H903.99V359.476L895.241 369.684H894.306V358.086H895.286V368.271ZM911.015 358.086H916.119V369.684H915.185C915.185 365.56 915.185 364.716 915.253 364.17L908.486 369.684H907.21C911.904 365.947 913.157 364.99 913.863 364.557H911.061C908.896 364.557 907.347 363.372 907.347 361.322C907.347 359.43 908.691 358.086 911.015 358.086ZM908.281 361.367C908.281 362.78 909.284 363.828 911.198 363.828H915.185V358.929H911.198C909.284 358.929 908.281 360 908.281 361.367ZM934.585 358.086V368.772H936.066V372.555H935.131V369.684H924.24V372.555H923.306V368.772H924.582C924.969 368.772 925.607 368.134 925.653 366.289L925.835 358.086H934.585ZM925.812 368.772H933.605V358.952H926.769L926.61 366.22C926.564 367.952 926.017 368.681 925.812 368.772ZM936.978 369.706V368.818C938.003 368.727 939.393 368.248 939.393 365.605V358.086H948.029V369.684H947.049V358.952H940.328V365.673C940.328 368.818 938.459 369.661 936.978 369.706ZM954.093 358.086H959.197V369.684H958.263C958.263 365.56 958.263 364.716 958.331 364.17L951.564 369.684H950.288C954.982 365.947 956.235 364.99 956.941 364.557H954.139C951.974 364.557 950.425 363.372 950.425 361.322C950.425 359.43 951.769 358.086 954.093 358.086ZM951.359 361.367C951.359 362.78 952.361 363.828 954.275 363.828H958.263V358.929H954.275C952.361 358.929 951.359 360 951.359 361.367ZM968.002 358.086H978.255V369.684H977.275V358.952H968.981V369.684H968.002V358.086ZM992.125 361.367L992.239 358.086H993.128V369.684H992.125V366.38C991.305 368.453 989.459 369.911 986.839 369.911C983.307 369.911 980.869 367.314 980.869 363.851C980.869 360.387 983.33 357.858 986.885 357.858C989.368 357.858 991.214 359.203 992.125 361.299V361.367ZM986.998 369.023C990.006 369.023 992.125 366.722 992.125 363.873C992.125 361.025 990.006 358.747 986.998 358.747C984.014 358.747 981.849 360.889 981.849 363.873C981.849 366.858 984.014 369.023 986.998 369.023ZM998.398 363.418L1005.62 369.684H1004.35L997.35 363.6C997.396 365.491 997.396 367.473 997.396 369.684H996.416V358.086H997.396C997.396 360.091 997.396 361.663 997.35 363.19L1004.35 358.086H1005.6L998.398 363.418ZM1011.71 357.858C1015.24 357.858 1017.57 360.524 1017.55 364.101H1006.86C1006.95 367.132 1009.09 369.068 1011.87 369.068C1014.26 369.068 1015.68 367.679 1016.25 366.38L1017.14 366.516C1016.52 368.271 1014.63 369.911 1011.87 369.911C1008.48 369.911 1005.88 367.519 1005.88 363.828C1005.88 360.524 1008.34 357.858 1011.71 357.858ZM1011.71 358.678C1009 358.678 1007 360.729 1006.86 363.304H1016.52C1016.43 360.775 1014.54 358.678 1011.71 358.678ZM1023.6 369.684H1022.62V358.952H1018.5V358.086H1027.7V358.952H1023.6V369.684ZM1039.39 361.367L1039.5 358.086H1040.39V369.684H1039.39V366.38C1038.57 368.453 1036.72 369.911 1034.1 369.911C1030.57 369.911 1028.13 367.314 1028.13 363.851C1028.13 360.387 1030.59 357.858 1034.15 357.858C1036.63 357.858 1038.47 359.203 1039.39 361.299V361.367ZM1034.26 369.023C1037.27 369.023 1039.39 366.722 1039.39 363.873C1039.39 361.025 1037.27 358.747 1034.26 358.747C1031.27 358.747 1029.11 360.889 1029.11 363.873C1029.11 366.858 1031.27 369.023 1034.26 369.023Z" fill="black"/>
</g>
<defs>
<clipPath id="clip0_280_2390">
<rect width="1528.44" height="764.221" fill="white"/>
</clipPath>
</defs>
</svg>
