<svg width="1530" height="765" viewBox="0 0 1530 765" fill="none" xmlns="http://www.w3.org/2000/svg">
<g clip-path="url(#clip0_280_2931)">
<rect width="1528.44" height="764.221" transform="translate(0.589844 0.355469)" fill="white"/>
<rect x="-27.0156" y="-23.3066" width="1590.23" height="802.783" fill="#FF66E7"/>
<path d="M1120.19 84.4902V382.028" stroke="white" stroke-opacity="0.3" stroke-width="1.3086"/>
<path d="M18.9961 -7.53223V778.281" stroke="white" stroke-opacity="0.3" stroke-width="1.3086"/>
<path d="M1510.62 -0.0830078V785.73" stroke="white" stroke-opacity="0.3" stroke-width="1.3086"/>
<path d="M1419.11 -8.86426V776.949" stroke="white" stroke-opacity="0.3" stroke-width="1.3086"/>
<path d="M100.934 2.98438V788.797" stroke="white" stroke-opacity="0.3" stroke-width="1.3086"/>
<path d="M790.984 -23.1992V790.749" stroke="white" stroke-opacity="0.3" stroke-width="1.3086"/>
<path d="M1502.1 384.388H1496.09V383.251H1498.45V375.636L1496.26 376.37V375.19L1499.74 374.168V383.251H1502.1V384.388ZM1505.79 374.024C1507.95 374.024 1509.42 375.564 1509.42 377.521C1509.42 378.14 1509.25 378.947 1508.67 379.868L1505.88 384.402L1504.45 384.388L1506.73 380.703C1506.37 380.875 1505.95 380.962 1505.46 380.962C1503.59 380.962 1502.18 379.551 1502.18 377.579C1502.18 375.564 1503.65 374.024 1505.79 374.024ZM1505.79 379.94C1507.17 379.94 1508.14 378.961 1508.14 377.579C1508.14 376.212 1507.14 375.218 1505.79 375.218C1504.44 375.218 1503.46 376.212 1503.46 377.579C1503.46 378.947 1504.44 379.94 1505.79 379.94Z" fill="white"/>
<path d="M25.3729 384.388H19.356V383.251H21.7167V375.636L19.5287 376.37V375.19L23.0122 374.168V383.251H25.3729V384.388ZM31.4197 378.918C32.5281 379.393 33.1471 380.343 33.1471 381.466C33.1471 383.265 31.6501 384.532 29.5916 384.532C27.5188 384.532 26.0362 383.265 26.0362 381.466C26.0362 380.328 26.6551 379.393 27.7635 378.918C26.9574 378.457 26.4824 377.709 26.4824 376.744C26.4824 375.06 27.9075 374.024 29.5916 374.024C31.2758 374.024 32.7009 375.06 32.7009 376.744C32.7009 377.723 32.2258 378.486 31.4197 378.918ZM29.5916 375.089C28.6704 375.089 27.7203 375.665 27.7203 376.759C27.7203 377.853 28.6704 378.443 29.5916 378.443C30.5273 378.443 31.4917 377.853 31.4917 376.759C31.4917 375.665 30.5273 375.089 29.5916 375.089ZM29.5916 383.394C30.8871 383.394 31.8804 382.603 31.8804 381.422C31.8804 380.242 30.8871 379.45 29.5916 379.45C28.3105 379.45 27.3173 380.242 27.3173 381.422C27.3173 382.603 28.3105 383.394 29.5916 383.394Z" fill="white"/>
<path d="M-27.0156 78.7939L1529.03 86.2433" stroke="white" stroke-opacity="0.3" stroke-width="1.3146"/>
<path d="M101.156 384.657H1420.14" stroke="white" stroke-opacity="0.3" stroke-width="1.3146"/>
<path d="M-36.2227 670.803L1529.03 678.252" stroke="white" stroke-opacity="0.3" stroke-width="1.3146"/>
<path d="M201.452 183.598C187.725 183.598 176.599 180.708 169.23 172.183L136.575 134.76V133.459L185.702 83.3207L167.496 84.3321L168.941 79.5639H207.954L206.509 83.6097C194.661 83.7542 188.592 86.2105 181.368 93.5796L146.545 129.269L180.501 167.849C187.436 175.507 192.782 178.397 202.174 182.731L201.452 183.598ZM101.319 182.153L102.764 178.108L111 177.963C113.89 177.819 115.624 176.085 115.624 173.05V83.3207L101.319 84.3321L102.764 79.5639H142.355L140.91 83.6097L132.818 83.7542C129.784 83.8987 128.05 85.7771 128.05 89.1004V178.397L142.355 177.385L140.91 182.153H101.319ZM220.564 183.598C215.074 183.598 212.039 178.397 212.039 172.761C234.147 166.115 239.348 146.319 239.348 114.82V83.6097L218.831 84.3321L220.275 79.5639H309.861L308.416 83.6097L300.18 83.7542C297.145 83.8987 295.411 85.7771 295.411 89.1004V178.397L309.716 177.385L308.271 182.153H268.825L270.27 178.108L278.361 177.963C281.54 177.819 282.985 176.229 282.985 173.05V83.6097H243.683V113.086C243.683 148.342 240.504 171.75 220.564 183.598ZM384.18 182.153L385.625 178.108L390.827 177.963C397.185 177.819 400.797 176.374 398.052 170.449L389.382 151.954H343.723L332.452 178.397L350.225 177.385L348.78 182.153H315.836L317.28 178.108L323.494 177.963C327.828 177.819 329.851 173.628 332.597 166.982L362.94 95.458C358.605 87.3665 354.27 83.7542 343.578 82.1648L344.301 79.5639H368.72L415.102 178.397L424.638 177.385L423.193 182.153H384.18ZM345.312 147.909H387.504L365.541 100.66C365.541 100.66 365.541 100.515 365.396 100.515L345.312 147.909ZM475.9 183.598C444.401 183.598 423.305 161.346 423.305 134.182C423.305 99.0703 447.002 78.119 477.779 78.119C490.205 78.119 501.186 81.4423 509.567 85.6326L511.879 112.508H509.711C500.753 91.7012 490.06 82.8872 473.155 82.8872C454.66 82.8872 437.754 100.371 437.754 129.847C437.754 157.879 454.515 178.83 477.634 178.83C493.962 178.83 503.643 169.727 512.746 147.764H514.913L508.555 177.53C500.319 181.142 490.494 183.598 475.9 183.598ZM579.189 183.598C547.69 183.598 526.594 161.346 526.594 134.182C526.594 99.0703 550.291 78.119 581.068 78.119C593.494 78.119 604.476 81.4423 612.856 85.6326L615.168 112.508H613.001C604.042 91.7012 593.35 82.8872 576.444 82.8872C557.949 82.8872 541.043 100.371 541.043 129.847C541.043 157.879 557.805 178.83 580.923 178.83C597.251 178.83 606.932 169.727 616.035 147.764H618.202L611.845 177.53C603.609 181.142 593.783 183.598 579.189 183.598Z" fill="white"/>
<path d="M891.617 676.573C877.89 676.573 866.764 673.683 859.395 665.158L826.74 627.734V626.433L875.868 576.294L857.661 577.305L859.106 572.537H898.12L896.675 576.583C884.826 576.727 878.757 579.184 871.533 586.553L836.71 622.243L870.666 660.823C877.601 668.481 882.948 671.371 892.34 675.706L891.617 676.573ZM791.483 675.128L792.928 671.082L801.164 670.938C804.054 670.793 805.788 669.059 805.788 666.025V576.294L791.483 577.305L792.928 572.537H832.519L831.074 576.583L822.983 576.727C819.948 576.872 818.214 578.75 818.214 582.074V671.371L832.519 670.36L831.074 675.128H791.483ZM944.638 676.573C916.606 676.573 893.487 654.61 893.487 624.988C893.487 594.211 915.45 571.092 944.638 571.092C972.67 571.092 995.789 593.055 995.789 622.677C995.789 653.454 973.825 676.573 944.638 676.573ZM907.792 620.943C907.792 649.263 924.12 671.66 947.817 671.66C967.468 671.66 981.484 652.153 981.484 626.722C981.484 598.402 965.156 576.005 941.459 576.005C921.808 576.005 907.792 595.512 907.792 620.943ZM1004.56 675.128L1006 671.082L1014.24 670.938C1017.13 670.793 1018.86 669.059 1018.86 666.025V576.294L1004.56 577.305L1006 572.537H1050.22C1073.05 572.537 1087.93 583.952 1087.93 601.725C1087.93 620.798 1070.16 631.78 1051.37 631.78H1031.29V671.371L1048.48 670.36L1047.04 675.128H1004.56ZM1031.29 627.734H1048.77C1063.36 627.734 1073.48 617.475 1073.48 603.314C1073.48 586.409 1063.36 576.583 1047.04 576.583H1031.29V627.734ZM1092.75 675.128L1094.19 671.082L1102.14 670.938C1106.47 670.793 1107.05 668.337 1107.05 662.557V576.294L1092.75 577.305L1094.19 572.537H1133.78L1132.34 576.583L1124.25 576.727C1121.21 576.872 1119.48 578.75 1119.48 582.074V616.608H1137.25C1160.52 616.608 1174.96 627.156 1174.96 644.062C1174.96 663.135 1161.09 675.128 1138.99 675.128H1092.75ZM1119.48 671.082H1136.67C1151.27 671.082 1160.52 659.956 1160.52 645.94C1160.52 631.057 1150.55 620.654 1134.51 620.654H1119.48V671.082ZM1177.71 675.128L1179.15 671.082L1187.39 670.938C1190.43 670.793 1192.01 669.204 1192.01 666.025V576.294L1177.71 577.305L1179.15 572.537H1218.75L1217.3 576.583L1209.21 576.727C1206.18 576.872 1204.44 578.75 1204.44 582.074V671.371L1218.75 670.36L1217.3 675.128H1177.71Z" fill="white"/>
<path d="M1127.05 97.9084C1123.54 97.9084 1120.91 95.2222 1120.91 91.6635C1120.91 88.1048 1123.54 85.4186 1127.05 85.4186C1130.54 85.4186 1133.17 88.1048 1133.17 91.6635C1133.17 95.2222 1130.54 97.9084 1127.05 97.9084ZM1127.05 96.4883C1129.68 96.4883 1131.65 94.3326 1131.65 91.6635C1131.65 88.9944 1129.68 86.8387 1127.05 86.8387C1124.4 86.8387 1122.43 88.9944 1122.43 91.6635C1122.43 94.3326 1124.4 96.4883 1127.05 96.4883ZM1139.45 89.0629C1141.96 89.0629 1143.79 90.8422 1143.79 93.4429C1143.79 96.0435 1141.9 97.9084 1139.23 97.9084C1136.81 97.9084 1134.62 96.3172 1134.62 93.0836V91.4753C1134.62 88.0877 1136.23 86.2227 1138.94 85.6752L1142.75 84.8882V86.1714L1139.28 86.89C1137.48 87.2664 1136.16 88.2245 1136.06 91.0647C1136.75 89.6275 1138.11 89.0629 1139.45 89.0629ZM1139.24 96.5568C1141.04 96.5568 1142.32 95.2565 1142.32 93.4258C1142.32 91.6122 1141.04 90.329 1139.24 90.329C1137.41 90.329 1136.11 91.6122 1136.11 93.4258C1136.11 95.2565 1137.41 96.5568 1139.24 96.5568ZM1157.81 88.926V96.3515H1159.01V99.7391H1157.64V97.7373H1145.38V88.926H1146.85V96.4028H1150.85V88.926H1152.34V96.4028H1156.34V88.926H1157.81ZM1161.83 95.6671L1167.33 88.926H1168.71V97.7373H1167.22V91.0818L1161.73 97.7373H1160.36V88.926H1161.83V95.6671ZM1175.1 88.0021C1173.75 88.0021 1172.48 87.2835 1172.48 85.6068H1173.66C1173.66 86.3767 1174.14 86.9927 1175.1 86.9927C1176.07 86.9927 1176.54 86.3767 1176.54 85.6068H1177.72C1177.72 87.2835 1176.45 88.0021 1175.1 88.0021ZM1172.38 95.6671L1177.87 88.926H1179.26V97.7373H1177.77V91.0818L1172.27 97.7373H1170.91V88.926H1172.38V95.6671ZM1185.33 88.926H1193.35V97.7373H1191.86V90.2605H1186.8V97.7373H1185.33V88.926ZM1194.78 97.7715V96.437C1195.5 96.4028 1196.36 96.0264 1196.36 94.401V88.926H1203.28V97.7373H1201.81V90.2605H1197.79V94.4352C1197.79 96.8476 1196.37 97.7886 1194.78 97.7715ZM1213 90.9278L1213.23 88.926H1214.51V97.7373H1213V95.6671C1212.46 97.0187 1211.16 97.9084 1209.41 97.9084C1206.74 97.9084 1205 95.8895 1205 93.306C1205 90.6883 1206.78 88.7378 1209.5 88.7378C1211.02 88.7378 1212.32 89.5419 1213 90.8422V90.9278ZM1209.77 96.5739C1211.65 96.5739 1212.99 95.1538 1212.99 93.3231C1212.99 91.5095 1211.65 90.0894 1209.77 90.0894C1207.87 90.0894 1206.52 91.4411 1206.52 93.3231C1206.52 95.2222 1207.87 96.5739 1209.77 96.5739ZM1223.29 92.6729V88.926H1224.78V97.7373H1223.29V93.9733H1218.18V97.7373H1216.7V88.926H1218.18V92.6729H1223.29Z" fill="white"/>
<path d="M1128.25 125.044L1130.06 125.027L1124.6 130.896L1130.03 137.175H1128.16L1122.99 131.152C1123.06 132.709 1123.06 134.061 1123.06 137.175H1121.54V125.027H1123.06C1123.06 128.021 1123.06 129.219 1122.99 130.588L1128.25 125.044ZM1135.08 137.346C1132.4 137.346 1130.38 135.378 1130.38 132.761C1130.38 130.143 1132.4 128.175 1135.08 128.175C1137.75 128.175 1139.77 130.143 1139.77 132.761C1139.77 135.378 1137.75 137.346 1135.08 137.346ZM1135.08 135.994C1136.91 135.994 1138.32 134.591 1138.32 132.743C1138.32 130.913 1136.91 129.527 1135.08 129.527C1133.25 129.527 1131.83 130.913 1131.83 132.743C1131.83 134.591 1133.25 135.994 1135.08 135.994ZM1140.73 137.209V135.874C1141.45 135.84 1142.3 135.464 1142.3 133.838V128.364H1149.23V137.175H1147.76V129.698H1143.74V133.873C1143.74 136.285 1142.32 137.226 1140.73 137.209ZM1155.89 128.5C1158.4 128.5 1160.24 130.28 1160.24 132.88C1160.24 135.481 1158.34 137.346 1155.67 137.346C1153.25 137.346 1151.07 135.755 1151.07 132.521V130.913C1151.07 127.525 1152.67 125.66 1155.38 125.113L1159.19 124.326V125.609L1155.72 126.327C1153.92 126.704 1152.6 127.662 1152.5 130.502C1153.19 129.065 1154.56 128.5 1155.89 128.5ZM1155.68 135.994C1157.48 135.994 1158.76 134.694 1158.76 132.863C1158.76 131.05 1157.48 129.766 1155.68 129.766C1153.85 129.766 1152.55 131.05 1152.55 132.863C1152.55 134.694 1153.85 135.994 1155.68 135.994ZM1163.29 131.272H1165.63C1167.72 131.272 1169.17 132.35 1169.17 134.232C1169.17 136.097 1167.72 137.175 1165.63 137.175H1161.82V128.364H1163.29V131.272ZM1170.59 137.175V128.364H1172.08V137.175H1170.59ZM1163.29 135.909H1165.5C1166.78 135.909 1167.7 135.344 1167.7 134.215C1167.7 133.086 1166.78 132.538 1165.5 132.538H1163.29V135.909ZM1185.99 128.364V135.789H1187.17V139.177H1185.81V137.175H1178.48V139.177H1177.11V135.789H1178.19C1178.5 135.789 1178.86 135.344 1178.88 134.129L1179.01 128.364H1185.99ZM1179.82 135.789H1184.52V129.698H1180.42L1180.31 134.044C1180.28 135.173 1179.99 135.686 1179.82 135.789ZM1187.78 137.209V135.874C1188.5 135.84 1189.35 135.464 1189.35 133.838V128.364H1196.28V137.175H1194.81V129.698H1190.79V133.873C1190.79 136.285 1189.37 137.226 1187.78 137.209ZM1200.97 128.364H1205.04V137.175H1203.62C1203.62 134.198 1203.62 133.428 1203.73 133.171H1203.69L1199.54 137.175H1197.74C1200.36 134.78 1201.3 133.958 1201.85 133.633H1200.8C1199.4 133.633 1197.89 132.846 1197.89 130.981C1197.89 129.373 1199.06 128.364 1200.97 128.364ZM1199.31 131.118C1199.31 131.991 1199.95 132.59 1201.11 132.59H1203.62V129.647H1201.11C1199.95 129.647 1199.31 130.246 1199.31 131.118ZM1218.96 128.364V135.789H1220.14V139.177H1218.77V137.175H1211.45V139.177H1210.08V135.789H1211.16C1211.47 135.789 1211.82 135.344 1211.84 134.129L1211.98 128.364H1218.96ZM1212.78 135.789H1217.49V129.698H1213.38L1213.28 134.044C1213.25 135.173 1212.95 135.686 1212.78 135.789ZM1225.5 128.175C1228.19 128.175 1230.05 130.109 1230 133.223H1222.51C1222.61 134.951 1223.95 136.097 1225.66 136.097C1227.11 136.097 1228.03 135.293 1228.43 134.454L1229.75 134.608C1229.28 136.097 1227.73 137.346 1225.64 137.346C1222.99 137.346 1221.02 135.532 1221.02 132.761C1221.02 130.177 1222.9 128.175 1225.5 128.175ZM1225.5 129.407C1223.88 129.407 1222.63 130.536 1222.51 132.076H1228.45C1228.39 130.571 1227.21 129.407 1225.5 129.407ZM1236.79 128.192C1239.48 128.192 1241.2 130.211 1241.2 132.795C1241.2 135.413 1239.42 137.346 1236.72 137.346C1235.18 137.346 1233.88 136.559 1233.2 135.241V141.11H1231.71V128.364H1232.97L1233.2 130.382V130.417C1233.74 129.082 1235.04 128.192 1236.79 128.192ZM1236.43 136.011C1238.33 136.011 1239.7 134.66 1239.7 132.778C1239.7 130.879 1238.33 129.527 1236.43 129.527C1234.55 129.527 1233.21 130.947 1233.21 132.778C1233.21 134.591 1234.55 136.011 1236.43 136.011ZM1246.92 128.175C1249.61 128.175 1251.47 130.109 1251.42 133.223H1243.93C1244.03 134.951 1245.37 136.097 1247.08 136.097C1248.53 136.097 1249.45 135.293 1249.85 134.454L1251.17 134.608C1250.7 136.097 1249.15 137.346 1247.06 137.346C1244.41 137.346 1242.44 135.532 1242.44 132.761C1242.44 130.177 1244.32 128.175 1246.92 128.175ZM1246.92 129.407C1245.3 129.407 1244.05 130.536 1243.93 132.076H1249.87C1249.81 130.571 1248.63 129.407 1246.92 129.407ZM1258.53 132.436C1259.78 132.572 1260.59 133.445 1260.59 134.608C1260.59 136.097 1259.41 137.175 1257.13 137.175H1253.13V128.381H1256.93C1258.94 128.381 1260.01 129.202 1260.01 130.553C1260.01 131.683 1259.39 132.264 1258.53 132.436ZM1256.98 129.527H1254.46V132.093H1256.98C1258.06 132.093 1258.67 131.683 1258.67 130.81C1258.67 129.989 1258.06 129.527 1256.98 129.527ZM1254.46 136.028H1257.25C1258.53 136.028 1259.24 135.464 1259.24 134.574C1259.24 133.667 1258.53 133.103 1257.32 133.103H1254.46V136.028ZM1263.61 131.272H1265.95C1268.04 131.272 1269.49 132.35 1269.49 134.232C1269.49 136.097 1268.04 137.175 1265.95 137.175H1262.13V128.364H1263.61V131.272ZM1263.61 135.909H1265.81C1267.1 135.909 1268.02 135.344 1268.02 134.215C1268.02 133.086 1267.1 132.538 1265.81 132.538H1263.61V135.909ZM1274.91 128.175C1277.6 128.175 1279.46 130.109 1279.41 133.223H1271.91C1272.02 134.951 1273.35 136.097 1275.06 136.097C1276.52 136.097 1277.44 135.293 1277.83 134.454L1279.15 134.608C1278.69 136.097 1277.13 137.346 1275.05 137.346C1272.39 137.346 1270.43 135.532 1270.43 132.761C1270.43 130.177 1272.31 128.175 1274.91 128.175ZM1274.91 129.407C1273.28 129.407 1272.03 130.536 1271.91 132.076H1277.85C1277.8 130.571 1276.62 129.407 1274.91 129.407ZM1286.52 132.436C1287.77 132.572 1288.57 133.445 1288.57 134.608C1288.57 136.097 1287.39 137.175 1285.12 137.175H1281.11V128.381H1284.91C1286.93 128.381 1287.99 129.202 1287.99 130.553C1287.99 131.683 1287.38 132.264 1286.52 132.436ZM1284.96 129.527H1282.45V132.093H1284.96C1286.04 132.093 1286.66 131.683 1286.66 130.81C1286.66 129.989 1286.04 129.527 1284.96 129.527ZM1282.45 136.028H1285.24C1286.52 136.028 1287.22 135.464 1287.22 134.574C1287.22 133.667 1286.52 133.103 1285.31 133.103H1282.45V136.028Z" fill="white"/>
<path d="M1128.5 111.023C1129.85 111.399 1130.83 112.392 1130.83 113.983C1130.83 116.019 1129.12 117.627 1126.12 117.627C1122.92 117.627 1121.19 115.933 1121.19 113.555H1122.68C1122.68 115.283 1124.24 116.258 1126.12 116.258C1128.11 116.258 1129.29 115.232 1129.29 113.949C1129.29 112.409 1127.75 111.861 1125.93 111.861H1124.84V110.544H1125.97C1127.9 110.51 1128.76 109.62 1128.76 108.508C1128.76 107.31 1127.61 106.506 1125.97 106.506C1124.19 106.506 1122.9 107.584 1122.9 109.124H1121.42C1121.42 106.848 1123.13 105.137 1126.04 105.137C1128.58 105.137 1130.28 106.369 1130.28 108.405C1130.28 109.654 1129.66 110.612 1128.5 111.023ZM1140.08 110.647L1140.3 108.645H1141.58V117.456H1140.08V115.386C1139.53 116.737 1138.23 117.627 1136.49 117.627C1133.82 117.627 1132.07 115.608 1132.07 113.025C1132.07 110.407 1133.85 108.457 1136.57 108.457C1138.09 108.457 1139.39 109.261 1140.08 110.561V110.647ZM1136.85 116.293C1138.73 116.293 1140.06 114.873 1140.06 113.042C1140.06 111.228 1138.73 109.808 1136.85 109.808C1134.95 109.808 1133.59 111.16 1133.59 113.042C1133.59 114.941 1134.95 116.293 1136.85 116.293ZM1148.33 113.025L1151.5 108.645H1152.9V117.456H1151.41C1151.41 114.086 1151.44 112.375 1151.61 110.321C1150.81 111.759 1149.97 113.025 1148.33 115.112C1146.74 113.093 1145.92 111.844 1145.06 110.373C1145.23 112.375 1145.25 114.086 1145.25 117.456H1143.78V108.645H1145.16L1148.33 113.025ZM1159.09 108.457C1161.78 108.457 1163.65 110.39 1163.59 113.504H1156.1C1156.2 115.232 1157.54 116.378 1159.25 116.378C1160.7 116.378 1161.63 115.574 1162.02 114.736L1163.34 114.89C1162.88 116.378 1161.32 117.627 1159.23 117.627C1156.58 117.627 1154.61 115.814 1154.61 113.042C1154.61 110.458 1156.49 108.457 1159.09 108.457ZM1159.09 109.688C1157.47 109.688 1156.22 110.818 1156.1 112.357H1162.04C1161.99 110.852 1160.8 109.688 1159.09 109.688ZM1168.5 117.456H1167.01V109.979H1164.19V108.645H1171.31V109.979H1168.5V117.456ZM1175.36 112.717L1180.13 117.456H1178.34L1173.85 113.008C1173.94 114.222 1173.96 115.591 1173.96 117.456H1172.47V108.645H1173.96C1173.96 110.493 1173.96 111.519 1173.87 112.426L1178.32 108.645H1180.11L1175.36 112.717ZM1188.1 110.647L1188.32 108.645H1189.6V117.456H1188.1V115.386C1187.55 116.737 1186.25 117.627 1184.51 117.627C1181.84 117.627 1180.09 115.608 1180.09 113.025C1180.09 110.407 1181.87 108.457 1184.59 108.457C1186.11 108.457 1187.41 109.261 1188.1 110.561V110.647ZM1184.87 116.293C1186.75 116.293 1188.08 114.873 1188.08 113.042C1188.08 111.228 1186.75 109.808 1184.87 109.808C1182.97 109.808 1181.61 111.16 1181.61 113.042C1181.61 114.941 1182.97 116.293 1184.87 116.293ZM1199.17 105.308V106.626C1198.29 106.626 1197.11 107.088 1197.11 108.662V116.669C1197.11 118.26 1198.29 118.722 1199.17 118.722V120.022C1197.06 120.022 1195.66 119.013 1195.66 116.549V108.782C1195.66 106.335 1197.06 105.308 1199.17 105.308ZM1207.07 117.456H1199.92V116.104H1202.73V107.054L1200.13 107.926V106.523L1204.27 105.308V116.104H1207.07V117.456ZM1212.26 117.627C1209.59 117.627 1207.96 115.745 1207.96 113.641H1209.49C1209.52 115.078 1210.6 116.241 1212.26 116.241C1213.76 116.241 1215.06 115.095 1215.06 113.418C1215.06 111.588 1213.8 110.578 1212.29 110.578C1211.25 110.578 1210 111.074 1209.61 112.255H1208.1L1209.16 105.308H1215.73V106.66H1210.39L1209.81 110.339C1210.49 109.586 1211.57 109.261 1212.58 109.261C1214.84 109.261 1216.59 110.852 1216.59 113.367C1216.59 115.711 1214.79 117.627 1212.26 117.627ZM1219.44 117.627C1218.93 117.627 1218.52 117.234 1218.52 116.703C1218.52 116.207 1218.93 115.796 1219.44 115.796C1219.94 115.796 1220.35 116.207 1220.35 116.703C1220.35 117.234 1219.94 117.627 1219.44 117.627ZM1226.02 117.627C1223.66 117.627 1221.55 115.985 1221.55 113.316V109.449C1221.55 106.78 1223.66 105.137 1226.02 105.137C1228.36 105.137 1230.48 106.78 1230.48 109.449V113.316C1230.48 115.985 1228.36 117.627 1226.02 117.627ZM1226.02 116.207C1227.63 116.207 1228.96 115.009 1228.96 113.316V109.449C1228.96 107.755 1227.63 106.557 1226.02 106.557C1224.39 106.557 1223.07 107.755 1223.07 109.449V113.316C1223.07 115.009 1224.39 116.207 1226.02 116.207ZM1238.51 111.074C1239.62 111.502 1240.47 112.426 1240.47 114.034C1240.47 115.865 1239.04 117.627 1236.33 117.627C1233.65 117.627 1231.9 115.865 1231.9 113.555H1233.39C1233.39 115.249 1234.69 116.241 1236.26 116.241C1237.96 116.241 1238.95 115.215 1238.95 113.949C1238.95 112.409 1237.6 111.861 1236.11 111.861H1235.14V110.544H1236.15C1237.65 110.51 1238.47 109.62 1238.47 108.508C1238.47 107.327 1237.53 106.523 1236.13 106.523C1234.62 106.523 1233.56 107.601 1233.56 109.124H1232.07C1232.07 106.934 1233.6 105.137 1236.21 105.137C1238.49 105.137 1239.99 106.489 1239.99 108.405C1239.99 109.637 1239.4 110.544 1238.51 111.074ZM1243.37 117.627C1242.86 117.627 1242.45 117.234 1242.45 116.703C1242.45 116.207 1242.86 115.796 1243.37 115.796C1243.87 115.796 1244.28 116.207 1244.28 116.703C1244.28 117.234 1243.87 117.627 1243.37 117.627ZM1252.74 111.074C1253.85 111.502 1254.71 112.426 1254.71 114.034C1254.71 115.865 1253.27 117.627 1250.57 117.627C1247.88 117.627 1246.14 115.865 1246.14 113.555H1247.63C1247.63 115.249 1248.93 116.241 1250.5 116.241C1252.19 116.241 1253.19 115.215 1253.19 113.949C1253.19 112.409 1251.83 111.861 1250.35 111.861H1249.37V110.544H1250.38C1251.89 110.51 1252.71 109.62 1252.71 108.508C1252.71 107.327 1251.77 106.523 1250.36 106.523C1248.86 106.523 1247.8 107.601 1247.8 109.124H1246.31C1246.31 106.934 1247.83 105.137 1250.45 105.137C1252.72 105.137 1254.23 106.489 1254.23 108.405C1254.23 109.637 1253.63 110.544 1252.74 111.074ZM1255.55 106.66V105.308H1263.61V106.472L1259.11 117.456H1257.5L1261.99 106.66H1255.55ZM1264.23 120.022V118.705C1265.1 118.705 1266.28 118.243 1266.28 116.669V108.662C1266.28 107.071 1265.1 106.609 1264.23 106.609V105.308C1266.33 105.308 1267.72 106.318 1267.72 108.782V116.549C1267.72 118.996 1266.33 120.022 1264.23 120.022Z" fill="white"/>
</g>
<defs>
<clipPath id="clip0_280_2931">
<rect width="1528.44" height="764.221" fill="white" transform="translate(0.589844 0.355469)"/>
</clipPath>
</defs>
</svg>
