<svg width="1530" height="765" viewBox="0 0 1530 765" fill="none" xmlns="http://www.w3.org/2000/svg">
<g clip-path="url(#clip0_280_2643)">
<rect width="1528.44" height="764.221" transform="translate(0.757812 0.711914)" fill="white"/>
<g filter="url(#filter0_f_280_2643)">
<path d="M48.0394 92.1783C38.2407 92.1783 27.0181 87.2371 27.0181 79.4483C27.0181 76.517 29.4469 74.7583 32.3782 74.7583C36.8169 83.8033 41.2557 89.4146 49.212 89.4146C56.917 89.4146 61.1882 84.0545 61.1882 76.2658C61.1882 66.5507 53.6507 61.6932 41.6744 61.6932L40.9207 59.432C50.552 59.432 58.8432 52.6482 58.8432 44.3569C58.8432 39.3319 56.0795 33.8044 47.2857 33.8044C40.2507 33.8044 35.3094 39.4994 31.8756 50.3032H30.6194L32.2106 33.6369C35.9794 32.2131 41.2557 31.0406 46.9507 31.0406C58.257 31.0406 66.1295 36.4006 66.1295 44.4407C66.1295 51.0569 60.5182 56.5845 52.9807 59.432C62.6957 60.1857 68.8933 64.8757 68.8933 73.837C68.8933 84.9758 60.5182 92.1783 48.0394 92.1783ZM110.501 91.3408L111.338 88.9958L114.353 88.9121C118.038 88.8283 120.132 87.9908 118.541 84.557L113.516 73.837H87.0507L80.5182 89.1633L90.8195 88.5771L89.982 91.3408H70.8869L71.7244 88.9958L75.3257 88.9121C77.8382 88.8283 79.0107 86.3996 80.6019 82.547L98.1895 41.0907C95.677 36.4006 93.1645 34.3069 86.967 33.3856L87.3857 31.8781H101.54L128.423 89.1633L133.951 88.5771L133.113 91.3408H110.501ZM87.972 71.492H112.427L99.697 44.1057C99.697 44.1057 99.697 44.0219 99.6133 44.0219L87.972 71.492ZM151.852 43.6032L150.847 41.5932L149.088 89.1633L157.463 88.5771L156.626 91.3408H137.279L138.117 88.9958L141.802 88.9121C144.901 88.8283 146.659 87.3208 146.827 83.4683L148.837 38.6619C146.324 35.7306 142.807 33.7206 137.614 33.3856L138.033 31.8781H154.197L176.893 80.7883L196.323 31.8781H212.655L211.817 34.2231L207.546 34.3069C205.117 34.3906 203.944 35.8981 204.028 38.6619L206.122 89.1633L213.743 88.5771L212.906 91.3408H190.377L191.214 88.9958L193.727 88.9121C197.244 88.8283 198.836 86.7346 198.668 82.9658L196.742 37.5732L175.051 92.1783H174.297L151.852 43.6032ZM219.555 91.3408L220.393 88.9958L225.167 88.9121C226.925 88.8283 227.847 87.7396 227.847 85.9808V34.0556L219.555 34.6419L220.393 31.8781H252.721C256.573 31.8781 260.426 31.3756 264.278 29.7006L266.372 47.9582H265.116C262.101 38.3269 259.504 34.2231 253.056 34.2231H235.049V59.5157H246.69C250.208 59.5157 253.558 58.0082 254.982 49.5494H256.238V70.822H254.982C253.558 63.0332 250.208 61.5257 246.69 61.5257H235.049V88.9958H255.066C260.677 88.9958 263.776 83.7195 267.796 73.5858H269.052L264.864 93.5183C261.514 92.1783 259.086 91.3408 255.401 91.3408H219.555ZM287.137 91.3408L287.975 88.9958L293.837 88.9121C295.345 88.9121 296.434 88.2421 296.434 86.0646V34.2231H286.216C281.107 34.2231 278.93 39.0807 275.747 49.2982H274.491L276.333 29.7006C280.186 30.9569 283.369 31.8781 287.891 31.8781H312.765C317.287 31.8781 320.47 30.8731 324.322 29.7006L326.165 49.2982H324.909C322.48 39.0807 319.716 34.2231 314.44 34.2231H303.636V89.1633L313.435 88.5771L312.597 91.3408H287.137ZM389.071 92.1783C381.114 92.1783 374.665 90.5033 370.394 85.5621L351.467 63.8707V63.117L379.942 34.0556L369.389 34.6419L370.227 31.8781H392.839L392.002 34.2231C385.134 34.3069 381.617 35.7306 377.429 40.0019L357.245 60.6882L376.927 83.0495C380.947 87.4883 384.045 89.1633 389.489 91.6758L389.071 92.1783ZM331.032 91.3408L331.869 88.9958L336.643 88.9121C338.318 88.8283 339.323 87.8233 339.323 86.0646V34.0556L331.032 34.6419L331.869 31.8781H354.817L353.979 34.2231L349.289 34.3069C347.53 34.3906 346.525 35.4794 346.525 37.4056V89.1633L354.817 88.5771L353.979 91.3408H331.032ZM412.282 88.1583V91.3408H396.789L397.626 88.9958L402.4 88.9121C404.075 88.8283 405.08 87.8233 405.08 86.0646V34.0556L396.789 34.6419L397.626 31.8781H420.574L419.736 34.2231L415.046 34.3069C413.287 34.3906 412.282 35.4794 412.282 37.4056V79.3645L442.851 43.1844C444.61 41.1744 445.364 39.1644 445.364 35.0606V31.8781H460.858L460.02 34.2231L455.33 34.3069C453.571 34.3906 452.566 35.4794 452.566 37.4056V89.1633L460.858 88.5771L460.02 91.3408H437.072L437.91 88.9958L442.684 88.9121C444.359 88.8283 445.364 87.8233 445.364 86.0646V43.9382L414.125 80.9558C412.952 82.3795 412.282 84.0545 412.282 88.1583ZM486.673 91.3408L487.51 88.9958L492.284 88.9121C493.959 88.8283 494.964 87.8233 494.964 86.0646V34.0556L486.673 34.6419L487.51 31.8781H513.138C526.371 31.8781 534.997 38.4944 534.997 48.7957C534.997 59.8507 524.696 66.2157 513.808 66.2157H502.167V89.1633L512.133 88.5771L511.295 91.3408H486.673ZM502.167 63.8707H512.3C520.759 63.8707 526.622 57.9245 526.622 49.7169C526.622 39.9182 520.759 34.2231 511.295 34.2231H502.167V63.8707ZM570.454 92.1783C554.206 92.1783 540.806 79.4483 540.806 62.2795C540.806 44.4407 553.536 31.0406 570.454 31.0406C586.701 31.0406 600.102 43.7707 600.102 60.9395C600.102 78.7783 587.371 92.1783 570.454 92.1783ZM549.098 59.9345C549.098 76.3495 558.561 89.3308 572.296 89.3308C583.686 89.3308 591.81 78.0245 591.81 63.2845C591.81 46.8694 582.346 33.8881 568.611 33.8881C557.221 33.8881 549.098 45.1944 549.098 59.9345ZM605.183 91.3408L606.02 88.9958L610.627 88.9121C613.139 88.8283 613.474 87.4046 613.474 84.0545V34.0556L605.183 34.6419L606.02 31.8781H636.589C640.442 31.8781 644.294 31.4594 648.147 30.3706L649.989 47.9582H648.733C645.634 39.7507 642.535 34.2231 635.249 34.2231H625.702C622.352 34.2231 620.677 35.8981 620.677 39.3319V57.422H631.815C645.299 57.422 653.674 63.5357 653.674 73.3345C653.674 84.3895 645.634 91.3408 632.82 91.3408H605.183ZM620.677 88.9958H631.48C639.939 88.9958 645.299 82.547 645.299 74.4233C645.299 65.797 639.52 59.767 630.224 59.767H620.677V88.9958ZM691.581 92.1783C675.333 92.1783 661.933 79.4483 661.933 62.2795C661.933 44.4407 674.663 31.0406 691.581 31.0406C707.829 31.0406 721.229 43.7707 721.229 60.9395C721.229 78.7783 708.499 92.1783 691.581 92.1783ZM670.225 59.9345C670.225 76.3495 679.688 89.3308 693.424 89.3308C704.814 89.3308 712.937 78.0245 712.937 63.2845C712.937 46.8694 703.474 33.8881 689.739 33.8881C678.348 33.8881 670.225 45.1944 670.225 59.9345ZM738.358 91.3408L739.196 88.9958L745.058 88.9121C746.566 88.9121 747.654 88.2421 747.654 86.0646V34.2231H737.437C732.328 34.2231 730.151 39.0807 726.968 49.2982H725.712L727.554 29.7006C731.407 30.9569 734.589 31.8781 739.112 31.8781H763.986C768.508 31.8781 771.691 30.8731 775.543 29.7006L777.386 49.2982H776.129C773.701 39.0807 770.937 34.2231 765.661 34.2231H754.857V89.1633L764.656 88.5771L763.818 91.3408H738.358ZM812.809 91.3408L813.646 88.9958L816.661 88.9121C820.346 88.8283 822.44 87.9908 820.849 84.557L815.824 73.837H789.359L782.826 89.1633L793.128 88.5771L792.29 91.3408H773.195L774.032 88.9958L777.634 88.9121C780.146 88.8283 781.319 86.3996 782.91 82.547L800.498 41.0907C797.985 36.4006 795.473 34.3069 789.275 33.3856L789.694 31.8781H803.848L830.731 89.1633L836.259 88.5771L835.421 91.3408H812.809ZM790.28 71.492H814.735L802.005 44.1057C802.005 44.1057 802.005 44.0219 801.921 44.0219L790.28 71.492ZM837.658 72.2458V69.0633H859.768V72.2458H837.658ZM863.2 92.1783C860.687 92.1783 858.593 89.4146 858.593 85.8133C865.796 85.8133 873.836 85.8971 878.275 80.0345C880.871 76.6845 882.043 74.172 879.615 69.817L860.268 34.0556L854.573 34.6419L855.411 31.8781H879.28L878.442 34.2231L873.501 34.3069C869.983 34.3069 868.978 35.3956 870.988 39.0807L886.315 67.7232L902.311 34.0556L893.35 34.6419L893.852 31.8781H912.026L911.524 34.2231L908.76 34.3069C905.912 34.3069 904.572 34.7256 903.149 37.6569L885.98 73.5858C879.112 87.9071 869.816 92.1783 863.2 92.1783ZM938.852 69.5658C928.802 69.5658 923.694 64.6245 923.694 56.082V34.0556L915.402 34.6419L916.24 31.8781H939.187L938.35 34.2231L933.66 34.3069C931.901 34.3906 930.896 35.4794 930.896 37.4056V54.742C930.896 60.9395 934.414 64.5407 941.867 64.5407C947.562 64.5407 954.765 62.9495 960.292 60.0182V34.0556L952.001 34.6419L952.839 31.8781H975.786L974.949 34.2231L970.259 34.3069C968.5 34.3906 967.495 35.4794 967.495 37.4056V89.1633L975.786 88.5771L974.949 91.3408H952.001L952.839 88.9958L957.612 88.9121C959.287 88.8283 960.292 87.8233 960.292 86.0646V62.5307C954.43 65.9645 946.641 69.5658 938.852 69.5658ZM981.814 91.3408L982.651 88.9958L987.425 88.9121C989.184 88.8283 990.105 87.7396 990.105 85.9808V34.0556L981.814 34.6419L982.651 31.8781H1014.98C1018.83 31.8781 1022.68 31.3756 1026.54 29.7006L1028.63 47.9582H1027.37C1024.36 38.3269 1021.76 34.2231 1015.31 34.2231H997.307V59.5157H1008.95C1012.47 59.5157 1015.82 58.0082 1017.24 49.5494H1018.5V70.822H1017.24C1015.82 63.0332 1012.47 61.5257 1008.95 61.5257H997.307V88.9958H1017.32C1022.93 88.9958 1026.03 83.7195 1030.05 73.5858H1031.31L1027.12 93.5183C1023.77 92.1783 1021.34 91.3408 1017.66 91.3408H981.814ZM998.229 17.9756C998.229 15.7143 1000.07 13.7881 1002.5 13.7881C1004.84 13.7881 1006.6 15.7143 1006.6 17.9756C1006.6 20.3206 1004.84 22.1631 1002.5 22.1631C1000.07 22.1631 998.229 20.3206 998.229 17.9756ZM1009.53 17.9756C1009.53 15.7143 1011.46 13.7881 1013.81 13.7881C1016.15 13.7881 1017.91 15.7143 1017.91 17.9756C1017.91 20.3206 1016.07 22.1631 1013.81 22.1631C1011.46 22.1631 1009.53 20.3206 1009.53 17.9756ZM1079.22 91.3408L1080.06 88.9958L1084.83 88.9121C1086.59 88.8283 1087.51 87.8233 1087.51 86.0646V62.447H1052.84V89.1633L1061.13 88.5771L1060.29 91.3408H1037.35L1038.18 88.9958L1042.96 88.9121C1044.63 88.8283 1045.64 87.8233 1045.64 86.0646V34.0556L1037.35 34.6419L1038.18 31.8781H1061.13L1060.29 34.2231L1055.6 34.3069C1053.85 34.3906 1052.84 35.4794 1052.84 37.4056V60.102H1087.51V34.0556L1079.22 34.6419L1080.06 31.8781H1103.01L1102.17 34.2231L1097.48 34.3069C1095.72 34.3906 1094.72 35.4794 1094.72 37.4056V89.1633L1103.01 88.5771L1102.17 91.3408H1079.22ZM1137.81 92.1783C1121.57 92.1783 1108.17 79.4483 1108.17 62.2795C1108.17 44.4407 1120.9 31.0406 1137.81 31.0406C1154.06 31.0406 1167.46 43.7707 1167.46 60.9395C1167.46 78.7783 1154.73 92.1783 1137.81 92.1783ZM1116.46 59.9345C1116.46 76.3495 1125.92 89.3308 1139.66 89.3308C1151.05 89.3308 1159.17 78.0245 1159.17 63.2845C1159.17 46.8694 1149.71 33.8881 1135.97 33.8881C1124.58 33.8881 1116.46 45.1944 1116.46 59.9345ZM1172.54 91.3408L1173.38 88.9958L1178.15 88.9121C1179.91 88.8283 1180.83 87.7396 1180.83 85.9808V34.0556L1172.54 34.6419L1173.38 31.8781H1201.77C1205.62 31.8781 1209.48 31.4594 1213.33 30.3706L1215.17 47.9582H1213.91C1210.82 39.7507 1207.72 34.2231 1200.43 34.2231H1193.06C1189.71 34.2231 1188.04 35.8981 1188.04 39.3319V89.1633L1196.66 88.5771L1195.82 91.3408H1172.54ZM1249.78 92.1783C1233.53 92.1783 1220.13 79.4483 1220.13 62.2795C1220.13 44.4407 1232.86 31.0406 1249.78 31.0406C1266.03 31.0406 1279.43 43.7707 1279.43 60.9395C1279.43 78.7783 1266.7 92.1783 1249.78 92.1783ZM1228.42 59.9345C1228.42 76.3495 1237.89 89.3308 1251.62 89.3308C1263.01 89.3308 1271.14 78.0245 1271.14 63.2845C1271.14 46.8694 1261.67 33.8881 1247.94 33.8881C1236.55 33.8881 1228.42 45.1944 1228.42 59.9345Z" fill="#FF66E7"/>
</g>
<g filter="url(#filter1_f_280_2643)">
<path d="M1018.6 742.274C1010.19 737.084 1004.2 725.036 1004.2 712.678C1004.2 699.765 1010.19 688.396 1018.6 683.762L1019.21 684.071C1012.91 691.3 1008.83 702.175 1008.83 712.678C1008.83 723.306 1012.91 734.86 1019.21 741.965L1018.6 742.274ZM1031.29 731.956C1023.38 731.956 1017.51 723.985 1017.51 713.976C1017.51 703.905 1023.38 695.934 1031.29 695.934C1039.5 695.934 1045.56 703.905 1045.56 713.976C1045.56 723.985 1039.5 731.956 1031.29 731.956ZM1019.36 713.976C1019.36 722.132 1025.35 726.642 1031.29 726.642C1037.53 726.642 1043.71 722.132 1043.71 713.976C1043.71 705.758 1037.53 701.248 1031.29 701.248C1025.35 701.248 1019.36 705.758 1019.36 713.976ZM1049.94 731.338L1050.56 729.855L1054.51 729.793C1056 729.731 1056.55 728.743 1056.55 727.013V701.681L1048.83 702.669V701.742C1052.11 700.877 1059.03 697.417 1061.13 695.934L1062.11 696.552C1061.74 698.653 1061.5 703.225 1061.5 705.388V729.855L1068.29 729.546L1067.68 731.338H1049.94ZM1078.12 731.956C1076.26 731.956 1074.72 730.411 1074.72 728.558C1074.72 726.766 1076.26 725.283 1078.12 725.283C1079.91 725.283 1081.45 726.766 1081.45 728.558C1081.45 730.411 1079.91 731.956 1078.12 731.956ZM1101.22 731.956C1093.31 731.956 1087.44 723.985 1087.44 713.976C1087.44 703.905 1093.31 695.934 1101.22 695.934C1109.44 695.934 1115.49 703.905 1115.49 713.976C1115.49 723.985 1109.44 731.956 1101.22 731.956ZM1089.29 713.976C1089.29 722.132 1095.29 726.642 1101.22 726.642C1107.46 726.642 1113.64 722.132 1113.64 713.976C1113.64 705.758 1107.46 701.248 1101.22 701.248C1095.29 701.248 1089.29 705.758 1089.29 713.976ZM1135.05 731.956C1127.64 731.956 1121.89 725.777 1121.89 717.065C1121.89 701.681 1134.37 690.188 1147.97 686.852L1148.58 687.47C1136.97 690.744 1128.07 701.001 1127.52 712.678C1130.23 709.033 1134 706.314 1139.01 706.314C1144.88 706.314 1149.33 711.69 1149.33 717.683C1149.33 725.654 1143.39 731.956 1135.05 731.956ZM1127.45 714.161C1127.52 722.935 1131.41 729.979 1137.15 729.979C1141.6 729.979 1144.88 726.148 1144.88 720.155C1144.88 714.717 1141.48 709.774 1136.29 709.774C1133.57 709.774 1129.92 711.505 1127.45 714.161ZM1158.49 731.956C1156.63 731.956 1155.09 730.411 1155.09 728.558C1155.09 726.766 1156.63 725.283 1158.49 725.283C1160.28 725.283 1161.82 726.766 1161.82 728.558C1161.82 730.411 1160.28 731.956 1158.49 731.956ZM1167.99 729.608C1178.61 722.194 1186.21 713.235 1186.21 707.056C1186.21 702.731 1183.68 699.889 1179.6 699.889C1176.95 699.889 1173.49 700.815 1170.77 703.411L1170.15 702.793C1173.67 698.838 1177.69 695.934 1181.95 695.934C1187.57 695.934 1191.65 699.765 1191.65 705.573C1191.65 712.37 1183.87 719.351 1174.04 726.889H1186.46C1190.04 726.889 1193.13 725.406 1195.36 719.907H1196.22L1194.49 732.45C1191.77 731.461 1189.67 731.338 1186.46 731.338H1168.6L1167.99 729.608ZM1203.03 745.425L1223.48 701.001H1209.45C1204.88 701.001 1202.04 704.337 1199.69 710.331H1199.01L1200.43 695.44C1203.09 696.058 1205.37 696.552 1208.83 696.552H1225.89L1226.5 698.282L1205.56 745.425H1203.03ZM1245.57 717.251V714.903H1261.88V717.251H1245.57ZM1295.33 731.956C1287.42 731.956 1281.55 723.985 1281.55 713.976C1281.55 703.905 1287.42 695.934 1295.33 695.934C1303.54 695.934 1309.6 703.905 1309.6 713.976C1309.6 723.985 1303.54 731.956 1295.33 731.956ZM1283.4 713.976C1283.4 722.132 1289.39 726.642 1295.33 726.642C1301.57 726.642 1307.74 722.132 1307.74 713.976C1307.74 705.758 1301.57 701.248 1295.33 701.248C1289.39 701.248 1283.4 705.758 1283.4 713.976ZM1318.21 745.425L1338.66 701.001H1324.64C1320.06 701.001 1317.22 704.337 1314.87 710.331H1314.19L1315.62 695.44C1318.27 696.058 1320.56 696.552 1324.02 696.552H1341.07L1341.69 698.282L1320.74 745.425H1318.21ZM1346.14 731.956C1344.29 731.956 1342.74 730.411 1342.74 728.558C1342.74 726.766 1344.29 725.283 1346.14 725.283C1347.93 725.283 1349.48 726.766 1349.48 728.558C1349.48 730.411 1347.93 731.956 1346.14 731.956ZM1369.24 731.956C1361.33 731.956 1355.46 723.985 1355.46 713.976C1355.46 703.905 1361.33 695.934 1369.24 695.934C1377.46 695.934 1383.51 703.905 1383.51 713.976C1383.51 723.985 1377.46 731.956 1369.24 731.956ZM1357.32 713.976C1357.32 722.132 1363.31 726.642 1369.24 726.642C1375.48 726.642 1381.66 722.132 1381.66 713.976C1381.66 705.758 1375.48 701.248 1369.24 701.248C1363.31 701.248 1357.32 705.758 1357.32 713.976ZM1403.07 731.956C1395.66 731.956 1389.91 725.777 1389.91 717.065C1389.91 701.681 1402.4 690.188 1415.99 686.852L1416.61 687.47C1404.99 690.744 1396.09 701.001 1395.54 712.678C1398.26 709.033 1402.02 706.314 1407.03 706.314C1412.9 706.314 1417.35 711.69 1417.35 717.683C1417.35 725.654 1411.42 731.956 1403.07 731.956ZM1395.48 714.161C1395.54 722.935 1399.43 729.979 1405.18 729.979C1409.62 729.979 1412.9 726.148 1412.9 720.155C1412.9 714.717 1409.5 709.774 1404.31 709.774C1401.59 709.774 1397.95 711.505 1395.48 714.161ZM1426.51 731.956C1424.66 731.956 1423.11 730.411 1423.11 728.558C1423.11 726.766 1424.66 725.283 1426.51 725.283C1428.3 725.283 1429.85 726.766 1429.85 728.558C1429.85 730.411 1428.3 731.956 1426.51 731.956ZM1436.01 729.608C1446.64 722.194 1454.24 713.235 1454.24 707.056C1454.24 702.731 1451.7 699.889 1447.62 699.889C1444.97 699.889 1441.51 700.815 1438.79 703.411L1438.17 702.793C1441.69 698.838 1445.71 695.934 1449.97 695.934C1455.59 695.934 1459.67 699.765 1459.67 705.573C1459.67 712.37 1451.89 719.351 1442.06 726.889H1454.48C1458.07 726.889 1461.16 725.406 1463.38 719.907H1464.24L1462.51 732.45C1459.8 731.461 1457.7 731.338 1454.48 731.338H1436.63L1436.01 729.608ZM1471.05 745.425L1491.5 701.001H1477.47C1472.9 701.001 1470.06 704.337 1467.71 710.331H1467.03L1468.45 695.44C1471.11 696.058 1473.39 696.552 1476.85 696.552H1493.91L1494.53 698.282L1473.58 745.425H1471.05ZM1493.98 741.965C1500.29 734.86 1504.36 723.306 1504.36 712.678C1504.36 702.175 1500.29 691.3 1493.98 684.071L1494.6 683.762C1503 688.396 1509 699.765 1509 712.678C1509 725.036 1503 737.084 1494.6 742.274L1493.98 741.965Z" fill="#FF66E7"/>
</g>
<rect x="0.757812" y="0.711914" width="1528.44" height="764.221" fill="white" fill-opacity="0.5"/>
<path d="M25.4987 48.0479L25.7978 47.2103L27.5027 47.1804C28.1009 47.1505 28.4598 46.7916 28.4598 46.1635V27.5889L25.4987 27.7982L25.7978 26.8112H34.9505C39.6764 26.8112 42.7572 29.1741 42.7572 32.8532C42.7572 36.8014 39.0782 39.0746 35.1898 39.0746H31.0322V47.2702L34.5916 47.0608L34.2924 48.0479H25.4987ZM31.0322 38.2371H34.6514C37.6724 38.2371 39.7661 36.1134 39.7661 33.1822C39.7661 29.6826 37.6724 27.6487 34.2924 27.6487H31.0322V38.2371ZM53.2407 48.347C51.9246 48.347 51.7153 47.1505 51.7153 45.9242H51.6255C50.1898 47.2403 49.113 48.347 47.1389 48.347C45.4041 48.347 43.8487 47.4496 43.8487 45.7447C43.8487 44.3688 45.3443 43.4117 47.7072 42.3349L51.5956 40.5701V37.9081C51.5956 35.934 51.1769 34.2889 49.2327 34.2889C48.5148 34.2889 47.7371 34.4983 47.3483 34.8572L47.438 36.3527C47.4978 37.6987 46.451 38.2072 45.5536 38.2072C44.6264 38.2072 44.088 37.6987 44.088 37.1902C44.088 36.3228 48.5148 33.0924 50.0702 33.0924C52.5228 33.0924 54.3474 34.4683 54.2278 36.9509C54.0782 40.3907 54.0782 43.0827 54.0782 46.2831L56.4412 46.5523V47.001C55.3345 47.7188 53.9586 48.347 53.2407 48.347ZM46.5706 44.6978C46.5706 45.8943 47.1389 46.4327 48.4849 46.4327C49.6514 46.4327 50.9376 45.9541 51.5956 45.326V41.2282L48.5148 42.634C47.1987 43.2023 46.5706 43.8902 46.5706 44.6978ZM63.1475 48.347C60.3359 48.347 57.8234 47.1804 57.8234 46.1635C57.8234 44.9371 58.7207 44.0398 59.5283 44.0398C60.4256 46.1036 61.5622 47.5095 63.8654 47.5095C65.8694 47.5095 67.0658 46.1336 67.0658 44.0697C67.0658 41.946 65.8096 41.1085 64.0747 41.1085C63.7457 41.1085 63.4167 41.1385 63.0578 41.1983L62.6689 40.5701C65.002 40.0916 66.4676 39.1643 66.4676 36.921C66.4676 34.917 65.4207 33.9299 63.7158 33.9299C61.5622 33.9299 60.2162 35.575 59.289 38.596H58.8403L59.3787 33.8701C60.7247 33.4215 61.8314 33.0924 63.6859 33.0924C67.0957 33.0924 69.1596 34.6478 69.1596 36.7715C69.1596 38.596 67.4247 39.7925 65.5404 40.3608C67.9631 40.3907 69.7279 41.4077 69.7279 43.7108C69.7279 46.4028 67.5145 48.347 63.1475 48.347ZM71.1423 54.9273L71.4414 54.2095L72.3687 54.1796C73.0566 54.1497 73.4455 53.9403 73.4455 53.1327V35.3956L71.262 34.4085V33.9599C72.5182 33.5112 74.3727 33.1224 75.5392 33.0924H75.8383V34.7974L75.8981 35.0965C77.4236 33.8103 78.979 33.0924 80.5044 33.0924C83.7348 33.0924 86.1576 35.9938 86.1576 40.2112C86.1576 45.0269 83.1366 48.347 79.2781 48.347C78.1115 48.347 76.9151 48.1077 75.8682 47.659V54.2095L79.1285 54.0599L78.8294 54.9273H71.1423ZM75.8682 44.5782C75.8682 46.2831 77.5133 47.5992 79.2781 47.5992C81.8803 47.5992 83.4357 44.6679 83.4357 40.9889C83.4357 37.1603 81.9999 34.7675 79.3678 34.7675C78.0218 34.7675 76.8553 35.1563 75.8682 35.6947V44.5782ZM97.4935 48.347C96.1774 48.347 95.9681 47.1505 95.9681 45.9242H95.8783C94.4426 47.2403 93.3658 48.347 91.3917 48.347C89.6569 48.347 88.1015 47.4496 88.1015 45.7447C88.1015 44.3688 89.5971 43.4117 91.96 42.3349L95.8484 40.5701V37.9081C95.8484 35.934 95.4297 34.2889 93.4855 34.2889C92.7676 34.2889 91.9899 34.4983 91.6011 34.8572L91.6908 36.3527C91.7506 37.6987 90.7038 38.2072 89.8064 38.2072C88.8792 38.2072 88.3408 37.6987 88.3408 37.1902C88.3408 36.3228 92.7676 33.0924 94.323 33.0924C96.7757 33.0924 98.6002 34.4683 98.4806 36.9509C98.331 40.3907 98.331 43.0827 98.331 46.2831L100.694 46.5523V47.001C99.5873 47.7188 98.2114 48.347 97.4935 48.347ZM90.8234 44.6978C90.8234 45.8943 91.3917 46.4327 92.7377 46.4327C93.9042 46.4327 95.1904 45.9541 95.8484 45.326V41.2282L92.7676 42.634C91.4515 43.2023 90.8234 43.8902 90.8234 44.6978ZM108.817 48.347C104.39 48.347 101.698 44.7876 101.698 39.1045C101.698 32.7634 103.881 28.217 107.979 27.6188C109.624 27.3795 111.598 27.4692 112.974 27.1103C114.201 26.8112 114.859 25.7344 114.859 25.0165L115.188 25.3156C115.188 28.2768 113.782 29.3536 113.154 29.5032C111.389 29.9219 109.624 29.8621 107.889 30.1313C105.377 30.5201 102.655 32.9429 102.595 38.8353H102.745C103.762 35.2161 106.723 33.0924 109.564 33.0924C113.214 33.0924 115.816 35.8742 115.816 40.5402C115.816 45.0269 112.914 48.347 108.817 48.347ZM104.39 40.1813C104.39 44.1295 106.214 47.4496 109.146 47.4496C111.598 47.4496 113.124 45.1465 113.124 41.2581C113.124 37.1603 111.419 34.2889 108.308 34.2889C106.155 34.2889 104.39 36.3826 104.39 40.1813ZM125.466 48.347C121.548 48.347 118.347 45.2961 118.347 40.8992C118.347 36.4125 121.279 33.0924 125.376 33.0924C129.295 33.0924 132.465 36.1433 132.465 40.5402C132.465 45.0269 129.564 48.347 125.466 48.347ZM121.039 40.1813C121.039 44.1894 123.253 47.4496 126.034 47.4496C128.248 47.4496 129.773 44.8474 129.773 41.2581C129.773 37.25 127.59 34.0197 124.778 34.0197C122.565 34.0197 121.039 36.592 121.039 40.1813ZM138.008 48.0479L138.307 47.33L139.563 47.3001C140.191 47.2702 140.55 46.9711 140.55 46.1635V34.1094H138.606C136.512 34.1094 135.585 35.8143 134.747 38.5362H134.299L134.867 32.8532C136.452 33.3018 137.26 33.3916 138.606 33.3916H144.887C146.233 33.3916 147.041 33.2719 148.626 32.8532L149.164 38.5362H148.716C147.908 35.8143 146.951 34.1094 144.887 34.1094H142.973V47.33L145.515 47.1804L145.216 48.0479H138.008ZM150.434 48.0479L150.733 47.33L151.99 47.3001C152.618 47.2702 152.977 46.9711 152.977 46.1635V34.1094L150.494 34.259L150.793 33.3916H157.942L157.643 34.1094L156.416 34.1393C155.788 34.1692 155.399 34.4384 155.399 35.1563V47.33L157.403 47.1804L157.104 48.0479H150.434ZM156.536 41.1684V40.8693L163.356 34.1094L159.796 34.259L160.155 33.3916H166.945L166.646 34.1094C164.851 34.1094 164.044 34.4683 162.937 35.575L158.57 39.8822C160.335 42.4844 161.681 44.1295 163.116 45.5054C163.954 46.313 165.12 47.2103 165.988 47.2702L166.586 47.33L166.646 47.5992C165.808 48.0479 165.031 48.347 163.834 48.347C162.189 48.347 161.412 47.7787 160.365 46.3429L156.536 41.1684ZM177.674 48.347C176.358 48.347 176.149 47.1505 176.149 45.9242H176.059C174.623 47.2403 173.547 48.347 171.573 48.347C169.838 48.347 168.282 47.4496 168.282 45.7447C168.282 44.3688 169.778 43.4117 172.141 42.3349L176.029 40.5701V37.9081C176.029 35.934 175.61 34.2889 173.666 34.2889C172.948 34.2889 172.171 34.4983 171.782 34.8572L171.872 36.3527C171.931 37.6987 170.885 38.2072 169.987 38.2072C169.06 38.2072 168.522 37.6987 168.522 37.1902C168.522 36.3228 172.948 33.0924 174.504 33.0924C176.956 33.0924 178.781 34.4683 178.661 36.9509C178.512 40.3907 178.512 43.0827 178.512 46.2831L180.875 46.5523V47.001C179.768 47.7188 178.392 48.347 177.674 48.347ZM171.004 44.6978C171.004 45.8943 171.573 46.4327 172.919 46.4327C174.085 46.4327 175.371 45.9541 176.029 45.326V41.2282L172.948 42.634C171.632 43.2023 171.004 43.8902 171.004 44.6978ZM195.378 48.347C191.819 48.347 188.947 45.3559 188.947 41.3777C188.947 36.8313 192.178 33.0924 196.276 33.0924C198.519 33.0924 200.194 33.9599 200.194 34.3786C200.194 35.3358 199.715 36.5023 198.878 36.5023C198.16 36.5023 197.502 35.934 196.934 35.3657L195.558 33.9H195.229C193.554 33.9 191.639 36.921 191.639 40.0318C191.639 43.7407 193.464 46.4028 196.276 46.4028C197.711 46.4028 199.027 45.9541 200.493 45.0269L200.762 45.2961C199.476 46.9412 197.921 48.347 195.378 48.347ZM206.154 48.0479L206.453 47.33L207.709 47.3001C208.338 47.2702 208.697 46.9711 208.697 46.1635V34.1094H206.752C204.659 34.1094 203.731 35.8143 202.894 38.5362H202.445L203.013 32.8532C204.599 33.3018 205.406 33.3916 206.752 33.3916H213.034C214.38 33.3916 215.187 33.2719 216.772 32.8532L217.311 38.5362H216.862C216.055 35.8143 215.097 34.1094 213.034 34.1094H211.119V47.33L213.662 47.1804L213.363 48.0479H206.154ZM225.517 48.347C221.838 48.347 219.056 45.2961 219.056 41.2282C219.056 36.3826 221.958 33.0924 225.667 33.0924C228.748 33.0924 230.722 34.7974 230.722 37.8782C230.722 38.3867 230.542 38.8054 230.393 38.9849H221.748C221.718 39.3438 221.689 39.7326 221.689 40.1514C221.689 43.98 223.752 46.4028 226.654 46.4028C228.329 46.4028 229.645 45.8345 230.901 44.6978L231.17 44.967C229.854 46.9711 228.089 48.347 225.517 48.347ZM221.808 38.2969L227.192 38.2371C227.731 38.2371 228.089 37.9081 228.089 37.3996C228.089 35.246 227.073 33.8402 225.368 33.8402C223.573 33.8402 222.227 35.5152 221.808 38.2969ZM232.455 48.0479L232.754 47.33L234.011 47.3001C234.639 47.2702 234.998 46.9711 234.998 46.1635V34.1094L232.515 34.259L232.814 33.3916H239.963L239.664 34.1094L238.437 34.1393C237.809 34.1692 237.42 34.4384 237.42 35.1563V47.33L239.425 47.1804L239.125 48.0479H232.455ZM238.557 41.1684V40.8693L245.377 34.1094L241.817 34.259L242.176 33.3916H248.966L248.667 34.1094C246.872 34.1094 246.065 34.4683 244.958 35.575L240.591 39.8822C242.356 42.4844 243.702 44.1295 245.137 45.5054C245.975 46.313 247.141 47.2103 248.009 47.2702L248.607 47.33L248.667 47.5992C247.829 48.0479 247.052 48.347 245.855 48.347C244.21 48.347 243.433 47.7787 242.386 46.3429L238.557 41.1684ZM257.841 48.0479L258.14 47.33L259.396 47.3001C260.024 47.2702 260.383 46.9711 260.383 46.1635V34.1094H255.567C255.567 41.0188 254.939 46.4925 252.188 48.347C250.812 48.347 250.154 47.33 250.154 46.1635C253.773 44.967 254.7 40.7795 254.7 34.1094L251.29 34.259L251.589 33.3916H265.348L265.049 34.1094L263.823 34.1393C263.165 34.1692 262.806 34.4384 262.806 35.1563V47.33L265.288 47.1804L264.989 48.0479H257.841ZM268.468 48.347C267.571 48.347 266.703 48.1077 266.105 47.5693L266.254 47.2702L266.673 47.3001C267.78 47.3898 269.006 46.4626 269.963 44.7876C271.07 42.963 272.027 41.5273 272.745 40.9291C269.425 40.6898 267.81 39.4634 267.81 37.4594C267.81 35.0067 270.173 33.3916 273.523 33.3916H281.18L280.881 34.1094L279.655 34.1393C279.026 34.1692 278.638 34.4683 278.638 35.1563V47.33L281.15 47.1804L280.851 48.0479H273.672L273.971 47.33L275.228 47.3001C275.856 47.2702 276.215 46.9112 276.215 46.1635V34.1094H273.672C271.698 34.1094 270.562 35.8143 270.562 37.5492C270.562 39.0746 271.489 40.4505 273.762 40.4505H275.198V40.7496L271.818 46.1635C270.861 47.7188 269.963 48.347 268.468 48.347ZM291.988 48.0479L292.287 47.33L293.543 47.3001C294.172 47.2702 294.53 46.9711 294.53 46.1635V41.0786H287.382V47.33L289.864 47.1804L289.565 48.0479H282.417L282.716 47.33L283.972 47.3001C284.6 47.2702 284.959 46.9711 284.959 46.1635V34.1094L282.476 34.259L282.776 33.3916H289.924L289.625 34.1094L288.399 34.1393C287.771 34.1692 287.382 34.4384 287.382 35.1563V40.3608H294.53V34.1094L292.048 34.259L292.347 33.3916H299.496L299.197 34.1094L297.97 34.1393C297.342 34.1692 296.953 34.4384 296.953 35.1563V47.33L299.436 47.1804L299.137 48.0479H291.988ZM310.303 48.0479L310.602 47.33L311.858 47.3001C312.486 47.2702 312.845 46.9711 312.845 46.1635V41.0786H305.696V47.33L308.179 47.1804L307.88 48.0479H300.731L301.03 47.33L302.287 47.3001C302.915 47.2702 303.274 46.9711 303.274 46.1635V34.1094L300.791 34.259L301.09 33.3916H308.239L307.94 34.1094L306.713 34.1393C306.085 34.1692 305.696 34.4384 305.696 35.1563V40.3608H312.845V34.1094L310.362 34.259L310.662 33.3916H317.81L317.511 34.1094L316.285 34.1393C315.657 34.1692 315.268 34.4384 315.268 35.1563V47.33L317.75 47.1804L317.451 48.0479H310.303ZM332.087 48.0479L332.386 47.33L333.642 47.3001C334.3 47.2702 334.629 46.9711 334.629 46.1635V34.1094L332.147 34.259L332.446 33.3916H339.594L339.295 34.1094L338.069 34.1393C337.441 34.1692 337.052 34.4983 337.052 35.2161V47.33L339.564 47.1804L339.265 48.0479H332.087ZM319.046 48.0479L319.345 47.33L320.601 47.3001C321.229 47.2702 321.588 46.9711 321.588 46.1635V34.1094L319.105 34.259L319.405 33.3916H326.553L326.254 34.1094L325.028 34.1393C324.4 34.1692 324.011 34.4983 324.011 35.2161V40.301H326.404C330.232 40.301 332.296 41.7666 332.296 44.0996C332.296 46.5224 330.202 48.0479 326.822 48.0479H319.046ZM324.011 47.33H326.194C328.288 47.33 329.604 46.2831 329.604 44.0697C329.604 42.3349 328.438 41.0188 325.925 41.0188H324.011V47.33ZM349.63 47.33C351.425 47.33 352.262 47.0907 351.365 45.9242L348.224 41.7666L343.767 47.33L346.908 47.1804L346.609 48.0479H340.387L340.687 47.33H341.883C342.541 47.33 343.079 46.9412 343.917 45.9242L347.775 41.1684L342.421 34.1094L340.567 34.259L340.896 33.3916H348.703L348.404 34.1094C346.13 34.1094 345.532 34.4085 346.459 35.6349L349.54 39.6728L353.847 34.1094L350.767 34.259L351.096 33.3916H357.377L357.078 34.1094L356.091 34.1393C354.864 34.1393 354.475 34.5282 353.518 35.7844L349.989 40.271L355.373 47.33L357.317 47.1804L357.018 48.0479H349.331L349.63 47.33ZM364.659 48.0479L364.958 47.33L366.214 47.3001C366.842 47.2702 367.201 46.9711 367.201 46.1635V34.1094L364.719 34.259L365.018 33.3916H372.166L371.867 34.1094L370.641 34.1393C370.013 34.1692 369.624 34.4384 369.624 35.1563V47.33L371.628 47.1804L371.329 48.0479H364.659ZM370.761 41.1684V40.8693L377.58 34.1094L374.021 34.259L374.38 33.3916H381.169L380.87 34.1094C379.076 34.1094 378.268 34.4683 377.161 35.575L372.794 39.8822C374.559 42.4844 375.905 44.1295 377.341 45.5054C378.178 46.313 379.345 47.2103 380.212 47.2702L380.811 47.33L380.87 47.5992C380.033 48.0479 379.255 48.347 378.059 48.347C376.414 48.347 375.636 47.7787 374.589 46.3429L370.761 41.1684ZM388.442 48.347C384.523 48.347 381.323 45.2961 381.323 40.8992C381.323 36.4125 384.254 33.0924 388.352 33.0924C392.27 33.0924 395.441 36.1433 395.441 40.5402C395.441 45.0269 392.54 48.347 388.442 48.347ZM384.015 40.1813C384.015 44.1894 386.228 47.4496 389.01 47.4496C391.223 47.4496 392.749 44.8474 392.749 41.2581C392.749 37.25 390.565 34.0197 387.754 34.0197C385.54 34.0197 384.015 36.592 384.015 40.1813ZM404.211 48.0479L404.51 47.33L405.766 47.3001C406.394 47.2702 406.753 46.9711 406.753 46.1635V34.1094H401.938C401.938 41.0188 401.309 46.4925 398.558 48.347C397.182 48.347 396.524 47.33 396.524 46.1635C400.143 44.967 401.07 40.7795 401.07 34.1094L397.66 34.259L397.959 33.3916H411.718L411.419 34.1094L410.193 34.1393C409.535 34.1692 409.176 34.4384 409.176 35.1563V47.33L411.659 47.1804L411.36 48.0479H404.211ZM420.631 48.347C416.204 48.347 413.512 44.7876 413.512 39.1045C413.512 32.7634 415.696 28.217 419.793 27.6188C421.439 27.3795 423.413 27.4692 424.789 27.1103C426.015 26.8112 426.673 25.7344 426.673 25.0165L427.002 25.3156C427.002 28.2768 425.596 29.3536 424.968 29.5032C423.203 29.9219 421.439 29.8621 419.704 30.1313C417.191 30.5201 414.469 32.9429 414.41 38.8353H414.559C415.576 35.2161 418.537 33.0924 421.379 33.0924C425.028 33.0924 427.63 35.8742 427.63 40.5402C427.63 45.0269 424.729 48.347 420.631 48.347ZM416.204 40.1813C416.204 44.1295 418.029 47.4496 420.96 47.4496C423.413 47.4496 424.938 45.1465 424.938 41.2581C424.938 37.1603 423.233 34.2889 420.122 34.2889C417.969 34.2889 416.204 36.3826 416.204 40.1813ZM437.311 54.9273C436.234 52.4747 435.845 49.4237 435.905 47.0309L438.118 47.3001C440.93 46.4028 441.797 38.5362 441.797 34.0496L438.477 34.259L438.776 33.3916H452.565L452.266 34.1094L451.04 34.1393C450.412 34.1692 450.023 34.5581 450.023 35.2759V47.33L453.463 46.9412C453.522 49.334 453.133 52.4747 452.057 54.9273H451.608C452.117 52.355 452.745 48.0479 449.933 48.0479H439.404C436.623 48.0479 437.251 52.355 437.759 54.9273H437.311ZM440.78 47.33H446.613C447.241 47.33 447.6 46.9711 447.6 46.1635V34.1094H442.665C442.665 38.5362 442.396 44.5184 440.78 47.33ZM462.192 48.0479L462.491 47.33L463.748 47.3001C464.376 47.2702 464.735 46.9711 464.735 46.1635V34.1094H459.919C459.919 41.0188 459.291 46.4925 456.539 48.347C455.163 48.347 454.505 47.33 454.505 46.1635C458.124 44.967 459.052 40.7795 459.052 34.1094L455.642 34.259L455.941 33.3916H469.7L469.401 34.1094L468.174 34.1393C467.516 34.1692 467.157 34.4384 467.157 35.1563V47.33L469.64 47.1804L469.341 48.0479H462.192ZM472.819 48.347C471.922 48.347 471.055 48.1077 470.457 47.5693L470.606 47.2702L471.025 47.3001C472.132 47.3898 473.358 46.4626 474.315 44.7876C475.422 42.963 476.379 41.5273 477.097 40.9291C473.777 40.6898 472.161 39.4634 472.161 37.4594C472.161 35.0067 474.524 33.3916 477.874 33.3916H485.532L485.232 34.1094L484.006 34.1393C483.378 34.1692 482.989 34.4683 482.989 35.1563V47.33L485.502 47.1804L485.203 48.0479H478.024L478.323 47.33L479.579 47.3001C480.207 47.2702 480.566 46.9112 480.566 46.1635V34.1094H478.024C476.05 34.1094 474.913 35.8143 474.913 37.5492C474.913 39.0746 475.84 40.4505 478.114 40.4505H479.549V40.7496L476.169 46.1635C475.212 47.7188 474.315 48.347 472.819 48.347ZM494.825 54.9273C493.748 52.4747 493.359 49.4237 493.419 47.0309L495.632 47.3001C498.444 46.4028 499.311 38.5362 499.311 34.0496L495.991 34.259L496.29 33.3916H510.079L509.78 34.1094L508.554 34.1393C507.926 34.1692 507.537 34.5581 507.537 35.2759V47.33L510.977 46.9412C511.036 49.334 510.648 52.4747 509.571 54.9273H509.122C509.631 52.355 510.259 48.0479 507.447 48.0479H496.918C494.137 48.0479 494.765 52.355 495.273 54.9273H494.825ZM498.294 47.33H504.127C504.755 47.33 505.114 46.9711 505.114 46.1635V34.1094H500.179C500.179 38.5362 499.91 44.5184 498.294 47.33ZM518.345 48.347C514.666 48.347 511.884 45.2961 511.884 41.2282C511.884 36.3826 514.786 33.0924 518.495 33.0924C521.575 33.0924 523.55 34.7974 523.55 37.8782C523.55 38.3867 523.37 38.8054 523.221 38.9849H514.576C514.546 39.3438 514.517 39.7326 514.517 40.1514C514.517 43.98 516.58 46.4028 519.482 46.4028C521.157 46.4028 522.473 45.8345 523.729 44.6978L523.998 44.967C522.682 46.9711 520.917 48.347 518.345 48.347ZM514.636 38.2969L520.02 38.2371C520.559 38.2371 520.917 37.9081 520.917 37.3996C520.917 35.246 519.9 33.8402 518.196 33.8402C516.401 33.8402 515.055 35.5152 514.636 38.2969ZM525.179 54.9273L525.478 54.2095L526.405 54.1796C527.093 54.1497 527.482 53.9403 527.482 53.1327V35.3956L525.299 34.4085V33.9599C526.555 33.5112 528.409 33.1224 529.576 33.0924H529.875V34.7974L529.935 35.0965C531.46 33.8103 533.016 33.0924 534.541 33.0924C537.772 33.0924 540.194 35.9938 540.194 40.2112C540.194 45.0269 537.173 48.347 533.315 48.347C532.148 48.347 530.952 48.1077 529.905 47.659V54.2095L533.165 54.0599L532.866 54.9273H525.179ZM529.905 44.5782C529.905 46.2831 531.55 47.5992 533.315 47.5992C535.917 47.5992 537.472 44.6679 537.472 40.9889C537.472 37.1603 536.037 34.7675 533.405 34.7675C532.059 34.7675 530.892 35.1563 529.905 35.6947V44.5782ZM549.103 48.347C545.424 48.347 542.642 45.2961 542.642 41.2282C542.642 36.3826 545.544 33.0924 549.253 33.0924C552.333 33.0924 554.307 34.7974 554.307 37.8782C554.307 38.3867 554.128 38.8054 553.978 38.9849H545.334C545.304 39.3438 545.274 39.7326 545.274 40.1514C545.274 43.98 547.338 46.4028 550.24 46.4028C551.915 46.4028 553.231 45.8345 554.487 44.6978L554.756 44.967C553.44 46.9711 551.675 48.347 549.103 48.347ZM545.394 38.2969L550.778 38.2371C551.316 38.2371 551.675 37.9081 551.675 37.3996C551.675 35.246 550.658 33.8402 548.953 33.8402C547.159 33.8402 545.813 35.5152 545.394 38.2969ZM556.053 48.0479L556.352 47.33L557.608 47.3001C558.237 47.2702 558.596 46.9711 558.596 46.1635V34.1094L556.113 34.259L556.412 33.3916H563.561L563.262 34.1094L562.035 34.1393C561.407 34.1692 561.018 34.4983 561.018 35.2161V40.301H563.441C567.27 40.301 569.334 41.7666 569.334 44.0996C569.334 46.5224 567.24 48.0479 563.86 48.0479H556.053ZM561.018 47.33H563.232C565.325 47.33 566.642 46.2831 566.642 44.0697C566.642 42.3349 565.475 41.0188 562.963 41.0188H561.018V47.33ZM577.349 48.347C573.67 48.347 570.888 45.2961 570.888 41.2282C570.888 36.3826 573.789 33.0924 577.498 33.0924C580.579 33.0924 582.553 34.7974 582.553 37.8782C582.553 38.3867 582.374 38.8054 582.224 38.9849H573.58C573.55 39.3438 573.52 39.7326 573.52 40.1514C573.52 43.98 575.584 46.4028 578.485 46.4028C580.16 46.4028 581.477 45.8345 582.733 44.6978L583.002 44.967C581.686 46.9711 579.921 48.347 577.349 48.347ZM573.64 38.2969L579.024 38.2371C579.562 38.2371 579.921 37.9081 579.921 37.3996C579.921 35.246 578.904 33.8402 577.199 33.8402C575.405 33.8402 574.059 35.5152 573.64 38.2969ZM584.299 48.0479L584.598 47.33L585.854 47.3001C586.482 47.2702 586.841 46.9711 586.841 46.1635V34.1094L584.359 34.259L584.658 33.3916H591.807C595.186 33.3916 597.31 34.7375 597.31 36.8612C597.31 38.7456 595.934 40.1514 593.541 40.5701C596.293 40.7795 597.878 42.1853 597.878 44.0996C597.878 46.5224 595.755 48.0479 592.345 48.0479H584.299ZM589.264 47.33H591.687C593.841 47.33 595.186 46.2831 595.186 44.0697C595.186 42.3349 593.721 41.0188 591.418 41.0188H589.264V47.33ZM589.264 40.301H591.896C593.721 40.301 594.857 39.0447 594.857 37.25C594.857 35.5451 593.96 34.0795 591.627 34.0795H589.264V40.301Z" fill="#FF66E7"/>
<rect x="44.7979" y="129.762" width="109.112" height="321.639" rx="43.1627" stroke="#FF66E7" stroke-width="1.3146"/>
<rect x="189.403" y="128.446" width="109.112" height="321.639" rx="43.1627" stroke="#FF66E7" stroke-width="1.3146"/>
<rect x="335.321" y="129.762" width="109.112" height="321.639" rx="43.1627" stroke="#FF66E7" stroke-width="1.3146"/>
<path d="M58.6016 439.35L140.107 142.25" stroke="#FF66E7" stroke-width="1.3146"/>
<path d="M203.203 438.035L284.708 140.935" stroke="#FF66E7" stroke-width="1.3146"/>
<path d="M349.125 439.35L430.63 142.25" stroke="#FF66E7" stroke-width="1.3146"/>
<path d="M44.5781 341.193L153.673 240.827" stroke="#FF66E7" stroke-width="1.3146"/>
<path d="M189.184 339.879L298.278 239.512" stroke="#FF66E7" stroke-width="1.3146"/>
<path d="M335.102 341.193L444.196 240.827" stroke="#FF66E7" stroke-width="1.3146"/>
<path d="M153.672 340.773L44.5774 240.407" stroke="#FF66E7" stroke-width="1.3146"/>
<path d="M298.277 339.459L189.183 239.092" stroke="#FF66E7" stroke-width="1.3146"/>
<path d="M444.195 340.773L335.101 240.407" stroke="#FF66E7" stroke-width="1.3146"/>
<path d="M140.105 439.35L58.6002 142.25" stroke="#FF66E7" stroke-width="1.3146"/>
<path d="M284.711 438.035L203.206 140.935" stroke="#FF66E7" stroke-width="1.3146"/>
<path d="M430.633 439.35L349.128 142.25" stroke="#FF66E7" stroke-width="1.3146"/>
<path d="M99.3516 450.743L99.3516 129.981" stroke="#FF66E7" stroke-width="1.3146"/>
<path d="M243.961 449.429L243.961 128.666" stroke="#FF66E7" stroke-width="1.3146"/>
<path d="M389.879 450.743L389.879 129.981" stroke="#FF66E7" stroke-width="1.3146"/>
<path d="M44.1406 290.362H154.567" stroke="#FF66E7" stroke-width="1.3146"/>
<path d="M188.746 289.047H299.173" stroke="#FF66E7" stroke-width="1.3146"/>
<path d="M334.664 290.362H445.091" stroke="#FF66E7" stroke-width="1.3146"/>
<ellipse cx="98.9133" cy="400.569" rx="4.382" ry="4.1629" fill="#FF66E7"/>
<ellipse cx="104.171" cy="568.4" rx="4.382" ry="4.1629" fill="#FF66E7"/>
<ellipse cx="248.343" cy="568.839" rx="4.382" ry="4.1629" fill="#FF66E7"/>
<ellipse cx="393.386" cy="567.962" rx="4.382" ry="4.1629" fill="#FF66E7"/>
<ellipse cx="244.394" cy="400.569" rx="4.382" ry="4.1629" fill="#FF66E7"/>
<ellipse cx="390.316" cy="400.569" rx="4.382" ry="4.1629" fill="#FF66E7"/>
<ellipse cx="98.9133" cy="173.582" rx="4.382" ry="4.1629" fill="#FF66E7"/>
<ellipse cx="244.394" cy="173.582" rx="4.382" ry="4.1629" fill="#FF66E7"/>
<ellipse cx="390.316" cy="173.582" rx="4.382" ry="4.1629" fill="#FF66E7"/>
<circle cx="103.954" cy="568.4" r="58.7188" stroke="#FF66E7" stroke-width="1.3146"/>
<circle cx="103.954" cy="568.399" r="46.585" stroke="#FF66E7" stroke-width="1.04295"/>
<circle cx="248.118" cy="568.838" r="46.585" stroke="#FF66E7" stroke-width="1.04295"/>
<circle cx="393.165" cy="567.523" r="46.585" stroke="#FF66E7" stroke-width="1.04295"/>
<circle cx="248.997" cy="568.4" r="58.7188" stroke="#FF66E7" stroke-width="1.3146"/>
<circle cx="394.478" cy="568.4" r="58.7188" stroke="#FF66E7" stroke-width="1.3146"/>
<path d="M104.172 509.9V627.776" stroke="#FF66E7" stroke-width="1.3146"/>
<path d="M248.34 509.9V627.776" stroke="#FF66E7" stroke-width="1.3146"/>
<path d="M393.383 509.023V626.899" stroke="#FF66E7" stroke-width="1.3146"/>
<path d="M45.4531 568.619H163.329" stroke="#FF66E7" stroke-width="1.3146"/>
<path d="M189.621 568.619H307.497" stroke="#FF66E7" stroke-width="1.3146"/>
<path d="M334.664 567.742H452.54" stroke="#FF66E7" stroke-width="1.3146"/>
<path d="M1081.36 249.609L1063.04 175.553H935" stroke="#FF66E7" stroke-width="1.3146"/>
<rect x="1049.59" y="232.738" width="271.246" height="307.178" stroke="#FF66E7" stroke-width="1.3146"/>
<path d="M1274.51 561.168H1279.69C1282.74 561.168 1284.99 562.808 1284.99 566.005C1284.99 569.139 1282.74 570.906 1279.58 570.906H1276.39V576.102H1274.51V561.168ZM1276.39 569.182H1279.69C1281.66 569.182 1283.12 568.172 1283.12 566.047C1283.12 563.923 1281.66 562.871 1279.69 562.871H1276.39V569.182ZM1288.89 573.556L1295.64 565.269H1297.34V576.102H1295.51V567.919L1288.76 576.102H1287.08V565.269H1288.89V573.556ZM1305.23 576.312C1301.87 576.312 1299.49 573.893 1299.49 570.675C1299.49 567.457 1301.87 565.038 1305.23 565.038C1306.6 565.038 1307.8 565.48 1308.72 566.321V568.151C1307.86 567.288 1306.79 566.7 1305.4 566.7C1303.11 566.7 1301.34 568.424 1301.34 570.675C1301.34 572.925 1303.11 574.671 1305.4 574.671C1306.79 574.671 1307.86 574.061 1308.72 573.22V575.029C1307.8 575.891 1306.6 576.312 1305.23 576.312ZM1312.31 574.356H1320.43V576.102H1310.38V574.84C1310.38 570.044 1318.47 569.518 1318.47 565.543C1318.47 563.881 1317.23 562.661 1315.44 562.661C1313.57 562.661 1312.31 564.007 1312.27 565.795H1310.38C1310.38 563.103 1312.44 560.957 1315.47 560.957C1318.2 560.957 1320.35 562.703 1320.35 565.564C1320.35 570.654 1312.94 571.117 1312.31 574.356Z" fill="#FF66E7"/>
<path d="M535.975 221.052H536.781L532.294 233.497H531.453L526.948 221.052H527.79C531.208 230.587 531.646 231.884 531.891 232.849C532.137 231.902 532.557 230.552 535.975 221.052ZM547.326 221.052H548.079V233.497H547.343L539.403 222.244C539.456 222.91 539.456 224.347 539.456 233.497H538.702V221.052H539.438L547.378 232.323C547.326 231.604 547.326 230.237 547.326 221.052ZM555.758 227.52V226.854H561.437V227.52H555.758ZM555.758 230.447V229.799H561.437V230.447H555.758ZM573.028 224.4C574.956 224.4 576.621 225.469 576.621 228.204V233.497H575.85V228.291C575.85 225.907 574.448 225.049 572.853 225.049C570.767 225.049 569.592 226.486 569.592 228.589V233.497H568.821V224.575H569.505L569.575 226.644C570.118 225.206 571.345 224.4 573.028 224.4ZM584.427 228.204C583.918 228.204 583.515 227.8 583.515 227.292C583.515 226.784 583.918 226.381 584.427 226.381C584.935 226.381 585.338 226.784 585.338 227.292C585.338 227.8 584.935 228.204 584.427 228.204ZM600.541 221.052H601.347L596.86 233.497H596.019L591.514 221.052H592.356C595.774 230.587 596.212 231.884 596.457 232.849C596.703 231.902 597.123 230.552 600.541 221.052ZM603.356 222.875C603.005 222.875 602.725 222.612 602.725 222.262C602.725 221.911 603.005 221.631 603.356 221.631C603.706 221.631 603.969 221.911 603.969 222.262C603.969 222.612 603.706 222.875 603.356 222.875ZM602.97 224.575H603.724V237.529H602.97V224.575Z" fill="#FF66E7"/>
<path d="M536.413 252.603H537.219L532.732 265.048H531.89L527.386 252.603H528.227C531.645 262.138 532.083 263.435 532.329 264.399C532.574 263.453 532.995 262.103 536.413 252.603ZM547.763 252.603H548.517V265.048H547.781L539.84 253.795C539.893 254.461 539.893 255.898 539.893 265.048H539.139V252.603H539.876L547.816 263.873C547.763 263.155 547.763 261.788 547.763 252.603ZM555.582 260.578V259.895H561.261V260.578H555.582ZM572.846 255.951C575.563 255.951 577.456 257.931 577.456 260.613C577.456 263.278 575.546 265.223 572.829 265.223C570.918 265.223 569.481 264.171 568.78 262.559V269.079H568.026V256.126H568.692L568.78 258.65V258.668C569.428 257.073 570.848 255.951 572.846 255.951ZM572.724 264.54C575.02 264.54 576.685 262.874 576.685 260.596C576.685 258.282 575.02 256.634 572.724 256.634C570.428 256.634 568.78 258.387 568.78 260.596C568.78 262.769 570.428 264.54 572.724 264.54ZM587.611 258.65L587.699 256.126H588.382V265.048H587.611V262.506C586.98 264.101 585.56 265.223 583.544 265.223C580.828 265.223 578.952 263.225 578.952 260.561C578.952 257.896 580.845 255.951 583.58 255.951C585.49 255.951 586.91 256.985 587.611 258.598V258.65ZM583.667 264.54C585.981 264.54 587.611 262.769 587.611 260.578C587.611 258.387 585.981 256.634 583.667 256.634C581.371 256.634 579.706 258.282 579.706 260.578C579.706 262.874 581.371 264.54 583.667 264.54ZM595.084 265.223C592.437 265.223 590.404 263.19 590.404 260.578C590.404 257.949 592.437 255.951 595.084 255.951C596.258 255.951 597.292 256.354 598.098 257.178L598.081 257.984C597.345 257.213 596.398 256.634 595.136 256.634C592.91 256.634 591.175 258.352 591.175 260.578C591.175 262.804 592.91 264.54 595.136 264.54C596.398 264.54 597.345 263.944 598.081 263.19L598.098 263.996C597.292 264.802 596.258 265.223 595.084 265.223ZM606.57 256.126H607.464L603.766 260.561L607.464 265.048H606.57C604.379 262.436 603.783 261.665 603.31 260.964C602.819 261.682 602.223 262.436 600.068 265.048H599.174L602.854 260.578L599.174 256.126H600.068C602.241 258.72 602.819 259.456 603.31 260.158C603.766 259.491 604.292 258.808 606.57 256.126ZM612.937 265.223C610.29 265.223 608.24 263.19 608.24 260.578C608.24 257.949 610.29 255.951 612.937 255.951C615.566 255.951 617.617 257.949 617.617 260.578C617.617 263.19 615.566 265.223 612.937 265.223ZM612.937 264.54C615.146 264.54 616.863 262.787 616.863 260.561C616.863 258.352 615.146 256.634 612.937 256.634C610.711 256.634 608.976 258.352 608.976 260.561C608.976 262.787 610.711 264.54 612.937 264.54ZM627.049 256.126V264.347H628.189V267.256H627.47V265.048H619.092V267.256H618.373V264.347H619.354C619.652 264.347 620.143 263.856 620.178 262.436L620.319 256.126H627.049ZM620.301 264.347H626.296V256.792H621.037L620.914 262.384C620.879 263.716 620.459 264.277 620.301 264.347ZM634.047 256.126H641.935V265.048H641.181V256.792H634.801V265.048H634.047V256.126ZM649.275 255.951C651.992 255.951 653.885 257.931 653.885 260.613C653.885 263.278 651.974 265.223 649.257 265.223C647.347 265.223 645.909 264.171 645.208 262.559V269.079H644.454V256.126H645.121L645.208 258.65V258.668C645.857 257.073 647.276 255.951 649.275 255.951ZM649.152 264.54C651.448 264.54 653.113 262.874 653.113 260.596C653.113 258.282 651.448 256.634 649.152 256.634C646.856 256.634 645.208 258.387 645.208 260.596C645.208 262.769 646.856 264.54 649.152 264.54ZM656.642 263.961L663.373 256.126H664.092V265.048H663.338V257.195L656.607 265.048H655.889V256.126H656.642V263.961ZM669.286 265.048H668.532V256.792H665.36V256.126H672.441V256.792H669.286V265.048ZM677.469 265.223C674.822 265.223 672.771 263.19 672.771 260.578C672.771 257.949 674.822 255.951 677.469 255.951C680.098 255.951 682.149 257.949 682.149 260.578C682.149 263.19 680.098 265.223 677.469 265.223ZM677.469 264.54C679.678 264.54 681.395 262.787 681.395 260.561C681.395 258.352 679.678 256.634 677.469 256.634C675.243 256.634 673.508 258.352 673.508 260.561C673.508 262.787 675.243 264.54 677.469 264.54ZM690.004 260.42V256.126H690.757V265.048H690.004V261.069C689.25 261.332 688.409 261.455 687.497 261.455C684.745 261.455 683.325 260.245 683.325 258.037V256.126H684.079V258.019C684.079 259.842 685.236 260.771 687.515 260.771C688.303 260.771 689.162 260.683 690.004 260.42ZM700.354 260.175V256.126H701.107V265.048H700.354V260.824H694.044V265.048H693.29V256.126H694.044V260.175H700.354ZM707.818 265.223C705.171 265.223 703.12 263.19 703.12 260.578C703.12 257.949 705.171 255.951 707.818 255.951C710.447 255.951 712.498 257.949 712.498 260.578C712.498 263.19 710.447 265.223 707.818 265.223ZM707.818 264.54C710.026 264.54 711.744 262.787 711.744 260.561C711.744 258.352 710.026 256.634 707.818 256.634C705.592 256.634 703.856 258.352 703.856 260.561C703.856 262.787 705.592 264.54 707.818 264.54ZM714.498 265.048V256.126H720.125V256.792H715.252V265.048H714.498ZM725.14 265.223C722.494 265.223 720.443 263.19 720.443 260.578C720.443 257.949 722.494 255.951 725.14 255.951C727.77 255.951 729.82 257.949 729.82 260.578C729.82 263.19 727.77 265.223 725.14 265.223ZM725.14 264.54C727.349 264.54 729.067 262.787 729.067 260.561C729.067 258.352 727.349 256.634 725.14 256.634C722.914 256.634 721.179 258.352 721.179 260.561C721.179 262.787 722.914 264.54 725.14 264.54ZM741.166 260.28C742.604 260.456 743.392 261.384 743.392 262.559C743.392 264.066 742.236 265.048 739.992 265.048H736.066V256.126H739.817C741.867 256.126 742.779 257.02 742.779 258.317C742.779 259.369 742.253 260.052 741.166 260.28ZM739.834 256.722H736.767V260.087H739.834C741.324 260.087 742.078 259.562 742.078 258.405C742.078 257.371 741.324 256.722 739.834 256.722ZM736.767 264.452H740.027C741.797 264.452 742.691 263.733 742.691 262.559C742.691 261.367 741.797 260.631 740.167 260.631H736.767V264.452ZM749.43 265.223C746.783 265.223 744.732 263.19 744.732 260.578C744.732 257.949 746.783 255.951 749.43 255.951C752.059 255.951 754.11 257.949 754.11 260.578C754.11 263.19 752.059 265.223 749.43 265.223ZM749.43 264.54C751.638 264.54 753.356 262.787 753.356 260.561C753.356 258.352 751.638 256.634 749.43 256.634C747.204 256.634 745.468 258.352 745.468 260.561C745.468 262.787 747.204 264.54 749.43 264.54ZM761 260.385C762.28 260.666 763.191 261.367 763.191 262.559C763.191 264.014 761.842 265.223 759.405 265.223C756.916 265.223 755.356 263.873 755.339 262.208H756.092C756.092 263.593 757.495 264.61 759.405 264.61C761.298 264.61 762.42 263.663 762.42 262.559C762.42 261.209 760.772 260.736 759.282 260.736H758.318V260.158H759.247C760.72 260.158 761.982 259.544 761.982 258.37C761.982 257.265 760.842 256.547 759.23 256.547C757.46 256.547 756.303 257.581 756.303 258.931H755.567C755.584 257.3 756.951 255.933 759.265 255.933C761.403 255.933 762.718 256.915 762.718 258.335C762.718 259.281 762.104 260.035 761 260.385ZM772.46 256.126V264.347H773.599V267.256H772.881V265.048H764.502V267.256H763.783V264.347H764.765C765.063 264.347 765.554 263.856 765.589 262.436L765.729 256.126H772.46ZM765.712 264.347H771.706V256.792H766.448L766.325 262.384C766.29 263.716 765.869 264.277 765.712 264.347ZM782.206 256.126H783.03L777.421 269.079H776.615L778.368 265.013L774.371 256.126H775.213C777.667 261.647 778.315 263.12 778.753 264.277C779.192 263.12 779.788 261.7 782.206 256.126ZM791.128 256.126H792.022L788.324 260.561L792.022 265.048H791.128C788.937 262.436 788.341 261.665 787.868 260.964C787.377 261.682 786.781 262.436 784.625 265.048H783.731L787.412 260.578L783.731 256.126H784.625C786.799 258.72 787.377 259.456 787.868 260.158C788.324 259.491 788.849 258.808 791.128 256.126ZM801.456 258.65L801.544 256.126H802.227V265.048H801.456V262.506C800.825 264.101 799.405 265.223 797.39 265.223C794.673 265.223 792.797 263.225 792.797 260.561C792.797 257.896 794.69 255.951 797.425 255.951C799.335 255.951 800.755 256.985 801.456 258.598V258.65ZM797.512 264.54C799.826 264.54 801.456 262.769 801.456 260.578C801.456 258.387 799.826 256.634 797.512 256.634C795.216 256.634 793.551 258.282 793.551 260.578C793.551 262.874 795.216 264.54 797.512 264.54ZM814.103 260.28C815.54 260.456 816.329 261.384 816.329 262.559C816.329 264.066 815.172 265.048 812.928 265.048H809.002V256.126H812.753C814.804 256.126 815.715 257.02 815.715 258.317C815.715 259.369 815.189 260.052 814.103 260.28ZM812.771 256.722H809.703V260.087H812.771C814.26 260.087 815.014 259.562 815.014 258.405C815.014 257.371 814.26 256.722 812.771 256.722ZM809.703 264.452H812.963C814.734 264.452 815.628 263.733 815.628 262.559C815.628 261.367 814.734 260.631 813.104 260.631H809.703V264.452ZM826.874 261.823L830.608 256.126H831.309V265.048H830.555C830.555 262.016 830.572 259.649 830.66 257.073C829.486 259.036 828.329 260.876 826.857 262.997C825.419 260.894 824.262 259.053 823.07 257.09C823.158 259.649 823.176 262.051 823.176 265.048H822.422V256.126H823.123L826.874 261.823ZM837.204 254.741C838.081 255.022 838.659 255.653 838.659 256.652C838.659 257.861 837.748 258.931 836.083 258.931C834.382 258.931 833.261 257.774 833.261 256.336H833.874C833.874 257.528 834.821 258.387 836.048 258.387C837.292 258.387 838.046 257.563 838.046 256.634C838.046 255.425 836.889 255.057 835.942 255.057H835.294V254.514H835.96C836.994 254.514 837.73 253.918 837.73 252.954C837.73 252.042 836.994 251.429 835.942 251.429C834.803 251.429 834.014 252.287 834.014 253.444H833.401C833.401 252.042 834.365 250.868 835.96 250.868C837.415 250.868 838.344 251.692 838.344 252.901C838.344 253.777 837.888 254.426 837.204 254.741ZM844.087 251.902H844.788L840.126 267.344H839.425L844.087 251.902ZM851.949 260.42V256.126H852.703V265.048H851.949V261.069C851.196 261.332 850.354 261.455 849.443 261.455C846.691 261.455 845.271 260.245 845.271 258.037V256.126H846.025V258.019C846.025 259.842 847.182 260.771 849.46 260.771C850.249 260.771 851.108 260.683 851.949 260.42Z" fill="#FF66E7"/>
<path d="M532.504 287.501C534.432 287.501 536.097 288.57 536.097 291.304V296.598H535.326V291.392C535.326 289.008 533.924 288.149 532.329 288.149C530.243 288.149 529.068 289.586 529.068 291.69V296.598H528.297V287.676H528.981L529.051 289.744C529.594 288.307 530.821 287.501 532.504 287.501ZM542.676 292.128V291.444H548.355V292.128H542.676ZM556.645 291.777L562.201 296.598H561.22L555.838 291.918C555.874 293.373 555.874 294.897 555.874 296.598H555.12V287.676H555.874C555.874 289.218 555.874 290.428 555.838 291.602L561.22 287.676H562.184L556.645 291.777ZM567.097 296.773C564.451 296.773 562.4 294.74 562.4 292.128C562.4 289.499 564.451 287.501 567.097 287.501C569.727 287.501 571.777 289.499 571.777 292.128C571.777 294.74 569.727 296.773 567.097 296.773ZM567.097 296.089C569.306 296.089 571.024 294.337 571.024 292.11C571.024 289.902 569.306 288.184 567.097 288.184C564.871 288.184 563.136 289.902 563.136 292.11C563.136 294.337 564.871 296.089 567.097 296.089ZM572.866 296.615V295.932C573.655 295.861 574.724 295.493 574.724 293.46V287.676H581.367V296.598H580.613V288.342H575.443V293.513C575.443 295.932 574.005 296.58 572.866 296.615ZM584.648 295.511L591.378 287.676H592.097V296.598H591.343V288.745L584.612 296.598H583.894V287.676H584.648V295.511ZM600.464 291.97V287.676H601.217V296.598H600.464V292.619C599.71 292.882 598.868 293.004 597.957 293.004C595.205 293.004 593.785 291.795 593.785 289.586V287.676H594.539V289.569C594.539 291.392 595.696 292.321 597.975 292.321C598.763 292.321 599.622 292.233 600.464 291.97ZM607.729 287.501C610.445 287.501 612.233 289.551 612.216 292.303H603.995C604.065 294.635 605.713 296.124 607.851 296.124C609.692 296.124 610.779 295.055 611.217 294.056L611.9 294.161C611.427 295.511 609.972 296.773 607.851 296.773C605.24 296.773 603.241 294.932 603.241 292.093C603.241 289.551 605.134 287.501 607.729 287.501ZM607.729 288.132C605.643 288.132 604.1 289.709 603.995 291.69H611.427C611.357 289.744 609.902 288.132 607.729 288.132ZM618.397 296.773C615.75 296.773 613.717 294.74 613.717 292.128C613.717 289.499 615.75 287.501 618.397 287.501C619.572 287.501 620.606 287.904 621.412 288.728L621.394 289.534C620.658 288.763 619.712 288.184 618.45 288.184C616.224 288.184 614.488 289.902 614.488 292.128C614.488 294.354 616.224 296.089 618.45 296.089C619.712 296.089 620.658 295.493 621.394 294.74L621.412 295.546C620.606 296.352 619.572 296.773 618.397 296.773ZM626.151 296.598H625.397V288.342H622.224V287.676H629.306V288.342H626.151V296.598ZM635.69 291.83C637.127 292.005 637.916 292.934 637.916 294.109C637.916 295.616 636.759 296.598 634.516 296.598H630.59V287.676H634.341C636.391 287.676 637.303 288.57 637.303 289.867C637.303 290.919 636.777 291.602 635.69 291.83ZM634.358 288.272H631.291V291.637H634.358C635.848 291.637 636.602 291.111 636.602 289.955C636.602 288.92 635.848 288.272 634.358 288.272ZM631.291 296.002H634.551C636.321 296.002 637.215 295.283 637.215 294.109C637.215 292.917 636.321 292.181 634.691 292.181H631.291V296.002ZM643.954 296.773C641.307 296.773 639.256 294.74 639.256 292.128C639.256 289.499 641.307 287.501 643.954 287.501C646.583 287.501 648.634 289.499 648.634 292.128C648.634 294.74 646.583 296.773 643.954 296.773ZM643.954 296.089C646.162 296.089 647.88 294.337 647.88 292.11C647.88 289.902 646.162 288.184 643.954 288.184C641.727 288.184 639.992 289.902 639.992 292.11C639.992 294.337 641.727 296.089 643.954 296.089ZM653.967 296.615V295.932C654.756 295.861 655.825 295.493 655.825 293.46V287.676H662.468V296.598H661.715V288.342H656.544V293.513C656.544 295.932 655.107 296.58 653.967 296.615ZM671.954 287.536C674.513 287.536 676.423 289.499 676.423 292.128C676.423 294.757 674.513 296.72 671.954 296.72C669.482 296.72 667.607 294.862 667.502 292.338H665.749V296.598H664.995V287.676H665.749V291.707H667.519C667.712 289.288 669.535 287.536 671.954 287.536ZM671.954 296.037C674.075 296.037 675.687 294.372 675.687 292.128C675.687 289.902 674.075 288.219 671.954 288.219C669.833 288.219 668.238 289.902 668.238 292.128C668.238 294.372 669.833 296.037 671.954 296.037ZM685.864 287.676V295.897H687.003V298.806H686.285V296.598H677.906V298.806H677.188V295.897H678.169C678.467 295.897 678.958 295.406 678.993 293.986L679.133 287.676H685.864ZM679.116 295.897H685.11V288.342H679.852L679.729 293.933C679.694 295.266 679.273 295.826 679.116 295.897ZM692.596 287.501C695.313 287.501 697.1 289.551 697.083 292.303H688.862C688.932 294.635 690.58 296.124 692.718 296.124C694.559 296.124 695.646 295.055 696.084 294.056L696.767 294.161C696.294 295.511 694.839 296.773 692.718 296.773C690.107 296.773 688.109 294.932 688.109 292.093C688.109 289.551 690.002 287.501 692.596 287.501ZM692.596 288.132C690.51 288.132 688.967 289.709 688.862 291.69H696.294C696.224 289.744 694.769 288.132 692.596 288.132ZM703.212 286.642C701.862 286.642 700.88 285.888 700.88 284.468H701.546C701.546 285.432 702.142 286.081 703.212 286.081C704.263 286.081 704.877 285.432 704.877 284.468H705.525C705.525 285.888 704.544 286.642 703.212 286.642ZM699.846 295.511L706.577 287.676H707.296V296.598H706.542V288.745L699.811 296.598H699.093V287.676H699.846V295.511ZM719.154 291.83C720.591 292.005 721.38 292.934 721.38 294.109C721.38 295.616 720.223 296.598 717.979 296.598H714.053V287.676H717.804C719.855 287.676 720.766 288.57 720.766 289.867C720.766 290.919 720.24 291.602 719.154 291.83ZM717.821 288.272H714.754V291.637H717.821C719.311 291.637 720.065 291.111 720.065 289.955C720.065 288.92 719.311 288.272 717.821 288.272ZM714.754 296.002H718.014C719.785 296.002 720.679 295.283 720.679 294.109C720.679 292.917 719.785 292.181 718.155 292.181H714.754V296.002ZM728.998 291.777L734.554 296.598H733.573L728.191 291.918C728.227 293.373 728.227 294.897 728.227 296.598H727.473V287.676H728.227C728.227 289.218 728.227 290.428 728.191 291.602L733.573 287.676H734.537L728.998 291.777ZM739.45 296.773C736.804 296.773 734.753 294.74 734.753 292.128C734.753 289.499 736.804 287.501 739.45 287.501C742.08 287.501 744.13 289.499 744.13 292.128C744.13 294.74 742.08 296.773 739.45 296.773ZM739.45 296.089C741.659 296.089 743.377 294.337 743.377 292.11C743.377 289.902 741.659 288.184 739.45 288.184C737.224 288.184 735.489 289.902 735.489 292.11C735.489 294.337 737.224 296.089 739.45 296.089ZM750.583 293.373L754.316 287.676H755.017V296.598H754.264C754.264 293.565 754.281 291.199 754.369 288.622C753.194 290.586 752.038 292.426 750.565 294.547C749.128 292.444 747.971 290.603 746.779 288.64C746.867 291.199 746.884 293.6 746.884 296.598H746.131V287.676H746.832L750.583 293.373ZM764.612 291.725V287.676H765.365V296.598H764.612V292.373H758.301V296.598H757.548V287.676H758.301V291.725H764.612ZM776.037 290.2L776.125 287.676H776.808V296.598H776.037V294.056C775.406 295.651 773.986 296.773 771.971 296.773C769.254 296.773 767.378 294.775 767.378 292.11C767.378 289.446 769.271 287.501 772.006 287.501C773.916 287.501 775.336 288.535 776.037 290.147V290.2ZM772.093 296.089C774.407 296.089 776.037 294.319 776.037 292.128C776.037 289.937 774.407 288.184 772.093 288.184C769.797 288.184 768.132 289.832 768.132 292.128C768.132 294.424 769.797 296.089 772.093 296.089ZM782.02 296.598H781.266V288.342H778.093V287.676H785.175V288.342H782.02V296.598ZM789.993 287.501C792.709 287.501 794.497 289.551 794.48 292.303H786.259C786.329 294.635 787.977 296.124 790.115 296.124C791.956 296.124 793.042 295.055 793.481 294.056L794.164 294.161C793.691 295.511 792.236 296.773 790.115 296.773C787.504 296.773 785.505 294.932 785.505 292.093C785.505 289.551 787.398 287.501 789.993 287.501ZM789.993 288.132C787.907 288.132 786.364 289.709 786.259 291.69H793.691C793.621 289.744 792.166 288.132 789.993 288.132Z" fill="#FF66E7"/>
<path d="M536.413 315.704H537.219L532.732 328.148H531.89L527.386 315.704H528.227C531.645 325.239 532.083 326.536 532.329 327.5C532.574 326.553 532.995 325.204 536.413 315.704ZM539.227 317.526C538.876 317.526 538.596 317.264 538.596 316.913C538.596 316.562 538.876 316.282 539.227 316.282C539.578 316.282 539.84 316.562 539.84 316.913C539.84 317.264 539.578 317.526 539.227 317.526ZM538.841 319.227H539.595V332.18H538.841V319.227ZM546.356 323.679V322.995H552.035V323.679H546.356ZM563.252 324.923L566.986 319.227H567.687V328.148H566.933C566.933 325.116 566.951 322.75 567.038 320.173C565.864 322.136 564.707 323.977 563.235 326.098C561.797 323.994 560.64 322.154 559.449 320.191C559.536 322.75 559.554 325.151 559.554 328.148H558.8V319.227H559.501L563.252 324.923ZM570.971 327.062L577.702 319.227H578.42V328.148H577.667V320.296L570.936 328.148H570.217V319.227H570.971V327.062ZM587.996 323.276V319.227H588.75V328.148H587.996V323.924H581.686V328.148H580.933V319.227H581.686V323.276H587.996ZM592.025 327.062L598.756 319.227H599.474V328.148H598.721V320.296L591.99 328.148H591.271V319.227H592.025V327.062ZM606.439 324.923L610.172 319.227H610.873V328.148H610.12C610.12 325.116 610.137 322.75 610.225 320.173C609.05 322.136 607.894 323.977 606.421 326.098C604.984 323.994 603.827 322.154 602.635 320.191C602.723 322.75 602.74 325.151 602.74 328.148H601.987V319.227H602.688L606.439 324.923ZM621.554 321.751L621.642 319.227H622.326V328.148H621.554V325.607C620.923 327.202 619.504 328.324 617.488 328.324C614.771 328.324 612.896 326.326 612.896 323.661C612.896 320.997 614.789 319.051 617.523 319.051C619.433 319.051 620.853 320.086 621.554 321.698V321.751ZM617.611 327.64C619.924 327.64 621.554 325.87 621.554 323.679C621.554 321.488 619.924 319.735 617.611 319.735C615.314 319.735 613.649 321.383 613.649 323.679C613.649 325.975 615.314 327.64 617.611 327.64ZM623.944 328.166V327.482C624.733 327.412 625.802 327.044 625.802 325.011V319.227H632.445V328.148H631.691V319.893H626.52V325.064C626.52 327.482 625.083 328.131 623.944 328.166ZM635.725 322.487H638.302C640.44 322.487 641.965 323.433 641.965 325.309C641.965 327.184 640.44 328.148 638.302 328.148H634.972V319.227H635.725V322.487ZM635.725 327.482H638.249C639.967 327.482 641.211 326.799 641.211 325.309C641.211 323.819 639.967 323.135 638.249 323.135H635.725V327.482ZM650.68 323.276V319.227H651.433V328.148H650.68V323.924H644.369V328.148H643.616V319.227H644.369V323.276H650.68ZM654.708 322.487H657.285C659.423 322.487 660.948 323.433 660.948 325.309C660.948 327.184 659.423 328.148 657.285 328.148H653.954V319.227H654.708V322.487ZM662.596 328.148V319.227H663.35V328.148H662.596ZM654.708 327.482H657.232C658.95 327.482 660.194 326.799 660.194 325.309C660.194 323.819 658.95 323.135 657.232 323.135H654.708V327.482ZM669.987 318.193C668.637 318.193 667.656 317.439 667.656 316.019H668.322C668.322 316.983 668.918 317.632 669.987 317.632C671.039 317.632 671.652 316.983 671.652 316.019H672.301C672.301 317.439 671.319 318.193 669.987 318.193ZM666.622 327.062L673.353 319.227H674.071V328.148H673.317V320.296L666.587 328.148H665.868V319.227H666.622V327.062ZM680.828 319.227H688.716V328.148H687.962V319.893H681.582V328.148H680.828V319.227ZM696.056 319.051C698.773 319.051 700.666 321.032 700.666 323.714C700.666 326.378 698.755 328.324 696.038 328.324C694.128 328.324 692.691 327.272 691.989 325.659V332.18H691.236V319.227H691.902L691.989 321.751V321.768C692.638 320.173 694.058 319.051 696.056 319.051ZM695.933 327.64C698.229 327.64 699.895 325.975 699.895 323.696C699.895 321.383 698.229 319.735 695.933 319.735C693.637 319.735 691.989 321.488 691.989 323.696C691.989 325.87 693.637 327.64 695.933 327.64ZM703.424 327.062L710.154 319.227H710.873V328.148H710.119V320.296L703.389 328.148H702.67V319.227H703.424V327.062ZM716.067 328.148H715.313V319.893H712.141V319.227H719.222V319.893H716.067V328.148ZM724.25 328.324C721.604 328.324 719.553 326.29 719.553 323.679C719.553 321.05 721.604 319.051 724.25 319.051C726.879 319.051 728.93 321.05 728.93 323.679C728.93 326.29 726.879 328.324 724.25 328.324ZM724.25 327.64C726.459 327.64 728.177 325.887 728.177 323.661C728.177 321.453 726.459 319.735 724.25 319.735C722.024 319.735 720.289 321.453 720.289 323.661C720.289 325.887 722.024 327.64 724.25 327.64ZM732.455 323.328L738.012 328.148H737.03L731.649 323.468C731.684 324.923 731.684 326.448 731.684 328.148H730.931V319.227H731.684C731.684 320.769 731.684 321.979 731.649 323.153L737.03 319.227H737.994L732.455 323.328ZM535.361 343.276V339.227H536.115V348.148H535.361V343.924H529.051V348.148H528.297V339.227H529.051V343.276H535.361ZM546.786 341.751L546.874 339.227H547.558V348.148H546.786V345.607C546.155 347.202 544.736 348.324 542.72 348.324C540.003 348.324 538.128 346.326 538.128 343.661C538.128 340.997 540.021 339.051 542.755 339.051C544.666 339.051 546.085 340.086 546.786 341.698V341.751ZM542.843 347.64C545.156 347.64 546.786 345.87 546.786 343.679C546.786 341.488 545.156 339.735 542.843 339.735C540.547 339.735 538.881 341.383 538.881 343.679C538.881 345.975 540.547 347.64 542.843 347.64ZM558.522 348.324C555.875 348.324 553.824 346.29 553.824 343.679C553.824 341.05 555.875 339.051 558.522 339.051C561.151 339.051 563.202 341.05 563.202 343.679C563.202 346.29 561.151 348.324 558.522 348.324ZM558.522 347.64C560.73 347.64 562.448 345.887 562.448 343.661C562.448 341.453 560.73 339.735 558.522 339.735C556.296 339.735 554.56 341.453 554.56 343.661C554.56 345.887 556.296 347.64 558.522 347.64ZM572.634 339.227V347.447H573.773V350.357H573.054V348.148H564.676V350.357H563.957V347.447H564.939C565.237 347.447 565.728 346.957 565.763 345.537L565.903 339.227H572.634ZM565.885 347.447H571.88V339.893H566.622L566.499 345.484C566.464 346.816 566.043 347.377 565.885 347.447ZM582.45 343.276V339.227H583.204V348.148H582.45V343.924H576.14V348.148H575.387V339.227H576.14V343.276H582.45ZM589.915 348.324C587.268 348.324 585.217 346.29 585.217 343.679C585.217 341.05 587.268 339.051 589.915 339.051C592.544 339.051 594.595 341.05 594.595 343.679C594.595 346.29 592.544 348.324 589.915 348.324ZM589.915 347.64C592.123 347.64 593.841 345.887 593.841 343.661C593.841 341.453 592.123 339.735 589.915 339.735C587.688 339.735 585.953 341.453 585.953 343.661C585.953 345.887 587.688 347.64 589.915 347.64ZM596.595 348.148V339.227H602.221V339.893H597.348V348.148H596.595ZM607.237 348.324C604.59 348.324 602.54 346.29 602.54 343.679C602.54 341.05 604.59 339.051 607.237 339.051C609.866 339.051 611.917 341.05 611.917 343.679C611.917 346.29 609.866 348.324 607.237 348.324ZM607.237 347.64C609.446 347.64 611.163 345.887 611.163 343.661C611.163 341.453 609.446 339.735 607.237 339.735C605.011 339.735 603.276 341.453 603.276 343.661C603.276 345.887 605.011 347.64 607.237 347.64ZM624.017 343.521V339.227H624.771V348.148H624.017V344.17C623.263 344.432 622.422 344.555 621.51 344.555C618.758 344.555 617.339 343.346 617.339 341.137V339.227H618.092V341.12C618.092 342.943 619.249 343.872 621.528 343.872C622.317 343.872 623.175 343.784 624.017 343.521ZM631.282 339.051C633.999 339.051 635.787 341.102 635.769 343.854H627.548C627.619 346.185 629.266 347.675 631.405 347.675C633.245 347.675 634.332 346.606 634.77 345.607L635.454 345.712C634.98 347.062 633.525 348.324 631.405 348.324C628.793 348.324 626.795 346.483 626.795 343.644C626.795 341.102 628.688 339.051 631.282 339.051ZM631.282 339.682C629.196 339.682 627.654 341.26 627.548 343.241H634.98C634.91 341.295 633.455 339.682 631.282 339.682ZM636.867 348.166V347.482C637.656 347.412 638.725 347.044 638.725 345.011V339.227H645.368V348.148H644.615V339.893H639.444V345.064C639.444 347.482 638.007 348.131 636.867 348.166ZM652.084 348.324C649.437 348.324 647.387 346.29 647.387 343.679C647.387 341.05 649.437 339.051 652.084 339.051C654.713 339.051 656.764 341.05 656.764 343.679C656.764 346.29 654.713 348.324 652.084 348.324ZM652.084 347.64C654.293 347.64 656.01 345.887 656.01 343.661C656.01 341.453 654.293 339.735 652.084 339.735C649.858 339.735 648.123 341.453 648.123 343.661C648.123 345.887 649.858 347.64 652.084 347.64ZM663.865 343.381C665.302 343.556 666.091 344.485 666.091 345.659C666.091 347.167 664.934 348.148 662.691 348.148H658.764V339.227H662.515C664.566 339.227 665.478 340.121 665.478 341.418C665.478 342.469 664.952 343.153 663.865 343.381ZM662.533 339.823H659.466V343.188H662.533C664.023 343.188 664.777 342.662 664.777 341.505C664.777 340.471 664.023 339.823 662.533 339.823ZM659.466 347.552H662.726C664.496 347.552 665.39 346.834 665.39 345.659C665.39 344.468 664.496 343.731 662.866 343.731H659.466V347.552ZM671.918 339.051C674.635 339.051 676.423 341.102 676.405 343.854H668.185C668.255 346.185 669.902 347.675 672.041 347.675C673.881 347.675 674.968 346.606 675.406 345.607L676.09 345.712C675.617 347.062 674.162 348.324 672.041 348.324C669.429 348.324 667.431 346.483 667.431 343.644C667.431 341.102 669.324 339.051 671.918 339.051ZM671.918 339.682C669.832 339.682 668.29 341.26 668.185 343.241H675.617C675.546 341.295 674.092 339.682 671.918 339.682ZM679.94 343.328L685.496 348.148H684.515L679.134 343.468C679.169 344.923 679.169 346.448 679.169 348.148H678.415V339.227H679.169C679.169 340.769 679.169 341.979 679.134 343.153L684.515 339.227H685.479L679.94 343.328ZM694.354 341.751L694.441 339.227H695.125V348.148H694.354V345.607C693.723 347.202 692.303 348.324 690.287 348.324C687.57 348.324 685.695 346.326 685.695 343.661C685.695 340.997 687.588 339.051 690.322 339.051C692.233 339.051 693.653 340.086 694.354 341.698V341.751ZM690.41 347.64C692.724 347.64 694.354 345.87 694.354 343.679C694.354 341.488 692.724 339.735 690.41 339.735C688.114 339.735 686.449 341.383 686.449 343.679C686.449 345.975 688.114 347.64 690.41 347.64ZM707 343.381C708.438 343.556 709.226 344.485 709.226 345.659C709.226 347.167 708.07 348.148 705.826 348.148H701.9V339.227H705.651C707.702 339.227 708.613 340.121 708.613 341.418C708.613 342.469 708.087 343.153 707 343.381ZM705.668 339.823H702.601V343.188H705.668C707.158 343.188 707.912 342.662 707.912 341.505C707.912 340.471 707.158 339.823 705.668 339.823ZM702.601 347.552H705.861C707.631 347.552 708.525 346.834 708.525 345.659C708.525 344.468 707.631 343.731 706.001 343.731H702.601V347.552ZM721.174 343.521V339.227H721.928V348.148H721.174V344.17C720.42 344.432 719.579 344.555 718.667 344.555C715.916 344.555 714.496 343.346 714.496 341.137V339.227H715.25V341.12C715.25 342.943 716.406 343.872 718.685 343.872C719.474 343.872 720.333 343.784 721.174 343.521ZM732.611 341.751L732.698 339.227H733.382V348.148H732.611V345.607C731.98 347.202 730.56 348.324 728.544 348.324C725.827 348.324 723.952 346.326 723.952 343.661C723.952 340.997 725.845 339.051 728.579 339.051C730.49 339.051 731.91 340.086 732.611 341.698V341.751ZM728.667 347.64C730.981 347.64 732.611 345.87 732.611 343.679C732.611 341.488 730.981 339.735 728.667 339.735C726.371 339.735 724.706 341.383 724.706 343.679C724.706 345.975 726.371 347.64 728.667 347.64ZM740.083 348.324C737.437 348.324 735.403 346.29 735.403 343.679C735.403 341.05 737.437 339.051 740.083 339.051C741.258 339.051 742.292 339.455 743.098 340.278L743.081 341.085C742.344 340.313 741.398 339.735 740.136 339.735C737.91 339.735 736.175 341.453 736.175 343.679C736.175 345.905 737.91 347.64 740.136 347.64C741.398 347.64 742.344 347.044 743.081 346.29L743.098 347.097C742.292 347.903 741.258 348.324 740.083 348.324ZM745.348 350.077L745.944 347.184H746.82L745.961 350.077H745.348ZM758.131 344.923L761.865 339.227H762.566V348.148H761.812C761.812 345.116 761.83 342.75 761.917 340.173C760.743 342.136 759.586 343.977 758.114 346.098C756.677 343.994 755.52 342.154 754.328 340.191C754.415 342.75 754.433 345.151 754.433 348.148H753.679V339.227H754.38L758.131 344.923ZM768.462 337.842C769.338 338.122 769.917 338.753 769.917 339.753C769.917 340.962 769.005 342.031 767.34 342.031C765.64 342.031 764.518 340.874 764.518 339.437H765.131C765.131 340.629 766.078 341.488 767.305 341.488C768.549 341.488 769.303 340.664 769.303 339.735C769.303 338.526 768.146 338.157 767.2 338.157H766.551V337.614H767.217C768.251 337.614 768.988 337.018 768.988 336.054C768.988 335.143 768.251 334.529 767.2 334.529C766.06 334.529 765.272 335.388 765.272 336.545H764.658C764.658 335.143 765.622 333.968 767.217 333.968C768.672 333.968 769.601 334.792 769.601 336.002C769.601 336.878 769.145 337.526 768.462 337.842ZM775.345 335.002H776.046L771.383 350.445H770.682L775.345 335.002ZM783.207 343.521V339.227H783.96V348.148H783.207V344.17C782.453 344.432 781.612 344.555 780.7 344.555C777.948 344.555 776.529 343.346 776.529 341.137V339.227H777.282V341.12C777.282 342.943 778.439 343.872 780.718 343.872C781.507 343.872 782.365 343.784 783.207 343.521Z" fill="#FF66E7"/>
<path d="M1286.43 462.355L1291.84 457.032L1284.53 455.008L1286.43 462.355ZM1285.79 303.655C1299.02 361.013 1301.18 404.796 1287.38 456.481L1288.65 456.82C1302.52 404.87 1300.33 360.858 1287.07 303.36L1285.79 303.655Z" fill="#FF66E7"/>
<path d="M1081.39 307.89L1075.98 313.213L1083.3 315.237L1081.39 307.89ZM1082.04 466.59C1068.81 409.232 1066.65 365.449 1080.45 313.764L1079.18 313.425C1065.31 365.376 1067.5 409.387 1080.75 466.885L1082.04 466.59Z" fill="#FF66E7"/>
<path d="M1265.62 261.914L1260.3 256.504L1258.27 263.819L1265.62 261.914ZM1106.92 262.555C1164.28 249.331 1208.06 247.172 1259.75 260.971L1260.09 259.7C1208.14 245.831 1164.12 248.018 1106.63 261.274L1106.92 262.555Z" fill="#FF66E7"/>
<path d="M1106.78 511.215L1112.1 516.625L1114.12 509.31L1106.78 511.215ZM1265.48 510.574C1208.12 523.797 1164.34 525.957 1112.65 512.158L1112.31 513.428C1164.26 527.298 1208.27 525.111 1265.77 511.855L1265.48 510.574Z" fill="#FF66E7"/>
<path d="M941.955 165.079V171.656H942.867V173.984H942.292V172.217H935.589V173.984H935.014V171.656H935.799C936.038 171.656 936.43 171.263 936.458 170.127L936.571 165.079H941.955ZM936.556 171.656H941.352V165.612H937.145L937.047 170.085C937.019 171.151 936.683 171.6 936.556 171.656ZM948.238 168.403C949.388 168.543 950.019 169.286 950.019 170.226C950.019 171.432 949.093 172.217 947.298 172.217H944.157V165.079H947.158C948.799 165.079 949.528 165.795 949.528 166.832C949.528 167.674 949.107 168.22 948.238 168.403ZM947.172 165.556H944.718V168.248H947.172C948.364 168.248 948.967 167.828 948.967 166.902C948.967 166.075 948.364 165.556 947.172 165.556ZM944.718 171.74H947.326C948.743 171.74 949.458 171.165 949.458 170.226C949.458 169.272 948.743 168.683 947.439 168.683H944.718V171.74ZM952.1 171.347L957.485 165.079H958.06V172.217H957.457V165.935L952.072 172.217H951.497V165.079H952.1V171.347ZM968.146 165.079H968.904L964.879 168.361L968.904 172.217H968.146L964.262 168.487C964.29 169.637 964.29 170.843 964.29 172.217H963.687C963.687 170.843 963.701 169.637 963.715 168.487L959.831 172.217H959.074L963.112 168.361L959.088 165.079H959.831L963.715 168.206C963.701 167.295 963.687 166.229 963.687 165.079H964.29C964.29 166.229 964.276 167.295 964.262 168.206L968.146 165.079ZM972.715 164.939C974.888 164.939 976.319 166.58 976.305 168.781H969.728C969.784 170.646 971.102 171.838 972.813 171.838C974.286 171.838 975.155 170.983 975.505 170.184L976.052 170.268C975.674 171.347 974.51 172.357 972.813 172.357C970.724 172.357 969.125 170.885 969.125 168.613C969.125 166.58 970.64 164.939 972.715 164.939ZM972.715 165.444C971.046 165.444 969.812 166.706 969.728 168.291H975.674C975.618 166.734 974.454 165.444 972.715 165.444ZM983.564 168.319V165.079H984.166V172.217H983.564V168.837H978.515V172.217H977.913V165.079H978.515V168.319H983.564ZM986.787 171.347L992.171 165.079H992.746V172.217H992.143V165.935L986.758 172.217H986.184V165.079H986.787V171.347ZM997.939 164.939C1000.11 164.939 1001.54 166.58 1001.53 168.781H994.952C995.008 170.646 996.326 171.838 998.037 171.838C999.509 171.838 1000.38 170.983 1000.73 170.184L1001.28 170.268C1000.9 171.347 999.734 172.357 998.037 172.357C995.948 172.357 994.349 170.885 994.349 168.613C994.349 166.58 995.864 164.939 997.939 164.939ZM997.939 165.444C996.27 165.444 995.036 166.706 994.952 168.291H1000.9C1000.84 166.734 999.678 165.444 997.939 165.444ZM1010.61 168.403C1011.76 168.543 1012.39 169.286 1012.39 170.226C1012.39 171.432 1011.47 172.217 1009.67 172.217H1006.53V165.079H1009.53C1011.17 165.079 1011.9 165.795 1011.9 166.832C1011.9 167.674 1011.48 168.22 1010.61 168.403ZM1009.55 165.556H1007.09V168.248H1009.55C1010.74 168.248 1011.34 167.828 1011.34 166.902C1011.34 166.075 1010.74 165.556 1009.55 165.556ZM1007.09 171.74H1009.7C1011.12 171.74 1011.83 171.165 1011.83 170.226C1011.83 169.272 1011.12 168.683 1009.81 168.683H1007.09V171.74ZM1017.22 172.357C1015.11 172.357 1013.47 170.73 1013.47 168.641C1013.47 166.538 1015.11 164.939 1017.22 164.939C1019.33 164.939 1020.97 166.538 1020.97 168.641C1020.97 170.73 1019.33 172.357 1017.22 172.357ZM1017.22 171.81C1018.99 171.81 1020.36 170.408 1020.36 168.627C1020.36 166.86 1018.99 165.486 1017.22 165.486C1015.44 165.486 1014.05 166.86 1014.05 168.627C1014.05 170.408 1015.44 171.81 1017.22 171.81ZM1026.48 168.487C1027.5 168.711 1028.23 169.272 1028.23 170.226C1028.23 171.389 1027.15 172.357 1025.2 172.357C1023.21 172.357 1021.96 171.277 1021.95 169.945H1022.55C1022.55 171.053 1023.68 171.866 1025.2 171.866C1026.72 171.866 1027.62 171.109 1027.62 170.226C1027.62 169.146 1026.3 168.767 1025.11 168.767H1024.33V168.305H1025.08C1026.26 168.305 1027.27 167.814 1027.27 166.874C1027.27 165.991 1026.35 165.416 1025.06 165.416C1023.65 165.416 1022.72 166.243 1022.72 167.323H1022.13C1022.15 166.019 1023.24 164.925 1025.09 164.925C1026.8 164.925 1027.85 165.71 1027.85 166.846C1027.85 167.603 1027.36 168.206 1026.48 168.487ZM1035.65 165.079V171.656H1036.56V173.984H1035.98V172.217H1029.28V173.984H1028.71V171.656H1029.49C1029.73 171.656 1030.12 171.263 1030.15 170.127L1030.26 165.079H1035.65ZM1030.25 171.656H1035.04V165.612H1030.84L1030.74 170.085C1030.71 171.151 1030.38 171.6 1030.25 171.656ZM1043.45 165.079H1044.1L1039.62 175.442H1038.97L1040.37 172.189L1037.18 165.079H1037.85C1039.81 169.496 1040.33 170.674 1040.68 171.6C1041.03 170.674 1041.51 169.539 1043.45 165.079ZM1050.58 165.079H1051.3L1048.34 168.627L1051.3 172.217H1050.58C1048.83 170.127 1048.35 169.51 1047.97 168.95C1047.58 169.524 1047.1 170.127 1045.38 172.217H1044.66L1047.61 168.641L1044.66 165.079H1045.38C1047.12 167.155 1047.58 167.744 1047.97 168.305C1048.34 167.772 1048.76 167.225 1050.58 165.079ZM1058.84 167.099L1058.91 165.079H1059.46V172.217H1058.84V170.184C1058.34 171.46 1057.2 172.357 1055.59 172.357C1053.42 172.357 1051.92 170.758 1051.92 168.627C1051.92 166.496 1053.43 164.939 1055.62 164.939C1057.15 164.939 1058.28 165.766 1058.84 167.057V167.099ZM1055.69 171.81C1057.54 171.81 1058.84 170.394 1058.84 168.641C1058.84 166.888 1057.54 165.486 1055.69 165.486C1053.85 165.486 1052.52 166.804 1052.52 168.641C1052.52 170.478 1053.85 171.81 1055.69 171.81Z" fill="#FF66E7"/>
<path d="M999.827 265.73H1002.07V266.976H999.827V269.263H998.486V266.976H996.246V265.73H998.486V263.442H999.827V265.73ZM1004.81 269.311H1010.9V270.62H1003.36V269.674C1003.36 266.077 1009.43 265.682 1009.43 262.701C1009.43 261.455 1008.5 260.54 1007.16 260.54C1005.76 260.54 1004.81 261.549 1004.78 262.89H1003.36C1003.36 260.871 1004.9 259.262 1007.18 259.262C1009.23 259.262 1010.83 260.571 1010.83 262.717C1010.83 266.534 1005.28 266.881 1004.81 269.311ZM1016.05 270.778C1013.59 270.778 1012.09 269.043 1012.09 267.102H1013.5C1013.53 268.427 1014.52 269.5 1016.05 269.5C1017.44 269.5 1018.64 268.443 1018.64 266.897C1018.64 265.209 1017.47 264.278 1016.09 264.278C1015.12 264.278 1013.97 264.736 1013.61 265.824H1012.22L1013.2 259.42H1019.26V260.666H1014.33L1013.8 264.058C1014.43 263.364 1015.42 263.064 1016.35 263.064C1018.44 263.064 1020.05 264.531 1020.05 266.85C1020.05 269.011 1018.39 270.778 1016.05 270.778Z" fill="#FF66E7"/>
<path d="M996.482 521.571V520.325H1002.3V521.571H996.482ZM1005.13 523.906H1011.22V525.215H1003.68V524.268C1003.68 520.672 1009.75 520.277 1009.75 517.296C1009.75 516.049 1008.82 515.134 1007.48 515.134C1006.08 515.134 1005.13 516.144 1005.1 517.485H1003.68C1003.68 515.466 1005.23 513.857 1007.5 513.857C1009.55 513.857 1011.16 515.166 1011.16 517.311C1011.16 521.129 1005.61 521.476 1005.13 523.906ZM1016.38 525.373C1013.92 525.373 1012.42 523.637 1012.42 521.697H1013.82C1013.85 523.022 1014.85 524.095 1016.38 524.095C1017.77 524.095 1018.96 523.038 1018.96 521.492C1018.96 519.804 1017.8 518.873 1016.41 518.873C1015.45 518.873 1014.3 519.331 1013.93 520.419H1012.54L1013.52 514.014H1019.58V515.261H1014.66L1014.12 518.652C1014.75 517.958 1015.75 517.659 1016.68 517.659C1018.76 517.659 1020.37 519.126 1020.37 521.445C1020.37 523.606 1018.71 525.373 1016.38 525.373Z" fill="#FF66E7"/>
<path d="M1014.89 392.16C1012.71 392.16 1010.77 390.645 1010.77 388.184V384.619C1010.77 382.158 1012.71 380.644 1014.89 380.644C1017.05 380.644 1019 382.158 1019 384.619V388.184C1019 390.645 1017.05 392.16 1014.89 392.16ZM1014.89 390.85C1016.37 390.85 1017.6 389.746 1017.6 388.184V384.619C1017.6 383.057 1016.37 381.953 1014.89 381.953C1013.39 381.953 1012.17 383.057 1012.17 384.619V388.184C1012.17 389.746 1013.39 390.85 1014.89 390.85Z" fill="#FF66E7"/>
<path d="M1123.01 384.095V390.181H1123.97V392.957H1122.84V391.316H1116.44V384.095H1117.64V390.223H1121.79V384.095H1123.01ZM1126.28 389.62L1130.78 384.095H1131.92V391.316H1130.7V385.862L1126.2 391.316H1125.08V384.095H1126.28V389.62ZM1137.88 383.955C1140.08 383.955 1141.5 385.609 1141.5 387.727C1141.5 389.872 1140.04 391.457 1137.83 391.457C1136.56 391.457 1135.5 390.812 1134.94 389.732V394.542H1133.72V384.095H1134.76L1134.94 385.75V385.778C1135.39 384.684 1136.45 383.955 1137.88 383.955ZM1137.59 390.363C1139.14 390.363 1140.27 389.255 1140.27 387.713C1140.27 386.156 1139.14 385.048 1137.59 385.048C1136.05 385.048 1134.95 386.212 1134.95 387.713C1134.95 389.199 1136.05 390.363 1137.59 390.363ZM1145.28 387.432L1149.19 391.316H1147.72L1144.04 387.671C1144.11 388.666 1144.13 389.788 1144.13 391.316H1142.91V384.095H1144.13C1144.13 385.609 1144.13 386.451 1144.06 387.194L1147.7 384.095H1149.17L1145.28 387.432ZM1155.59 384.095H1156.9L1152.58 394.542H1151.29L1152.61 391.33L1149.46 384.095H1150.8C1152.51 388.049 1153 389.283 1153.24 390.209C1153.48 389.283 1153.92 388.091 1155.59 384.095ZM1157.46 391.344V390.251C1158.05 390.223 1158.75 389.914 1158.75 388.582V384.095H1164.43V391.316H1163.23V385.189H1159.93V388.61C1159.93 390.587 1158.77 391.358 1157.46 391.344ZM1168.27 384.095H1171.61V391.316H1170.45C1170.45 388.877 1170.45 388.245 1170.53 388.035H1170.5L1167.1 391.316H1165.62C1167.77 389.353 1168.54 388.68 1168.99 388.414H1168.13C1166.98 388.414 1165.75 387.769 1165.75 386.24C1165.75 384.922 1166.7 384.095 1168.27 384.095ZM1166.91 386.352C1166.91 387.068 1167.43 387.558 1168.39 387.558H1170.45V385.147H1168.39C1167.43 385.147 1166.91 385.637 1166.91 386.352ZM1179.98 384.095V390.181H1180.93V392.957H1179.81V391.316H1173.4V384.095H1174.61V390.223H1178.76V384.095H1179.98ZM1183.25 389.62L1187.75 384.095H1188.89V391.316H1187.67V385.862L1183.17 391.316H1182.04V384.095H1183.25V389.62ZM1192.73 384.095H1196.07V391.316H1194.9C1194.9 388.877 1194.9 388.245 1194.99 388.035H1194.96L1191.55 391.316H1190.08C1192.23 389.353 1193 388.68 1193.45 388.414H1192.59C1191.44 388.414 1190.21 387.769 1190.21 386.24C1190.21 384.922 1191.16 384.095 1192.73 384.095ZM1191.37 386.352C1191.37 387.068 1191.89 387.558 1192.84 387.558H1194.9V385.147H1192.84C1191.89 385.147 1191.37 385.637 1191.37 386.352ZM1205.47 387.432C1206.49 387.544 1207.15 388.26 1207.15 389.213C1207.15 390.433 1206.18 391.316 1204.32 391.316H1201.04V384.109H1204.15C1205.8 384.109 1206.67 384.782 1206.67 385.89C1206.67 386.815 1206.17 387.292 1205.47 387.432ZM1204.19 385.048H1202.13V387.152H1204.19C1205.07 387.152 1205.58 386.815 1205.58 386.1C1205.58 385.427 1205.07 385.048 1204.19 385.048ZM1202.13 390.377H1204.42C1205.47 390.377 1206.04 389.914 1206.04 389.185C1206.04 388.442 1205.47 387.979 1204.47 387.979H1202.13V390.377ZM1211.88 391.457C1209.68 391.457 1208.02 389.844 1208.02 387.699C1208.02 385.553 1209.68 383.941 1211.88 383.941C1214.07 383.941 1215.72 385.553 1215.72 387.699C1215.72 389.844 1214.07 391.457 1211.88 391.457ZM1211.88 390.349C1213.38 390.349 1214.53 389.199 1214.53 387.685C1214.53 386.184 1213.38 385.048 1211.88 385.048C1210.38 385.048 1209.22 386.184 1209.22 387.685C1209.22 389.199 1210.38 390.349 1211.88 390.349ZM1221.7 387.502C1222.61 387.769 1223.1 388.358 1223.1 389.185C1223.1 390.447 1221.99 391.457 1219.89 391.457C1217.74 391.457 1216.59 390.363 1216.55 388.989H1217.73C1217.73 389.872 1218.63 390.517 1219.92 390.517C1221.15 390.517 1221.88 389.928 1221.88 389.213C1221.88 388.358 1220.88 388.035 1219.85 388.035H1219.03V387.166H1219.76C1220.62 387.166 1221.54 386.857 1221.54 386.044C1221.54 385.343 1220.81 384.894 1219.76 384.894C1218.6 384.894 1217.87 385.511 1217.87 386.366H1216.69C1216.73 385.062 1217.81 383.941 1219.82 383.941C1221.64 383.941 1222.75 384.782 1222.75 385.988C1222.75 386.619 1222.43 387.18 1221.7 387.502ZM1230.82 384.095V390.181H1231.79V392.957H1230.67V391.316H1224.66V392.957H1223.54V390.181H1224.43C1224.68 390.181 1224.97 389.816 1224.99 388.82L1225.1 384.095H1230.82ZM1225.76 390.181H1229.61V385.189H1226.25L1226.17 388.75C1226.14 389.676 1225.9 390.096 1225.76 390.181ZM1238.4 384.095H1239.7L1235.38 394.542H1234.09L1235.41 391.33L1232.27 384.095H1233.6C1235.31 388.049 1235.8 389.283 1236.04 390.209C1236.28 389.283 1236.73 388.091 1238.4 384.095ZM1245.95 384.095H1247.36L1244.48 387.629L1247.36 391.316H1245.95C1244.5 389.508 1244.01 388.834 1243.76 388.26C1243.49 388.834 1243.02 389.508 1241.6 391.316H1240.2L1243.07 387.685L1240.2 384.095H1241.6C1243.06 385.862 1243.51 386.465 1243.76 387.04C1244.01 386.507 1244.45 385.918 1245.95 384.095ZM1254.3 385.735L1254.48 384.095H1255.53V391.316H1254.3V389.62C1253.85 390.727 1252.78 391.457 1251.35 391.457C1249.17 391.457 1247.74 389.802 1247.74 387.685C1247.74 385.539 1249.2 383.941 1251.42 383.941C1252.67 383.941 1253.74 384.6 1254.3 385.665V385.735ZM1251.65 390.363C1253.19 390.363 1254.29 389.199 1254.29 387.699C1254.29 386.212 1253.19 385.048 1251.65 385.048C1250.09 385.048 1248.98 386.156 1248.98 387.699C1248.98 389.255 1250.09 390.363 1251.65 390.363Z" fill="#FF66E7"/>
</g>
<defs>
<filter id="filter0_f_280_2643" x="13.8735" y="0.64208" width="1278.7" height="106.022" filterUnits="userSpaceOnUse" color-interpolation-filters="sRGB">
<feFlood flood-opacity="0" result="BackgroundImageFix"/>
<feBlend mode="normal" in="SourceGraphic" in2="BackgroundImageFix" result="shape"/>
<feGaussianBlur stdDeviation="6.573" result="effect1_foregroundBlur_280_2643"/>
</filter>
<filter id="filter1_f_280_2643" x="991.053" y="670.617" width="531.089" height="87.9541" filterUnits="userSpaceOnUse" color-interpolation-filters="sRGB">
<feFlood flood-opacity="0" result="BackgroundImageFix"/>
<feBlend mode="normal" in="SourceGraphic" in2="BackgroundImageFix" result="shape"/>
<feGaussianBlur stdDeviation="6.573" result="effect1_foregroundBlur_280_2643"/>
</filter>
<clipPath id="clip0_280_2643">
<rect width="1528.44" height="764.221" fill="white" transform="translate(0.757812 0.711914)"/>
</clipPath>
</defs>
</svg>
