<svg width="1529" height="765" viewBox="0 0 1529 765" fill="none" xmlns="http://www.w3.org/2000/svg">
<g clip-path="url(#clip0_280_2949)">
<rect width="1528.44" height="764.221" transform="translate(0.269531 0.711914)" fill="white"/>
<rect x="-27.3359" y="-22.9512" width="1590.23" height="802.783" fill="#FF66E7"/>
<path d="M1119.87 84.8457V382.384" stroke="white" stroke-opacity="0.3" stroke-width="1.3086"/>
<path d="M18.6758 -7.17578V778.637" stroke="white" stroke-opacity="0.3" stroke-width="1.3086"/>
<path d="M1510.31 0.273438V786.086" stroke="white" stroke-opacity="0.3" stroke-width="1.3086"/>
<path d="M1418.79 -4.12695V781.686" stroke="white" stroke-opacity="0.3" stroke-width="1.3086"/>
<path d="M100.621 3.34082V789.154" stroke="white" stroke-opacity="0.3" stroke-width="1.3086"/>
<path d="M790.664 -22.8428V791.105" stroke="white" stroke-opacity="0.3" stroke-width="1.3086"/>
<path d="M1496.34 383.111H1501.9V384.306H1495.02V383.442C1495.02 380.16 1500.56 379.8 1500.56 377.08C1500.56 375.942 1499.71 375.108 1498.49 375.108C1497.21 375.108 1496.34 376.029 1496.32 377.252H1495.02C1495.02 375.41 1496.43 373.942 1498.5 373.942C1500.38 373.942 1501.84 375.136 1501.84 377.094C1501.84 380.577 1496.78 380.894 1496.34 383.111ZM1502.59 375.223V374.086H1509.37V375.064L1505.58 384.306H1504.23L1508 375.223H1502.59Z" fill="white"/>
<path d="M20.4895 383.987H26.0458V385.182H19.1652V384.318C19.1652 381.036 24.7071 380.676 24.7071 377.956C24.7071 376.818 23.8578 375.984 22.6343 375.984C21.3532 375.984 20.4895 376.905 20.4607 378.128H19.1652C19.1652 376.286 20.5759 374.818 22.6487 374.818C24.52 374.818 25.9882 376.012 25.9882 377.97C25.9882 381.453 20.9213 381.77 20.4895 383.987ZM31.0818 378.387C32.9387 378.387 34.3637 379.798 34.3637 381.77C34.3637 383.785 32.8955 385.326 30.7507 385.326C28.5915 385.326 27.1089 383.785 27.1089 381.828C27.1089 381.209 27.296 380.403 27.8574 379.481L30.6643 374.947L32.075 374.961L29.815 378.647C30.1749 378.474 30.578 378.387 31.0818 378.387ZM30.7507 384.131C32.0894 384.131 33.0826 383.138 33.0826 381.77C33.0826 380.403 32.0894 379.409 30.7507 379.409C29.3688 379.409 28.39 380.388 28.39 381.77C28.39 383.138 29.3976 384.131 30.7507 384.131Z" fill="white"/>
<path d="M-27.3359 79.1494L1528.71 86.5988" stroke="white" stroke-opacity="0.3" stroke-width="1.3146"/>
<path d="M100.398 385.014H1418.72" stroke="white" stroke-opacity="0.3" stroke-width="1.3146"/>
<path d="M-36.5391 671.158L1528.71 678.608" stroke="white" stroke-opacity="0.3" stroke-width="1.3146"/>
<path d="M201.132 183.955C187.405 183.955 176.279 181.065 168.91 172.54L136.255 135.116V133.816L185.382 83.6771L167.176 84.6886L168.621 79.9203H207.634L206.189 83.9661C194.341 84.1106 188.272 86.567 181.047 93.9361L146.225 129.626L180.18 168.205C187.116 175.863 192.462 178.753 201.854 183.088L201.132 183.955ZM100.999 182.51L102.444 178.464L110.68 178.319C113.569 178.175 115.303 176.441 115.303 173.407V83.6771L100.999 84.6886L102.444 79.9203H142.034L140.589 83.9661L132.498 84.1106C129.464 84.2551 127.73 86.1335 127.73 89.4568V178.753L142.034 177.742L140.589 182.51H100.999ZM220.244 183.955C214.753 183.955 211.719 178.753 211.719 173.118C233.826 166.471 239.028 146.676 239.028 115.176V83.9661L218.51 84.6886L219.955 79.9203H309.54L308.095 83.9661L299.859 84.1106C296.825 84.2551 295.091 86.1335 295.091 89.4568V178.753L309.396 177.742L307.951 182.51H268.504L269.949 178.464L278.041 178.319C281.22 178.175 282.665 176.586 282.665 173.407V83.9661H243.363V113.443C243.363 148.699 240.184 172.106 220.244 183.955ZM383.86 182.51L385.305 178.464L390.507 178.319C396.864 178.175 400.477 176.73 397.731 170.806L389.062 152.311H343.402L332.132 178.753L349.904 177.742L348.459 182.51H315.515L316.96 178.464L323.173 178.319C327.508 178.175 329.531 173.985 332.276 167.338L362.62 95.8145C358.285 87.7229 353.95 84.1106 343.258 82.5212L343.98 79.9203H368.399L414.781 178.753L424.318 177.742L422.873 182.51H383.86ZM344.992 148.265H387.183L365.221 101.016C365.221 101.016 365.221 100.872 365.076 100.872L344.992 148.265ZM475.58 183.955C444.081 183.955 422.985 161.703 422.985 134.538C422.985 99.4268 446.681 78.4754 477.458 78.4754C489.885 78.4754 500.866 81.7987 509.246 85.989L511.558 112.865H509.391C500.432 92.0577 489.74 83.2437 472.834 83.2437C454.339 83.2437 437.434 100.727 437.434 130.204C437.434 158.235 454.195 179.186 477.314 179.186C493.641 179.186 503.322 170.083 512.425 148.121H514.593L508.235 177.886C499.999 181.498 490.174 183.955 475.58 183.955ZM578.869 183.955C547.37 183.955 526.274 161.703 526.274 134.538C526.274 99.4268 549.971 78.4754 580.748 78.4754C593.174 78.4754 604.155 81.7987 612.536 85.989L614.848 112.865H612.68C603.722 92.0577 593.029 83.2437 576.124 83.2437C557.629 83.2437 540.723 100.727 540.723 130.204C540.723 158.235 557.484 179.186 580.603 179.186C596.931 179.186 606.612 170.083 615.715 148.121H617.882L611.524 177.886C603.288 181.498 593.463 183.955 578.869 183.955Z" fill="white"/>
<path d="M891.301 676.929C877.574 676.929 866.448 674.039 859.079 665.514L826.423 628.09V626.79L875.551 576.65L857.345 577.662L858.79 572.894H897.803L896.358 576.939C884.51 577.084 878.441 579.54 871.216 586.91L836.393 622.6L870.349 661.179C877.285 668.838 882.631 671.728 892.023 676.062L891.301 676.929ZM791.167 675.484L792.612 671.439L800.848 671.294C803.738 671.15 805.472 669.416 805.472 666.381V576.65L791.167 577.662L792.612 572.894H832.203L830.758 576.939L822.666 577.084C819.632 577.228 817.898 579.107 817.898 582.43V671.728L832.203 670.716L830.758 675.484H791.167ZM910.414 676.929C904.923 676.929 901.889 671.728 901.889 666.092C923.996 659.446 929.198 639.65 929.198 608.15V576.939L908.68 577.662L910.125 572.894H999.711L998.266 576.939L990.03 577.084C986.996 577.228 985.262 579.107 985.262 582.43V671.728L999.567 670.716L998.122 675.484H958.675L960.12 671.439L968.211 671.294C971.39 671.15 972.835 669.56 972.835 666.381V576.939H933.533V606.416C933.533 641.673 930.354 665.081 910.414 676.929ZM1010.17 675.484L1011.61 671.439L1019.85 671.294C1022.88 671.15 1024.47 669.271 1024.47 666.237V576.65L1010.17 577.662L1011.61 572.894H1067.39C1074.03 572.894 1080.68 572.027 1087.33 569.137L1090.94 600.636H1088.77C1083.57 584.02 1079.09 576.939 1067.96 576.939H1036.9V620.577H1056.98C1063.05 620.577 1068.83 617.976 1071.29 603.382H1073.45V640.083H1071.29C1068.83 626.645 1063.05 624.044 1056.98 624.044H1036.9V671.439H1071.43C1081.11 671.439 1086.46 662.335 1093.39 644.852H1095.56L1088.34 679.241C1082.56 676.929 1078.37 675.484 1072.01 675.484H1010.17ZM1126.76 675.484L1128.21 671.439L1138.32 671.294C1140.92 671.294 1142.8 670.138 1142.8 666.381V576.939H1125.17C1116.36 576.939 1112.6 585.32 1107.11 602.948H1104.95L1108.12 569.137C1114.77 571.304 1120.26 572.894 1128.06 572.894H1170.98C1178.78 572.894 1184.27 571.16 1190.92 569.137L1194.1 602.948H1191.93C1187.74 585.32 1182.97 576.939 1173.87 576.939H1155.23V671.728L1172.14 670.716L1170.69 675.484H1126.76ZM1252.08 676.929C1224.04 676.929 1200.93 654.966 1200.93 625.345C1200.93 594.568 1222.89 571.449 1252.08 571.449C1280.11 571.449 1303.23 593.412 1303.23 623.033C1303.23 653.81 1281.26 676.929 1252.08 676.929ZM1215.23 621.299C1215.23 649.62 1231.56 672.017 1255.26 672.017C1274.91 672.017 1288.92 652.51 1288.92 627.079C1288.92 598.758 1272.59 576.361 1248.9 576.361C1229.25 576.361 1215.23 595.868 1215.23 621.299ZM1412.13 676.929C1398.4 676.929 1387.28 674.039 1379.91 665.514L1347.25 628.09V626.79L1396.38 576.65L1378.17 577.662L1379.62 572.894H1418.63L1417.19 576.939C1405.34 577.084 1399.27 579.54 1392.04 586.91L1357.22 622.6L1391.18 661.179C1398.11 668.838 1403.46 671.728 1412.85 676.062L1412.13 676.929ZM1311.99 675.484L1313.44 671.439L1321.68 671.294C1324.57 671.15 1326.3 669.416 1326.3 666.381V576.65L1311.99 577.662L1313.44 572.894H1353.03L1351.59 576.939L1343.49 577.084C1340.46 577.228 1338.73 579.107 1338.73 582.43V671.728L1353.03 670.716L1351.59 675.484H1311.99Z" fill="white"/>
<path d="M1126.73 98.2648C1123.22 98.2648 1120.59 95.5787 1120.59 92.0199C1120.59 88.4612 1123.22 85.775 1126.73 85.775C1130.22 85.775 1132.86 88.4612 1132.86 92.0199C1132.86 95.5787 1130.22 98.2648 1126.73 98.2648ZM1126.73 96.8448C1129.37 96.8448 1131.33 94.689 1131.33 92.0199C1131.33 89.3509 1129.37 87.1951 1126.73 87.1951C1124.08 87.1951 1122.11 89.3509 1122.11 92.0199C1122.11 94.689 1124.08 96.8448 1126.73 96.8448ZM1139.13 89.4193C1141.65 89.4193 1143.48 91.1987 1143.48 93.7993C1143.48 96.3999 1141.58 98.2648 1138.91 98.2648C1136.5 98.2648 1134.31 96.6737 1134.31 93.44V91.8317C1134.31 88.4441 1135.92 86.5792 1138.62 86.0317L1142.43 85.2447V86.5279L1138.96 87.2464C1137.16 87.6228 1135.85 88.581 1135.74 91.4211C1136.43 89.9839 1137.8 89.4193 1139.13 89.4193ZM1138.93 96.9132C1140.72 96.9132 1142.01 95.6129 1142.01 93.7822C1142.01 91.9686 1140.72 90.6854 1138.93 90.6854C1137.1 90.6854 1135.8 91.9686 1135.8 93.7822C1135.8 95.6129 1137.1 96.9132 1138.93 96.9132ZM1157.5 89.2825V96.7079H1158.7V100.096H1157.33V98.0938H1145.06V89.2825H1146.53V96.7592H1150.53V89.2825H1152.02V96.7592H1156.03V89.2825H1157.5ZM1161.52 96.0235L1167.01 89.2825H1168.4V98.0938H1166.91V91.4382L1161.42 98.0938H1160.05V89.2825H1161.52V96.0235ZM1174.78 88.3585C1173.43 88.3585 1172.16 87.64 1172.16 85.9632H1173.34C1173.34 86.7332 1173.82 87.3491 1174.78 87.3491C1175.76 87.3491 1176.22 86.7332 1176.22 85.9632H1177.4C1177.4 87.64 1176.13 88.3585 1174.78 88.3585ZM1172.06 96.0235L1177.55 89.2825H1178.94V98.0938H1177.45V91.4382L1171.96 98.0938H1170.59V89.2825H1172.06V96.0235ZM1185.01 89.2825H1193.03V98.0938H1191.54V90.617H1186.48V98.0938H1185.01V89.2825ZM1194.47 98.128V96.7934C1195.18 96.7592 1196.04 96.3828 1196.04 94.7574V89.2825H1202.97V98.0938H1201.5V90.617H1197.48V94.7917C1197.48 97.2041 1196.06 98.1451 1194.47 98.128ZM1212.69 91.2842L1212.91 89.2825H1214.19V98.0938H1212.69V96.0235C1212.14 97.3752 1210.84 98.2648 1209.09 98.2648C1206.43 98.2648 1204.68 96.2459 1204.68 93.6624C1204.68 91.0447 1206.46 89.0942 1209.18 89.0942C1210.7 89.0942 1212 89.8984 1212.69 91.1987V91.2842ZM1209.45 96.9303C1211.34 96.9303 1212.67 95.5102 1212.67 93.6795C1212.67 91.866 1211.34 90.4459 1209.45 90.4459C1207.55 90.4459 1206.2 91.7975 1206.2 93.6795C1206.2 95.5787 1207.55 96.9303 1209.45 96.9303ZM1222.97 93.0294V89.2825H1224.46V98.0938H1222.97V94.3297H1217.86V98.0938H1216.39V89.2825H1217.86V93.0294H1222.97Z" fill="white"/>
<path d="M1127.93 125.401L1129.74 125.384L1124.29 131.252L1129.71 137.531H1127.84L1122.68 131.509C1122.75 133.066 1122.75 134.417 1122.75 137.531H1121.22V125.384H1122.75C1122.75 128.378 1122.75 129.575 1122.68 130.944L1127.93 125.401ZM1134.54 128.532C1137.23 128.532 1139.09 130.465 1139.04 133.579H1131.55C1131.65 135.307 1132.99 136.453 1134.7 136.453C1136.15 136.453 1137.08 135.649 1137.47 134.811L1138.79 134.965C1138.32 136.453 1136.77 137.702 1134.68 137.702C1132.03 137.702 1130.06 135.889 1130.06 133.117C1130.06 130.534 1131.94 128.532 1134.54 128.532ZM1134.54 129.764C1132.92 129.764 1131.67 130.893 1131.55 132.433H1137.49C1137.44 130.927 1136.25 129.764 1134.54 129.764ZM1144.94 127.796C1143.59 127.796 1142.32 127.077 1142.32 125.401H1143.5C1143.5 126.171 1143.98 126.787 1144.94 126.787C1145.92 126.787 1146.38 126.171 1146.38 125.401H1147.56C1147.56 127.077 1146.29 127.796 1144.94 127.796ZM1142.22 135.461L1147.71 128.72H1149.1V137.531H1147.61V130.876L1142.12 137.531H1140.75V128.72H1142.22V135.461ZM1155.52 137.702C1152.78 137.702 1150.85 135.735 1150.85 133.117C1150.85 130.499 1152.78 128.532 1155.52 128.532C1156.63 128.532 1157.61 128.891 1158.36 129.575V131.064C1157.66 130.362 1156.78 129.883 1155.65 129.883C1153.79 129.883 1152.35 131.286 1152.35 133.117C1152.35 134.948 1153.79 136.368 1155.65 136.368C1156.78 136.368 1157.66 135.872 1158.36 135.187V136.659C1157.61 137.36 1156.63 137.702 1155.52 137.702ZM1161.69 131.629H1164.03C1166.12 131.629 1167.57 132.706 1167.57 134.588C1167.57 136.453 1166.12 137.531 1164.03 137.531H1160.21V128.72H1161.69V131.629ZM1168.99 137.531V128.72H1170.48V137.531H1168.99ZM1161.69 136.265H1163.89C1165.18 136.265 1166.1 135.701 1166.1 134.571C1166.1 133.442 1165.18 132.895 1163.89 132.895H1161.69V136.265ZM1180.76 137.702C1178.03 137.702 1176.09 135.735 1176.09 133.117C1176.09 130.499 1178.03 128.532 1180.76 128.532C1181.88 128.532 1182.85 128.891 1183.6 129.575V131.064C1182.9 130.362 1182.03 129.883 1180.9 129.883C1179.04 129.883 1177.6 131.286 1177.6 133.117C1177.6 134.948 1179.04 136.368 1180.9 136.368C1182.03 136.368 1182.9 135.872 1183.6 135.187V136.659C1182.85 137.36 1181.88 137.702 1180.76 137.702ZM1192.23 132.792L1197 137.531H1195.21L1190.72 133.083C1190.81 134.298 1190.83 135.666 1190.83 137.531H1189.34V128.72H1190.83C1190.83 130.568 1190.83 131.594 1190.74 132.501L1195.19 128.72H1196.98L1192.23 132.792ZM1197.36 137.565V136.231C1198.07 136.197 1198.93 135.82 1198.93 134.195V128.72H1205.86V137.531H1204.39V130.054H1200.37V134.229C1200.37 136.642 1198.95 137.583 1197.36 137.565ZM1212.05 128.532C1214.74 128.532 1216.6 130.465 1216.55 133.579H1209.06C1209.16 135.307 1210.5 136.453 1212.21 136.453C1213.66 136.453 1214.59 135.649 1214.98 134.811L1216.3 134.965C1215.83 136.453 1214.28 137.702 1212.19 137.702C1209.54 137.702 1207.57 135.889 1207.57 133.117C1207.57 130.534 1209.45 128.532 1212.05 128.532ZM1212.05 129.764C1210.43 129.764 1209.18 130.893 1209.06 132.433H1215C1214.94 130.927 1213.76 129.764 1212.05 129.764ZM1221.46 137.531H1219.97V130.054H1217.15V128.72H1224.27V130.054H1221.46V137.531ZM1228.32 132.792L1233.09 137.531H1231.29L1226.81 133.083C1226.9 134.298 1226.91 135.666 1226.91 137.531H1225.43V128.72H1226.91C1226.91 130.568 1226.91 131.594 1226.83 132.501L1231.28 128.72H1233.07L1228.32 132.792ZM1241.06 130.722L1241.28 128.72H1242.56V137.531H1241.06V135.461C1240.51 136.813 1239.21 137.702 1237.47 137.702C1234.8 137.702 1233.05 135.683 1233.05 133.1C1233.05 130.482 1234.83 128.532 1237.55 128.532C1239.07 128.532 1240.37 129.336 1241.06 130.636V130.722ZM1237.82 136.368C1239.71 136.368 1241.04 134.948 1241.04 133.117C1241.04 131.303 1239.71 129.883 1237.82 129.883C1235.93 129.883 1234.57 131.235 1234.57 133.117C1234.57 135.016 1235.93 136.368 1237.82 136.368ZM1249.31 133.1L1252.47 128.72H1253.88V137.531H1252.39C1252.39 134.161 1252.42 132.45 1252.59 130.397C1251.79 131.834 1250.95 133.1 1249.31 135.187C1247.72 133.168 1246.9 131.919 1246.04 130.448C1246.21 132.45 1246.23 134.161 1246.23 137.531H1244.76V128.72H1246.14L1249.31 133.1ZM1257.54 135.461L1263.03 128.72H1264.42V137.531H1262.93V130.876L1257.44 137.531H1256.07V128.72H1257.54V135.461Z" fill="white"/>
<path d="M1128.18 111.379C1129.53 111.756 1130.51 112.748 1130.51 114.339C1130.51 116.375 1128.79 117.984 1125.8 117.984C1122.6 117.984 1120.87 116.29 1120.87 113.912H1122.36C1122.36 115.64 1123.92 116.615 1125.8 116.615C1127.79 116.615 1128.97 115.588 1128.97 114.305C1128.97 112.765 1127.43 112.218 1125.61 112.218H1124.52V110.9H1125.65C1127.58 110.866 1128.44 109.976 1128.44 108.864C1128.44 107.667 1127.29 106.863 1125.65 106.863C1123.87 106.863 1122.58 107.94 1122.58 109.48H1121.1C1121.1 107.205 1122.81 105.494 1125.72 105.494C1128.26 105.494 1129.96 106.726 1129.96 108.762C1129.96 110.011 1129.34 110.969 1128.18 111.379ZM1139.76 111.003L1139.98 109.001H1141.26V117.812H1139.76V115.742C1139.21 117.094 1137.91 117.984 1136.17 117.984C1133.5 117.984 1131.75 115.965 1131.75 113.381C1131.75 110.763 1133.53 108.813 1136.25 108.813C1137.77 108.813 1139.07 109.617 1139.76 110.917V111.003ZM1136.53 116.649C1138.41 116.649 1139.74 115.229 1139.74 113.398C1139.74 111.585 1138.41 110.165 1136.53 110.165C1134.63 110.165 1133.27 111.516 1133.27 113.398C1133.27 115.297 1134.63 116.649 1136.53 116.649ZM1148.01 113.381L1151.17 109.001H1152.58V117.812H1151.09C1151.09 114.442 1151.12 112.731 1151.29 110.678C1150.49 112.115 1149.65 113.381 1148.01 115.469C1146.42 113.45 1145.6 112.201 1144.74 110.729C1144.91 112.731 1144.93 114.442 1144.93 117.812H1143.46V109.001H1144.84L1148.01 113.381ZM1158.77 108.813C1161.46 108.813 1163.32 110.746 1163.27 113.86H1155.78C1155.88 115.588 1157.22 116.735 1158.93 116.735C1160.38 116.735 1161.31 115.93 1161.7 115.092L1163.02 115.246C1162.55 116.735 1161 117.984 1158.91 117.984C1156.26 117.984 1154.29 116.17 1154.29 113.398C1154.29 110.815 1156.17 108.813 1158.77 108.813ZM1158.77 110.045C1157.15 110.045 1155.9 111.174 1155.78 112.714H1161.72C1161.67 111.208 1160.48 110.045 1158.77 110.045ZM1168.18 117.812H1166.69V110.336H1163.87V109.001H1170.99V110.336H1168.18V117.812ZM1175.04 113.073L1179.81 117.812H1178.02L1173.53 113.364C1173.62 114.579 1173.64 115.948 1173.64 117.812H1172.15V109.001H1173.64C1173.64 110.849 1173.64 111.876 1173.55 112.782L1178 109.001H1179.79L1175.04 113.073ZM1187.78 111.003L1188 109.001H1189.28V117.812H1187.78V115.742C1187.23 117.094 1185.93 117.984 1184.19 117.984C1181.52 117.984 1179.77 115.965 1179.77 113.381C1179.77 110.763 1181.55 108.813 1184.27 108.813C1185.79 108.813 1187.09 109.617 1187.78 110.917V111.003ZM1184.54 116.649C1186.43 116.649 1187.76 115.229 1187.76 113.398C1187.76 111.585 1186.43 110.165 1184.54 110.165C1182.65 110.165 1181.29 111.516 1181.29 113.398C1181.29 115.297 1182.65 116.649 1184.54 116.649ZM1198.84 105.665V106.982C1197.97 106.982 1196.79 107.444 1196.79 109.018V117.025C1196.79 118.617 1197.97 119.079 1198.84 119.079V120.379C1196.74 120.379 1195.34 119.369 1195.34 116.906V109.138C1195.34 106.691 1196.74 105.665 1198.84 105.665ZM1204.54 117.984C1202.18 117.984 1200.08 116.341 1200.08 113.672V109.805C1200.08 107.136 1202.18 105.494 1204.54 105.494C1206.89 105.494 1209.01 107.136 1209.01 109.805V113.672C1209.01 116.341 1206.89 117.984 1204.54 117.984ZM1204.54 116.564C1206.15 116.564 1207.49 115.366 1207.49 113.672V109.805C1207.49 108.112 1206.15 106.914 1204.54 106.914C1202.92 106.914 1201.6 108.112 1201.6 109.805V113.672C1201.6 115.366 1202.92 116.564 1204.54 116.564ZM1217.48 117.812H1210.33V116.461H1213.13V107.41L1210.53 108.283V106.88L1214.67 105.665V116.461H1217.48V117.812ZM1219.94 117.984C1219.43 117.984 1219.02 117.59 1219.02 117.06C1219.02 116.564 1219.43 116.153 1219.94 116.153C1220.44 116.153 1220.85 116.564 1220.85 117.06C1220.85 117.59 1220.44 117.984 1219.94 117.984ZM1226.52 117.984C1224.15 117.984 1222.05 116.341 1222.05 113.672V109.805C1222.05 107.136 1224.15 105.494 1226.52 105.494C1228.86 105.494 1230.98 107.136 1230.98 109.805V113.672C1230.98 116.341 1228.86 117.984 1226.52 117.984ZM1226.52 116.564C1228.12 116.564 1229.46 115.366 1229.46 113.672V109.805C1229.46 108.112 1228.12 106.914 1226.52 106.914C1224.89 106.914 1223.57 108.112 1223.57 109.805V113.672C1223.57 115.366 1224.89 116.564 1226.52 116.564ZM1236.85 117.984C1234.18 117.984 1232.55 116.102 1232.55 113.997H1234.08C1234.11 115.434 1235.19 116.598 1236.85 116.598C1238.35 116.598 1239.65 115.451 1239.65 113.775C1239.65 111.944 1238.39 110.935 1236.88 110.935C1235.84 110.935 1234.59 111.431 1234.2 112.611H1232.69L1233.75 105.665H1240.32V107.017H1234.98L1234.4 110.695C1235.09 109.942 1236.16 109.617 1237.17 109.617C1239.43 109.617 1241.18 111.208 1241.18 113.723C1241.18 116.067 1239.38 117.984 1236.85 117.984ZM1244.04 117.984C1243.52 117.984 1243.11 117.59 1243.11 117.06C1243.11 116.564 1243.52 116.153 1244.04 116.153C1244.53 116.153 1244.94 116.564 1244.94 117.06C1244.94 117.59 1244.53 117.984 1244.04 117.984ZM1253.41 111.431C1254.52 111.858 1255.37 112.782 1255.37 114.391C1255.37 116.221 1253.94 117.984 1251.23 117.984C1248.55 117.984 1246.8 116.221 1246.8 113.912H1248.29C1248.29 115.605 1249.59 116.598 1251.17 116.598C1252.86 116.598 1253.85 115.571 1253.85 114.305C1253.85 112.765 1252.5 112.218 1251.01 112.218H1250.04V110.9H1251.05C1252.55 110.866 1253.37 109.976 1253.37 108.864C1253.37 107.684 1252.43 106.88 1251.03 106.88C1249.52 106.88 1248.46 107.958 1248.46 109.48H1246.97C1246.97 107.29 1248.5 105.494 1251.11 105.494C1253.39 105.494 1254.9 106.845 1254.9 108.762C1254.9 109.994 1254.3 110.9 1253.41 111.431ZM1256.22 107.017V105.665H1264.28V106.828L1259.78 117.812H1258.17L1262.65 107.017H1256.22ZM1264.89 120.379V119.061C1265.77 119.061 1266.95 118.6 1266.95 117.025V109.018C1266.95 107.427 1265.77 106.965 1264.89 106.965V105.665C1267 105.665 1268.38 106.674 1268.38 109.138V116.906C1268.38 119.352 1267 120.379 1264.89 120.379Z" fill="white"/>
</g>
<defs>
<clipPath id="clip0_280_2949">
<rect width="1528.44" height="764.221" fill="white" transform="translate(0.269531 0.711914)"/>
</clipPath>
</defs>
</svg>
