<svg width="1530" height="765" viewBox="0 0 1530 765" fill="none" xmlns="http://www.w3.org/2000/svg">
<g clip-path="url(#clip0_280_2706)">
<rect width="1528.44" height="764.221" transform="translate(0.757812 0.0673828)" fill="white"/>
<g filter="url(#filter0_f_280_2706)">
<path d="M48.0394 91.5338C38.2407 91.5338 27.0181 86.5925 27.0181 78.8038C27.0181 75.8725 29.4469 74.1137 32.3782 74.1137C36.8169 83.1588 41.2557 88.77 49.212 88.77C56.917 88.77 61.1882 83.41 61.1882 75.6212C61.1882 65.9062 53.6507 61.0487 41.6744 61.0487L40.9207 58.7874C50.552 58.7874 58.8432 52.0037 58.8432 43.7124C58.8432 38.6874 56.0795 33.1599 47.2857 33.1599C40.2507 33.1599 35.3094 38.8549 31.8756 49.6587H30.6194L32.2106 32.9924C35.9794 31.5686 41.2557 30.3961 46.9507 30.3961C58.257 30.3961 66.1295 35.7561 66.1295 43.7961C66.1295 50.4124 60.5182 55.9399 52.9807 58.7874C62.6957 59.5412 68.8933 64.2312 68.8933 73.1925C68.8933 84.3313 60.5182 91.5338 48.0394 91.5338ZM110.501 90.6963L111.338 88.3513L114.353 88.2675C118.038 88.1838 120.132 87.3463 118.541 83.9125L113.516 73.1925H87.0507L80.5182 88.5188L90.8195 87.9325L89.982 90.6963H70.8869L71.7244 88.3513L75.3257 88.2675C77.8382 88.1838 79.0107 85.755 80.6019 81.9025L98.1895 40.4461C95.677 35.7561 93.1645 33.6624 86.967 32.7411L87.3857 31.2336H101.54L128.423 88.5188L133.951 87.9325L133.113 90.6963H110.501ZM87.972 70.8475H112.427L99.697 43.4611C99.697 43.4611 99.697 43.3774 99.6133 43.3774L87.972 70.8475ZM151.852 42.9586L150.847 40.9486L149.088 88.5188L157.463 87.9325L156.626 90.6963H137.279L138.117 88.3513L141.802 88.2675C144.901 88.1838 146.659 86.6763 146.827 82.8238L148.837 38.0174C146.324 35.0861 142.807 33.0761 137.614 32.7411L138.033 31.2336H154.197L176.893 80.1438L196.323 31.2336H212.655L211.817 33.5786L207.546 33.6624C205.117 33.7461 203.944 35.2536 204.028 38.0174L206.122 88.5188L213.743 87.9325L212.906 90.6963H190.377L191.214 88.3513L193.727 88.2675C197.244 88.1838 198.836 86.09 198.668 82.3213L196.742 36.9286L175.051 91.5338H174.297L151.852 42.9586ZM219.555 90.6963L220.393 88.3513L225.167 88.2675C226.925 88.1838 227.847 87.095 227.847 85.3363V33.4111L219.555 33.9974L220.393 31.2336H252.721C256.573 31.2336 260.426 30.7311 264.278 29.0561L266.372 47.3137H265.116C262.101 37.6824 259.504 33.5786 253.056 33.5786H235.049V58.8712H246.69C250.208 58.8712 253.558 57.3637 254.982 48.9049H256.238V70.1775H254.982C253.558 62.3887 250.208 60.8812 246.69 60.8812H235.049V88.3513H255.066C260.677 88.3513 263.776 83.075 267.796 72.9412H269.052L264.864 92.8738C261.514 91.5338 259.086 90.6963 255.401 90.6963H219.555ZM287.137 90.6963L287.975 88.3513L293.837 88.2675C295.345 88.2675 296.434 87.5975 296.434 85.42V33.5786H286.216C281.107 33.5786 278.93 38.4361 275.747 48.6537H274.491L276.333 29.0561C280.186 30.3124 283.369 31.2336 287.891 31.2336H312.765C317.287 31.2336 320.47 30.2286 324.322 29.0561L326.165 48.6537H324.909C322.48 38.4361 319.716 33.5786 314.44 33.5786H303.636V88.5188L313.435 87.9325L312.597 90.6963H287.137ZM389.071 91.5338C381.114 91.5338 374.665 89.8588 370.394 84.9175L351.467 63.2262V62.4725L379.942 33.4111L369.389 33.9974L370.227 31.2336H392.839L392.002 33.5786C385.134 33.6624 381.617 35.0861 377.429 39.3574L357.245 60.0437L376.927 82.405C380.947 86.8438 384.045 88.5188 389.489 91.0313L389.071 91.5338ZM331.032 90.6963L331.869 88.3513L336.643 88.2675C338.318 88.1838 339.323 87.1788 339.323 85.42V33.4111L331.032 33.9974L331.869 31.2336H354.817L353.979 33.5786L349.289 33.6624C347.53 33.7461 346.525 34.8349 346.525 36.7611V88.5188L354.817 87.9325L353.979 90.6963H331.032ZM412.282 87.5138V90.6963H396.789L397.626 88.3513L402.4 88.2675C404.075 88.1838 405.08 87.1788 405.08 85.42V33.4111L396.789 33.9974L397.626 31.2336H420.574L419.736 33.5786L415.046 33.6624C413.287 33.7461 412.282 34.8349 412.282 36.7611V78.72L442.851 42.5399C444.61 40.5299 445.364 38.5199 445.364 34.4161V31.2336H460.858L460.02 33.5786L455.33 33.6624C453.571 33.7461 452.566 34.8349 452.566 36.7611V88.5188L460.858 87.9325L460.02 90.6963H437.072L437.91 88.3513L442.684 88.2675C444.359 88.1838 445.364 87.1788 445.364 85.42V43.2936L414.125 80.3113C412.952 81.735 412.282 83.41 412.282 87.5138ZM486.673 90.6963L487.51 88.3513L492.284 88.2675C493.959 88.1838 494.964 87.1788 494.964 85.42V33.4111L486.673 33.9974L487.51 31.2336H513.138C526.371 31.2336 534.997 37.8499 534.997 48.1512C534.997 59.2062 524.696 65.5712 513.808 65.5712H502.167V88.5188L512.133 87.9325L511.295 90.6963H486.673ZM502.167 63.2262H512.3C520.759 63.2262 526.622 57.2799 526.622 49.0724C526.622 39.2736 520.759 33.5786 511.295 33.5786H502.167V63.2262ZM570.454 91.5338C554.206 91.5338 540.806 78.8038 540.806 61.6349C540.806 43.7961 553.536 30.3961 570.454 30.3961C586.701 30.3961 600.102 43.1261 600.102 60.2949C600.102 78.1337 587.371 91.5338 570.454 91.5338ZM549.098 59.2899C549.098 75.705 558.561 88.6863 572.296 88.6863C583.686 88.6863 591.81 77.38 591.81 62.64C591.81 46.2249 582.346 33.2436 568.611 33.2436C557.221 33.2436 549.098 44.5499 549.098 59.2899ZM605.183 90.6963L606.02 88.3513L610.627 88.2675C613.139 88.1838 613.474 86.76 613.474 83.41V33.4111L605.183 33.9974L606.02 31.2336H636.589C640.442 31.2336 644.294 30.8149 648.147 29.7261L649.989 47.3137H648.733C645.634 39.1061 642.535 33.5786 635.249 33.5786H625.702C622.352 33.5786 620.677 35.2536 620.677 38.6874V56.7774H631.815C645.299 56.7774 653.674 62.8912 653.674 72.69C653.674 83.745 645.634 90.6963 632.82 90.6963H605.183ZM620.677 88.3513H631.48C639.939 88.3513 645.299 81.9025 645.299 73.7787C645.299 65.1525 639.52 59.1224 630.224 59.1224H620.677V88.3513ZM691.581 91.5338C675.333 91.5338 661.933 78.8038 661.933 61.6349C661.933 43.7961 674.663 30.3961 691.581 30.3961C707.829 30.3961 721.229 43.1261 721.229 60.2949C721.229 78.1337 708.499 91.5338 691.581 91.5338ZM670.225 59.2899C670.225 75.705 679.688 88.6863 693.424 88.6863C704.814 88.6863 712.937 77.38 712.937 62.64C712.937 46.2249 703.474 33.2436 689.739 33.2436C678.348 33.2436 670.225 44.5499 670.225 59.2899ZM738.358 90.6963L739.196 88.3513L745.058 88.2675C746.566 88.2675 747.654 87.5975 747.654 85.42V33.5786H737.437C732.328 33.5786 730.151 38.4361 726.968 48.6537H725.712L727.554 29.0561C731.407 30.3124 734.589 31.2336 739.112 31.2336H763.986C768.508 31.2336 771.691 30.2286 775.543 29.0561L777.386 48.6537H776.129C773.701 38.4361 770.937 33.5786 765.661 33.5786H754.857V88.5188L764.656 87.9325L763.818 90.6963H738.358ZM812.809 90.6963L813.646 88.3513L816.661 88.2675C820.346 88.1838 822.44 87.3463 820.849 83.9125L815.824 73.1925H789.359L782.826 88.5188L793.128 87.9325L792.29 90.6963H773.195L774.032 88.3513L777.634 88.2675C780.146 88.1838 781.319 85.755 782.91 81.9025L800.498 40.4461C797.985 35.7561 795.473 33.6624 789.275 32.7411L789.694 31.2336H803.848L830.731 88.5188L836.259 87.9325L835.421 90.6963H812.809ZM790.28 70.8475H814.735L802.005 43.4611C802.005 43.4611 802.005 43.3774 801.921 43.3774L790.28 70.8475ZM837.658 71.6012V68.4187H859.768V71.6012H837.658ZM863.2 91.5338C860.687 91.5338 858.593 88.77 858.593 85.1688C865.796 85.1688 873.836 85.2525 878.275 79.39C880.871 76.04 882.043 73.5275 879.615 69.1725L860.268 33.4111L854.573 33.9974L855.411 31.2336H879.28L878.442 33.5786L873.501 33.6624C869.983 33.6624 868.978 34.7511 870.988 38.4361L886.315 67.0787L902.311 33.4111L893.35 33.9974L893.852 31.2336H912.026L911.524 33.5786L908.76 33.6624C905.912 33.6624 904.572 34.0811 903.149 37.0124L885.98 72.9412C879.112 87.2625 869.816 91.5338 863.2 91.5338ZM938.852 68.9212C928.802 68.9212 923.694 63.98 923.694 55.4374V33.4111L915.402 33.9974L916.24 31.2336H939.187L938.35 33.5786L933.66 33.6624C931.901 33.7461 930.896 34.8349 930.896 36.7611V54.0974C930.896 60.2949 934.414 63.8962 941.867 63.8962C947.562 63.8962 954.765 62.3049 960.292 59.3737V33.4111L952.001 33.9974L952.839 31.2336H975.786L974.949 33.5786L970.259 33.6624C968.5 33.7461 967.495 34.8349 967.495 36.7611V88.5188L975.786 87.9325L974.949 90.6963H952.001L952.839 88.3513L957.612 88.2675C959.287 88.1838 960.292 87.1788 960.292 85.42V61.8862C954.43 65.32 946.641 68.9212 938.852 68.9212ZM981.814 90.6963L982.651 88.3513L987.425 88.2675C989.184 88.1838 990.105 87.095 990.105 85.3363V33.4111L981.814 33.9974L982.651 31.2336H1014.98C1018.83 31.2336 1022.68 30.7311 1026.54 29.0561L1028.63 47.3137H1027.37C1024.36 37.6824 1021.76 33.5786 1015.31 33.5786H997.307V58.8712H1008.95C1012.47 58.8712 1015.82 57.3637 1017.24 48.9049H1018.5V70.1775H1017.24C1015.82 62.3887 1012.47 60.8812 1008.95 60.8812H997.307V88.3513H1017.32C1022.93 88.3513 1026.03 83.075 1030.05 72.9412H1031.31L1027.12 92.8738C1023.77 91.5338 1021.34 90.6963 1017.66 90.6963H981.814ZM998.229 17.3311C998.229 15.0698 1000.07 13.1435 1002.5 13.1435C1004.84 13.1435 1006.6 15.0698 1006.6 17.3311C1006.6 19.6761 1004.84 21.5186 1002.5 21.5186C1000.07 21.5186 998.229 19.6761 998.229 17.3311ZM1009.53 17.3311C1009.53 15.0698 1011.46 13.1435 1013.81 13.1435C1016.15 13.1435 1017.91 15.0698 1017.91 17.3311C1017.91 19.6761 1016.07 21.5186 1013.81 21.5186C1011.46 21.5186 1009.53 19.6761 1009.53 17.3311ZM1079.22 90.6963L1080.06 88.3513L1084.83 88.2675C1086.59 88.1838 1087.51 87.1788 1087.51 85.42V61.8024H1052.84V88.5188L1061.13 87.9325L1060.29 90.6963H1037.35L1038.18 88.3513L1042.96 88.2675C1044.63 88.1838 1045.64 87.1788 1045.64 85.42V33.4111L1037.35 33.9974L1038.18 31.2336H1061.13L1060.29 33.5786L1055.6 33.6624C1053.85 33.7461 1052.84 34.8349 1052.84 36.7611V59.4574H1087.51V33.4111L1079.22 33.9974L1080.06 31.2336H1103.01L1102.17 33.5786L1097.48 33.6624C1095.72 33.7461 1094.72 34.8349 1094.72 36.7611V88.5188L1103.01 87.9325L1102.17 90.6963H1079.22ZM1137.81 91.5338C1121.57 91.5338 1108.17 78.8038 1108.17 61.6349C1108.17 43.7961 1120.9 30.3961 1137.81 30.3961C1154.06 30.3961 1167.46 43.1261 1167.46 60.2949C1167.46 78.1337 1154.73 91.5338 1137.81 91.5338ZM1116.46 59.2899C1116.46 75.705 1125.92 88.6863 1139.66 88.6863C1151.05 88.6863 1159.17 77.38 1159.17 62.64C1159.17 46.2249 1149.71 33.2436 1135.97 33.2436C1124.58 33.2436 1116.46 44.5499 1116.46 59.2899ZM1172.54 90.6963L1173.38 88.3513L1178.15 88.2675C1179.91 88.1838 1180.83 87.095 1180.83 85.3363V33.4111L1172.54 33.9974L1173.38 31.2336H1201.77C1205.62 31.2336 1209.48 30.8149 1213.33 29.7261L1215.17 47.3137H1213.91C1210.82 39.1061 1207.72 33.5786 1200.43 33.5786H1193.06C1189.71 33.5786 1188.04 35.2536 1188.04 38.6874V88.5188L1196.66 87.9325L1195.82 90.6963H1172.54ZM1249.78 91.5338C1233.53 91.5338 1220.13 78.8038 1220.13 61.6349C1220.13 43.7961 1232.86 30.3961 1249.78 30.3961C1266.03 30.3961 1279.43 43.1261 1279.43 60.2949C1279.43 78.1337 1266.7 91.5338 1249.78 91.5338ZM1228.42 59.2899C1228.42 75.705 1237.89 88.6863 1251.62 88.6863C1263.01 88.6863 1271.14 77.38 1271.14 62.64C1271.14 46.2249 1261.67 33.2436 1247.94 33.2436C1236.55 33.2436 1228.42 44.5499 1228.42 59.2899Z" fill="#FF66E7"/>
</g>
<g filter="url(#filter1_f_280_2706)">
<path d="M1042.26 740.754C1033.86 735.564 1027.86 723.515 1027.86 711.158C1027.86 698.245 1033.86 686.876 1042.26 682.242L1042.88 682.551C1036.58 689.78 1032.5 700.654 1032.5 711.158C1032.5 721.785 1036.58 733.339 1042.88 740.445L1042.26 740.754ZM1054.95 730.435C1047.04 730.435 1041.17 722.465 1041.17 712.455C1041.17 702.384 1047.04 694.414 1054.95 694.414C1063.17 694.414 1069.22 702.384 1069.22 712.455C1069.22 722.465 1063.17 730.435 1054.95 730.435ZM1043.03 712.455C1043.03 720.611 1049.02 725.122 1054.95 725.122C1061.19 725.122 1067.37 720.611 1067.37 712.455C1067.37 704.238 1061.19 699.727 1054.95 699.727C1049.02 699.727 1043.03 704.238 1043.03 712.455ZM1073.61 729.817L1074.22 728.335L1078.18 728.273C1079.66 728.211 1080.22 727.222 1080.22 725.492V700.16L1072.49 701.149V700.222C1075.77 699.357 1082.69 695.897 1084.79 694.414L1085.78 695.032C1085.41 697.132 1085.16 701.705 1085.16 703.867V728.335L1091.96 728.026L1091.34 729.817H1073.61ZM1101.78 730.435C1099.93 730.435 1098.38 728.891 1098.38 727.037C1098.38 725.245 1099.93 723.762 1101.78 723.762C1103.57 723.762 1105.12 725.245 1105.12 727.037C1105.12 728.891 1103.57 730.435 1101.78 730.435ZM1124.88 730.435C1116.97 730.435 1111.1 722.465 1111.1 712.455C1111.1 702.384 1116.97 694.414 1124.88 694.414C1133.1 694.414 1139.15 702.384 1139.15 712.455C1139.15 722.465 1133.1 730.435 1124.88 730.435ZM1112.96 712.455C1112.96 720.611 1118.95 725.122 1124.88 725.122C1131.12 725.122 1137.3 720.611 1137.3 712.455C1137.3 704.238 1131.12 699.727 1124.88 699.727C1118.95 699.727 1112.96 704.238 1112.96 712.455ZM1139.78 743.287C1150.9 740.321 1158.32 732.351 1158.32 724.504C1158.32 718.511 1153.68 714.494 1144.85 711.652C1147.87 706.462 1148.12 700.778 1148.12 695.032H1155.1C1157.94 695.032 1161.65 694.846 1164.49 693.981V699.48H1149.79L1148.43 707.142C1155.97 709.86 1164.06 715.236 1164.06 722.836C1164.06 732.165 1152.94 741.433 1140.4 744.028L1139.78 743.287ZM1174.97 730.435C1173.12 730.435 1171.57 728.891 1171.57 727.037C1171.57 725.245 1173.12 723.762 1174.97 723.762C1176.76 723.762 1178.31 725.245 1178.31 727.037C1178.31 728.891 1176.76 730.435 1174.97 730.435ZM1179.51 743.287C1190.63 740.321 1198.04 732.351 1198.04 725.245C1198.04 719.128 1193.47 716.595 1187.42 716.595L1186.8 715.915C1191.8 712.579 1195.02 706.956 1195.02 703.002C1195.02 699.851 1193.16 698.059 1190.26 698.059C1187.36 698.059 1184.27 699.419 1181.36 701.643L1180.74 701.025C1183.71 697.627 1187.36 694.414 1192.55 694.414C1197.06 694.414 1200.76 697.503 1200.76 701.952C1200.76 706.4 1196.38 710.478 1191.37 713.815C1198.66 713.938 1203.79 716.966 1203.79 722.959C1203.79 732.165 1192.67 741.433 1180.13 744.028L1179.51 743.287ZM1211.91 743.905L1232.36 699.48H1218.33C1213.76 699.48 1210.92 702.817 1208.57 708.81H1207.89L1209.31 693.92C1211.97 694.537 1214.25 695.032 1217.71 695.032H1234.77L1235.39 696.762L1214.44 743.905H1211.91ZM1254.45 715.73V713.382H1270.76V715.73H1254.45ZM1290.24 728.087C1300.87 720.673 1308.47 711.714 1308.47 705.535C1308.47 701.21 1305.94 698.368 1301.86 698.368C1299.2 698.368 1295.74 699.295 1293.02 701.89L1292.41 701.272C1295.93 697.318 1299.94 694.414 1304.21 694.414C1309.83 694.414 1313.91 698.245 1313.91 704.053C1313.91 710.849 1306.12 717.831 1296.3 725.369H1308.72C1312.3 725.369 1315.39 723.886 1317.61 718.387H1318.48L1316.75 730.93C1314.03 729.941 1311.93 729.817 1308.72 729.817H1290.86L1290.24 728.087ZM1316.93 743.287C1328.05 740.321 1335.47 732.351 1335.47 724.504C1335.47 718.511 1330.83 714.494 1322 711.652C1325.03 706.462 1325.27 700.778 1325.27 695.032H1332.26C1335.1 695.032 1338.8 694.846 1341.65 693.981V699.48H1326.94L1325.58 707.142C1333.12 709.86 1341.21 715.236 1341.21 722.836C1341.21 732.165 1330.09 741.433 1317.55 744.028L1316.93 743.287ZM1352.12 730.435C1350.27 730.435 1348.73 728.891 1348.73 727.037C1348.73 725.245 1350.27 723.762 1352.12 723.762C1353.92 723.762 1355.46 725.245 1355.46 727.037C1355.46 728.891 1353.92 730.435 1352.12 730.435ZM1375.22 730.435C1367.32 730.435 1361.45 722.465 1361.45 712.455C1361.45 702.384 1367.32 694.414 1375.22 694.414C1383.44 694.414 1389.5 702.384 1389.5 712.455C1389.5 722.465 1383.44 730.435 1375.22 730.435ZM1363.3 712.455C1363.3 720.611 1369.29 725.122 1375.22 725.122C1381.47 725.122 1387.64 720.611 1387.64 712.455C1387.64 704.238 1381.47 699.727 1375.22 699.727C1369.29 699.727 1363.3 704.238 1363.3 712.455ZM1390.12 743.287C1401.24 740.321 1408.66 732.351 1408.66 724.504C1408.66 718.511 1404.02 714.494 1395.19 711.652C1398.22 706.462 1398.46 700.778 1398.46 695.032H1405.45C1408.29 695.032 1411.99 694.846 1414.84 693.981V699.48H1400.13L1398.77 707.142C1406.31 709.86 1414.4 715.236 1414.4 722.836C1414.4 732.165 1403.28 741.433 1390.74 744.028L1390.12 743.287ZM1425.31 730.435C1423.46 730.435 1421.92 728.891 1421.92 727.037C1421.92 725.245 1423.46 723.762 1425.31 723.762C1427.11 723.762 1428.65 725.245 1428.65 727.037C1428.65 728.891 1427.11 730.435 1425.31 730.435ZM1429.85 743.287C1440.97 740.321 1448.39 732.351 1448.39 725.245C1448.39 719.128 1443.81 716.595 1437.76 716.595L1437.14 715.915C1442.15 712.579 1445.36 706.956 1445.36 703.002C1445.36 699.851 1443.51 698.059 1440.6 698.059C1437.7 698.059 1434.61 699.419 1431.7 701.643L1431.09 701.025C1434.05 697.627 1437.7 694.414 1442.89 694.414C1447.4 694.414 1451.11 697.503 1451.11 701.952C1451.11 706.4 1446.72 710.478 1441.71 713.815C1449 713.938 1454.13 716.966 1454.13 722.959C1454.13 732.165 1443.01 741.433 1430.47 744.028L1429.85 743.287ZM1462.25 743.905L1482.7 699.48H1468.67C1464.1 699.48 1461.26 702.817 1458.91 708.81H1458.23L1459.65 693.92C1462.31 694.537 1464.6 695.032 1468.06 695.032H1485.11L1485.73 696.762L1464.78 743.905H1462.25ZM1485.19 740.445C1491.49 733.339 1495.57 721.785 1495.57 711.158C1495.57 700.654 1491.49 689.78 1485.19 682.551L1485.8 682.242C1494.21 686.876 1500.2 698.245 1500.2 711.158C1500.2 723.515 1494.21 735.564 1485.8 740.754L1485.19 740.445Z" fill="#FF66E7"/>
</g>
<rect x="0.757812" y="0.0673828" width="1528.44" height="764.221" fill="white" fill-opacity="0.5"/>
<path d="M25.4987 47.4043L25.7978 46.5668L27.5027 46.5369C28.1009 46.507 28.4598 46.148 28.4598 45.5199V26.9453L25.4987 27.1547L25.7978 26.1676H34.9505C39.6764 26.1676 42.7572 28.5306 42.7572 32.2096C42.7572 36.1578 39.0782 38.4311 35.1898 38.4311H31.0322V46.6266L34.5916 46.4172L34.2924 47.4043H25.4987ZM31.0322 37.5936H34.6514C37.6724 37.5936 39.7661 35.4699 39.7661 32.5386C39.7661 29.0391 37.6724 27.0051 34.2924 27.0051H31.0322V37.5936ZM53.2407 47.7034C51.9246 47.7034 51.7153 46.507 51.7153 45.2806H51.6255C50.1898 46.5967 49.113 47.7034 47.1389 47.7034C45.4041 47.7034 43.8487 46.8061 43.8487 45.1012C43.8487 43.7253 45.3443 42.7681 47.7072 41.6913L51.5956 39.9266V37.2645C51.5956 35.2904 51.1769 33.6453 49.2327 33.6453C48.5148 33.6453 47.7371 33.8547 47.3483 34.2136L47.438 35.7092C47.4978 37.0552 46.451 37.5636 45.5536 37.5636C44.6264 37.5636 44.088 37.0552 44.088 36.5467C44.088 35.6793 48.5148 32.4489 50.0702 32.4489C52.5228 32.4489 54.3474 33.8248 54.2278 36.3074C54.0782 39.7471 54.0782 42.4391 54.0782 45.6396L56.4412 45.9088V46.3574C55.3345 47.0753 53.9586 47.7034 53.2407 47.7034ZM46.5706 44.0543C46.5706 45.2507 47.1389 45.7891 48.4849 45.7891C49.6514 45.7891 50.9376 45.3105 51.5956 44.6824V40.5846L48.5148 41.9904C47.1987 42.5587 46.5706 43.2467 46.5706 44.0543ZM63.1475 47.7034C60.3359 47.7034 57.8234 46.5369 57.8234 45.5199C57.8234 44.2936 58.7207 43.3962 59.5283 43.3962C60.4256 45.4601 61.5622 46.8659 63.8654 46.8659C65.8694 46.8659 67.0658 45.49 67.0658 43.4262C67.0658 41.3025 65.8096 40.465 64.0747 40.465C63.7457 40.465 63.4167 40.4949 63.0578 40.5547L62.6689 39.9266C65.002 39.448 66.4676 38.5208 66.4676 36.2775C66.4676 34.2735 65.4207 33.2864 63.7158 33.2864C61.5622 33.2864 60.2162 34.9315 59.289 37.9525H58.8403L59.3787 33.2266C60.7247 32.7779 61.8314 32.4489 63.6859 32.4489C67.0957 32.4489 69.1596 34.0043 69.1596 36.1279C69.1596 37.9525 67.4247 39.1489 65.5404 39.7172C67.9631 39.7471 69.7279 40.7641 69.7279 43.0672C69.7279 45.7592 67.5145 47.7034 63.1475 47.7034ZM71.1423 54.2838L71.4414 53.5659L72.3687 53.536C73.0566 53.5061 73.4455 53.2967 73.4455 52.4891V34.752L71.262 33.765V33.3163C72.5182 32.8676 74.3727 32.4788 75.5392 32.4489H75.8383V34.1538L75.8981 34.4529C77.4236 33.1668 78.979 32.4489 80.5044 32.4489C83.7348 32.4489 86.1576 35.3502 86.1576 39.5677C86.1576 44.3833 83.1366 47.7034 79.2781 47.7034C78.1115 47.7034 76.9151 47.4641 75.8682 47.0155V53.5659L79.1285 53.4164L78.8294 54.2838H71.1423ZM75.8682 43.9346C75.8682 45.6396 77.5133 46.9556 79.2781 46.9556C81.8803 46.9556 83.4357 44.0244 83.4357 40.3453C83.4357 36.5168 81.9999 34.1239 79.3678 34.1239C78.0218 34.1239 76.8553 34.5127 75.8682 35.0511V43.9346ZM97.4935 47.7034C96.1774 47.7034 95.9681 46.507 95.9681 45.2806H95.8783C94.4426 46.5967 93.3658 47.7034 91.3917 47.7034C89.6569 47.7034 88.1015 46.8061 88.1015 45.1012C88.1015 43.7253 89.5971 42.7681 91.96 41.6913L95.8484 39.9266V37.2645C95.8484 35.2904 95.4297 33.6453 93.4855 33.6453C92.7676 33.6453 91.9899 33.8547 91.6011 34.2136L91.6908 35.7092C91.7506 37.0552 90.7038 37.5636 89.8064 37.5636C88.8792 37.5636 88.3408 37.0552 88.3408 36.5467C88.3408 35.6793 92.7676 32.4489 94.323 32.4489C96.7757 32.4489 98.6002 33.8248 98.4806 36.3074C98.331 39.7471 98.331 42.4391 98.331 45.6396L100.694 45.9088V46.3574C99.5873 47.0753 98.2114 47.7034 97.4935 47.7034ZM90.8234 44.0543C90.8234 45.2507 91.3917 45.7891 92.7377 45.7891C93.9042 45.7891 95.1904 45.3105 95.8484 44.6824V40.5846L92.7676 41.9904C91.4515 42.5587 90.8234 43.2467 90.8234 44.0543ZM108.817 47.7034C104.39 47.7034 101.698 44.144 101.698 38.461C101.698 32.1199 103.881 27.5734 107.979 26.9752C109.624 26.7359 111.598 26.8257 112.974 26.4667C114.201 26.1676 114.859 25.0908 114.859 24.373L115.188 24.6721C115.188 27.6333 113.782 28.71 113.154 28.8596C111.389 29.2783 109.624 29.2185 107.889 29.4877C105.377 29.8766 102.655 32.2993 102.595 38.1918H102.745C103.762 34.5726 106.723 32.4489 109.564 32.4489C113.214 32.4489 115.816 35.2306 115.816 39.8967C115.816 44.3833 112.914 47.7034 108.817 47.7034ZM104.39 39.5378C104.39 43.486 106.214 46.8061 109.146 46.8061C111.598 46.8061 113.124 44.5029 113.124 40.6145C113.124 36.5168 111.419 33.6453 108.308 33.6453C106.155 33.6453 104.39 35.7391 104.39 39.5378ZM125.466 47.7034C121.548 47.7034 118.347 44.6525 118.347 40.2556C118.347 35.769 121.279 32.4489 125.376 32.4489C129.295 32.4489 132.465 35.4998 132.465 39.8967C132.465 44.3833 129.564 47.7034 125.466 47.7034ZM121.039 39.5378C121.039 43.5458 123.253 46.8061 126.034 46.8061C128.248 46.8061 129.773 44.2038 129.773 40.6145C129.773 36.6065 127.59 33.3761 124.778 33.3761C122.565 33.3761 121.039 35.9485 121.039 39.5378ZM138.008 47.4043L138.307 46.6864L139.563 46.6565C140.191 46.6266 140.55 46.3275 140.55 45.5199V33.4659H138.606C136.512 33.4659 135.585 35.1708 134.747 37.8927H134.299L134.867 32.2096C136.452 32.6583 137.26 32.748 138.606 32.748H144.887C146.233 32.748 147.041 32.6284 148.626 32.2096L149.164 37.8927H148.716C147.908 35.1708 146.951 33.4659 144.887 33.4659H142.973V46.6864L145.515 46.5369L145.216 47.4043H138.008ZM150.434 47.4043L150.733 46.6864L151.99 46.6565C152.618 46.6266 152.977 46.3275 152.977 45.5199V33.4659L150.494 33.6154L150.793 32.748H157.942L157.643 33.4659L156.416 33.4958C155.788 33.5257 155.399 33.7949 155.399 34.5127V46.6864L157.403 46.5369L157.104 47.4043H150.434ZM156.536 40.5248V40.2257L163.356 33.4659L159.796 33.6154L160.155 32.748H166.945L166.646 33.4659C164.851 33.4659 164.044 33.8248 162.937 34.9315L158.57 39.2386C160.335 41.8409 161.681 43.486 163.116 44.8619C163.954 45.6695 165.12 46.5668 165.988 46.6266L166.586 46.6864L166.646 46.9556C165.808 47.4043 165.031 47.7034 163.834 47.7034C162.189 47.7034 161.412 47.1351 160.365 45.6994L156.536 40.5248ZM177.674 47.7034C176.358 47.7034 176.149 46.507 176.149 45.2806H176.059C174.623 46.5967 173.547 47.7034 171.573 47.7034C169.838 47.7034 168.282 46.8061 168.282 45.1012C168.282 43.7253 169.778 42.7681 172.141 41.6913L176.029 39.9266V37.2645C176.029 35.2904 175.61 33.6453 173.666 33.6453C172.948 33.6453 172.171 33.8547 171.782 34.2136L171.872 35.7092C171.931 37.0552 170.885 37.5636 169.987 37.5636C169.06 37.5636 168.522 37.0552 168.522 36.5467C168.522 35.6793 172.948 32.4489 174.504 32.4489C176.956 32.4489 178.781 33.8248 178.661 36.3074C178.512 39.7471 178.512 42.4391 178.512 45.6396L180.875 45.9088V46.3574C179.768 47.0753 178.392 47.7034 177.674 47.7034ZM171.004 44.0543C171.004 45.2507 171.573 45.7891 172.919 45.7891C174.085 45.7891 175.371 45.3105 176.029 44.6824V40.5846L172.948 41.9904C171.632 42.5587 171.004 43.2467 171.004 44.0543ZM188.319 47.4043L188.618 46.6864L189.875 46.6565C190.503 46.6266 190.862 46.3275 190.862 45.5199V33.4659L188.379 33.6154L188.678 32.748H195.827L195.528 33.4659L194.301 33.4958C193.673 33.5257 193.285 33.7949 193.285 34.5127V46.6864L195.289 46.5369L194.989 47.4043H188.319ZM194.421 40.5248V40.2257L201.241 33.4659L197.681 33.6154L198.04 32.748H204.83L204.531 33.4659C202.736 33.4659 201.929 33.8248 200.822 34.9315L196.455 39.2386C198.22 41.8409 199.566 43.486 201.001 44.8619C201.839 45.6695 203.006 46.5668 203.873 46.6266L204.471 46.6864L204.531 46.9556C203.693 47.4043 202.916 47.7034 201.719 47.7034C200.074 47.7034 199.297 47.1351 198.25 45.6994L194.421 40.5248ZM211.555 47.7034C207.876 47.7034 205.094 44.6525 205.094 40.5846C205.094 35.7391 207.995 32.4489 211.704 32.4489C214.785 32.4489 216.759 34.1538 216.759 37.2346C216.759 37.7431 216.58 38.1619 216.43 38.3413H207.786C207.756 38.7003 207.726 39.0891 207.726 39.5078C207.726 43.3364 209.79 45.7592 212.691 45.7592C214.366 45.7592 215.683 45.1909 216.939 44.0543L217.208 44.3235C215.892 46.3275 214.127 47.7034 211.555 47.7034ZM207.846 37.6534L213.23 37.5936C213.768 37.5936 214.127 37.2645 214.127 36.756C214.127 34.6025 213.11 33.1967 211.405 33.1967C209.611 33.1967 208.265 34.8717 207.846 37.6534ZM223.501 47.2847L223.471 47.165V47.4043H218.506L218.805 46.6864L220.061 46.6565C220.689 46.6266 221.048 46.3275 221.048 45.5199V33.4659L218.565 33.6154L218.865 32.748H226.013L225.714 33.4659L224.488 33.4958C223.86 33.5257 223.471 33.9145 223.471 34.6324V43.9646L230.231 36.0681C230.799 35.3802 231.098 34.3632 231.098 32.8676V32.748H236.063L235.764 33.4659L234.538 33.4958C233.91 33.5257 233.521 33.7949 233.521 34.5127V46.6864L236.003 46.5369L235.704 47.4043H228.556L228.855 46.6864L230.111 46.6565C230.739 46.6266 231.098 46.2079 231.098 45.4003V36.2476L224.129 44.4132C223.71 44.8918 223.501 45.7592 223.501 47.2847ZM223.77 27.1846C223.77 25.9882 224.697 25.3002 226.163 25.3002C225.594 28.5306 226.402 30.2355 228.257 30.2355C230.111 30.2355 230.949 28.5306 230.38 25.3002C231.846 25.3002 232.773 25.9882 232.773 27.1846C232.773 29.069 231.038 30.6842 228.257 30.6842C225.505 30.6842 223.77 29.069 223.77 27.1846ZM243.633 47.7034C240.073 47.7034 237.202 44.7123 237.202 40.7342C237.202 36.1877 240.432 32.4489 244.53 32.4489C246.773 32.4489 248.448 33.3163 248.448 33.7351C248.448 34.6922 247.97 35.8587 247.132 35.8587C246.415 35.8587 245.756 35.2904 245.188 34.7221L243.812 33.2565H243.483C241.808 33.2565 239.894 36.2775 239.894 39.3882C239.894 43.0971 241.719 45.7592 244.53 45.7592C245.966 45.7592 247.282 45.3105 248.748 44.3833L249.017 44.6525C247.731 46.2976 246.175 47.7034 243.633 47.7034ZM257.582 47.7034C253.664 47.7034 250.463 44.6525 250.463 40.2556C250.463 35.769 253.394 32.4489 257.492 32.4489C261.411 32.4489 264.581 35.4998 264.581 39.8967C264.581 44.3833 261.68 47.7034 257.582 47.7034ZM253.155 39.5378C253.155 43.5458 255.369 46.8061 258.15 46.8061C260.364 46.8061 261.889 44.2038 261.889 40.6145C261.889 36.6065 259.706 33.3761 256.894 33.3761C254.681 33.3761 253.155 35.9485 253.155 39.5378ZM265.679 47.4043L265.978 46.6864L267.234 46.6565C267.862 46.6266 268.221 46.3275 268.221 45.5199V33.4659L265.739 33.6154L266.038 32.748H273.186C276.566 32.748 278.69 34.094 278.69 36.2177C278.69 38.102 277.314 39.5078 274.921 39.9266C277.673 40.136 279.258 41.5418 279.258 43.4561C279.258 45.8788 277.135 47.4043 273.725 47.4043H265.679ZM270.644 46.6864H273.067C275.22 46.6864 276.566 45.6396 276.566 43.4262C276.566 41.6913 275.101 40.3753 272.797 40.3753H270.644V46.6864ZM270.644 39.6574H273.276C275.101 39.6574 276.237 38.4011 276.237 36.6065C276.237 34.9016 275.34 33.4359 273.007 33.4359H270.644V39.6574ZM288.545 54.2838C287.469 51.8311 287.08 48.7802 287.139 46.3873L289.353 46.6565C292.165 45.7592 293.032 37.8927 293.032 33.406L289.712 33.6154L290.011 32.748H303.8L303.501 33.4659L302.274 33.4958C301.646 33.5257 301.257 33.9145 301.257 34.6324V46.6864L304.697 46.2976C304.757 48.6905 304.368 51.8311 303.291 54.2838H302.843C303.351 51.7115 303.979 47.4043 301.168 47.4043H290.639C287.857 47.4043 288.485 51.7115 288.994 54.2838H288.545ZM292.015 46.6864H297.848C298.476 46.6864 298.835 46.3275 298.835 45.5199V33.4659H293.899C293.899 37.8927 293.63 43.8748 292.015 46.6864ZM313.427 47.4043L313.726 46.6864L314.982 46.6565C315.61 46.6266 315.969 46.3275 315.969 45.5199V33.4659H311.154C311.154 40.3753 310.526 45.8489 307.774 47.7034C306.398 47.7034 305.74 46.6864 305.74 45.5199C309.359 44.3235 310.286 40.136 310.286 33.4659L306.876 33.6154L307.176 32.748H320.934L320.635 33.4659L319.409 33.4958C318.751 33.5257 318.392 33.7949 318.392 34.5127V46.6864L320.875 46.5369L320.576 47.4043H313.427ZM324.054 47.7034C323.157 47.7034 322.289 47.4641 321.691 46.9257L321.841 46.6266L322.259 46.6565C323.366 46.7463 324.592 45.819 325.55 44.144C326.656 42.3195 327.613 40.8837 328.331 40.2855C325.011 40.0462 323.396 38.8199 323.396 36.8159C323.396 34.3632 325.759 32.748 329.109 32.748H336.766L336.467 33.4659L335.241 33.4958C334.613 33.5257 334.224 33.8248 334.224 34.5127V46.6864L336.736 46.5369L336.437 47.4043H329.259L329.558 46.6864L330.814 46.6565C331.442 46.6266 331.801 46.2677 331.801 45.5199V33.4659H329.259C327.284 33.4659 326.148 35.1708 326.148 36.9056C326.148 38.4311 327.075 39.807 329.348 39.807H330.784V40.1061L327.404 45.5199C326.447 47.0753 325.55 47.7034 324.054 47.7034ZM345.042 54.2838L345.341 53.5659L346.269 53.536C346.957 53.5061 347.346 53.2967 347.346 52.4891V34.752L345.162 33.765V33.3163C346.418 32.8676 348.273 32.4788 349.439 32.4489H349.738V34.1538L349.798 34.4529C351.324 33.1668 352.879 32.4489 354.404 32.4489C357.635 32.4489 360.058 35.3502 360.058 39.5677C360.058 44.3833 357.037 47.7034 353.178 47.7034C352.012 47.7034 350.815 47.4641 349.768 47.0155V53.5659L353.029 53.4164L352.729 54.2838H345.042ZM349.768 43.9346C349.768 45.6396 351.413 46.9556 353.178 46.9556C355.78 46.9556 357.336 44.0244 357.336 40.3453C357.336 36.5168 355.9 34.1239 353.268 34.1239C351.922 34.1239 350.755 34.5127 349.768 35.0511V43.9346ZM371.394 47.7034C370.077 47.7034 369.868 46.507 369.868 45.2806H369.778C368.343 46.5967 367.266 47.7034 365.292 47.7034C363.557 47.7034 362.002 46.8061 362.002 45.1012C362.002 43.7253 363.497 42.7681 365.86 41.6913L369.748 39.9266V37.2645C369.748 35.2904 369.33 33.6453 367.386 33.6453C366.668 33.6453 365.89 33.8547 365.501 34.2136L365.591 35.7092C365.651 37.0552 364.604 37.5636 363.706 37.5636C362.779 37.5636 362.241 37.0552 362.241 36.5467C362.241 35.6793 366.668 32.4489 368.223 32.4489C370.676 32.4489 372.5 33.8248 372.381 36.3074C372.231 39.7471 372.231 42.4391 372.231 45.6396L374.594 45.9088V46.3574C373.487 47.0753 372.111 47.7034 371.394 47.7034ZM364.723 44.0543C364.723 45.2507 365.292 45.7891 366.638 45.7891C367.804 45.7891 369.09 45.3105 369.748 44.6824V40.5846L366.668 41.9904C365.352 42.5587 364.723 43.2467 364.723 44.0543ZM382.233 47.7034C378.674 47.7034 375.802 44.7123 375.802 40.7342C375.802 36.1877 379.033 32.4489 383.131 32.4489C385.374 32.4489 387.049 33.3163 387.049 33.7351C387.049 34.6922 386.57 35.8587 385.733 35.8587C385.015 35.8587 384.357 35.2904 383.789 34.7221L382.413 33.2565H382.084C380.409 33.2565 378.494 36.2775 378.494 39.3882C378.494 43.0971 380.319 45.7592 383.131 45.7592C384.566 45.7592 385.882 45.3105 387.348 44.3833L387.617 44.6525C386.331 46.2976 384.776 47.7034 382.233 47.7034ZM393.009 47.4043L393.308 46.6864L394.564 46.6565C395.193 46.6266 395.551 46.3275 395.551 45.5199V33.4659H393.607C391.513 33.4659 390.586 35.1708 389.749 37.8927H389.3L389.868 32.2096C391.454 32.6583 392.261 32.748 393.607 32.748H399.889C401.234 32.748 402.042 32.6284 403.627 32.2096L404.166 37.8927H403.717C402.91 35.1708 401.952 33.4659 399.889 33.4659H397.974V46.6864L400.517 46.5369L400.218 47.4043H393.009ZM410.473 47.2847L410.443 47.165V47.4043H405.477L405.777 46.6864L407.033 46.6565C407.661 46.6266 408.02 46.3275 408.02 45.5199V33.4659L405.537 33.6154L405.836 32.748H412.985L412.686 33.4659L411.46 33.4958C410.831 33.5257 410.443 33.9145 410.443 34.6324V43.9646L417.202 36.0681C417.771 35.3802 418.07 34.3632 418.07 32.8676V32.748H423.035L422.736 33.4659L421.51 33.4958C420.881 33.5257 420.493 33.7949 420.493 34.5127V46.6864L422.975 46.5369L422.676 47.4043H415.527L415.827 46.6864L417.083 46.6565C417.711 46.6266 418.07 46.2079 418.07 45.4003V36.2476L411.101 44.4132C410.682 44.8918 410.473 45.7592 410.473 47.2847ZM428.032 47.4043L428.331 46.6864L429.587 46.6565C430.215 46.6266 430.574 46.3275 430.574 45.5199V33.4659H428.63C426.536 33.4659 425.609 35.1708 424.771 37.8927H424.323L424.891 32.2096C426.476 32.6583 427.284 32.748 428.63 32.748H434.911C436.257 32.748 437.065 32.6284 438.65 32.2096L439.188 37.8927H438.74C437.932 35.1708 436.975 33.4659 434.911 33.4659H432.997V46.6864L435.539 46.5369L435.24 47.4043H428.032ZM447.395 47.7034C443.716 47.7034 440.934 44.6525 440.934 40.5846C440.934 35.7391 443.835 32.4489 447.544 32.4489C450.625 32.4489 452.599 34.1538 452.599 37.2346C452.599 37.7431 452.42 38.1619 452.27 38.3413H443.626C443.596 38.7003 443.566 39.0891 443.566 39.5078C443.566 43.3364 445.63 45.7592 448.531 45.7592C450.206 45.7592 451.522 45.1909 452.779 44.0543L453.048 44.3235C451.732 46.3275 449.967 47.7034 447.395 47.7034ZM443.686 37.6534L449.07 37.5936C449.608 37.5936 449.967 37.2645 449.967 36.756C449.967 34.6025 448.95 33.1967 447.245 33.1967C445.45 33.1967 444.104 34.8717 443.686 37.6534ZM462.017 47.4043L462.316 46.6864L463.572 46.6565C464.2 46.6266 464.559 46.3275 464.559 45.5199V33.4659H459.744C459.744 40.3753 459.116 45.8489 456.364 47.7034C454.988 47.7034 454.33 46.6864 454.33 45.5199C457.949 44.3235 458.876 40.136 458.876 33.4659L455.467 33.6154L455.766 32.748H469.525L469.226 33.4659L467.999 33.4958C467.341 33.5257 466.982 33.7949 466.982 34.5127V46.6864L469.465 46.5369L469.166 47.4043H462.017ZM470.761 47.4043L471.06 46.6864L472.316 46.6565C472.944 46.6266 473.303 46.3275 473.303 45.5199V33.4659L470.82 33.6154L471.119 32.748H478.268L477.969 33.4659L476.743 33.4958C476.115 33.5257 475.726 33.8547 475.726 34.5726V39.6574H478.149C481.977 39.6574 484.041 41.123 484.041 43.4561C484.041 45.8788 481.947 47.4043 478.567 47.4043H470.761ZM475.726 46.6864H477.939C480.033 46.6864 481.349 45.6396 481.349 43.4262C481.349 41.6913 480.182 40.3753 477.67 40.3753H475.726V46.6864ZM494.616 47.4043L494.915 46.6864L496.172 46.6565C496.8 46.6266 497.159 46.3275 497.159 45.5199V40.4351H490.01V46.6864L492.493 46.5369L492.193 47.4043H485.045L485.344 46.6864L486.6 46.6565C487.228 46.6266 487.587 46.3275 487.587 45.5199V33.4659L485.105 33.6154L485.404 32.748H492.552L492.253 33.4659L491.027 33.4958C490.399 33.5257 490.01 33.7949 490.01 34.5127V39.7172H497.159V33.4659L494.676 33.6154L494.975 32.748H502.124L501.825 33.4659L500.598 33.4958C499.97 33.5257 499.581 33.7949 499.581 34.5127V46.6864L502.064 46.5369L501.765 47.4043H494.616ZM510.334 47.7034C506.416 47.7034 503.215 44.6525 503.215 40.2556C503.215 35.769 506.147 32.4489 510.244 32.4489C514.163 32.4489 517.333 35.4998 517.333 39.8967C517.333 44.3833 514.432 47.7034 510.334 47.7034ZM505.907 39.5378C505.907 43.5458 508.121 46.8061 510.902 46.8061C513.116 46.8061 514.641 44.2038 514.641 40.6145C514.641 36.6065 512.458 33.3761 509.646 33.3761C507.433 33.3761 505.907 35.9485 505.907 39.5378ZM523.427 47.2847L523.397 47.165V47.4043H518.432L518.731 46.6864L519.987 46.6565C520.615 46.6266 520.974 46.3275 520.974 45.5199V33.4659L518.491 33.6154L518.791 32.748H525.939L525.64 33.4659L524.414 33.4958C523.786 33.5257 523.397 33.9145 523.397 34.6324V43.9646L530.157 36.0681C530.725 35.3802 531.024 34.3632 531.024 32.8676V32.748H535.989L535.69 33.4659L534.464 33.4958C533.836 33.5257 533.447 33.7949 533.447 34.5127V46.6864L535.929 46.5369L535.63 47.4043H528.482L528.781 46.6864L530.037 46.6565C530.665 46.6266 531.024 46.2079 531.024 45.4003V36.2476L524.055 44.4132C523.636 44.8918 523.427 45.7592 523.427 47.2847ZM523.696 27.1846C523.696 25.9882 524.623 25.3002 526.089 25.3002C525.52 28.5306 526.328 30.2355 528.183 30.2355C530.037 30.2355 530.874 28.5306 530.306 25.3002C531.772 25.3002 532.699 25.9882 532.699 27.1846C532.699 29.069 530.964 30.6842 528.183 30.6842C525.431 30.6842 523.696 29.069 523.696 27.1846ZM543.715 47.4043L544.014 46.6864L545.27 46.6565C545.898 46.6266 546.257 46.3275 546.257 45.5199V33.4659L543.774 33.6154L544.074 32.748H551.222L550.923 33.4659L549.697 33.4958C549.069 33.5257 548.68 33.7949 548.68 34.5127V46.6864L550.684 46.5369L550.385 47.4043H543.715ZM549.816 40.5248V40.2257L556.636 33.4659L553.077 33.6154L553.436 32.748H560.225L559.926 33.4659C558.132 33.4659 557.324 33.8248 556.217 34.9315L551.85 39.2386C553.615 41.8409 554.961 43.486 556.397 44.8619C557.234 45.6695 558.401 46.5668 559.268 46.6266L559.866 46.6864L559.926 46.9556C559.089 47.4043 558.311 47.7034 557.115 47.7034C555.47 47.7034 554.692 47.1351 553.645 45.6994L549.816 40.5248ZM569.1 47.4043L569.399 46.6864L570.655 46.6565C571.284 46.6266 571.642 46.3275 571.642 45.5199V33.4659H566.827C566.827 40.3753 566.199 45.8489 563.447 47.7034C562.071 47.7034 561.413 46.6864 561.413 45.5199C565.032 44.3235 565.959 40.136 565.959 33.4659L562.55 33.6154L562.849 32.748H576.608L576.309 33.4659L575.082 33.4958C574.424 33.5257 574.065 33.7949 574.065 34.5127V46.6864L576.548 46.5369L576.249 47.4043H569.1ZM583.95 47.7034C580.271 47.7034 577.49 44.6525 577.49 40.5846C577.49 35.7391 580.391 32.4489 584.1 32.4489C587.181 32.4489 589.155 34.1538 589.155 37.2346C589.155 37.7431 588.975 38.1619 588.826 38.3413H580.182C580.152 38.7003 580.122 39.0891 580.122 39.5078C580.122 43.3364 582.186 45.7592 585.087 45.7592C586.762 45.7592 588.078 45.1909 589.334 44.0543L589.603 44.3235C588.287 46.3275 586.523 47.7034 583.95 47.7034ZM580.241 37.6534L585.625 37.5936C586.164 37.5936 586.523 37.2645 586.523 36.756C586.523 34.6025 585.506 33.1967 583.801 33.1967C582.006 33.1967 580.66 34.8717 580.241 37.6534ZM595.257 47.4043L595.557 46.6864L596.813 46.6565C597.441 46.6266 597.8 46.3275 597.8 45.5199V33.4659H595.856C593.762 33.4659 592.835 35.1708 591.997 37.8927H591.549L592.117 32.2096C593.702 32.6583 594.51 32.748 595.856 32.748H602.137C603.483 32.748 604.291 32.6284 605.876 32.2096L606.414 37.8927H605.966C605.158 35.1708 604.201 33.4659 602.137 33.4659H600.223V46.6864L602.765 46.5369L602.466 47.4043H595.257ZM607.684 47.4043L607.983 46.6864L609.239 46.6565C609.868 46.6266 610.226 46.3275 610.226 45.5199V33.4659L607.744 33.6154L608.043 32.748H615.192L614.893 33.4659L613.666 33.4958C613.038 33.5257 612.649 33.7949 612.649 34.5127V46.6864L614.653 46.5369L614.354 47.4043H607.684ZM613.786 40.5248V40.2257L620.605 33.4659L617.046 33.6154L617.405 32.748H624.195L623.896 33.4659C622.101 33.4659 621.293 33.8248 620.187 34.9315L615.82 39.2386C617.585 41.8409 618.93 43.486 620.366 44.8619C621.204 45.6695 622.37 46.5668 623.238 46.6266L623.836 46.6864L623.896 46.9556C623.058 47.4043 622.281 47.7034 621.084 47.7034C619.439 47.7034 618.661 47.1351 617.614 45.6994L613.786 40.5248ZM629.984 47.2847L629.954 47.165V47.4043H624.989L625.288 46.6864L626.544 46.6565C627.172 46.6266 627.531 46.3275 627.531 45.5199V33.4659L625.049 33.6154L625.348 32.748H632.496L632.197 33.4659L630.971 33.4958C630.343 33.5257 629.954 33.9145 629.954 34.6324V43.9646L636.714 36.0681C637.282 35.3802 637.581 34.3632 637.581 32.8676V32.748H642.546L642.247 33.4659L641.021 33.4958C640.393 33.5257 640.004 33.7949 640.004 34.5127V46.6864L642.487 46.5369L642.188 47.4043H635.039L635.338 46.6864L636.594 46.6565C637.222 46.6266 637.581 46.2079 637.581 45.4003V36.2476L630.612 44.4132C630.193 44.8918 629.984 45.7592 629.984 47.2847Z" fill="#FF66E7"/>
<rect x="1099.11" y="414.47" width="172.246" height="172.246" stroke="#FF66E7" stroke-width="1.03763"/>
<rect x="1106.33" y="421.692" width="158.15" height="158.15" stroke="#FF66E7" stroke-width="0.952714"/>
<rect x="1314.55" y="421.692" width="158.15" height="158.15" stroke="#FF66E7" stroke-width="0.952714"/>
<rect x="1109.1" y="160.963" width="158.15" height="158.15" stroke="#FF66E7" stroke-width="0.952714"/>
<rect x="1317.32" y="160.963" width="158.15" height="158.15" stroke="#FF66E7" stroke-width="0.952714"/>
<rect x="1307.33" y="414.47" width="172.246" height="172.246" stroke="#FF66E7" stroke-width="1.03763"/>
<rect x="1101.88" y="153.741" width="172.246" height="172.246" stroke="#FF66E7" stroke-width="1.03763"/>
<rect x="1310.1" y="153.741" width="172.246" height="172.246" stroke="#FF66E7" stroke-width="1.03763"/>
<circle cx="1134.22" cy="449.578" r="27.8431" stroke="#FF66E7" stroke-width="1.03763"/>
<circle cx="1236.25" cy="551.956" r="27.8431" stroke="#FF66E7" stroke-width="1.03763"/>
<path d="M1421.47 500.767C1421.47 522.692 1418.3 542.518 1413.19 556.845C1410.64 564.01 1407.61 569.772 1404.27 573.733C1400.93 577.696 1397.33 579.8 1393.63 579.8C1389.92 579.8 1386.33 577.696 1382.98 573.733C1379.65 569.772 1376.62 564.01 1374.06 556.845C1368.95 542.518 1365.78 522.692 1365.78 500.767C1365.78 478.843 1368.95 459.017 1374.06 444.69C1376.62 437.525 1379.65 431.762 1382.98 427.802C1386.33 423.839 1389.92 421.735 1393.63 421.735C1397.33 421.735 1400.93 423.839 1404.27 427.802C1407.61 431.762 1410.64 437.525 1413.19 444.69C1418.3 459.017 1421.47 478.843 1421.47 500.767Z" stroke="#FF66E7" stroke-width="1.03763"/>
<path d="M1416.08 220.349C1436.78 241.054 1453.27 262.028 1463.2 279.191C1468.16 287.776 1471.47 295.382 1472.85 301.507C1474.24 307.661 1473.66 312.159 1471.09 314.73C1468.51 317.301 1464.02 317.888 1457.86 316.499C1451.74 315.116 1444.13 311.809 1435.55 306.844C1418.38 296.919 1397.41 280.43 1376.7 259.725C1356 239.021 1339.51 218.046 1329.58 200.883C1324.62 192.298 1321.31 184.693 1319.93 178.568C1318.54 172.413 1319.13 167.915 1321.7 165.344C1324.27 162.773 1328.77 162.187 1334.92 163.576C1341.05 164.958 1348.65 168.265 1357.24 173.23C1374.4 183.156 1395.38 199.645 1416.08 220.349Z" stroke="#FF66E7" stroke-width="1.03763"/>
<path d="M1376.7 220.349C1356 241.054 1339.51 262.028 1329.59 279.191C1324.62 287.776 1321.31 295.382 1319.93 301.507C1318.54 307.661 1319.13 312.159 1321.7 314.73C1324.27 317.301 1328.77 317.888 1334.92 316.499C1341.05 315.116 1348.65 311.809 1357.24 306.844C1374.4 296.919 1395.38 280.43 1416.08 259.725C1436.79 239.021 1453.27 218.046 1463.2 200.883C1468.16 192.298 1471.47 184.693 1472.85 178.568C1474.24 172.413 1473.66 167.915 1471.09 165.344C1468.51 162.773 1464.02 162.187 1457.86 163.576C1451.74 164.958 1444.13 168.265 1435.55 173.23C1418.38 183.156 1397.41 199.645 1376.7 220.349Z" stroke="#FF66E7" stroke-width="1.03763"/>
<circle cx="1188.17" cy="240.038" r="79.0328" stroke="#FF66E7" stroke-width="1.03763"/>
<path d="M1134.22 449.23L1119.76 390.777H1018.7" stroke="#FF66E7" stroke-width="1.03763"/>
<path d="M1338.63 449.23L1324.17 390.777H1223.11" stroke="#FF66E7" stroke-width="1.03763"/>
<path d="M1134.22 188.501L1119.76 130.048H1018.7" stroke="#FF66E7" stroke-width="1.03763"/>
<path d="M1343.48 188.501L1329.02 130.048H1227.95" stroke="#FF66E7" stroke-width="1.03763"/>
<path d="M1022.3 386.636L1024.66 383.039H1025.1V388.673H1024.63C1024.63 386.758 1024.64 385.264 1024.69 383.637C1023.95 384.877 1023.22 386.039 1022.29 387.378C1021.38 386.05 1020.65 384.888 1019.9 383.648C1019.96 385.264 1019.97 386.78 1019.97 388.673H1019.49V383.039H1019.93L1022.3 386.636ZM1027.18 387.987L1031.43 383.039H1031.88V388.673H1031.41V383.714L1027.16 388.673H1026.7V383.039H1027.18V387.987ZM1035.16 388.673H1034.69V383.46H1032.68V383.039H1037.15V383.46H1035.16V388.673ZM1040.33 388.784C1038.66 388.784 1037.36 387.5 1037.36 385.85C1037.36 384.19 1038.66 382.929 1040.33 382.929C1041.99 382.929 1043.28 384.19 1043.28 385.85C1043.28 387.5 1041.99 388.784 1040.33 388.784ZM1040.33 388.352C1041.72 388.352 1042.81 387.245 1042.81 385.839C1042.81 384.445 1041.72 383.36 1040.33 383.36C1038.92 383.36 1037.83 384.445 1037.83 385.839C1037.83 387.245 1038.92 388.352 1040.33 388.352ZM1048.23 383.039H1048.79L1046.46 385.839L1048.79 388.673H1048.23C1046.85 387.024 1046.47 386.537 1046.17 386.094C1045.86 386.548 1045.49 387.024 1044.12 388.673H1043.56L1045.88 385.85L1043.56 383.039H1044.12C1045.5 384.677 1045.86 385.142 1046.17 385.585C1046.46 385.164 1046.79 384.733 1048.23 383.039ZM1052.25 388.784C1050.58 388.784 1049.28 387.5 1049.28 385.85C1049.28 384.19 1050.58 382.929 1052.25 382.929C1053.91 382.929 1055.21 384.19 1055.21 385.85C1055.21 387.5 1053.91 388.784 1052.25 388.784ZM1052.25 388.352C1053.64 388.352 1054.73 387.245 1054.73 385.839C1054.73 384.445 1053.64 383.36 1052.25 383.36C1050.84 383.36 1049.75 384.445 1049.75 385.839C1049.75 387.245 1050.84 388.352 1052.25 388.352ZM1060.93 385.596V383.039H1061.4V388.673H1060.93V386.005H1056.94V388.673H1056.47V383.039H1056.94V385.596H1060.93ZM1067.69 383.039V388.23H1068.41V390.067H1067.96V388.673H1062.66V390.067H1062.21V388.23H1062.83C1063.02 388.23 1063.33 387.92 1063.35 387.024L1063.44 383.039H1067.69ZM1063.43 388.23H1067.21V383.46H1063.89L1063.82 386.991C1063.79 387.832 1063.53 388.186 1063.43 388.23ZM1072.47 382.929C1074.19 382.929 1075.38 384.179 1075.38 385.873C1075.38 387.555 1074.18 388.784 1072.46 388.784C1071.25 388.784 1070.35 388.119 1069.9 387.101V391.219H1069.43V383.039H1069.85L1069.9 384.633V384.644C1070.31 383.637 1071.21 382.929 1072.47 382.929ZM1072.39 388.352C1073.84 388.352 1074.9 387.3 1074.9 385.862C1074.9 384.401 1073.84 383.36 1072.39 383.36C1070.94 383.36 1069.9 384.467 1069.9 385.862C1069.9 387.234 1070.94 388.352 1072.39 388.352ZM1077.12 387.987L1081.37 383.039H1081.83V388.673H1081.35V383.714L1077.1 388.673H1076.65V383.039H1077.12V387.987ZM1083.89 387.987L1088.14 383.039H1088.59V388.673H1088.12V383.714L1083.87 388.673H1083.41V383.039H1083.89V387.987Z" fill="#FF66E7"/>
<path d="M1229.62 380.815V388.23H1230.45V390.067H1229.99V388.673H1223.7V390.067H1223.25V388.23H1223.87C1224.09 388.23 1224.45 387.765 1224.47 386.492L1224.58 380.815H1229.62ZM1224.49 388.23H1229.13V381.257H1225.06L1224.96 386.448C1224.94 387.677 1224.6 388.186 1224.49 388.23ZM1237.06 384.434V380.815H1237.54V388.673H1237.06V384.865H1232.39V388.673H1231.9V380.815H1232.39V384.434H1237.06ZM1243.87 380.826L1244.47 380.815L1240.5 384.578L1244.47 388.673H1243.86L1239.98 384.666C1240.01 385.906 1240.01 387.079 1240.01 388.673H1239.52V380.815H1240.01C1240.01 382.298 1240.01 383.36 1239.98 384.467L1243.87 380.826Z" fill="#FF66E7"/>
<path d="M1020.84 122.31H1023.32V127.943H1022.87C1022.87 125.94 1022.87 125.531 1022.9 125.265L1019.61 127.943H1018.99C1021.27 126.128 1021.88 125.663 1022.23 125.453H1020.86C1019.81 125.453 1019.06 124.878 1019.06 123.881C1019.06 122.963 1019.71 122.31 1020.84 122.31ZM1019.51 123.904C1019.51 124.59 1020 125.099 1020.93 125.099H1022.87V122.719H1020.93C1020 122.719 1019.51 123.239 1019.51 123.904ZM1029.61 122.31V127.501H1030.33V129.338H1029.88V127.943H1024.59V129.338H1024.13V127.501H1024.75C1024.94 127.501 1025.25 127.191 1025.27 126.294L1025.36 122.31H1029.61ZM1025.35 127.501H1029.14V122.73H1025.81L1025.74 126.261C1025.72 127.102 1025.45 127.456 1025.35 127.501ZM1034.39 122.199C1036.11 122.199 1037.3 123.45 1037.3 125.143C1037.3 126.825 1036.1 128.054 1034.38 128.054C1033.18 128.054 1032.27 127.39 1031.83 126.372V130.489H1031.35V122.31H1031.77L1031.83 123.904V123.915C1032.23 122.907 1033.13 122.199 1034.39 122.199ZM1034.32 127.622C1035.77 127.622 1036.82 126.571 1036.82 125.132C1036.82 123.671 1035.77 122.631 1034.32 122.631C1032.87 122.631 1031.83 123.738 1031.83 125.132C1031.83 126.505 1032.87 127.622 1034.32 127.622ZM1039.05 124.368H1040.67C1042.02 124.368 1042.99 124.966 1042.99 126.15C1042.99 127.335 1042.02 127.943 1040.67 127.943H1038.57V122.31H1039.05V124.368ZM1044.03 127.943V122.31H1044.5V127.943H1044.03ZM1039.05 127.523H1040.64C1041.72 127.523 1042.51 127.091 1042.51 126.15C1042.51 125.21 1041.72 124.778 1040.64 124.778H1039.05V127.523ZM1050.31 127.512H1053.56V122.31H1054.04V127.943H1046.09V122.31H1046.57V127.512H1049.83V122.31H1050.31V127.512ZM1056.6 124.9L1060.11 127.943H1059.49L1056.09 124.988C1056.11 125.907 1056.11 126.87 1056.11 127.943H1055.64V122.31H1056.11C1056.11 123.284 1056.11 124.047 1056.09 124.789L1059.49 122.31H1060.1L1056.6 124.9ZM1063.2 128.054C1061.53 128.054 1060.23 126.77 1060.23 125.121C1060.23 123.461 1061.53 122.199 1063.2 122.199C1064.86 122.199 1066.15 123.461 1066.15 125.121C1066.15 126.77 1064.86 128.054 1063.2 128.054ZM1063.2 127.622C1064.59 127.622 1065.68 126.516 1065.68 125.11C1065.68 123.715 1064.59 122.631 1063.2 122.631C1061.79 122.631 1060.7 123.715 1060.7 125.11C1060.7 126.516 1061.79 127.622 1063.2 127.622Z" fill="#FF66E7"/>
<path d="M1233.9 123.904L1233.95 122.31H1234.38V127.943H1233.9V126.338C1233.5 127.346 1232.6 128.054 1231.33 128.054C1229.61 128.054 1228.43 126.792 1228.43 125.11C1228.43 123.428 1229.62 122.199 1231.35 122.199C1232.56 122.199 1233.45 122.852 1233.9 123.87V123.904ZM1231.41 127.622C1232.87 127.622 1233.9 126.505 1233.9 125.121C1233.9 123.738 1232.87 122.631 1231.41 122.631C1229.96 122.631 1228.9 123.671 1228.9 125.121C1228.9 126.571 1229.96 127.622 1231.41 127.622ZM1235.98 122.31H1240.96V127.943H1240.49V122.73H1236.46V127.943H1235.98V122.31ZM1242.55 122.31H1247.53V127.943H1247.06V122.73H1243.03V127.943H1242.55V122.31ZM1254.27 123.904L1254.33 122.31H1254.76V127.943H1254.27V126.338C1253.87 127.346 1252.98 128.054 1251.7 128.054C1249.99 128.054 1248.8 126.792 1248.8 125.11C1248.8 123.428 1250 122.199 1251.73 122.199C1252.93 122.199 1253.83 122.852 1254.27 123.87V123.904ZM1251.78 127.622C1253.24 127.622 1254.27 126.505 1254.27 125.121C1254.27 123.738 1253.24 122.631 1251.78 122.631C1250.33 122.631 1249.28 123.671 1249.28 125.121C1249.28 126.571 1250.33 127.622 1251.78 127.622ZM1259.4 122.199C1261.11 122.199 1262.31 123.45 1262.31 125.143C1262.31 126.825 1261.1 128.054 1259.39 128.054C1258.18 128.054 1257.27 127.39 1256.83 126.372V130.489H1256.36V122.31H1256.78L1256.83 123.904V123.915C1257.24 122.907 1258.14 122.199 1259.4 122.199ZM1259.32 127.622C1260.77 127.622 1261.82 126.571 1261.82 125.132C1261.82 123.671 1260.77 122.631 1259.32 122.631C1257.87 122.631 1256.83 123.738 1256.83 125.132C1256.83 126.505 1257.87 127.622 1259.32 127.622ZM1268.72 123.904L1268.78 122.31H1269.21V127.943H1268.72V126.338C1268.32 127.346 1267.43 128.054 1266.15 128.054C1264.44 128.054 1263.25 126.792 1263.25 125.11C1263.25 123.428 1264.45 122.199 1266.18 122.199C1267.38 122.199 1268.28 122.852 1268.72 123.87V123.904ZM1266.23 127.622C1267.69 127.622 1268.72 126.505 1268.72 125.121C1268.72 123.738 1267.69 122.631 1266.23 122.631C1264.78 122.631 1263.73 123.671 1263.73 125.121C1263.73 126.571 1264.78 127.622 1266.23 127.622ZM1272.5 127.943H1272.02V122.73H1270.02V122.31H1274.49V122.73H1272.5V127.943ZM1282.22 120.085V120.528H1278.66V127.943H1278.17V120.085H1282.22ZM1284.63 128.054C1282.96 128.054 1281.66 126.77 1281.66 125.121C1281.66 123.461 1282.96 122.199 1284.63 122.199C1286.29 122.199 1287.58 123.461 1287.58 125.121C1287.58 126.77 1286.29 128.054 1284.63 128.054ZM1284.63 127.622C1286.02 127.622 1287.11 126.516 1287.11 125.11C1287.11 123.715 1286.02 122.631 1284.63 122.631C1283.22 122.631 1282.13 123.715 1282.13 125.11C1282.13 126.516 1283.22 127.622 1284.63 127.622ZM1288.27 127.954V127.523C1288.77 127.479 1289.44 127.246 1289.44 125.962V122.31H1293.64V127.943H1293.16V122.73H1289.9V125.995C1289.9 127.523 1288.99 127.932 1288.27 127.954ZM1295.71 124.368H1297.34C1298.69 124.368 1299.65 124.966 1299.65 126.15C1299.65 127.335 1298.69 127.943 1297.34 127.943H1295.23V122.31H1295.71V124.368ZM1295.71 127.523H1297.3C1298.39 127.523 1299.17 127.091 1299.17 126.15C1299.17 125.21 1298.39 124.778 1297.3 124.778H1295.71V127.523ZM1305.39 122.31V127.501H1306.1V129.338H1305.65V127.943H1300.36V129.338H1299.91V127.501H1300.53C1300.71 127.501 1301.02 127.191 1301.05 126.294L1301.14 122.31H1305.39ZM1301.12 127.501H1304.91V122.73H1301.59L1301.51 126.261C1301.49 127.102 1301.22 127.456 1301.12 127.501ZM1313.52 122.31H1314.12L1310.94 124.9L1314.12 127.943H1313.52L1310.45 124.999C1310.48 125.907 1310.48 126.859 1310.48 127.943H1310C1310 126.859 1310.01 125.907 1310.02 124.999L1306.96 127.943H1306.36L1309.55 124.9L1306.37 122.31H1306.96L1310.02 124.778C1310.01 124.058 1310 123.217 1310 122.31H1310.48C1310.48 123.217 1310.47 124.058 1310.45 124.778L1313.52 122.31ZM1315.42 127.257L1319.67 122.31H1320.13V127.943H1319.65V122.985L1315.4 127.943H1314.95V122.31H1315.42V127.257Z" fill="#FF66E7"/>
<path d="M31.9764 128.965L37.2348 120.498H37.9535V132.943H37.1823C37.1823 125.196 37.1823 122.76 37.2524 121.76L31.9764 130.279L26.683 121.76C26.7531 122.795 26.7531 125.266 26.7531 132.943H25.9819V120.498H26.7005L31.9764 128.965ZM48.9318 126.546L49.0194 124.022H49.703V132.943H48.9318V130.402C48.3008 131.997 46.881 133.119 44.8653 133.119C42.1484 133.119 40.2729 131.12 40.2729 128.456C40.2729 125.792 42.166 123.846 44.9003 123.846C46.8109 123.846 48.2307 124.88 48.9318 126.493V126.546ZM44.988 132.435C47.3017 132.435 48.9318 130.665 48.9318 128.474C48.9318 126.283 47.3017 124.53 44.988 124.53C42.6918 124.53 41.0266 126.178 41.0266 128.474C41.0266 130.77 42.6918 132.435 44.988 132.435ZM53.7576 128.123L59.314 132.943H58.3324L52.9513 128.263C52.9864 129.718 52.9864 131.243 52.9864 132.943H52.2327V124.022H52.9864C52.9864 125.564 52.9864 126.774 52.9513 127.948L58.3324 124.022H59.2964L53.7576 128.123ZM65.4232 123.846C68.14 123.846 70.033 125.827 70.033 128.509C70.033 131.173 68.1225 133.119 65.4056 133.119C63.4951 133.119 62.0578 132.067 61.3567 130.454V136.975H60.603V124.022H61.269L61.3567 126.546V126.563C62.0052 124.968 63.425 123.846 65.4232 123.846ZM65.3005 132.435C67.5966 132.435 69.2618 130.77 69.2618 128.491C69.2618 126.178 67.5966 124.53 65.3005 124.53C63.0043 124.53 61.3567 126.283 61.3567 128.491C61.3567 130.665 63.0043 132.435 65.3005 132.435ZM76.2264 133.119C73.5797 133.119 71.5289 131.085 71.5289 128.474C71.5289 125.845 73.5797 123.846 76.2264 123.846C78.8556 123.846 80.9064 125.845 80.9064 128.474C80.9064 131.085 78.8556 133.119 76.2264 133.119ZM76.2264 132.435C78.435 132.435 80.1527 130.682 80.1527 128.456C80.1527 126.248 78.435 124.53 76.2264 124.53C74.0004 124.53 72.2651 126.248 72.2651 128.456C72.2651 130.682 74.0004 132.435 76.2264 132.435ZM85.1327 123.846C87.7619 123.846 89.7952 125.88 89.7952 128.491C89.7952 131.103 87.7619 133.119 85.1327 133.119C83.9584 133.119 82.9067 132.698 82.1179 131.892V131.103C82.8541 131.874 83.8181 132.453 85.0801 132.453C87.2186 132.453 88.9363 130.84 89.059 128.737H83.6604V128.193H89.0415C88.9013 126.09 87.201 124.495 85.0801 124.495C83.8181 124.495 82.8541 125.108 82.1179 125.862V125.073C82.9067 124.285 83.9408 123.846 85.1327 123.846ZM90.725 132.961V132.277C91.5137 132.207 92.583 131.839 92.583 129.806V124.022H99.2261V132.943H98.4724V124.688H93.3016V129.858C93.3016 132.277 91.8643 132.926 90.725 132.961ZM105.732 123.846C108.448 123.846 110.236 125.897 110.219 128.649H101.998C102.068 130.98 103.716 132.47 105.854 132.47C107.695 132.47 108.781 131.401 109.22 130.402L109.903 130.507C109.43 131.857 107.975 133.119 105.854 133.119C103.243 133.119 101.244 131.278 101.244 128.439C101.244 125.897 103.137 123.846 105.732 123.846ZM105.732 124.477C103.646 124.477 102.103 126.055 101.998 128.036H109.43C109.36 126.09 107.905 124.477 105.732 124.477ZM116.681 129.718L120.414 124.022H121.115V132.943H120.361C120.361 129.911 120.379 127.545 120.467 124.968C119.292 126.931 118.135 128.772 116.663 130.893C115.226 128.789 114.069 126.949 112.877 124.986C112.965 127.545 112.982 129.946 112.982 132.943H112.228V124.022H112.93L116.681 129.718ZM127.624 123.846C130.341 123.846 132.129 125.897 132.112 128.649H123.891C123.961 130.98 125.609 132.47 127.747 132.47C129.588 132.47 130.674 131.401 131.113 130.402L131.796 130.507C131.323 131.857 129.868 133.119 127.747 133.119C125.135 133.119 123.137 131.278 123.137 128.439C123.137 125.897 125.03 123.846 127.624 123.846ZM127.624 124.477C125.539 124.477 123.996 126.055 123.891 128.036H131.323C131.253 126.09 129.798 124.477 127.624 124.477ZM141.185 128.071V124.022H141.939V132.943H141.185V128.719H134.875V132.943H134.121V124.022H134.875V128.071H141.185ZM147.142 132.943H146.388V124.688H143.216V124.022H150.297V124.688H147.142V132.943ZM152.335 127.282H154.911C157.05 127.282 158.575 128.228 158.575 130.104C158.575 131.979 157.05 132.943 154.911 132.943H151.581V124.022H152.335V127.282ZM160.222 132.943V124.022H160.976V132.943H160.222ZM152.335 132.277H154.859C156.576 132.277 157.821 131.594 157.821 130.104C157.821 128.614 156.576 127.93 154.859 127.93H152.335V132.277ZM164.336 125.862C164.003 125.862 163.722 125.599 163.722 125.266C163.722 124.916 164.003 124.653 164.336 124.653C164.686 124.653 164.949 124.916 164.949 125.266C164.949 125.599 164.686 125.862 164.336 125.862ZM164.336 133.119C164.003 133.119 163.722 132.856 163.722 132.505C163.722 132.172 164.003 131.892 164.336 131.892C164.686 131.892 164.949 132.172 164.949 132.505C164.949 132.856 164.686 133.119 164.336 133.119ZM177.734 133.119C174.229 133.119 171.512 130.314 171.512 126.721C171.512 123.128 174.229 120.323 177.734 120.323C181.24 120.323 183.957 123.128 183.957 126.721C183.957 130.314 181.24 133.119 177.734 133.119ZM177.734 132.4C180.802 132.4 183.185 129.893 183.185 126.721C183.185 123.548 180.802 121.042 177.734 121.042C174.667 121.042 172.283 123.548 172.283 126.721C172.283 129.893 174.667 132.4 177.734 132.4ZM184.776 134.871L185.372 131.979H186.248L185.389 134.871H184.776ZM198.839 133.119C195.316 133.119 192.651 130.244 192.651 126.721C192.651 123.198 195.316 120.323 198.839 120.323C200.451 120.323 201.661 120.779 202.537 121.55V122.356C201.661 121.585 200.592 121.024 198.909 121.024C195.789 121.024 193.423 123.601 193.423 126.721C193.423 129.841 195.806 132.418 198.909 132.418C200.592 132.418 201.678 131.857 202.537 131.085V131.892C201.661 132.663 200.451 133.119 198.839 133.119ZM204.786 134.871L205.382 131.979H206.258L205.399 134.871H204.786ZM221.583 126.23V120.498H222.354V132.943H221.583V126.914H214.186V132.943H213.415V120.498H214.186V126.23H221.583ZM225.378 134.871L225.974 131.979H226.85L225.991 134.871H225.378ZM242.631 120.498H243.385V132.943H242.648L234.708 121.69C234.761 122.356 234.761 123.794 234.761 132.943H234.007V120.498H234.743L242.684 131.769C242.631 131.05 242.631 129.683 242.631 120.498ZM246.398 134.871L246.993 131.979H247.87L247.011 134.871H246.398ZM258.287 133.119C256.184 133.119 254.256 131.909 254.098 129.525H254.887C255.045 131.576 256.692 132.453 258.287 132.453C260.233 132.453 261.495 131.436 261.495 129.929C261.495 126.44 254.624 127.352 254.624 123.303C254.624 121.427 256.219 120.323 258.165 120.323C260.303 120.323 261.705 121.638 261.881 123.566H261.092C260.934 122.023 259.865 120.989 258.165 120.989C256.675 120.989 255.413 121.813 255.413 123.285C255.413 126.791 262.284 125.774 262.284 129.911C262.284 131.857 260.654 133.119 258.287 133.119ZM264.456 134.871L265.052 131.979H265.929L265.07 134.871H264.456ZM273.086 120.498H276.802C279.273 120.498 281.061 121.778 281.061 124.39C281.061 127.001 279.273 128.281 276.784 128.281H273.857V132.943H273.086V120.498ZM273.857 127.58H276.802C278.817 127.58 280.29 126.598 280.29 124.407C280.29 122.216 278.817 121.2 276.802 121.2H273.857V127.58ZM280.666 134.871L281.262 131.979H282.138L281.28 134.871H280.666ZM296.184 120.516L297.131 120.498L290.856 126.458L297.131 132.943H296.167L290.032 126.598C290.067 128.561 290.067 130.419 290.067 132.943H289.296V120.498H290.067C290.067 122.847 290.067 124.53 290.032 126.283L296.184 120.516ZM299.067 134.871L299.663 131.979H300.539L299.681 134.871H299.067ZM313.691 128.965L318.95 120.498H319.668V132.943H318.897C318.897 125.196 318.897 122.76 318.967 121.76L313.691 130.279L308.398 121.76C308.468 122.795 308.468 125.266 308.468 132.943H307.697V120.498H308.415L313.691 128.965ZM330.647 126.563L330.734 124.022H331.418V132.26C331.418 135.59 329.63 137.168 326.931 137.168C325.511 137.168 324.161 136.764 323.022 135.976V135.222C323.513 135.59 325.003 136.502 326.825 136.502C329.122 136.502 330.647 135.24 330.647 132.26V130.402C330.016 131.997 328.596 133.119 326.58 133.119C323.863 133.119 321.988 131.12 321.988 128.456C321.988 125.792 323.881 123.846 326.615 123.846C328.526 123.846 329.945 124.88 330.647 126.493V126.563ZM326.703 132.435C329.016 132.435 330.647 130.665 330.647 128.474C330.647 126.283 329.016 124.53 326.703 124.53C324.407 124.53 322.741 126.178 322.741 128.474C322.741 130.77 324.407 132.435 326.703 132.435ZM334.123 134.871L334.719 131.979H335.596L334.737 134.871H334.123ZM351.376 120.498H352.13V132.943H351.394L343.454 121.69C343.506 122.356 343.506 123.794 343.506 132.943H342.753V120.498H343.489L351.429 131.769C351.376 131.05 351.376 129.683 351.376 120.498ZM363.101 126.546L363.188 124.022H363.872V132.943H363.101V130.402C362.47 131.997 361.05 133.119 359.034 133.119C356.317 133.119 354.442 131.12 354.442 128.456C354.442 125.792 356.335 123.846 359.069 123.846C360.98 123.846 362.4 124.88 363.101 126.493V126.546ZM359.157 132.435C361.471 132.435 363.101 130.665 363.101 128.474C363.101 126.283 361.471 124.53 359.157 124.53C356.861 124.53 355.196 126.178 355.196 128.474C355.196 130.77 356.861 132.435 359.157 132.435ZM366.594 134.871L367.19 131.979H368.067L367.208 134.871H366.594ZM380.658 133.119C377.135 133.119 374.47 130.244 374.47 126.721C374.47 123.198 377.135 120.323 380.658 120.323C382.27 120.323 383.48 120.779 384.356 121.55V122.356C383.48 121.585 382.41 121.024 380.728 121.024C377.608 121.024 375.242 123.601 375.242 126.721C375.242 129.841 377.625 132.418 380.728 132.418C382.41 132.418 383.497 131.857 384.356 131.085V131.892C383.48 132.663 382.27 133.119 380.658 133.119ZM394.562 126.546L394.65 124.022H395.333V132.943H394.562V130.402C393.931 131.997 392.511 133.119 390.496 133.119C387.779 133.119 385.903 131.12 385.903 128.456C385.903 125.792 387.796 123.846 390.531 123.846C392.441 123.846 393.861 124.88 394.562 126.493V126.546ZM390.618 132.435C392.932 132.435 394.562 130.665 394.562 128.474C394.562 126.283 392.932 124.53 390.618 124.53C388.322 124.53 386.657 126.178 386.657 128.474C386.657 130.77 388.322 132.435 390.618 132.435ZM398.056 134.871L398.652 131.979H399.528L398.669 134.871H398.056ZM407.457 132.943H406.685V120.498H413.679V121.217H407.457V126.3H412.715V126.984H407.457V132.943ZM418.651 123.846C421.368 123.846 423.156 125.897 423.138 128.649H414.918C414.988 130.98 416.635 132.47 418.774 132.47C420.614 132.47 421.701 131.401 422.139 130.402L422.823 130.507C422.349 131.857 420.895 133.119 418.774 133.119C416.162 133.119 414.164 131.278 414.164 128.439C414.164 125.897 416.057 123.846 418.651 123.846ZM418.651 124.477C416.565 124.477 415.023 126.055 414.918 128.036H422.349C422.279 126.09 420.824 124.477 418.651 124.477ZM424.81 134.871L425.406 131.979H426.282L425.424 134.871H424.81ZM438.873 133.119C435.35 133.119 432.686 130.244 432.686 126.721C432.686 123.198 435.35 120.323 438.873 120.323C440.486 120.323 441.695 120.779 442.572 121.55V122.356C441.695 121.585 440.626 121.024 438.943 121.024C435.823 121.024 433.457 123.601 433.457 126.721C433.457 129.841 435.841 132.418 438.943 132.418C440.626 132.418 441.713 131.857 442.572 131.085V131.892C441.695 132.663 440.486 133.119 438.873 133.119ZM444.627 119.797H445.381V132.943H444.627V119.797ZM31.9764 148.965L37.2348 140.498H37.9535V152.943H37.1823C37.1823 145.196 37.1823 142.76 37.2524 141.76L31.9764 150.279L26.683 141.76C26.7531 142.795 26.7531 145.266 26.7531 152.943H25.9819V140.498H26.7005L31.9764 148.965ZM41.535 151.857L48.2657 144.022H48.9844V152.943H48.2307V145.091L41.4999 152.943H40.7813V144.022H41.535V151.857ZM53.0216 148.123L58.5779 152.943H57.5964L52.2153 148.263C52.2503 149.718 52.2503 151.243 52.2503 152.943H51.4966V144.022H52.2503C52.2503 145.564 52.2503 146.774 52.2153 147.948L57.5964 144.022H58.5604L53.0216 148.123ZM64.6871 143.846C67.404 143.846 69.297 145.827 69.297 148.509C69.297 151.173 67.3864 153.119 64.6696 153.119C62.759 153.119 61.3218 152.067 60.6206 150.454V156.975H59.8669V144.022H60.533L60.6206 146.546V146.563C61.2692 144.968 62.6889 143.846 64.6871 143.846ZM64.5644 152.435C66.8606 152.435 68.5258 150.77 68.5258 148.491C68.5258 146.178 66.8606 144.53 64.5644 144.53C62.2683 144.53 60.6206 146.283 60.6206 148.491C60.6206 150.665 62.2683 152.435 64.5644 152.435ZM75.4904 153.119C72.8437 153.119 70.7929 151.085 70.7929 148.474C70.7929 145.845 72.8437 143.846 75.4904 143.846C78.1196 143.846 80.1704 145.845 80.1704 148.474C80.1704 151.085 78.1196 153.119 75.4904 153.119ZM75.4904 152.435C77.6989 152.435 79.4167 150.682 79.4167 148.456C79.4167 146.248 77.6989 144.53 75.4904 144.53C73.2644 144.53 71.5291 146.248 71.5291 148.456C71.5291 150.682 73.2644 152.435 75.4904 152.435ZM84.3967 143.846C87.0259 143.846 89.0591 145.88 89.0591 148.491C89.0591 151.103 87.0259 153.119 84.3967 153.119C83.2223 153.119 82.1706 152.698 81.3819 151.892V151.103C82.118 151.874 83.0821 152.453 84.3441 152.453C86.4825 152.453 88.2003 150.84 88.323 148.737H82.9243V148.193H88.3054C88.1652 146.09 86.465 144.495 84.3441 144.495C83.0821 144.495 82.118 145.108 81.3819 145.862V145.073C82.1706 144.285 83.2048 143.846 84.3967 143.846ZM89.9889 152.961V152.277C90.7777 152.207 91.8469 151.839 91.8469 149.806V144.022H98.49V152.943H97.7363V144.688H92.5656V149.858C92.5656 152.277 91.1283 152.926 89.9889 152.961ZM104.996 143.846C107.712 143.846 109.5 145.897 109.483 148.649H101.262C101.332 150.98 102.98 152.47 105.118 152.47C106.959 152.47 108.045 151.401 108.484 150.402L109.167 150.507C108.694 151.857 107.239 153.119 105.118 153.119C102.507 153.119 100.508 151.278 100.508 148.439C100.508 145.897 102.401 143.846 104.996 143.846ZM104.996 144.477C102.91 144.477 101.367 146.055 101.262 148.036H108.694C108.624 146.09 107.169 144.477 104.996 144.477ZM115.945 149.718L119.678 144.022H120.379V152.943H119.625C119.625 149.911 119.643 147.545 119.731 144.968C118.556 146.931 117.399 148.772 115.927 150.893C114.49 148.789 113.333 146.949 112.141 144.986C112.229 147.545 112.246 149.946 112.246 152.943H111.492V144.022H112.194L115.945 149.718ZM126.888 143.846C129.605 143.846 131.393 145.897 131.376 148.649H123.155C123.225 150.98 124.873 152.47 127.011 152.47C128.852 152.47 129.938 151.401 130.376 150.402L131.06 150.507C130.587 151.857 129.132 153.119 127.011 153.119C124.399 153.119 122.401 151.278 122.401 148.439C122.401 145.897 124.294 143.846 126.888 143.846ZM126.888 144.477C124.803 144.477 123.26 146.055 123.155 148.036H130.587C130.517 146.09 129.062 144.477 126.888 144.477ZM140.449 148.071V144.022H141.203V152.943H140.449V148.719H134.139V152.943H133.385V144.022H134.139V148.071H140.449ZM146.406 152.943H145.652V144.688H142.48V144.022H149.561V144.688H146.406V152.943ZM151.599 147.282H154.175C156.314 147.282 157.838 148.228 157.838 150.104C157.838 151.979 156.314 152.943 154.175 152.943H150.845V144.022H151.599V147.282ZM159.486 152.943V144.022H160.24V152.943H159.486ZM151.599 152.277H154.123C155.84 152.277 157.085 151.594 157.085 150.104C157.085 148.614 155.84 147.93 154.123 147.93H151.599V152.277ZM163.6 145.862C163.267 145.862 162.986 145.599 162.986 145.266C162.986 144.916 163.267 144.653 163.6 144.653C163.95 144.653 164.213 144.916 164.213 145.266C164.213 145.599 163.95 145.862 163.6 145.862ZM163.6 153.119C163.267 153.119 162.986 152.856 162.986 152.505C162.986 152.172 163.267 151.892 163.6 151.892C163.95 151.892 164.213 152.172 164.213 152.505C164.213 152.856 163.95 153.119 163.6 153.119ZM176.963 153.119C173.44 153.119 170.776 150.244 170.776 146.721C170.776 143.198 173.44 140.323 176.963 140.323C178.576 140.323 179.785 140.779 180.661 141.55V142.356C179.785 141.585 178.716 141.024 177.033 141.024C173.913 141.024 171.547 143.601 171.547 146.721C171.547 149.841 173.931 152.418 177.033 152.418C178.716 152.418 179.803 151.857 180.661 151.085V151.892C179.785 152.663 178.576 153.119 176.963 153.119ZM189.57 148.912V144.022H190.324V152.943H189.641L189.606 150.805C189.062 152.277 187.835 153.119 186.117 153.119C184.189 153.119 182.542 152.049 182.542 149.315V144.022H183.295V149.227C183.295 151.611 184.715 152.453 186.293 152.453C188.379 152.453 189.57 151.033 189.57 148.912ZM193.043 154.871L193.639 151.979H194.516L193.657 154.871H193.043ZM200.709 140.498H209.841L202.041 152.26H209.823V152.943H200.709L208.544 141.182H200.709V140.498ZM215.886 143.846C217.814 143.846 219.479 144.916 219.479 147.65V152.943H218.708V147.738C218.708 145.354 217.306 144.495 215.711 144.495C213.625 144.495 212.451 145.932 212.451 148.036V152.943H211.679V144.022H212.363L212.433 146.09C212.976 144.653 214.203 143.846 215.886 143.846ZM222.006 154.871L222.601 151.979H223.478L222.619 154.871H222.006ZM231.406 152.943H230.635V140.498H231.406V152.943ZM234.415 154.871L235.011 151.979H235.888L235.029 154.871H234.415ZM243.816 152.943H243.045V140.498H250.039V141.217H243.816V146.3H249.075V146.984H243.816V152.943ZM33.5715 160.498H34.3603L27.9625 172.943H27.1738L29.2245 168.912L24.7023 160.498H25.5437C27.1212 163.496 28.4183 165.897 29.6277 168.228C30.8021 165.897 32.029 163.496 33.5715 160.498ZM34.9914 172.961V172.277C35.7802 172.207 36.8494 171.839 36.8494 169.806V164.022H43.4925V172.943H42.7388V164.688H37.568V169.858C37.568 172.277 36.1307 172.926 34.9914 172.961ZM46.7728 167.282H49.3494C51.4879 167.282 53.0128 168.228 53.0128 170.104C53.0128 171.979 51.4879 172.943 49.3494 172.943H46.0191V164.022H46.7728V167.282ZM46.7728 172.277H49.2969C51.0146 172.277 52.2591 171.594 52.2591 170.104C52.2591 168.614 51.0146 167.93 49.2969 167.93H46.7728V172.277ZM56.3009 172.943H55.5472V164.688H52.3747V164.022H59.456V164.688H56.3009V172.943ZM65.5601 163.846C68.277 163.846 70.17 165.827 70.17 168.509C70.17 171.173 68.2594 173.119 65.5426 173.119C63.632 173.119 62.1947 172.067 61.4936 170.454V176.975H60.7399V164.022H61.406L61.4936 166.546V166.563C62.1421 164.968 63.5619 163.846 65.5601 163.846ZM65.4374 172.435C67.7336 172.435 69.3987 170.77 69.3987 168.491C69.3987 166.178 67.7336 164.53 65.4374 164.53C63.1412 164.53 61.4936 166.283 61.4936 168.491C61.4936 170.665 63.1412 172.435 65.4374 172.435ZM80.3247 166.546L80.4124 164.022H81.096V172.943H80.3247V170.402C79.6937 171.997 78.2739 173.119 76.2582 173.119C73.5414 173.119 71.6659 171.12 71.6659 168.456C71.6659 165.792 73.5589 163.846 76.2933 163.846C78.2038 163.846 79.6236 164.88 80.3247 166.493V166.546ZM76.3809 172.435C78.6946 172.435 80.3247 170.665 80.3247 168.474C80.3247 166.283 78.6946 164.53 76.3809 164.53C74.0847 164.53 72.4196 166.178 72.4196 168.474C72.4196 170.77 74.0847 172.435 76.3809 172.435ZM88.0777 169.718L91.8112 164.022H92.5123V172.943H91.7586C91.7586 169.911 91.7761 167.545 91.8638 164.968C90.6894 166.931 89.5325 168.772 88.0602 170.893C86.6229 168.789 85.466 166.949 84.2741 164.986C84.3618 167.545 84.3793 169.946 84.3793 172.943H83.6256V164.022H84.3267L88.0777 169.718ZM95.7965 171.857L102.527 164.022H103.246V172.943H102.492V165.091L95.7614 172.943H95.0428V164.022H95.7965V171.857ZM107.283 168.123L112.839 172.943H111.858L106.477 168.263C106.512 169.718 106.512 171.243 106.512 172.943H105.758V164.022H106.512C106.512 165.564 106.512 166.774 106.477 167.948L111.858 164.022H112.822L107.283 168.123ZM118.949 163.846C121.665 163.846 123.559 165.827 123.559 168.509C123.559 171.173 121.648 173.119 118.931 173.119C117.021 173.119 115.583 172.067 114.882 170.454V176.975H114.128V164.022H114.795L114.882 166.546V166.563C115.531 164.968 116.95 163.846 118.949 163.846ZM118.826 172.435C121.122 172.435 122.787 170.77 122.787 168.491C122.787 166.178 121.122 164.53 118.826 164.53C116.53 164.53 114.882 166.283 114.882 168.491C114.882 170.665 116.53 172.435 118.826 172.435ZM129.752 173.119C127.105 173.119 125.054 171.085 125.054 168.474C125.054 165.845 127.105 163.846 129.752 163.846C132.381 163.846 134.432 165.845 134.432 168.474C134.432 171.085 132.381 173.119 129.752 173.119ZM129.752 172.435C131.96 172.435 133.678 170.682 133.678 168.456C133.678 166.248 131.96 164.53 129.752 164.53C127.526 164.53 125.791 166.248 125.791 168.456C125.791 170.682 127.526 172.435 129.752 172.435ZM138.658 163.846C141.287 163.846 143.321 165.88 143.321 168.491C143.321 171.103 141.287 173.119 138.658 173.119C137.484 173.119 136.432 172.698 135.643 171.892V171.103C136.38 171.874 137.344 172.453 138.606 172.453C140.744 172.453 142.462 170.84 142.584 168.737H137.186V168.193H142.567C142.427 166.09 140.727 164.495 138.606 164.495C137.344 164.495 136.38 165.108 135.643 165.862V165.073C136.432 164.285 137.466 163.846 138.658 163.846ZM144.25 172.961V172.277C145.039 172.207 146.108 171.839 146.108 169.806V164.022H152.752V172.943H151.998V164.688H146.827V169.858C146.827 172.277 145.39 172.926 144.25 172.961ZM159.257 163.846C161.974 163.846 163.762 165.897 163.744 168.649H155.524C155.594 170.98 157.241 172.47 159.38 172.47C161.22 172.47 162.307 171.401 162.745 170.402L163.429 170.507C162.955 171.857 161.501 173.119 159.38 173.119C156.768 173.119 154.77 171.278 154.77 168.439C154.77 165.897 156.663 163.846 159.257 163.846ZM159.257 164.477C157.171 164.477 155.629 166.055 155.524 168.036H162.955C162.885 166.09 161.431 164.477 159.257 164.477ZM170.206 169.718L173.939 164.022H174.641V172.943H173.887C173.887 169.911 173.904 167.545 173.992 164.968C172.818 166.931 171.661 168.772 170.188 170.893C168.751 168.789 167.594 166.949 166.402 164.986C166.49 167.545 166.508 169.946 166.508 172.943H165.754V164.022H166.455L170.206 169.718ZM181.15 163.846C183.867 163.846 185.655 165.897 185.637 168.649H177.416C177.487 170.98 179.134 172.47 181.273 172.47C183.113 172.47 184.2 171.401 184.638 170.402L185.322 170.507C184.848 171.857 183.394 173.119 181.273 173.119C178.661 173.119 176.663 171.278 176.663 168.439C176.663 165.897 178.556 163.846 181.15 163.846ZM181.15 164.477C179.064 164.477 177.522 166.055 177.416 168.036H184.848C184.778 166.09 183.323 164.477 181.15 164.477ZM194.711 168.071V164.022H195.464V172.943H194.711V168.719H188.4V172.943H187.647V164.022H188.4V168.071H194.711ZM200.667 172.943H199.914V164.688H196.741V164.022H203.822V164.688H200.667V172.943ZM205.86 167.282H208.437C210.575 167.282 212.1 168.228 212.1 170.104C212.1 171.979 210.575 172.943 208.437 172.943H205.106V164.022H205.86V167.282ZM213.748 172.943V164.022H214.501V172.943H213.748ZM205.86 172.277H208.384C210.102 172.277 211.346 171.594 211.346 170.104C211.346 168.614 210.102 167.93 208.384 167.93H205.86V172.277ZM217.861 165.862C217.528 165.862 217.248 165.599 217.248 165.266C217.248 164.916 217.528 164.653 217.861 164.653C218.212 164.653 218.475 164.916 218.475 165.266C218.475 165.599 218.212 165.862 217.861 165.862ZM217.861 173.119C217.528 173.119 217.248 172.856 217.248 172.505C217.248 172.172 217.528 171.892 217.861 171.892C218.212 171.892 218.475 172.172 218.475 172.505C218.475 172.856 218.212 173.119 217.861 173.119ZM234.59 172.943H233.766C233.258 171.541 232.82 170.314 232.452 169.245H226.895L225.563 172.943H224.757L229.244 160.498H230.103L234.59 172.943ZM227.123 168.596H232.206C230.173 162.865 229.857 161.901 229.647 161.094C229.454 161.883 229.156 162.882 227.123 168.596ZM243.25 168.912V164.022H244.004V172.943H243.32L243.285 170.805C242.742 172.277 241.515 173.119 239.797 173.119C237.869 173.119 236.221 172.049 236.221 169.315V164.022H236.975V169.227C236.975 171.611 238.395 172.453 239.972 172.453C242.058 172.453 243.25 171.033 243.25 168.912ZM246.723 174.871L247.319 171.979H248.195L247.336 174.871H246.723ZM263.117 172.943H262.136L256.071 167.071C256.124 168.807 256.124 170.735 256.124 172.943H255.352V160.498H259.138C261.645 160.498 263.065 161.953 263.065 163.916C263.065 166.02 261.452 167.317 259.086 167.317H257.193C257.684 167.738 258.77 168.807 263.117 172.943ZM262.311 163.951C262.311 162.391 261.172 161.2 258.963 161.2H256.124V166.721H258.963C261.172 166.721 262.311 165.529 262.311 163.951ZM273.167 166.546L273.255 164.022H273.938V172.943H273.167V170.402C272.536 171.997 271.116 173.119 269.101 173.119C266.384 173.119 264.508 171.12 264.508 168.456C264.508 165.792 266.401 163.846 269.136 163.846C271.046 163.846 272.466 164.88 273.167 166.493V166.546ZM269.223 172.435C271.537 172.435 273.167 170.665 273.167 168.474C273.167 166.283 271.537 164.53 269.223 164.53C266.927 164.53 265.262 166.178 265.262 168.474C265.262 170.77 266.927 172.435 269.223 172.435ZM276.661 174.871L277.257 171.979H278.133L277.274 174.871H276.661ZM290.724 173.119C287.201 173.119 284.537 170.244 284.537 166.721C284.537 163.198 287.201 160.323 290.724 160.323C292.337 160.323 293.546 160.779 294.422 161.55V162.356C293.546 161.585 292.477 161.024 290.794 161.024C287.674 161.024 285.308 163.601 285.308 166.721C285.308 169.841 287.692 172.418 290.794 172.418C292.477 172.418 293.563 171.857 294.422 171.085V171.892C293.546 172.663 292.337 173.119 290.724 173.119ZM299.44 173.119C297.477 173.119 296.022 172.26 295.812 170.454L296.566 170.437C296.776 171.857 297.95 172.488 299.458 172.488C300.965 172.488 301.894 171.857 301.894 170.752C301.894 168.158 296.303 169.262 296.303 166.178C296.303 164.793 297.547 163.881 299.247 163.881C300.86 163.881 302.157 164.793 302.297 166.3L301.561 166.318C301.403 165.178 300.492 164.495 299.23 164.495C297.95 164.495 297.039 165.178 297.039 166.142C297.039 168.649 302.665 167.475 302.665 170.735C302.665 172.26 301.421 173.119 299.44 173.119ZM304.801 174.871L305.397 171.979H306.274L305.415 174.871H304.801ZM317.603 172.943H313.431V160.498H317.392C320.004 160.498 321.143 161.76 321.143 163.531C321.143 164.968 320.495 165.95 319.11 166.318C320.915 166.616 321.844 167.965 321.844 169.631C321.844 171.716 320.407 172.943 317.603 172.943ZM314.202 161.165V166.072H317.392C319.39 166.072 320.372 165.301 320.372 163.636C320.372 162.094 319.39 161.165 317.392 161.165H314.202ZM314.202 166.703V172.277H317.603C319.899 172.277 321.073 171.348 321.073 169.631C321.073 167.895 319.899 166.703 317.743 166.703H314.202ZM327.879 163.846C330.595 163.846 332.383 165.897 332.366 168.649H324.145C324.215 170.98 325.863 172.47 328.001 172.47C329.842 172.47 330.928 171.401 331.367 170.402L332.05 170.507C331.577 171.857 330.122 173.119 328.001 173.119C325.39 173.119 323.391 171.278 323.391 168.439C323.391 165.897 325.284 163.846 327.879 163.846ZM327.879 164.477C325.793 164.477 324.25 166.055 324.145 168.036H331.577C331.507 166.09 330.052 164.477 327.879 164.477ZM334.038 174.871L334.634 171.979H335.51L334.651 174.871H334.038ZM347.119 173.119C344.385 173.119 342.474 171.471 342.474 168.106V160.498H343.246V168.106C343.246 171.12 344.911 172.418 347.119 172.418C349.328 172.418 351.01 171.12 351.01 168.106V160.498H351.782V168.106C351.782 171.471 349.871 173.119 347.119 173.119ZM353.996 174.871L354.592 171.979H355.469L354.61 174.871H353.996ZM370.794 166.23V160.498H371.565V172.943H370.794V166.914H363.397V172.943H362.626V160.498H363.397V166.23H370.794ZM382.546 166.563L382.634 164.022H383.317V172.26C383.317 175.59 381.529 177.168 378.83 177.168C377.41 177.168 376.061 176.764 374.921 175.976V175.222C375.412 175.59 376.902 176.502 378.725 176.502C381.021 176.502 382.546 175.24 382.546 172.26V170.402C381.915 171.997 380.495 173.119 378.479 173.119C375.763 173.119 373.887 171.12 373.887 168.456C373.887 165.792 375.78 163.846 378.514 163.846C380.425 163.846 381.845 164.88 382.546 166.493V166.563ZM378.602 172.435C380.916 172.435 382.546 170.665 382.546 168.474C382.546 166.283 380.916 164.53 378.602 164.53C376.306 164.53 374.641 166.178 374.641 168.474C374.641 170.77 376.306 172.435 378.602 172.435ZM386.022 174.871L386.618 171.979H387.495L386.636 174.871H386.022ZM397.912 173.119C395.809 173.119 393.881 171.909 393.723 169.525H394.512C394.67 171.576 396.317 172.453 397.912 172.453C399.858 172.453 401.12 171.436 401.12 169.929C401.12 166.44 394.249 167.352 394.249 163.303C394.249 161.427 395.844 160.323 397.79 160.323C399.928 160.323 401.33 161.638 401.505 163.566H400.717C400.559 162.023 399.49 160.989 397.79 160.989C396.3 160.989 395.038 161.813 395.038 163.285C395.038 166.791 401.909 165.774 401.909 169.911C401.909 171.857 400.278 173.119 397.912 173.119ZM407.867 163.846C410.584 163.846 412.372 165.897 412.354 168.649H404.134C404.204 170.98 405.851 172.47 407.99 172.47C409.83 172.47 410.917 171.401 411.355 170.402L412.039 170.507C411.566 171.857 410.111 173.119 407.99 173.119C405.378 173.119 403.38 171.278 403.38 168.439C403.38 165.897 405.273 163.846 407.867 163.846ZM407.867 164.477C405.781 164.477 404.239 166.055 404.134 168.036H411.566C411.495 166.09 410.041 164.477 407.867 164.477Z" fill="#FF66E7"/>
<path d="M1442.94 606.024H1447.26C1449.8 606.024 1451.67 607.391 1451.67 610.055C1451.67 612.667 1449.8 614.139 1447.17 614.139H1444.5V618.469H1442.94V606.024ZM1444.5 612.702H1447.26C1448.9 612.702 1450.11 611.861 1450.11 610.09C1450.11 608.32 1448.9 607.444 1447.26 607.444H1444.5V612.702ZM1454.92 616.348L1460.55 609.442H1461.97V618.469H1460.44V611.65L1454.82 618.469H1453.41V609.442H1454.92V616.348ZM1468.54 618.644C1465.74 618.644 1463.76 616.628 1463.76 613.947C1463.76 611.265 1465.74 609.249 1468.54 609.249C1469.68 609.249 1470.68 609.617 1471.45 610.318V611.843C1470.73 611.125 1469.84 610.634 1468.68 610.634C1466.77 610.634 1465.3 612.071 1465.3 613.947C1465.3 615.822 1466.77 617.277 1468.68 617.277C1469.84 617.277 1470.73 616.769 1471.45 616.067V617.575C1470.68 618.293 1469.68 618.644 1468.54 618.644ZM1479.54 611.931C1480.68 612.369 1481.56 613.316 1481.56 614.963C1481.56 616.839 1480.09 618.644 1477.32 618.644C1474.56 618.644 1472.78 616.839 1472.78 614.472H1474.3C1474.3 616.208 1475.63 617.224 1477.25 617.224C1478.98 617.224 1480 616.173 1480 614.876C1480 613.298 1478.61 612.737 1477.09 612.737H1476.09V611.387H1477.12C1478.67 611.352 1479.51 610.441 1479.51 609.302C1479.51 608.092 1478.54 607.268 1477.11 607.268C1475.56 607.268 1474.48 608.373 1474.48 609.933H1472.95C1472.95 607.689 1474.51 605.849 1477.19 605.849C1479.52 605.849 1481.07 607.233 1481.07 609.196C1481.07 610.458 1480.45 611.387 1479.54 611.931Z" fill="#FF66E7"/>
<rect x="39.1026" y="335.51" width="392.627" height="392.627" stroke="#FF66E7" stroke-width="1.3146"/>
<path d="M39.3203 335.729L431.948 727.918" stroke="#FF66E7" stroke-width="1.3146"/>
<path d="M138.789 335.291L332.035 728.357" stroke="#FF66E7" stroke-width="1.3146"/>
<path d="M332.039 335.291L138.793 728.357" stroke="#FF66E7" stroke-width="1.3146"/>
<path d="M431.98 445.863L38.8764 617.929" stroke="#FF66E7" stroke-width="1.3146"/>
<path d="M38.8828 446.553L431.987 618.618" stroke="#FF66E7" stroke-width="1.3146"/>
<path d="M431.07 336.167L38.4429 728.356" stroke="#FF66E7" stroke-width="1.3146"/>
<path d="M235.582 336.605L235.582 728.356" stroke="#FF66E7" stroke-width="1.3146"/>
<path d="M432.539 532.217L37.5675 532.217" stroke="#FF66E7" stroke-width="1.3146"/>
<ellipse cx="387.691" cy="378.015" rx="4.382" ry="4.1629" fill="#FF66E7"/>
<path d="M83.1406 685.631V378.015H388.128V685.631H83.1406Z" stroke="#FF66E7" stroke-width="1.3146"/>
<ellipse cx="83.1398" cy="685.193" rx="4.382" ry="4.1629" fill="#FF66E7"/>
<ellipse cx="83.1398" cy="378.015" rx="4.382" ry="4.1629" fill="#FF66E7"/>
<ellipse cx="387.691" cy="685.193" rx="4.382" ry="4.1629" fill="#FF66E7"/>
<path d="M603.701 396.039C600.178 396.039 597.513 393.164 597.513 389.641C597.513 386.118 600.178 383.243 603.701 383.243C605.313 383.243 606.523 383.699 607.399 384.47V385.276C606.523 384.505 605.454 383.944 603.771 383.944C600.651 383.944 598.285 386.521 598.285 389.641C598.285 392.761 600.668 395.337 603.771 395.337C605.454 395.337 606.54 394.777 607.399 394.005V394.812C606.523 395.583 605.313 396.039 603.701 396.039ZM615.221 396.039C611.716 396.039 608.999 393.234 608.999 389.641C608.999 386.048 611.716 383.243 615.221 383.243C618.727 383.243 621.444 386.048 621.444 389.641C621.444 393.234 618.727 396.039 615.221 396.039ZM615.221 395.32C618.289 395.32 620.673 392.813 620.673 389.641C620.673 386.468 618.289 383.962 615.221 383.962C612.154 383.962 609.77 386.468 609.77 389.641C609.77 392.813 612.154 395.32 615.221 395.32ZM623.683 395.145H630.992V395.863H622.894V395.285C622.894 391.762 630.116 390.955 630.116 387.029C630.116 385.206 628.731 383.944 626.943 383.944C624.98 383.944 623.683 385.399 623.666 387.275H622.894C622.894 385.031 624.472 383.243 626.943 383.243C629.205 383.243 630.887 384.751 630.887 387.029C630.887 391.376 623.964 392.217 623.683 395.145ZM645.616 389.15V383.418H646.388V395.863H645.616V389.834H638.22V395.863H637.448V383.418H638.22V389.15H645.616ZM649.393 395.145H656.702V395.863H648.604V395.285C648.604 391.762 655.826 390.955 655.826 387.029C655.826 385.206 654.441 383.944 652.653 383.944C650.69 383.944 649.393 385.399 649.376 387.275H648.604C648.604 385.031 650.182 383.243 652.653 383.243C654.915 383.243 656.597 384.751 656.597 387.029C656.597 391.376 649.674 392.217 649.393 395.145ZM664.382 396.039C660.876 396.039 658.16 393.234 658.16 389.641C658.16 386.048 660.876 383.243 664.382 383.243C667.888 383.243 670.604 386.048 670.604 389.641C670.604 393.234 667.888 396.039 664.382 396.039ZM664.382 395.32C667.449 395.32 669.833 392.813 669.833 389.641C669.833 386.468 667.449 383.962 664.382 383.962C661.315 383.962 658.931 386.468 658.931 389.641C658.931 392.813 661.315 395.32 664.382 395.32Z" fill="#FF66E7"/>
<path d="M837.736 396.039C834.23 396.039 831.513 393.234 831.513 389.641C831.513 386.048 834.23 383.243 837.736 383.243C841.241 383.243 843.958 386.048 843.958 389.641C843.958 393.234 841.241 396.039 837.736 396.039ZM837.736 395.32C840.803 395.32 843.187 392.813 843.187 389.641C843.187 386.468 840.803 383.962 837.736 383.962C834.668 383.962 832.285 386.468 832.285 389.641C832.285 392.813 834.668 395.32 837.736 395.32ZM846.198 395.145H853.507V395.863H845.409V395.285C845.409 391.762 852.63 390.955 852.63 387.029C852.63 385.206 851.246 383.944 849.458 383.944C847.495 383.944 846.198 385.399 846.18 387.275H845.409C845.409 385.031 846.986 383.243 849.458 383.243C851.719 383.243 853.402 384.751 853.402 387.029C853.402 391.376 846.478 392.217 846.198 395.145Z" fill="#FF66E7"/>
<path d="M684.254 331.181C684.562 330.99 684.658 330.585 684.467 330.276L681.356 325.245C681.165 324.936 680.76 324.84 680.451 325.031C680.142 325.222 680.047 325.627 680.238 325.936L683.003 330.408L678.531 333.174C678.222 333.365 678.126 333.77 678.317 334.079C678.508 334.387 678.913 334.483 679.222 334.292L684.254 331.181ZM664.247 370.317C663.827 360.799 663.879 353.348 664.438 347.583C664.999 341.809 666.065 337.788 667.63 335.088C669.174 332.425 671.21 331.033 673.814 330.505C676.463 329.967 679.743 330.315 683.757 331.261L684.059 329.982C679.997 329.024 676.489 328.62 673.552 329.216C670.569 329.822 668.22 331.451 666.493 334.429C664.788 337.371 663.697 341.613 663.13 347.456C662.562 353.31 662.513 360.831 662.934 370.375L664.247 370.317Z" fill="#FF66E7"/>
<path d="M818.09 450.703C817.781 450.894 817.686 451.299 817.877 451.608L820.988 456.639C821.179 456.948 821.584 457.044 821.893 456.853C822.202 456.662 822.297 456.257 822.106 455.948L819.341 451.475L823.813 448.71C824.122 448.519 824.217 448.114 824.026 447.805C823.835 447.496 823.43 447.401 823.122 447.592L818.09 450.703ZM838.097 411.566C838.516 421.085 838.465 428.536 837.905 434.3C837.345 440.075 836.279 444.095 834.713 446.795C833.17 449.458 831.134 450.851 828.53 451.379C825.88 451.917 822.6 451.569 818.587 450.622L818.285 451.902C822.347 452.86 825.855 453.264 828.792 452.667C831.775 452.062 834.124 450.433 835.851 447.455C837.556 444.513 838.646 440.271 839.214 434.428C839.782 428.574 839.831 421.052 839.41 411.508L838.097 411.566Z" fill="#FF66E7"/>
<path d="M663.147 411.053C663.414 410.807 663.83 410.826 664.075 411.094L668.07 415.457C668.315 415.725 668.297 416.14 668.029 416.386C667.761 416.631 667.345 416.612 667.1 416.345L663.55 412.466L659.671 416.017C659.403 416.262 658.987 416.244 658.742 415.976C658.497 415.708 658.516 415.292 658.783 415.047L663.147 411.053ZM664.247 411.566C663.827 421.085 663.879 428.536 664.438 434.3C664.999 440.075 666.065 444.095 667.63 446.795C669.174 449.458 671.21 450.851 673.814 451.379C676.463 451.917 679.743 451.569 683.757 450.622L684.059 451.902C679.997 452.86 676.489 453.264 673.552 452.667C670.569 452.062 668.22 450.433 666.493 447.455C664.788 444.513 663.697 440.271 663.13 434.428C662.562 428.574 662.513 421.052 662.934 411.508L664.247 411.566Z" fill="#FF66E7"/>
<path d="M839.197 370.831C838.929 371.076 838.514 371.058 838.268 370.79L834.274 366.427C834.029 366.159 834.047 365.743 834.315 365.498C834.583 365.253 834.998 365.271 835.243 365.539L838.794 369.418L842.673 365.867C842.94 365.622 843.356 365.64 843.601 365.908C843.847 366.176 843.828 366.591 843.56 366.837L839.197 370.831ZM838.097 370.317C838.516 360.799 838.465 353.348 837.905 347.583C837.345 341.809 836.279 337.788 834.713 335.088C833.17 332.425 831.134 331.033 828.53 330.505C825.88 329.967 822.6 330.315 818.587 331.261L818.285 329.982C822.347 329.024 825.855 328.62 828.792 329.216C831.775 329.822 834.124 331.451 835.851 334.429C837.556 337.371 838.646 341.613 839.214 347.456C839.782 353.31 839.831 360.831 839.41 370.375L838.097 370.317Z" fill="#FF66E7"/>
<rect x="693.771" y="586.599" width="391.313" height="114.808" transform="rotate(-90 693.771 586.599)" stroke="#FF66E7" stroke-width="1.3146"/>
<path d="M702.263 603.412V611.633H703.402V614.543H702.701V612.334H694.375V603.412H695.129V611.668H701.509V603.412H702.263ZM705.776 611.247L712.507 603.412H713.225V612.334H712.472V604.481L705.741 612.334H705.022V603.412H705.776V611.247ZM720.558 603.237C723.275 603.237 725.168 605.218 725.168 607.899C725.168 610.564 723.257 612.509 720.54 612.509C718.63 612.509 717.192 611.458 716.491 609.845V616.365H715.738V603.412H716.404L716.491 605.936V605.954C717.14 604.359 718.56 603.237 720.558 603.237ZM720.435 611.826C722.731 611.826 724.396 610.161 724.396 607.882C724.396 605.568 722.731 603.921 720.435 603.921C718.139 603.921 716.491 605.673 716.491 607.882C716.491 610.055 718.139 611.826 720.435 611.826ZM728.697 607.514L734.253 612.334H733.272L727.89 607.654C727.926 609.109 727.926 610.634 727.926 612.334H727.172V603.412H727.926C727.926 604.955 727.926 606.164 727.89 607.339L733.272 603.412H734.236L728.697 607.514ZM742.536 603.412H743.36L737.751 616.365H736.944L738.697 612.299L734.701 603.412H735.542C737.996 608.934 738.645 610.406 739.083 611.563C739.521 610.406 740.117 608.986 742.536 603.412ZM744.131 612.352V611.668C744.919 611.598 745.989 611.23 745.989 609.196V603.412H752.632V612.334H751.878V604.078H746.707V609.249C746.707 611.668 745.27 612.316 744.131 612.352ZM757.297 603.412H761.223V612.334H760.504C760.504 609.161 760.504 608.513 760.557 608.092L755.351 612.334H754.37C757.98 609.459 758.945 608.723 759.488 608.39H757.332C755.667 608.39 754.475 607.479 754.475 605.901C754.475 604.446 755.509 603.412 757.297 603.412ZM755.194 605.936C755.194 607.023 755.965 607.829 757.437 607.829H760.504V604.061H757.437C755.965 604.061 755.194 604.885 755.194 605.936ZM771.639 603.412V611.633H772.778V614.543H772.077V612.334H763.751V603.412H764.505V611.668H770.885V603.412H771.639ZM775.152 611.247L781.883 603.412H782.601V612.334H781.848V604.481L775.117 612.334H774.398V603.412H775.152V611.247ZM787.252 603.412H791.178V612.334H790.46C790.46 609.161 790.46 608.513 790.512 608.092L785.306 612.334H784.325C787.936 609.459 788.9 608.723 789.443 608.39H787.287C785.622 608.39 784.43 607.479 784.43 605.901C784.43 604.446 785.464 603.412 787.252 603.412ZM785.149 605.936C785.149 607.023 785.92 607.829 787.392 607.829H790.46V604.061H787.392C785.92 604.061 785.149 604.885 785.149 605.936ZM803.052 607.566C804.489 607.742 805.278 608.671 805.278 609.845C805.278 611.352 804.121 612.334 801.878 612.334H797.951V603.412H801.702C803.753 603.412 804.665 604.306 804.665 605.603C804.665 606.655 804.139 607.339 803.052 607.566ZM801.72 604.008H798.653V607.374H801.72C803.21 607.374 803.964 606.848 803.964 605.691C803.964 604.657 803.21 604.008 801.72 604.008ZM798.653 611.738H801.913C803.683 611.738 804.577 611.019 804.577 609.845C804.577 608.653 803.683 607.917 802.053 607.917H798.653V611.738ZM811.315 612.509C808.669 612.509 806.618 610.476 806.618 607.864C806.618 605.235 808.669 603.237 811.315 603.237C813.945 603.237 815.995 605.235 815.995 607.864C815.995 610.476 813.945 612.509 811.315 612.509ZM811.315 611.826C813.524 611.826 815.242 610.073 815.242 607.847C815.242 605.638 813.524 603.921 811.315 603.921C809.089 603.921 807.354 605.638 807.354 607.847C807.354 610.073 809.089 611.826 811.315 611.826ZM822.886 607.672C824.166 607.952 825.077 608.653 825.077 609.845C825.077 611.3 823.727 612.509 821.291 612.509C818.802 612.509 817.242 611.16 817.224 609.494H817.978C817.978 610.879 819.38 611.896 821.291 611.896C823.184 611.896 824.306 610.949 824.306 609.845C824.306 608.495 822.658 608.022 821.168 608.022H820.204V607.444H821.133C822.606 607.444 823.868 606.83 823.868 605.656C823.868 604.552 822.728 603.833 821.116 603.833C819.345 603.833 818.188 604.867 818.188 606.217H817.452C817.47 604.587 818.837 603.219 821.151 603.219C823.289 603.219 824.604 604.201 824.604 605.621C824.604 606.567 823.99 607.321 822.886 607.672ZM834.346 603.412V611.633H835.485V614.543H834.766V612.334H826.388V614.543H825.669V611.633H826.651C826.949 611.633 827.44 611.142 827.475 609.722L827.615 603.412H834.346ZM827.597 611.633H833.592V604.078H828.334L828.211 609.67C828.176 611.002 827.755 611.563 827.597 611.633ZM844.092 603.412H844.916L839.307 616.365H838.501L840.254 612.299L836.257 603.412H837.098C839.552 608.934 840.201 610.406 840.639 611.563C841.077 610.406 841.673 608.986 844.092 603.412ZM853.014 603.412H853.908L850.209 607.847L853.908 612.334H853.014C850.823 609.722 850.227 608.951 849.754 608.25C849.263 608.969 848.667 609.722 846.511 612.334H845.617L849.298 607.864L845.617 603.412H846.511C848.684 606.006 849.263 606.743 849.754 607.444C850.209 606.778 850.735 606.094 853.014 603.412ZM863.342 605.936L863.43 603.412H864.113V612.334H863.342V609.792C862.711 611.387 861.291 612.509 859.275 612.509C856.559 612.509 854.683 610.511 854.683 607.847C854.683 605.183 856.576 603.237 859.31 603.237C861.221 603.237 862.641 604.271 863.342 605.884V605.936ZM859.398 611.826C861.712 611.826 863.342 610.055 863.342 607.864C863.342 605.673 861.712 603.921 859.398 603.921C857.102 603.921 855.437 605.568 855.437 607.864C855.437 610.161 857.102 611.826 859.398 611.826ZM699.476 627.566C700.913 627.742 701.702 628.671 701.702 629.845C701.702 631.352 700.545 632.334 698.302 632.334H694.375V623.412H698.126C700.177 623.412 701.089 624.306 701.089 625.603C701.089 626.655 700.563 627.339 699.476 627.566ZM698.144 624.008H695.076V627.374H698.144C699.634 627.374 700.387 626.848 700.387 625.691C700.387 624.657 699.634 624.008 698.144 624.008ZM695.076 631.738H698.337C700.107 631.738 701.001 631.019 701.001 629.845C701.001 628.653 700.107 627.917 698.477 627.917H695.076V631.738ZM709.32 627.514L714.876 632.334H713.895L708.514 627.654C708.549 629.109 708.549 630.634 708.549 632.334H707.795V623.412H708.549C708.549 624.955 708.549 626.164 708.514 627.339L713.895 623.412H714.859L709.32 627.514ZM715.254 632.352V631.668C716.043 631.598 717.112 631.23 717.112 629.196V623.412H723.755V632.334H723.001V624.078H717.831V629.249C717.831 631.668 716.393 632.316 715.254 632.352ZM730.261 623.237C732.977 623.237 734.765 625.288 734.748 628.04H726.527C726.597 630.371 728.245 631.861 730.383 631.861C732.224 631.861 733.31 630.792 733.749 629.792L734.432 629.898C733.959 631.247 732.504 632.509 730.383 632.509C727.772 632.509 725.773 630.669 725.773 627.829C725.773 625.288 727.666 623.237 730.261 623.237ZM730.261 623.868C728.175 623.868 726.632 625.445 726.527 627.426H733.959C733.889 625.481 732.434 623.868 730.261 623.868ZM739.405 632.334H738.651V624.078H735.479V623.412H742.56V624.078H739.405V632.334ZM745.369 627.514L750.925 632.334H749.944L744.563 627.654C744.598 629.109 744.598 630.634 744.598 632.334H743.844V623.412H744.598C744.598 624.955 744.598 626.164 744.563 627.339L749.944 623.412H750.908L745.369 627.514ZM755.611 623.237C758.328 623.237 760.116 625.288 760.098 628.04H751.878C751.948 630.371 753.595 631.861 755.734 631.861C757.574 631.861 758.661 630.792 759.099 629.792L759.783 629.898C759.31 631.247 757.855 632.509 755.734 632.509C753.122 632.509 751.124 630.669 751.124 627.829C751.124 625.288 753.017 623.237 755.611 623.237ZM755.611 623.868C753.525 623.868 751.983 625.445 751.878 627.426H759.31C759.239 625.481 757.785 623.868 755.611 623.868Z" fill="#FF66E7"/>
</g>
<defs>
<filter id="filter0_f_280_2706" x="13.8735" y="-0.00245094" width="1278.7" height="106.022" filterUnits="userSpaceOnUse" color-interpolation-filters="sRGB">
<feFlood flood-opacity="0" result="BackgroundImageFix"/>
<feBlend mode="normal" in="SourceGraphic" in2="BackgroundImageFix" result="shape"/>
<feGaussianBlur stdDeviation="6.573" result="effect1_foregroundBlur_280_2706"/>
</filter>
<filter id="filter1_f_280_2706" x="1014.72" y="669.096" width="498.628" height="88.0781" filterUnits="userSpaceOnUse" color-interpolation-filters="sRGB">
<feFlood flood-opacity="0" result="BackgroundImageFix"/>
<feBlend mode="normal" in="SourceGraphic" in2="BackgroundImageFix" result="shape"/>
<feGaussianBlur stdDeviation="6.573" result="effect1_foregroundBlur_280_2706"/>
</filter>
<clipPath id="clip0_280_2706">
<rect width="1528.44" height="764.221" fill="white" transform="translate(0.757812 0.0673828)"/>
</clipPath>
</defs>
</svg>
