<svg width="1529" height="765" viewBox="0 0 1529 765" fill="none" xmlns="http://www.w3.org/2000/svg">
<g clip-path="url(#clip0_280_2967)">
<rect width="1528.44" height="764.221" transform="translate(0 0.423828)" fill="white"/>
<rect x="-27.6055" y="-23.2393" width="1590.23" height="802.783" fill="#FF66E7"/>
<path d="M1119.6 84.5576V384.725" stroke="white" stroke-opacity="0.3" stroke-width="1.3086"/>
<path d="M18.4023 -7.46484V778.348" stroke="white" stroke-opacity="0.3" stroke-width="1.3086"/>
<path d="M1510.04 -0.0146484V785.798" stroke="white" stroke-opacity="0.3" stroke-width="1.3086"/>
<path d="M1418.52 -8.79785V777.015" stroke="white" stroke-opacity="0.3" stroke-width="1.3086"/>
<path d="M100.348 3.05176V788.865" stroke="white" stroke-opacity="0.3" stroke-width="1.3086"/>
<path d="M790.391 -23.1309V790.817" stroke="white" stroke-opacity="0.3" stroke-width="1.3086"/>
<path d="M1500.84 381.245H1502.45V382.281H1500.84V384.455H1499.59V382.281H1494.65V381.389L1499.65 374.235H1500.84V381.245ZM1499.7 375.847L1496 381.245H1499.59V377.301C1499.59 376.682 1499.63 376.178 1499.7 375.847ZM1509.12 384.455H1503.1V383.318H1505.46V375.703L1503.27 376.437V375.257L1506.75 374.235V383.318H1509.12V384.455Z" fill="white"/>
<path d="M24.9807 381.245H26.5929V382.281H24.9807V384.455H23.7283V382.281H18.791V381.389L23.7859 374.235H24.9807V381.245ZM23.8435 375.847L20.1441 381.245H23.7283V377.301C23.7283 376.682 23.7715 376.178 23.8435 375.847ZM31.3987 384.599C29.4123 384.599 27.6417 383.217 27.6417 380.972V377.718C27.6417 375.473 29.4123 374.091 31.3987 374.091C33.3708 374.091 35.1557 375.473 35.1557 377.718V380.972C35.1557 383.217 33.3708 384.599 31.3987 384.599ZM31.3987 383.404C32.7518 383.404 33.8746 382.397 33.8746 380.972V377.718C33.8746 376.293 32.7518 375.286 31.3987 375.286C30.0312 375.286 28.9229 376.293 28.9229 377.718V380.972C28.9229 382.397 30.0312 383.404 31.3987 383.404Z" fill="white"/>
<path d="M-27.6055 78.8613L1528.44 86.3107" stroke="white" stroke-opacity="0.3" stroke-width="1.3146"/>
<path d="M100.348 384.725L1418.89 384.725" stroke="white" stroke-opacity="0.3" stroke-width="1.3146"/>
<path d="M-36.8086 670.869L1528.44 678.319" stroke="white" stroke-opacity="0.3" stroke-width="1.3146"/>
<path d="M200.862 183.666C187.135 183.666 176.009 180.776 168.64 172.251L135.985 134.827V133.527L185.112 83.3881L166.906 84.3995L168.351 79.6313H207.364L205.919 83.6771C194.071 83.8215 188.002 86.2779 180.778 93.647L145.955 129.337L179.911 167.916C186.846 175.574 192.193 178.464 201.585 182.799L200.862 183.666ZM100.729 182.221L102.174 178.175L110.41 178.03C113.3 177.886 115.034 176.152 115.034 173.118V83.3881L100.729 84.3995L102.174 79.6313H141.765L140.32 83.6771L132.228 83.8215C129.194 83.966 127.46 85.8444 127.46 89.1678V178.464L141.765 177.452L140.32 182.221H100.729ZM219.975 183.666C214.484 183.666 211.45 178.464 211.45 172.829C233.557 166.182 238.759 146.387 238.759 114.887V83.6771L218.241 84.3995L219.686 79.6313H309.271L307.826 83.6771L299.59 83.8215C296.555 83.966 294.822 85.8444 294.822 89.1678V178.464L309.126 177.452L307.681 182.221H268.235L269.68 178.175L277.771 178.03C280.95 177.886 282.395 176.297 282.395 173.118V83.6771H243.093V113.153C243.093 148.41 239.915 171.817 219.975 183.666ZM383.591 182.221L385.035 178.175L390.237 178.03C396.595 177.886 400.207 176.441 397.462 170.517L388.792 152.022H343.133L331.862 178.464L349.635 177.452L348.19 182.221H315.246L316.691 178.175L322.904 178.03C327.239 177.886 329.261 173.696 332.007 167.049L362.35 95.5254C358.015 87.4339 353.681 83.8215 342.988 82.2321L343.711 79.6313H368.13L414.512 178.464L424.048 177.452L422.603 182.221H383.591ZM344.722 147.976H386.914L364.951 100.727C364.951 100.727 364.951 100.583 364.807 100.583L344.722 147.976ZM475.31 183.666C443.811 183.666 422.715 161.414 422.715 134.249C422.715 99.1377 446.412 78.1864 477.189 78.1864C489.615 78.1864 500.596 81.5097 508.977 85.6999L511.289 112.575H509.121C500.163 91.7686 489.471 82.9546 472.565 82.9546C454.07 82.9546 437.164 100.438 437.164 129.915C437.164 157.946 453.925 178.897 477.044 178.897C493.372 178.897 503.053 169.794 512.156 147.832H514.323L507.965 177.597C499.729 181.209 489.904 183.666 475.31 183.666ZM578.6 183.666C547.1 183.666 526.004 161.414 526.004 134.249C526.004 99.1377 549.701 78.1864 580.478 78.1864C592.904 78.1864 603.886 81.5097 612.266 85.6999L614.578 112.575H612.411C603.452 91.7686 592.76 82.9546 575.854 82.9546C557.359 82.9546 540.454 100.438 540.454 129.915C540.454 157.946 557.215 178.897 580.333 178.897C596.661 178.897 606.342 169.794 615.445 147.832H617.612L611.255 177.597C603.019 181.209 593.193 183.666 578.6 183.666Z" fill="white"/>
<path d="M810.837 675.196L812.282 671.15L822.397 671.006C824.998 671.006 826.876 669.85 826.876 666.093V576.651H809.248C800.434 576.651 796.677 585.032 791.186 602.66H789.019L792.198 568.849C798.844 571.016 804.335 572.606 812.138 572.606H855.052C862.855 572.606 868.346 570.872 874.993 568.849L878.172 602.66H876.004C871.814 585.032 867.045 576.651 857.942 576.651H839.303V671.439L856.208 670.428L854.763 675.196H810.837ZM886.568 675.196L888.013 671.15L896.249 671.006C899.139 670.861 900.873 669.128 900.873 666.093V576.362L886.568 577.374L888.013 572.606H932.228C955.058 572.606 969.941 584.021 969.941 601.793C969.941 620.867 952.168 631.848 933.384 631.848H913.299V671.439L930.494 670.428L929.049 675.196H886.568ZM913.299 627.802H930.783C945.377 627.802 955.492 617.543 955.492 603.383C955.492 586.477 945.377 576.651 929.049 576.651H913.299V627.802ZM1023.67 675.196L1025.11 671.15L1030.32 671.006C1036.67 670.861 1040.29 669.417 1037.54 663.492L1028.87 644.997H983.211L971.94 671.439L989.713 670.428L988.268 675.196H955.323L956.768 671.15L962.982 671.006C967.316 670.861 969.339 666.671 972.085 660.024L1002.43 588.5C998.094 580.408 993.759 576.796 983.066 575.206L983.789 572.606H1008.21L1054.59 671.439L1064.13 670.428L1062.68 675.196H1023.67ZM984.8 640.951H1026.99L1005.03 593.702C1005.03 593.702 1005.03 593.557 1004.88 593.557L984.8 640.951ZM1069.87 675.196L1071.31 671.15L1079.26 671.006C1083.59 670.861 1084.17 668.405 1084.17 662.625V576.362L1069.87 577.374L1071.31 572.606H1115.38C1136.62 572.606 1149.34 582.865 1149.34 596.592C1149.34 608.874 1141.25 617.832 1128.68 621.011C1145 624.045 1154.97 633.149 1154.97 645.575C1154.97 664.937 1139.22 675.196 1118.99 675.196H1069.87ZM1096.6 671.15H1116.68C1130.7 671.15 1140.52 662.336 1140.52 647.453C1140.52 632.715 1129.98 623.756 1114.52 623.756H1096.6V671.15ZM1096.6 619.711H1117.26C1127.66 619.711 1136.04 610.607 1136.04 598.47C1136.04 586.188 1126.94 576.651 1110.47 576.651H1096.6V619.711Z" fill="white"/>
<path d="M1126.46 97.9758C1122.95 97.9758 1120.32 95.2896 1120.32 91.7309C1120.32 88.1721 1122.95 85.486 1126.46 85.486C1129.95 85.486 1132.59 88.1721 1132.59 91.7309C1132.59 95.2896 1129.95 97.9758 1126.46 97.9758ZM1126.46 96.5557C1129.1 96.5557 1131.06 94.3999 1131.06 91.7309C1131.06 89.0618 1129.1 86.9061 1126.46 86.9061C1123.81 86.9061 1121.84 89.0618 1121.84 91.7309C1121.84 94.3999 1123.81 96.5557 1126.46 96.5557ZM1138.86 89.1303C1141.38 89.1303 1143.21 90.9096 1143.21 93.5102C1143.21 96.1109 1141.31 97.9758 1138.64 97.9758C1136.23 97.9758 1134.04 96.3846 1134.04 93.151V91.5427C1134.04 88.155 1135.65 86.2901 1138.35 85.7426L1142.17 84.9556V86.2388L1138.69 86.9574C1136.9 87.3338 1135.58 88.2919 1135.48 91.1321C1136.16 89.6949 1137.53 89.1303 1138.86 89.1303ZM1138.66 96.6241C1140.45 96.6241 1141.74 95.3238 1141.74 93.4931C1141.74 91.6796 1140.45 90.3964 1138.66 90.3964C1136.83 90.3964 1135.53 91.6796 1135.53 93.4931C1135.53 95.3238 1136.83 96.6241 1138.66 96.6241ZM1157.23 88.9934V96.4188H1158.43V99.8065H1157.06V97.8047H1144.79V88.9934H1146.26V96.4702H1150.26V88.9934H1151.75V96.4702H1155.76V88.9934H1157.23ZM1161.25 95.7345L1166.74 88.9934H1168.13V97.8047H1166.64V91.1492L1161.15 97.8047H1159.78V88.9934H1161.25V95.7345ZM1174.51 88.0695C1173.16 88.0695 1171.89 87.3509 1171.89 85.6742H1173.07C1173.07 86.4441 1173.55 87.06 1174.51 87.06C1175.49 87.06 1175.95 86.4441 1175.95 85.6742H1177.13C1177.13 87.3509 1175.86 88.0695 1174.51 88.0695ZM1171.79 95.7345L1177.28 88.9934H1178.67V97.8047H1177.18V91.1492L1171.69 97.8047H1170.32V88.9934H1171.79V95.7345ZM1184.74 88.9934H1192.76V97.8047H1191.28V90.3279H1186.21V97.8047H1184.74V88.9934ZM1194.2 97.8389V96.5044C1194.91 96.4702 1195.77 96.0938 1195.77 94.4684V88.9934H1202.7V97.8047H1201.23V90.3279H1197.21V94.5026C1197.21 96.915 1195.79 97.856 1194.2 97.8389ZM1212.42 90.9952L1212.64 88.9934H1213.92V97.8047H1212.42V95.7345C1211.87 97.0861 1210.57 97.9758 1208.82 97.9758C1206.16 97.9758 1204.41 95.9569 1204.41 93.3734C1204.41 90.7556 1206.19 88.8052 1208.91 88.8052C1210.43 88.8052 1211.73 89.6093 1212.42 90.9096V90.9952ZM1209.18 96.6413C1211.07 96.6413 1212.4 95.2212 1212.4 93.3905C1212.4 91.5769 1211.07 90.1568 1209.18 90.1568C1207.29 90.1568 1205.93 91.5085 1205.93 93.3905C1205.93 95.2896 1207.29 96.6413 1209.18 96.6413ZM1222.7 92.7403V88.9934H1224.19V97.8047H1222.7V94.0406H1217.59V97.8047H1216.12V88.9934H1217.59V92.7403H1222.7Z" fill="white"/>
</g>
<defs>
<clipPath id="clip0_280_2967">
<rect width="1528.44" height="764.221" fill="white" transform="translate(0 0.423828)"/>
</clipPath>
</defs>
</svg>
