<svg width="1529" height="765" viewBox="0 0 1529 765" fill="none" xmlns="http://www.w3.org/2000/svg">
<g clip-path="url(#clip0_280_2868)">
<rect width="1528.44" height="764.221" transform="translate(0.515625 0.423828)" fill="white"/>
<rect x="-27.0938" y="-23.2393" width="1590.23" height="802.783" fill="#FF66E7"/>
<path d="M1120.12 84.1191V386.039" stroke="white" stroke-opacity="0.3" stroke-width="1.3086"/>
<path d="M18.918 -7.46484V778.348" stroke="white" stroke-opacity="0.3" stroke-width="1.3086"/>
<path d="M1510.55 -0.0146484V785.798" stroke="white" stroke-opacity="0.3" stroke-width="1.3086"/>
<path d="M1419.03 -4.41504V781.398" stroke="white" stroke-opacity="0.3" stroke-width="1.3086"/>
<path d="M100.863 3.05176V788.865" stroke="white" stroke-opacity="0.3" stroke-width="1.3086"/>
<path d="M790.906 -23.1309V790.817" stroke="white" stroke-opacity="0.3" stroke-width="1.3086"/>
<path d="M1500.04 381.245H1501.66V382.281H1500.04V384.455H1498.79V382.281H1493.85V381.389L1498.85 374.235H1500.04V381.245ZM1498.91 375.847L1495.21 381.245H1498.79V377.301C1498.79 376.682 1498.83 376.178 1498.91 375.847ZM1506.13 384.599C1503.88 384.599 1502.52 383.016 1502.52 381.245H1503.8C1503.83 382.454 1504.73 383.433 1506.13 383.433C1507.4 383.433 1508.49 382.469 1508.49 381.058C1508.49 379.518 1507.43 378.668 1506.16 378.668C1505.28 378.668 1504.23 379.086 1503.9 380.079H1502.63L1503.52 374.235H1509.05V375.372H1504.56L1504.07 378.467C1504.65 377.834 1505.55 377.56 1506.4 377.56C1508.3 377.56 1509.77 378.899 1509.77 381.015C1509.77 382.987 1508.26 384.599 1506.13 384.599Z" fill="white"/>
<path d="M25.4963 381.245H27.1085V382.281H25.4963V384.455H24.244V382.281H19.3066V381.389L24.3015 374.235H25.4963V381.245ZM24.3591 375.847L20.6597 381.245H24.244V377.301C24.244 376.682 24.2871 376.178 24.3591 375.847ZM33.9728 381.245H35.585V382.281H33.9728V384.455H32.7205V382.281H27.7831V381.389L32.778 374.235H33.9728V381.245ZM32.8356 375.847L29.1362 381.245H32.7205V377.301C32.7205 376.682 32.7636 376.178 32.8356 375.847Z" fill="white"/>
<path d="M-27.0938 78.8613L1528.96 86.3107" stroke="white" stroke-opacity="0.3" stroke-width="1.3146"/>
<path d="M100.859 386.697H1419.41" stroke="white" stroke-opacity="0.3" stroke-width="1.3146"/>
<path d="M-36.293 670.869L1528.96 678.319" stroke="white" stroke-opacity="0.3" stroke-width="1.3146"/>
<path d="M322.462 680.146C316.971 680.146 313.937 674.944 313.937 669.309C336.044 662.662 341.246 642.867 341.246 611.367V580.156L320.728 580.879L322.173 576.11H411.759L410.314 580.156L402.078 580.301C399.044 580.445 397.31 582.324 397.31 585.647V674.944L411.615 673.933L410.17 678.701H370.723L372.168 674.655L380.259 674.511C383.438 674.366 384.883 672.777 384.883 669.598V580.156H345.581V609.633C345.581 644.89 342.402 668.298 322.462 680.146ZM486.08 678.701L487.525 674.655L492.727 674.511C499.084 674.366 502.697 672.921 499.951 666.997L491.282 648.502H445.622L434.351 674.944L452.124 673.933L450.679 678.701H417.734L419.179 674.655L425.392 674.511C429.727 674.366 431.75 670.176 434.496 663.529L464.839 592.005C460.504 583.913 456.17 580.301 445.477 578.711L446.2 576.11H470.619L517.002 674.944L526.538 673.933L525.093 678.701H486.08ZM447.211 644.456H489.403L467.44 597.207C467.44 597.207 467.44 597.062 467.296 597.062L447.211 644.456ZM532.277 678.701L533.722 674.655L541.669 674.511C546.004 674.366 546.582 671.91 546.582 666.13V579.867L532.277 580.879L533.722 576.11H586.463C593.109 576.11 599.756 575.388 606.403 573.509L609.582 603.853H607.414C602.068 589.693 596.722 580.156 584.151 580.156H567.678C561.899 580.156 559.009 583.046 559.009 588.97V620.181H578.226C601.49 620.181 615.939 630.729 615.939 647.635C615.939 666.708 602.068 678.701 579.96 678.701H532.277ZM559.009 674.655H577.648C592.242 674.655 601.49 663.529 601.49 649.513C601.49 634.63 591.52 624.227 575.481 624.227H559.009V674.655ZM681.34 680.146C653.308 680.146 630.189 658.183 630.189 628.562C630.189 597.785 652.152 574.665 681.34 574.665C709.372 574.665 732.491 596.629 732.491 626.25C732.491 657.027 710.528 680.146 681.34 680.146ZM644.494 624.516C644.494 652.837 660.822 675.233 684.519 675.233C704.17 675.233 718.186 655.727 718.186 630.296C718.186 601.975 701.858 579.578 678.161 579.578C658.51 579.578 644.494 599.085 644.494 624.516ZM741.258 678.701L742.702 674.655L750.939 674.511C753.828 674.366 755.562 672.632 755.562 669.598V579.867L741.258 580.879L742.702 576.11H786.918C809.748 576.11 824.631 587.525 824.631 605.298C824.631 624.371 806.858 635.353 788.074 635.353H767.989V674.944L785.184 673.933L783.739 678.701H741.258ZM767.989 631.307H785.473C800.067 631.307 810.181 621.048 810.181 606.888C810.181 589.982 800.067 580.156 783.739 580.156H767.989V631.307ZM878.359 678.701L879.804 674.655L885.005 674.511C891.363 674.366 894.975 672.921 892.23 666.997L883.56 648.502H837.9L826.63 674.944L844.403 673.933L842.958 678.701H810.013L811.458 674.655L817.671 674.511C822.006 674.366 824.029 670.176 826.774 663.529L857.118 592.005C852.783 583.913 848.448 580.301 837.756 578.711L838.478 576.11H862.898L909.28 674.944L918.817 673.933L917.372 678.701H878.359ZM839.49 644.456H881.682L859.719 597.207C859.719 597.207 859.719 597.062 859.574 597.062L839.49 644.456ZM932.22 678.701L933.665 674.655L943.779 674.511C946.38 674.511 948.259 673.355 948.259 669.598V580.156H930.631C921.816 580.156 918.06 588.537 912.569 606.165H910.401L913.58 572.354C920.227 574.521 925.718 576.11 933.52 576.11H976.435C984.238 576.11 989.729 574.376 996.375 572.354L999.554 606.165H997.387C993.196 588.537 988.428 580.156 979.325 580.156H960.685V674.944L977.591 673.933L976.146 678.701H932.22ZM1057.53 680.146C1029.5 680.146 1006.38 658.183 1006.38 628.562C1006.38 597.785 1028.34 574.665 1057.53 574.665C1085.56 574.665 1108.68 596.629 1108.68 626.25C1108.68 657.027 1086.72 680.146 1057.53 680.146ZM1020.69 624.516C1020.69 652.837 1037.01 675.233 1060.71 675.233C1080.36 675.233 1094.38 655.727 1094.38 630.296C1094.38 601.975 1078.05 579.578 1054.35 579.578C1034.7 579.578 1020.69 599.085 1020.69 624.516ZM1117.45 678.701L1118.89 674.655L1127.13 674.511C1130.02 674.366 1131.75 672.632 1131.75 669.598V579.867L1117.45 580.879L1118.89 576.11H1163.11C1185.94 576.11 1200.82 587.525 1200.82 605.298C1200.82 624.371 1183.05 635.353 1164.27 635.353H1144.18V674.944L1161.38 673.933L1159.93 678.701H1117.45ZM1144.18 631.307H1161.67C1176.26 631.307 1186.37 621.048 1186.37 606.888C1186.37 589.982 1176.26 580.156 1159.93 580.156H1144.18V631.307ZM1232.37 673.21V678.701H1205.64L1207.09 674.655L1215.32 674.511C1218.21 674.366 1219.95 672.632 1219.95 669.598V579.867L1205.64 580.879L1207.09 576.11H1246.68L1245.23 580.156L1237.14 580.301C1234.11 580.445 1232.37 582.324 1232.37 585.647V658.039L1285.11 595.617C1288.15 592.149 1289.45 588.681 1289.45 581.601V576.11H1316.18L1314.74 580.156L1306.64 580.301C1303.61 580.445 1301.88 582.324 1301.88 585.647V674.944L1316.18 673.933L1314.74 678.701H1275.14L1276.59 674.655L1284.82 674.511C1287.71 674.366 1289.45 672.632 1289.45 669.598V596.918L1235.55 660.784C1233.53 663.24 1232.37 666.13 1232.37 673.21ZM1378.16 678.701L1379.6 674.655L1387.69 674.511C1390.87 674.366 1392.46 672.777 1392.46 669.598V580.156H1379.46C1364 580.156 1353.16 589.837 1353.16 603.709C1353.16 618.158 1364.14 624.949 1382.35 624.949V626.394L1356.92 667.286C1350.27 677.979 1337.7 680.146 1324.26 680.146L1323.68 678.701C1335.39 674.511 1341.45 668.442 1347.67 658.761L1367.17 627.984C1353.01 626.394 1338.71 618.158 1338.71 603.998C1338.71 585.647 1356.05 576.11 1380.03 576.11H1419.19L1417.75 580.156L1409.66 580.301C1406.48 580.445 1404.89 582.324 1404.89 585.647V674.944L1419.19 673.933L1417.75 678.701H1378.16Z" fill="white"/>
<path d="M1126.98 97.9758C1123.47 97.9758 1120.84 95.2896 1120.84 91.7309C1120.84 88.1721 1123.47 85.486 1126.98 85.486C1130.47 85.486 1133.1 88.1721 1133.1 91.7309C1133.1 95.2896 1130.47 97.9758 1126.98 97.9758ZM1126.98 96.5557C1129.61 96.5557 1131.58 94.3999 1131.58 91.7309C1131.58 89.0618 1129.61 86.9061 1126.98 86.9061C1124.33 86.9061 1122.36 89.0618 1122.36 91.7309C1122.36 94.3999 1124.33 96.5557 1126.98 96.5557ZM1139.38 89.1303C1141.89 89.1303 1143.72 90.9096 1143.72 93.5102C1143.72 96.1109 1141.83 97.9758 1139.16 97.9758C1136.74 97.9758 1134.55 96.3846 1134.55 93.151V91.5427C1134.55 88.155 1136.16 86.2901 1138.87 85.7426L1142.68 84.9556V86.2388L1139.21 86.9574C1137.41 87.3338 1136.09 88.2919 1135.99 91.1321C1136.68 89.6949 1138.04 89.1303 1139.38 89.1303ZM1139.17 96.6241C1140.97 96.6241 1142.25 95.3238 1142.25 93.4931C1142.25 91.6796 1140.97 90.3964 1139.17 90.3964C1137.34 90.3964 1136.04 91.6796 1136.04 93.4931C1136.04 95.3238 1137.34 96.6241 1139.17 96.6241ZM1157.74 88.9934V96.4188H1158.94V99.8065H1157.57V97.8047H1145.31V88.9934H1146.78V96.4702H1150.78V88.9934H1152.27V96.4702H1156.27V88.9934H1157.74ZM1161.76 95.7345L1167.26 88.9934H1168.64V97.8047H1167.15V91.1492L1161.66 97.8047H1160.29V88.9934H1161.76V95.7345ZM1175.03 88.0695C1173.68 88.0695 1172.41 87.3509 1172.41 85.6742H1173.59C1173.59 86.4441 1174.07 87.06 1175.03 87.06C1176 87.06 1176.46 86.4441 1176.46 85.6742H1177.65C1177.65 87.3509 1176.38 88.0695 1175.03 88.0695ZM1172.31 95.7345L1177.8 88.9934H1179.19V97.8047H1177.7V91.1492L1172.2 97.8047H1170.84V88.9934H1172.31V95.7345ZM1185.26 88.9934H1193.28V97.8047H1191.79V90.3279H1186.73V97.8047H1185.26V88.9934ZM1194.71 97.8389V96.5044C1195.43 96.4702 1196.29 96.0938 1196.29 94.4684V88.9934H1203.21V97.8047H1201.74V90.3279H1197.72V94.5026C1197.72 96.915 1196.3 97.856 1194.71 97.8389ZM1212.93 90.9952L1213.16 88.9934H1214.44V97.8047H1212.93V95.7345C1212.39 97.0861 1211.09 97.9758 1209.34 97.9758C1206.67 97.9758 1204.93 95.9569 1204.93 93.3734C1204.93 90.7556 1206.71 88.8052 1209.43 88.8052C1210.95 88.8052 1212.25 89.6093 1212.93 90.9096V90.9952ZM1209.7 96.6413C1211.58 96.6413 1212.92 95.2212 1212.92 93.3905C1212.92 91.5769 1211.58 90.1568 1209.7 90.1568C1207.8 90.1568 1206.45 91.5085 1206.45 93.3905C1206.45 95.2896 1207.8 96.6413 1209.7 96.6413ZM1223.22 92.7403V88.9934H1224.71V97.8047H1223.22V94.0406H1218.1V97.8047H1216.63V88.9934H1218.1V92.7403H1223.22Z" fill="white"/>
<path d="M1129.98 155.576H1134.99V144.814H1136.53V156.962H1121.91V144.814H1123.43V155.576H1128.46V144.814H1129.98V155.576ZM1141.87 152.223L1146.64 156.962H1144.84L1140.36 152.513C1140.45 153.728 1140.46 155.097 1140.46 156.962H1138.98V148.151H1140.46C1140.46 149.998 1140.46 151.025 1140.38 151.932L1144.83 148.151H1146.62L1141.87 152.223ZM1154.61 150.152L1154.83 148.151H1156.11V156.962H1154.61V154.892C1154.06 156.243 1152.76 157.133 1151.01 157.133C1148.35 157.133 1146.6 155.114 1146.6 152.531C1146.6 149.913 1148.38 147.962 1151.1 147.962C1152.62 147.962 1153.92 148.767 1154.61 150.067V150.152ZM1151.37 155.798C1153.26 155.798 1154.59 154.378 1154.59 152.548C1154.59 150.734 1153.26 149.314 1151.37 149.314C1149.48 149.314 1148.12 150.666 1148.12 152.548C1148.12 154.447 1149.48 155.798 1151.37 155.798ZM1168.27 152.531C1168.27 155.114 1166.42 157.013 1163.66 157.082V160.897H1162.26V157.082C1159.52 157.013 1157.67 155.063 1157.67 152.531C1157.67 150.016 1159.52 148.099 1162.26 148.031V144.13H1163.66V148.031C1166.42 148.099 1168.27 149.981 1168.27 152.531ZM1159.06 152.531C1159.06 154.344 1160.33 155.747 1162.26 155.833V149.263C1160.33 149.331 1159.06 150.717 1159.06 152.531ZM1163.66 149.263V155.833C1165.61 155.747 1166.88 154.396 1166.88 152.531C1166.88 150.734 1165.61 149.331 1163.66 149.263ZM1181.55 148.151V155.576H1182.73V158.964H1181.36V156.962H1174.04V158.964H1172.67V155.576H1173.75C1174.06 155.576 1174.41 155.131 1174.43 153.916L1174.57 148.151H1181.55ZM1175.37 155.576H1180.08V149.485H1175.97L1175.87 153.831C1175.83 154.96 1175.54 155.473 1175.37 155.576ZM1183.34 156.996V155.662C1184.05 155.627 1184.91 155.251 1184.91 153.626V148.151H1191.84V156.962H1190.37V149.485H1186.35V153.66C1186.35 156.072 1184.93 157.013 1183.34 156.996ZM1196.53 148.151H1200.6V156.962H1199.18C1199.18 153.985 1199.18 153.215 1199.28 152.958H1199.25L1195.09 156.962H1193.29C1195.91 154.567 1196.85 153.745 1197.4 153.42H1196.36C1194.95 153.42 1193.45 152.633 1193.45 150.768C1193.45 149.16 1194.61 148.151 1196.53 148.151ZM1194.87 150.905C1194.87 151.778 1195.5 152.377 1196.66 152.377H1199.18V149.434H1196.66C1195.5 149.434 1194.87 150.033 1194.87 150.905ZM1210.89 157.133C1208.15 157.133 1206.22 155.165 1206.22 152.548C1206.22 149.93 1208.15 147.962 1210.89 147.962C1212 147.962 1212.97 148.322 1213.73 149.006V150.495C1213.03 149.793 1212.15 149.314 1211.02 149.314C1209.16 149.314 1207.72 150.717 1207.72 152.548C1207.72 154.378 1209.16 155.798 1211.02 155.798C1212.15 155.798 1213.03 155.302 1213.73 154.618V156.089C1212.97 156.791 1212 157.133 1210.89 157.133ZM1219.59 147.962C1222.27 147.962 1224.14 149.896 1224.09 153.01H1216.59C1216.7 154.738 1218.03 155.884 1219.74 155.884C1221.2 155.884 1222.12 155.08 1222.51 154.242L1223.83 154.396C1223.37 155.884 1221.81 157.133 1219.72 157.133C1217.07 157.133 1215.1 155.319 1215.1 152.548C1215.1 149.964 1216.99 147.962 1219.59 147.962ZM1219.59 149.194C1217.96 149.194 1216.71 150.323 1216.59 151.863H1222.53C1222.48 150.358 1221.3 149.194 1219.59 149.194ZM1230.34 152.531L1233.51 148.151H1234.91V156.962H1233.42C1233.42 153.591 1233.46 151.88 1233.63 149.827C1232.82 151.265 1231.99 152.531 1230.34 154.618C1228.75 152.599 1227.93 151.35 1227.08 149.879C1227.25 151.88 1227.26 153.591 1227.26 156.962H1225.79V148.151H1227.18L1230.34 152.531ZM1239.6 148.151H1243.67V156.962H1242.25C1242.25 153.985 1242.25 153.215 1242.36 152.958H1242.32L1238.16 156.962H1236.37C1238.99 154.567 1239.93 153.745 1240.47 153.42H1239.43C1238.03 153.42 1236.52 152.633 1236.52 150.768C1236.52 149.16 1237.69 148.151 1239.6 148.151ZM1237.94 150.905C1237.94 151.778 1238.58 152.377 1239.74 152.377H1242.25V149.434H1239.74C1238.58 149.434 1237.94 150.033 1237.94 150.905ZM1252.45 151.898V148.151H1253.93V156.962H1252.45V153.198H1247.33V156.962H1245.86V148.151H1247.33V151.898H1252.45Z" fill="white"/>
<path d="M1127.88 125.096H1129.47L1123.55 137.243H1122.01L1123.76 133.633L1119.44 125.096H1121.12C1122.85 128.706 1123.79 130.588 1124.54 132.333C1125.29 130.588 1126.18 128.723 1127.88 125.096ZM1130.02 137.277V135.943C1130.74 135.909 1131.6 135.532 1131.6 133.907V128.432H1138.53V137.243H1137.06V129.766H1133.03V133.941C1133.03 136.353 1131.61 137.294 1130.02 137.277ZM1142.19 131.34H1144.53C1146.62 131.34 1148.07 132.418 1148.07 134.3C1148.07 136.165 1146.62 137.243 1144.53 137.243H1140.72V128.432H1142.19V131.34ZM1142.19 135.977H1144.4C1145.68 135.977 1146.6 135.412 1146.6 134.283C1146.6 133.154 1145.68 132.607 1144.4 132.607H1142.19V135.977ZM1151.76 137.243H1150.27V129.766H1147.44V128.432H1154.56V129.766H1151.76V137.243ZM1160.8 128.261C1163.49 128.261 1165.22 130.28 1165.22 132.863C1165.22 135.481 1163.44 137.414 1160.73 137.414C1159.19 137.414 1157.89 136.627 1157.21 135.31V141.178H1155.72V128.432H1156.99L1157.21 130.451V130.485C1157.76 129.15 1159.06 128.261 1160.8 128.261ZM1160.44 136.08C1162.34 136.08 1163.71 134.728 1163.71 132.846C1163.71 130.947 1162.34 129.595 1160.44 129.595C1158.56 129.595 1157.23 131.015 1157.23 132.846C1157.23 134.66 1158.56 136.08 1160.44 136.08ZM1174.46 130.434L1174.68 128.432H1175.97V137.243H1174.46V135.173C1173.91 136.525 1172.61 137.414 1170.87 137.414C1168.2 137.414 1166.45 135.395 1166.45 132.812C1166.45 130.194 1168.23 128.244 1170.95 128.244C1172.48 128.244 1173.78 129.048 1174.46 130.348V130.434ZM1171.23 136.08C1173.11 136.08 1174.44 134.66 1174.44 132.829C1174.44 131.015 1173.11 129.595 1171.23 129.595C1169.33 129.595 1167.98 130.947 1167.98 132.829C1167.98 134.728 1169.33 136.08 1171.23 136.08ZM1188.12 132.812C1188.12 135.395 1186.27 137.294 1183.52 137.363V141.178H1182.11V137.363C1179.38 137.294 1177.53 135.344 1177.53 132.812C1177.53 130.297 1179.38 128.381 1182.11 128.312V124.411H1183.52V128.312C1186.27 128.381 1188.12 130.263 1188.12 132.812ZM1178.91 132.812C1178.91 134.625 1180.18 136.028 1182.11 136.114V129.544C1180.18 129.612 1178.91 130.998 1178.91 132.812ZM1183.52 129.544V136.114C1185.47 136.028 1186.73 134.677 1186.73 132.812C1186.73 131.015 1185.47 129.612 1183.52 129.544ZM1191.14 135.173L1196.64 128.432H1198.02V137.243H1196.53V130.588L1191.04 137.243H1189.67V128.432H1191.14V135.173ZM1204.44 137.414C1201.76 137.414 1199.74 135.447 1199.74 132.829C1199.74 130.211 1201.76 128.244 1204.44 128.244C1207.11 128.244 1209.13 130.211 1209.13 132.829C1209.13 135.447 1207.11 137.414 1204.44 137.414ZM1204.44 136.063C1206.27 136.063 1207.68 134.66 1207.68 132.812C1207.68 130.981 1206.27 129.595 1204.44 129.595C1202.61 129.595 1201.19 130.981 1201.19 132.812C1201.19 134.66 1202.61 136.063 1204.44 136.063ZM1210.09 137.277V135.943C1210.81 135.909 1211.66 135.532 1211.66 133.907V128.432H1218.59V137.243H1217.12V129.766H1213.1V133.941C1213.1 136.353 1211.68 137.294 1210.09 137.277ZM1224.79 128.244C1227.47 128.244 1229.34 130.177 1229.29 133.291H1221.79C1221.9 135.019 1223.23 136.165 1224.94 136.165C1226.4 136.165 1227.32 135.361 1227.71 134.523L1229.03 134.677C1228.57 136.165 1227.01 137.414 1224.92 137.414C1222.27 137.414 1220.3 135.601 1220.3 132.829C1220.3 130.245 1222.19 128.244 1224.79 128.244ZM1224.79 129.476C1223.16 129.476 1221.91 130.605 1221.79 132.145H1227.73C1227.68 130.639 1226.5 129.476 1224.79 129.476ZM1234.19 137.243H1232.71V129.766H1229.88V128.432H1237V129.766H1234.19V137.243ZM1242.12 137.414C1239.43 137.414 1237.41 135.447 1237.41 132.829C1237.41 130.211 1239.43 128.244 1242.12 128.244C1244.79 128.244 1246.81 130.211 1246.81 132.829C1246.81 135.447 1244.79 137.414 1242.12 137.414ZM1242.12 136.063C1243.95 136.063 1245.35 134.66 1245.35 132.812C1245.35 130.981 1243.95 129.595 1242.12 129.595C1240.29 129.595 1238.87 130.981 1238.87 132.812C1238.87 134.66 1240.29 136.063 1242.12 136.063ZM1253.93 132.504C1255.18 132.641 1255.98 133.513 1255.98 134.677C1255.98 136.165 1254.8 137.243 1252.52 137.243H1248.52V128.449H1252.32C1254.34 128.449 1255.4 129.27 1255.4 130.622C1255.4 131.751 1254.78 132.333 1253.93 132.504ZM1252.37 129.595H1249.85V132.162H1252.37C1253.45 132.162 1254.06 131.751 1254.06 130.878C1254.06 130.057 1253.45 129.595 1252.37 129.595ZM1249.85 136.097H1252.64C1253.93 136.097 1254.63 135.532 1254.63 134.643C1254.63 133.736 1253.93 133.171 1252.71 133.171H1249.85V136.097ZM1265.05 130.434L1265.28 128.432H1266.56V137.243H1265.05V135.173C1264.51 136.525 1263.21 137.414 1261.46 137.414C1258.79 137.414 1257.05 135.395 1257.05 132.812C1257.05 130.194 1258.83 128.244 1261.55 128.244C1263.07 128.244 1264.37 129.048 1265.05 130.348V130.434ZM1261.82 136.08C1263.7 136.08 1265.04 134.66 1265.04 132.829C1265.04 131.015 1263.7 129.595 1261.82 129.595C1259.92 129.595 1258.57 130.947 1258.57 132.829C1258.57 134.728 1259.92 136.08 1261.82 136.08ZM1271.88 137.277V135.943C1272.6 135.909 1273.45 135.532 1273.45 133.907V128.432H1280.38V137.243H1278.91V129.766H1274.89V133.941C1274.89 136.353 1273.47 137.294 1271.88 137.277ZM1290.1 130.434L1290.32 128.432H1291.6V137.243H1290.1V135.173C1289.55 136.525 1288.25 137.414 1286.51 137.414C1283.84 137.414 1282.09 135.395 1282.09 132.812C1282.09 130.194 1283.87 128.244 1286.59 128.244C1288.11 128.244 1289.41 129.048 1290.1 130.348V130.434ZM1286.87 136.08C1288.75 136.08 1290.08 134.66 1290.08 132.829C1290.08 131.015 1288.75 129.595 1286.87 129.595C1284.97 129.595 1283.61 130.947 1283.61 132.829C1283.61 134.728 1284.97 136.08 1286.87 136.08ZM1298.35 132.812L1301.52 128.432H1302.92V137.243H1301.43C1301.43 133.873 1301.46 132.162 1301.64 130.109C1300.83 131.546 1299.99 132.812 1298.35 134.899C1296.76 132.88 1295.94 131.631 1295.08 130.16C1295.25 132.162 1295.27 133.873 1295.27 137.243H1293.8V128.432H1295.18L1298.35 132.812ZM1305.11 128.432H1313.13V137.243H1311.65V129.766H1306.58V137.243H1305.11V128.432ZM1322.85 130.434L1323.07 128.432H1324.35V137.243H1322.85V135.173C1322.3 136.525 1321 137.414 1319.25 137.414C1316.59 137.414 1314.84 135.395 1314.84 132.812C1314.84 130.194 1316.62 128.244 1319.34 128.244C1320.86 128.244 1322.16 129.048 1322.85 130.348V130.434ZM1319.61 136.08C1321.5 136.08 1322.83 134.66 1322.83 132.829C1322.83 131.015 1321.5 129.595 1319.61 129.595C1317.71 129.595 1316.36 130.947 1316.36 132.829C1316.36 134.728 1317.71 136.08 1319.61 136.08Z" fill="white"/>
<path d="M1127.99 111.091C1129.34 111.468 1130.31 112.46 1130.31 114.051C1130.31 116.087 1128.6 117.696 1125.61 117.696C1122.41 117.696 1120.68 116.002 1120.68 113.623H1122.17C1122.17 115.352 1123.73 116.327 1125.61 116.327C1127.59 116.327 1128.77 115.3 1128.77 114.017C1128.77 112.477 1127.23 111.93 1125.42 111.93H1124.33V110.612H1125.46C1127.39 110.578 1128.24 109.688 1128.24 108.576C1128.24 107.379 1127.1 106.574 1125.46 106.574C1123.68 106.574 1122.39 107.652 1122.39 109.192H1120.9C1120.9 106.917 1122.62 105.206 1125.52 105.206C1128.07 105.206 1129.77 106.438 1129.77 108.474C1129.77 109.723 1129.15 110.681 1127.99 111.091ZM1139.57 110.715L1139.79 108.713H1141.07V117.524H1139.57V115.454C1139.02 116.806 1137.72 117.696 1135.97 117.696C1133.31 117.696 1131.56 115.677 1131.56 113.093C1131.56 110.475 1133.34 108.525 1136.06 108.525C1137.58 108.525 1138.88 109.329 1139.57 110.629V110.715ZM1136.33 116.361C1138.22 116.361 1139.55 114.941 1139.55 113.11C1139.55 111.297 1138.22 109.877 1136.33 109.877C1134.43 109.877 1133.08 111.228 1133.08 113.11C1133.08 115.009 1134.43 116.361 1136.33 116.361ZM1147.82 113.093L1150.98 108.713H1152.39V117.524H1150.9C1150.9 114.154 1150.93 112.443 1151.1 110.39C1150.3 111.827 1149.46 113.093 1147.82 115.18C1146.23 113.162 1145.41 111.913 1144.55 110.441C1144.72 112.443 1144.74 114.154 1144.74 117.524H1143.27V108.713H1144.65L1147.82 113.093ZM1158.58 108.525C1161.27 108.525 1163.13 110.458 1163.08 113.572H1155.59C1155.69 115.3 1157.03 116.447 1158.74 116.447C1160.19 116.447 1161.11 115.642 1161.51 114.804L1162.83 114.958C1162.36 116.447 1160.81 117.696 1158.72 117.696C1156.07 117.696 1154.1 115.882 1154.1 113.11C1154.1 110.527 1155.98 108.525 1158.58 108.525ZM1158.58 109.757C1156.96 109.757 1155.71 110.886 1155.59 112.426H1161.53C1161.47 110.92 1160.29 109.757 1158.58 109.757ZM1167.99 117.524H1166.5V110.048H1163.68V108.713H1170.79V110.048H1167.99V117.524ZM1174.85 112.785L1179.62 117.524H1177.82L1173.34 113.076C1173.43 114.291 1173.44 115.659 1173.44 117.524H1171.96V108.713H1173.44C1173.44 110.561 1173.44 111.587 1173.36 112.494L1177.81 108.713H1179.6L1174.85 112.785ZM1187.59 110.715L1187.81 108.713H1189.09V117.524H1187.59V115.454C1187.04 116.806 1185.74 117.696 1183.99 117.696C1181.32 117.696 1179.58 115.677 1179.58 113.093C1179.58 110.475 1181.36 108.525 1184.08 108.525C1185.6 108.525 1186.9 109.329 1187.59 110.629V110.715ZM1184.35 116.361C1186.24 116.361 1187.57 114.941 1187.57 113.11C1187.57 111.297 1186.24 109.877 1184.35 109.877C1182.45 109.877 1181.1 111.228 1181.1 113.11C1181.1 115.009 1182.45 116.361 1184.35 116.361ZM1198.65 105.377V106.694C1197.78 106.694 1196.6 107.156 1196.6 108.73V116.737C1196.6 118.329 1197.78 118.791 1198.65 118.791V120.091C1196.55 120.091 1195.15 119.081 1195.15 116.618V108.85C1195.15 106.403 1196.55 105.377 1198.65 105.377ZM1204.35 117.696C1201.99 117.696 1199.89 116.053 1199.89 113.384V109.517C1199.89 106.848 1201.99 105.206 1204.35 105.206C1206.7 105.206 1208.82 106.848 1208.82 109.517V113.384C1208.82 116.053 1206.7 117.696 1204.35 117.696ZM1204.35 116.275C1205.96 116.275 1207.3 115.078 1207.3 113.384V109.517C1207.3 107.823 1205.96 106.626 1204.35 106.626C1202.73 106.626 1201.41 107.823 1201.41 109.517V113.384C1201.41 115.078 1202.73 116.275 1204.35 116.275ZM1209.73 106.728V105.377H1217.79V106.54L1213.29 117.524H1211.68L1216.16 106.728H1209.73ZM1220.34 117.696C1219.82 117.696 1219.41 117.302 1219.41 116.772C1219.41 116.275 1219.82 115.865 1220.34 115.865C1220.83 115.865 1221.24 116.275 1221.24 116.772C1221.24 117.302 1220.83 117.696 1220.34 117.696ZM1226.91 117.696C1224.55 117.696 1222.44 116.053 1222.44 113.384V109.517C1222.44 106.848 1224.55 105.206 1226.91 105.206C1229.25 105.206 1231.37 106.848 1231.37 109.517V113.384C1231.37 116.053 1229.25 117.696 1226.91 117.696ZM1226.91 116.275C1228.52 116.275 1229.85 115.078 1229.85 113.384V109.517C1229.85 107.823 1228.52 106.626 1226.91 106.626C1225.28 106.626 1223.97 107.823 1223.97 109.517V113.384C1223.97 115.078 1225.28 116.275 1226.91 116.275ZM1232.28 106.728V105.377H1240.34V106.54L1235.84 117.524H1234.24L1238.72 106.728H1232.28ZM1242.89 117.696C1242.38 117.696 1241.97 117.302 1241.97 116.772C1241.97 116.275 1242.38 115.865 1242.89 115.865C1243.39 115.865 1243.8 116.275 1243.8 116.772C1243.8 117.302 1243.39 117.696 1242.89 117.696ZM1252.26 111.143C1253.38 111.57 1254.23 112.494 1254.23 114.103C1254.23 115.933 1252.79 117.696 1250.09 117.696C1247.4 117.696 1245.66 115.933 1245.66 113.623H1247.15C1247.15 115.317 1248.45 116.31 1250.02 116.31C1251.72 116.31 1252.71 115.283 1252.71 114.017C1252.71 112.477 1251.36 111.93 1249.87 111.93H1248.89V110.612H1249.9C1251.41 110.578 1252.23 109.688 1252.23 108.576C1252.23 107.396 1251.29 106.592 1249.89 106.592C1248.38 106.592 1247.32 107.669 1247.32 109.192H1245.83C1245.83 107.002 1247.35 105.206 1249.97 105.206C1252.25 105.206 1253.75 106.557 1253.75 108.474C1253.75 109.705 1253.15 110.612 1252.26 111.143ZM1255.08 106.728V105.377H1263.13V106.54L1258.63 117.524H1257.03L1261.51 106.728H1255.08ZM1263.75 120.091V118.773C1264.62 118.773 1265.8 118.311 1265.8 116.737V108.73C1265.8 107.139 1264.62 106.677 1263.75 106.677V105.377C1265.85 105.377 1267.24 106.386 1267.24 108.85V116.618C1267.24 119.064 1265.85 120.091 1263.75 120.091Z" fill="white"/>
</g>
<defs>
<clipPath id="clip0_280_2868">
<rect width="1528.44" height="764.221" fill="white" transform="translate(0.515625 0.423828)"/>
</clipPath>
</defs>
</svg>
