<svg width="1529" height="765" viewBox="0 0 1529 765" fill="none" xmlns="http://www.w3.org/2000/svg">
<g clip-path="url(#clip0_280_2109)">
<rect width="1528.44" height="764.221" transform="translate(0.269531)" fill="white"/>
<rect x="-20.1113" y="120.721" width="1565.26" height="528.475" stroke="black" stroke-opacity="0.15" stroke-width="1.3086"/>
<path d="M430.586 120.066V649.857" stroke="black" stroke-opacity="0.15" stroke-width="1.3086"/>
<path d="M1116.37 119.629V649.419" stroke="black" stroke-opacity="0.15" stroke-width="1.3086"/>
<path d="M110.191 -10.4688V775.344" stroke="black" stroke-opacity="0.15" stroke-width="1.3086"/>
<path d="M18.6758 -7.8877V777.925" stroke="black" stroke-opacity="0.15" stroke-width="1.3086"/>
<path d="M1510.31 -0.438477V785.375" stroke="black" stroke-opacity="0.15" stroke-width="1.3086"/>
<path d="M1418.79 -4.83887V780.974" stroke="black" stroke-opacity="0.15" stroke-width="1.3086"/>
<path d="M790.664 -23.5547V790.393" stroke="black" stroke-opacity="0.15" stroke-width="1.3086"/>
<path d="M737.012 -23.5547V790.393" stroke="black" stroke-opacity="0.15" stroke-width="1.3086"/>
<path d="M110.191 384.728H1418.13" stroke="black" stroke-opacity="0.15" stroke-width="1.3086"/>
<path d="M797.747 688.433C795.746 687.18 794.076 684.503 794.076 681.538C794.076 678.414 795.832 675.981 797.747 674.801L797.891 674.959C796.566 676.701 795.746 679.019 795.746 681.538C795.746 684.071 796.48 686.619 797.891 688.274L797.747 688.433ZM797.971 685.885L798.115 685.525L799.051 685.482C799.324 685.467 799.44 685.323 799.44 685.05V679.378L797.612 679.508V679.162C798.72 678.932 800.418 678.27 801.34 677.622L801.57 677.766C801.484 678.414 801.426 679.206 801.426 679.954V685.439L802.995 685.323L802.851 685.885H797.971ZM802.851 688.274C804.262 686.619 804.996 684.071 804.996 681.538C804.996 679.019 804.175 676.701 802.851 674.959L802.995 674.801C804.91 675.981 806.666 678.414 806.666 681.538C806.666 684.503 804.996 687.18 802.995 688.433L802.851 688.274Z" fill="#FF66E7"/>
<path d="M795.993 704.208C793.992 702.956 792.322 700.278 792.322 697.313C792.322 694.189 794.078 691.757 795.993 690.576L796.137 690.735C794.813 692.476 793.992 694.794 793.992 697.313C793.992 699.846 794.726 702.394 796.137 704.05L795.993 704.208ZM796.027 701.315C798.056 700.034 799.942 698.047 799.942 696.305C799.942 695.413 799.424 694.823 798.517 694.823C797.869 694.823 797.207 695.082 796.617 695.629L796.473 695.399C797.293 694.189 798.33 693.383 799.597 693.383C801.079 693.383 802.058 694.261 802.058 695.6C802.058 697.227 800.057 698.724 798.546 699.818H800.935C801.684 699.818 802.274 699.53 802.821 698.421H803.123L802.519 701.948C801.885 701.689 800.993 701.66 800.244 701.66H796.171L796.027 701.315ZM802.995 704.05C804.406 702.394 805.14 699.846 805.14 697.313C805.14 694.794 804.319 692.476 802.995 690.735L803.139 690.576C805.053 691.757 806.81 694.189 806.81 697.313C806.81 700.278 805.14 702.956 803.139 704.208L802.995 704.05Z" fill="#FF66E7"/>
<path d="M796.43 719.982C794.43 718.73 792.76 716.053 792.76 713.087C792.76 709.964 794.516 707.531 796.43 706.351L796.574 706.509C795.25 708.251 794.43 710.568 794.43 713.087C794.43 715.621 795.164 718.169 796.574 719.824L796.43 719.982ZM796.809 720.515C799.155 719.853 800.868 718.068 800.868 716.427C800.868 715.117 799.832 714.469 798.594 714.469L798.45 714.325C799.846 713.39 800.393 712.253 800.393 711.418C800.393 710.799 800.005 710.439 799.357 710.439C798.709 710.439 798.148 710.741 797.486 711.231L797.342 711C798.076 710.007 799.155 709.158 800.451 709.158C801.559 709.158 802.452 709.849 802.452 710.799C802.452 711.907 801.415 712.814 800.034 713.562C801.559 713.62 803.042 714.138 803.042 715.65C803.042 717.809 800.235 720.141 796.953 720.745L796.809 720.515ZM803.025 719.824C804.435 718.169 805.17 715.621 805.17 713.087C805.17 710.568 804.349 708.251 803.025 706.509L803.169 706.351C805.083 707.531 806.839 709.964 806.839 713.087C806.839 716.053 805.17 718.73 803.169 719.982L803.025 719.824Z" fill="#FF66E7"/>
<path d="M795.114 735.759C793.113 734.506 791.443 731.829 791.443 728.864C791.443 725.74 793.2 723.307 795.114 722.127L795.258 722.285C793.934 724.027 793.113 726.345 793.113 728.864C793.113 731.397 793.847 733.945 795.258 735.6L795.114 735.759ZM799.609 736.522V733.211H795.219L795.075 732.981L801.193 724.992L801.423 725.136V731.714H802.935L802.791 733.211H801.423V736.522H799.609ZM796.644 731.714H799.609V727.784L796.644 731.714ZM803.016 735.6C804.426 733.945 805.161 731.397 805.161 728.864C805.161 726.345 804.34 724.027 803.016 722.285L803.16 722.127C805.074 723.307 806.83 725.74 806.83 728.864C806.83 731.829 805.161 734.506 803.16 735.759L803.016 735.6Z" fill="#FF66E7"/>
<path d="M1120.7 690.623C1118.7 689.371 1117.03 686.693 1117.03 683.728C1117.03 680.604 1118.79 678.172 1120.7 676.991L1120.84 677.15C1119.52 678.891 1118.7 681.209 1118.7 683.728C1118.7 686.261 1119.43 688.809 1120.84 690.465L1120.7 690.623ZM1120.93 691.156C1123.28 690.493 1124.99 688.709 1124.99 687.01C1124.99 685.7 1123.54 684.98 1121.88 684.505L1122.22 683.973C1122.85 682.749 1122.92 681.108 1122.78 679.942H1124.58C1125.24 679.942 1126.3 679.899 1126.97 679.669V681.785H1123.3L1123.05 683.023C1125.01 683.512 1127.08 684.592 1127.08 686.449C1127.08 688.608 1124.36 690.781 1121.08 691.386L1120.93 691.156ZM1127.32 690.465C1128.73 688.809 1129.47 686.261 1129.47 683.728C1129.47 681.209 1128.65 678.891 1127.32 677.15L1127.47 676.991C1129.38 678.172 1131.14 680.604 1131.14 683.728C1131.14 686.693 1129.47 689.371 1127.47 690.623L1127.32 690.465Z" fill="#FF66E7"/>
<path d="M1119.82 706.398C1117.82 705.146 1116.15 702.469 1116.15 699.503C1116.15 696.38 1117.91 693.947 1119.82 692.767L1119.96 692.925C1118.64 694.667 1117.82 696.984 1117.82 699.503C1117.82 702.037 1118.55 704.585 1119.96 706.24L1119.82 706.398ZM1123.2 703.995C1121.08 703.995 1119.64 702.569 1119.64 700.381C1119.64 696.538 1122.85 694.206 1126.21 693.486L1126.35 693.717C1123.49 694.638 1122.05 696.682 1121.8 699.1C1122.38 698.381 1123.2 697.819 1124.29 697.819C1125.79 697.819 1126.85 699 1126.85 700.525C1126.85 702.411 1125.23 703.995 1123.2 703.995ZM1121.77 699.834C1121.77 702.282 1122.52 703.52 1123.59 703.52C1124.39 703.52 1124.93 702.713 1124.93 701.015C1124.93 699.878 1124.36 698.884 1123.4 698.884C1122.9 698.884 1122.25 699.129 1121.77 699.59V699.834ZM1127.22 706.24C1128.63 704.585 1129.36 702.037 1129.36 699.503C1129.36 696.984 1128.54 694.667 1127.22 692.925L1127.36 692.767C1129.28 693.947 1131.03 696.38 1131.03 699.503C1131.03 702.469 1129.36 705.146 1127.36 706.398L1127.22 706.24Z" fill="#FF66E7"/>
<path d="M142.07 79.1465L142.698 77.3877L146.278 77.3249C147.597 77.2621 148.288 76.5084 148.288 75.1893V57.4761H122.284V77.5134L128.502 77.0737L127.874 79.1465H110.664L111.292 77.3877L114.872 77.3249C116.128 77.2621 116.882 76.5084 116.882 75.1893V36.1826L110.664 36.6223L111.292 34.5495H128.502L127.874 36.3082L124.357 36.371C123.038 36.4339 122.284 37.2504 122.284 38.6951V55.7174H148.288V36.1826L142.07 36.6223L142.698 34.5495H159.909L159.281 36.3082L155.763 36.371C154.444 36.4339 153.69 37.2504 153.69 38.6951V77.5134L159.909 77.0737L159.281 79.1465H142.07ZM192.222 79.1465L192.851 77.3877L195.112 77.3249C197.876 77.2621 199.446 76.634 198.252 74.0587L194.484 66.0186H174.635L169.735 77.5134L177.461 77.0737L176.833 79.1465H162.512L163.14 77.3877L165.841 77.3249C167.725 77.2621 168.605 75.4405 169.798 72.5512L182.989 41.4589C181.105 37.9414 179.22 36.371 174.572 35.6801L174.886 34.5495H185.501L205.664 77.5134L209.81 77.0737L209.182 79.1465H192.222ZM175.326 64.2599H193.667L184.12 43.7201C184.12 43.7201 184.12 43.6573 184.057 43.6573L175.326 64.2599ZM212.305 79.1465L212.933 77.3877L216.388 77.3249C218.272 77.2621 218.523 76.1943 218.523 73.6818V36.1826L212.305 36.6223L212.933 34.5495H232.091C241.324 34.5495 246.852 39.0092 246.852 44.9764C246.852 50.3155 243.334 54.2098 237.87 55.5917C244.967 56.9108 249.302 60.868 249.302 66.2699C249.302 74.6868 242.455 79.1465 233.661 79.1465H212.305ZM223.925 77.3877H232.656C238.749 77.3877 243.02 73.5562 243.02 67.0864C243.02 60.6796 238.435 56.7852 231.714 56.7852H223.925V77.3877ZM223.925 55.0264H232.907C237.43 55.0264 241.073 51.0692 241.073 45.7929C241.073 40.4539 237.116 36.3082 229.955 36.3082H223.925V55.0264ZM265.269 76.7596V79.1465H253.648L254.276 77.3877L257.857 77.3249C259.113 77.2621 259.867 76.5084 259.867 75.1893V36.1826L253.648 36.6223L254.276 34.5495H271.487L270.859 36.3082L267.342 36.371C266.022 36.4339 265.269 37.2504 265.269 38.6951V70.1643L288.195 43.0292C289.514 41.5217 290.08 40.0142 290.08 36.9364V34.5495H301.7L301.072 36.3082L297.554 36.371C296.235 36.4339 295.482 37.2504 295.482 38.6951V77.5134L301.7 77.0737L301.072 79.1465H283.861L284.489 77.3877L288.07 77.3249C289.326 77.2621 290.08 76.5084 290.08 75.1893V43.5945L266.651 71.3577C265.771 72.4255 265.269 73.6818 265.269 76.7596ZM306.217 79.1465L306.845 77.3877L310.426 77.3249C311.745 77.2621 312.436 76.4455 312.436 75.1265V36.1826L306.217 36.6223L306.845 34.5495H328.139C331.028 34.5495 333.918 34.2354 336.807 33.4188L338.189 46.6095H337.247C334.923 40.4539 332.598 36.3082 327.134 36.3082H321.606C319.094 36.3082 317.838 37.5645 317.838 40.1398V77.5134L324.307 77.0737L323.679 79.1465H306.217ZM363.485 79.1465L364.113 77.3877L366.375 77.3249C369.138 77.2621 370.709 76.634 369.515 74.0587L365.746 66.0186H345.898L340.998 77.5134L348.724 77.0737L348.096 79.1465H333.775L334.403 77.3877L337.104 77.3249C338.988 77.2621 339.868 75.4405 341.061 72.5512L354.252 41.4589C352.367 37.9414 350.483 36.371 345.835 35.6801L346.149 34.5495H356.764L376.927 77.5134L381.073 77.0737L380.445 79.1465H363.485ZM346.589 64.2599H364.93L355.382 43.7201C355.382 43.7201 355.382 43.6573 355.32 43.6573L346.589 64.2599ZM428.29 93.5934C428.793 83.8574 427.285 79.1465 423.265 79.1465H383.568L384.196 77.0737L390.163 77.5134V36.1826L383.944 36.6223L384.573 34.5495H401.783L401.155 36.3082L397.575 36.371C396.319 36.4339 395.565 37.1876 395.565 38.5067V77.3877H414.094C416.984 77.3877 418.491 76.1315 418.491 73.5562V36.1826L412.273 36.6223L412.901 34.5495H430.112L429.484 36.3082L425.903 36.371C424.647 36.4339 423.893 37.1876 423.893 38.5067V77.3877L431.619 76.5712C431.619 83.1037 430.677 87.8146 428.981 93.5934H428.29ZM447.143 76.7596V79.1465H435.523L436.151 77.3877L439.731 77.3249C440.988 77.2621 441.741 76.5084 441.741 75.1893V36.1826L435.523 36.6223L436.151 34.5495H453.362L452.734 36.3082L449.216 36.371C447.897 36.4339 447.143 37.2504 447.143 38.6951V70.1643L470.07 43.0292C471.389 41.5217 471.954 40.0142 471.954 36.9364V34.5495H483.575L482.947 36.3082L479.429 36.371C478.11 36.4339 477.356 37.2504 477.356 38.6951V77.5134L483.575 77.0737L482.947 79.1465H465.736L466.364 77.3877L469.944 77.3249C471.201 77.2621 471.954 76.5084 471.954 75.1893V43.5945L448.525 71.3577C447.646 72.4255 447.143 73.6818 447.143 76.7596ZM510.516 79.1465L511.144 77.3877L514.662 77.3249C516.043 77.2621 516.734 76.5712 516.734 75.1893V36.3082H511.081C504.36 36.3082 499.649 40.5167 499.649 46.5467C499.649 52.828 504.423 55.7802 512.337 55.7802V56.4083L501.282 74.1843C498.393 78.8324 492.928 79.7746 487.087 79.7746L486.836 79.1465C491.923 77.3249 494.562 74.6868 497.262 70.4783L505.742 57.0992C499.587 56.4083 493.368 52.828 493.368 46.6723C493.368 38.6951 500.906 34.5495 511.332 34.5495H528.355L527.727 36.3082L524.209 36.371C522.827 36.4339 522.136 37.2504 522.136 38.6951V77.5134L528.355 77.0737L527.727 79.1465H510.516Z" fill="black" fill-opacity="0.3"/>
<path d="M1497.3 384.176C1495.31 384.176 1493.54 382.794 1493.54 380.549V377.296C1493.54 375.05 1495.31 373.668 1497.3 373.668C1499.27 373.668 1501.06 375.05 1501.06 377.296V380.549C1501.06 382.794 1499.27 384.176 1497.3 384.176ZM1497.3 382.981C1498.65 382.981 1499.78 381.974 1499.78 380.549V377.296C1499.78 375.871 1498.65 374.863 1497.3 374.863C1495.93 374.863 1494.83 375.871 1494.83 377.296V380.549C1494.83 381.974 1495.93 382.981 1497.3 382.981ZM1501.82 374.949V373.812H1508.6V374.791L1504.82 384.032H1503.47L1507.24 374.949H1501.82Z" fill="#FF66E7"/>
<path d="M23.1957 384.176C21.2092 384.176 19.4387 382.794 19.4387 380.549V377.296C19.4387 375.05 21.2092 373.668 23.1957 373.668C25.1677 373.668 26.9527 375.05 26.9527 377.296V380.549C26.9527 382.794 25.1677 384.176 23.1957 384.176ZM23.1957 382.981C24.5488 382.981 25.6715 381.974 25.6715 380.549V377.296C25.6715 375.871 24.5488 374.863 23.1957 374.863C21.8282 374.863 20.7198 375.871 20.7198 377.296V380.549C20.7198 381.974 21.8282 382.981 23.1957 382.981ZM32.2204 377.238C34.0773 377.238 35.5024 378.649 35.5024 380.621C35.5024 382.636 34.0341 384.176 31.8893 384.176C29.7301 384.176 28.2475 382.636 28.2475 380.678C28.2475 380.059 28.4346 379.253 28.996 378.332L31.803 373.798L33.2136 373.812L30.9537 377.497C31.3135 377.324 31.7166 377.238 32.2204 377.238ZM31.8893 382.981C33.228 382.981 34.2212 381.988 34.2212 380.621C34.2212 379.253 33.228 378.26 31.8893 378.26C30.5074 378.26 29.5286 379.239 29.5286 380.621C29.5286 381.988 30.5362 382.981 31.8893 382.981Z" fill="#FF66E7"/>
<path d="M-0.167969 78.4375H1526.52" stroke="black" stroke-opacity="0.15" stroke-width="1.3146"/>
<path d="M-0.167969 670.446L1528.71 677.896" stroke="black" stroke-opacity="0.15" stroke-width="1.3146"/>
<path d="M0.269531 743.626L1529.15 751.075" stroke="black" stroke-opacity="0.15" stroke-width="1.3146"/>
<path d="M-3.23438 34.1797H1532.22" stroke="black" stroke-opacity="0.15" stroke-width="1.3146"/>
<path d="M815.873 686.579C816.591 686.667 816.986 687.131 816.986 687.718C816.986 688.472 816.407 688.963 815.286 688.963H813.322V684.502H815.198C816.223 684.502 816.679 684.949 816.679 685.598C816.679 686.123 816.416 686.465 815.873 686.579ZM815.207 684.8H813.673V686.483H815.207C815.952 686.483 816.328 686.22 816.328 685.641C816.328 685.124 815.952 684.8 815.207 684.8ZM813.673 688.665H815.303C816.188 688.665 816.635 688.306 816.635 687.718C816.635 687.122 816.188 686.754 815.373 686.754H813.673V688.665ZM821.117 684.502H821.564L819.715 686.719L821.564 688.963H821.117C820.022 687.657 819.724 687.271 819.487 686.921C819.242 687.28 818.944 687.657 817.866 688.963H817.419L819.259 686.728L817.419 684.502H817.866C818.953 685.799 819.242 686.167 819.487 686.518C819.715 686.185 819.978 685.843 821.117 684.502ZM824.301 689.051C822.977 689.051 821.952 688.034 821.952 686.728C821.952 685.413 822.977 684.414 824.301 684.414C825.615 684.414 826.641 685.413 826.641 686.728C826.641 688.034 825.615 689.051 824.301 689.051ZM824.301 688.709C825.405 688.709 826.264 687.832 826.264 686.719C826.264 685.615 825.405 684.756 824.301 684.756C823.188 684.756 822.32 685.615 822.32 686.719C822.32 687.832 823.188 688.709 824.301 688.709ZM831.357 684.502V688.612H831.927V690.067H831.567V688.963H827.378V690.067H827.019V688.612H827.509C827.658 688.612 827.904 688.367 827.921 687.657L827.992 684.502H831.357ZM827.983 688.612H830.98V684.835H828.351L828.289 687.631C828.272 688.297 828.062 688.577 827.983 688.612Z" fill="black"/>
<path d="M1138.79 686.553L1141.57 688.963H1141.08L1138.39 686.623C1138.41 687.35 1138.41 688.113 1138.41 688.963H1138.03V684.502H1138.41C1138.41 685.273 1138.41 685.878 1138.39 686.465L1141.08 684.502H1141.56L1138.79 686.553ZM1141.76 688.972V688.63C1142.15 688.595 1142.69 688.411 1142.69 687.394V684.502H1146.01V688.963H1145.63V684.835H1143.05V687.42C1143.05 688.63 1142.33 688.954 1141.76 688.972ZM1151.35 685.764L1151.39 684.502H1151.73V688.963H1151.35V687.692C1151.03 688.49 1150.32 689.051 1149.31 689.051C1147.96 689.051 1147.02 688.051 1147.02 686.719C1147.02 685.387 1147.97 684.414 1149.33 684.414C1150.29 684.414 1151 684.931 1151.35 685.738V685.764ZM1149.38 688.709C1150.53 688.709 1151.35 687.824 1151.35 686.728C1151.35 685.633 1150.53 684.756 1149.38 684.756C1148.23 684.756 1147.4 685.58 1147.4 686.728C1147.4 687.876 1148.23 688.709 1149.38 688.709ZM1155.08 689.051C1153.76 689.051 1152.74 688.034 1152.74 686.728C1152.74 685.413 1153.76 684.414 1155.08 684.414C1155.67 684.414 1156.19 684.616 1156.59 685.028L1156.58 685.431C1156.21 685.045 1155.74 684.756 1155.11 684.756C1154 684.756 1153.13 685.615 1153.13 686.728C1153.13 687.841 1154 688.709 1155.11 688.709C1155.74 688.709 1156.21 688.411 1156.58 688.034L1156.59 688.437C1156.19 688.84 1155.67 689.051 1155.08 689.051ZM1159.71 689.051C1158.38 689.051 1157.37 688.034 1157.37 686.728C1157.37 685.413 1158.38 684.414 1159.71 684.414C1160.29 684.414 1160.81 684.616 1161.21 685.028L1161.2 685.431C1160.84 685.045 1160.36 684.756 1159.73 684.756C1158.62 684.756 1157.75 685.615 1157.75 686.728C1157.75 687.841 1158.62 688.709 1159.73 688.709C1160.36 688.709 1160.84 688.411 1161.2 688.034L1161.21 688.437C1160.81 688.84 1160.29 689.051 1159.71 689.051ZM1166.45 689.051C1165.13 689.051 1164.11 688.034 1164.11 686.728C1164.11 685.413 1165.13 684.414 1166.45 684.414C1167.04 684.414 1167.55 684.616 1167.96 685.028L1167.95 685.431C1167.58 685.045 1167.11 684.756 1166.48 684.756C1165.36 684.756 1164.5 685.615 1164.5 686.728C1164.5 687.841 1165.36 688.709 1166.48 688.709C1167.11 688.709 1167.58 688.411 1167.95 688.034L1167.96 688.437C1167.55 688.84 1167.04 689.051 1166.45 689.051ZM1171.08 689.051C1169.76 689.051 1168.73 688.034 1168.73 686.728C1168.73 685.413 1169.76 684.414 1171.08 684.414C1172.4 684.414 1173.42 685.413 1173.42 686.728C1173.42 688.034 1172.4 689.051 1171.08 689.051ZM1171.08 688.709C1172.18 688.709 1173.04 687.832 1173.04 686.719C1173.04 685.615 1172.18 684.756 1171.08 684.756C1169.97 684.756 1169.1 685.615 1169.1 686.719C1169.1 687.832 1169.97 688.709 1171.08 688.709ZM1175.18 686.553L1177.96 688.963H1177.47L1174.78 686.623C1174.8 687.35 1174.8 688.113 1174.8 688.963H1174.42V684.502H1174.8C1174.8 685.273 1174.8 685.878 1174.78 686.465L1177.47 684.502H1177.95L1175.18 686.553ZM1180.41 689.051C1179.09 689.051 1178.06 688.034 1178.06 686.728C1178.06 685.413 1179.09 684.414 1180.41 684.414C1181.72 684.414 1182.75 685.413 1182.75 686.728C1182.75 688.034 1181.72 689.051 1180.41 689.051ZM1180.41 688.709C1181.51 688.709 1182.37 687.832 1182.37 686.719C1182.37 685.615 1181.51 684.756 1180.41 684.756C1179.3 684.756 1178.43 685.615 1178.43 686.719C1178.43 687.832 1179.3 688.709 1180.41 688.709ZM1186.3 686.579C1187.02 686.667 1187.41 687.131 1187.41 687.718C1187.41 688.472 1186.83 688.963 1185.71 688.963H1183.75V684.502H1185.62C1186.65 684.502 1187.11 684.949 1187.11 685.598C1187.11 686.123 1186.84 686.465 1186.3 686.579ZM1185.63 684.8H1184.1V686.483H1185.63C1186.38 686.483 1186.76 686.22 1186.76 685.641C1186.76 685.124 1186.38 684.8 1185.63 684.8ZM1184.1 688.665H1185.73C1186.62 688.665 1187.06 688.306 1187.06 687.718C1187.06 687.122 1186.62 686.754 1185.8 686.754H1184.1V688.665Z" fill="black"/>
<path d="M812.867 704.747V704.405C813.261 704.37 813.796 704.186 813.796 703.17V700.277H817.117V704.738H816.74V700.61H814.155V703.196C814.155 704.405 813.436 704.73 812.867 704.747ZM822.456 701.539L822.5 700.277H822.841V704.738H822.456V703.468C822.14 704.265 821.43 704.826 820.423 704.826C819.064 704.826 818.126 703.827 818.126 702.495C818.126 701.163 819.073 700.19 820.44 700.19C821.395 700.19 822.105 700.707 822.456 701.513V701.539ZM820.484 704.484C821.641 704.484 822.456 703.599 822.456 702.503C822.456 701.408 821.641 700.532 820.484 700.532C819.336 700.532 818.503 701.355 818.503 702.503C818.503 703.652 819.336 704.484 820.484 704.484ZM826.262 700.304C827.577 700.304 828.515 701.233 828.515 702.547C828.515 703.871 827.559 704.826 826.227 704.826C825.105 704.826 823.922 704.09 823.922 702.46V701.636C823.922 699.69 824.799 698.893 826.087 698.595L827.936 698.165V698.498L826.227 698.893C825.254 699.129 824.317 699.594 824.29 701.548C824.658 700.716 825.421 700.304 826.262 700.304ZM826.227 704.484C827.34 704.484 828.138 703.678 828.138 702.547C828.138 701.434 827.34 700.628 826.227 700.628C825.114 700.628 824.299 701.434 824.299 702.547C824.299 703.678 825.114 704.484 826.227 704.484ZM831.541 704.826C830.218 704.826 829.193 703.809 829.193 702.503C829.193 701.189 830.218 700.19 831.541 700.19C832.856 700.19 833.881 701.189 833.881 702.503C833.881 703.809 832.856 704.826 831.541 704.826ZM831.541 704.484C832.646 704.484 833.505 703.608 833.505 702.495C833.505 701.39 832.646 700.532 831.541 700.532C830.428 700.532 829.561 701.39 829.561 702.495C829.561 703.608 830.428 704.484 831.541 704.484ZM837.292 700.19C838.65 700.19 839.597 701.18 839.597 702.521C839.597 703.853 838.641 704.826 837.283 704.826C836.328 704.826 835.609 704.3 835.258 703.494V706.754H834.882V700.277H835.215L835.258 701.539V701.548C835.583 700.751 836.293 700.19 837.292 700.19ZM837.23 704.484C838.378 704.484 839.211 703.652 839.211 702.512C839.211 701.355 838.378 700.532 837.23 700.532C836.082 700.532 835.258 701.408 835.258 702.512C835.258 703.599 836.082 704.484 837.23 704.484ZM844.674 701.539L844.718 700.277H845.06V704.738H844.674V703.468C844.358 704.265 843.649 704.826 842.641 704.826C841.282 704.826 840.345 703.827 840.345 702.495C840.345 701.163 841.291 700.19 842.658 700.19C843.613 700.19 844.323 700.707 844.674 701.513V701.539ZM842.702 704.484C843.859 704.484 844.674 703.599 844.674 702.503C844.674 701.408 843.859 700.532 842.702 700.532C841.554 700.532 840.721 701.355 840.721 702.503C840.721 703.652 841.554 704.484 842.702 704.484ZM847.665 704.738H847.288V700.61H845.702V700.277H849.243V700.61H847.665V704.738ZM851.757 704.826C850.433 704.826 849.408 703.809 849.408 702.503C849.408 701.189 850.433 700.19 851.757 700.19C853.071 700.19 854.097 701.189 854.097 702.503C854.097 703.809 853.071 704.826 851.757 704.826ZM851.757 704.484C852.861 704.484 853.72 703.608 853.72 702.495C853.72 701.39 852.861 700.532 851.757 700.532C850.644 700.532 849.776 701.39 849.776 702.495C849.776 703.608 850.644 704.484 851.757 704.484ZM857.507 700.19C858.865 700.19 859.812 701.18 859.812 702.521C859.812 703.853 858.857 704.826 857.498 704.826C856.543 704.826 855.824 704.3 855.474 703.494V706.754H855.097V700.277H855.43L855.474 701.539V701.548C855.798 700.751 856.508 700.19 857.507 700.19ZM857.446 704.484C858.594 704.484 859.426 703.652 859.426 702.512C859.426 701.355 858.594 700.532 857.446 700.532C856.298 700.532 855.474 701.408 855.474 702.512C855.474 703.599 856.298 704.484 857.446 704.484ZM861.191 704.195L864.556 700.277H864.916V704.738H864.539V700.812L861.173 704.738H860.814V700.277H861.191V704.195ZM867.241 700.277H869.204V704.738H868.845C868.845 703.152 868.845 702.828 868.871 702.617L866.268 704.738H865.777C867.583 703.301 868.065 702.933 868.336 702.766H867.258C866.426 702.766 865.83 702.311 865.83 701.522C865.83 700.794 866.347 700.277 867.241 700.277ZM866.189 701.539C866.189 702.083 866.575 702.486 867.311 702.486H868.845V700.602H867.311C866.575 700.602 866.189 701.014 866.189 701.539Z" fill="black"/>
<path d="M1138.79 702.328L1141.57 704.738H1141.08L1138.39 702.398C1138.41 703.126 1138.41 703.888 1138.41 704.738H1138.03V700.277H1138.41C1138.41 701.049 1138.41 701.653 1138.39 702.241L1141.08 700.277H1141.56L1138.79 702.328ZM1141.76 704.747V704.405C1142.15 704.37 1142.69 704.186 1142.69 703.17V700.277H1146.01V704.738H1145.63V700.61H1143.05V703.196C1143.05 704.405 1142.33 704.73 1141.76 704.747ZM1151.35 701.539L1151.39 700.277H1151.73V704.738H1151.35V703.468C1151.03 704.265 1150.32 704.826 1149.31 704.826C1147.96 704.826 1147.02 703.827 1147.02 702.495C1147.02 701.163 1147.97 700.19 1149.33 700.19C1150.29 700.19 1151 700.707 1151.35 701.513V701.539ZM1149.38 704.484C1150.53 704.484 1151.35 703.599 1151.35 702.503C1151.35 701.408 1150.53 700.532 1149.38 700.532C1148.23 700.532 1147.4 701.355 1147.4 702.503C1147.4 703.652 1148.23 704.484 1149.38 704.484ZM1155.08 704.826C1153.76 704.826 1152.74 703.809 1152.74 702.503C1152.74 701.189 1153.76 700.19 1155.08 700.19C1155.67 700.19 1156.19 700.391 1156.59 700.803L1156.58 701.206C1156.21 700.821 1155.74 700.532 1155.11 700.532C1154 700.532 1153.13 701.39 1153.13 702.503C1153.13 703.616 1154 704.484 1155.11 704.484C1155.74 704.484 1156.21 704.186 1156.58 703.809L1156.59 704.212C1156.19 704.616 1155.67 704.826 1155.08 704.826ZM1159.71 704.826C1158.38 704.826 1157.37 703.809 1157.37 702.503C1157.37 701.189 1158.38 700.19 1159.71 700.19C1160.29 700.19 1160.81 700.391 1161.21 700.803L1161.2 701.206C1160.84 700.821 1160.36 700.532 1159.73 700.532C1158.62 700.532 1157.75 701.39 1157.75 702.503C1157.75 703.616 1158.62 704.484 1159.73 704.484C1160.36 704.484 1160.84 704.186 1161.2 703.809L1161.21 704.212C1160.81 704.616 1160.29 704.826 1159.71 704.826ZM1165.71 704.738H1165.33V700.61H1163.74V700.277H1167.28V700.61H1165.71V704.738ZM1170.33 700.19C1171.69 700.19 1172.64 701.18 1172.64 702.521C1172.64 703.853 1171.68 704.826 1170.33 704.826C1169.37 704.826 1168.65 704.3 1168.3 703.494V706.754H1167.92V700.277H1168.26L1168.3 701.539V701.548C1168.63 700.751 1169.34 700.19 1170.33 700.19ZM1170.27 704.484C1171.42 704.484 1172.25 703.652 1172.25 702.512C1172.25 701.355 1171.42 700.532 1170.27 700.532C1169.13 700.532 1168.3 701.408 1168.3 702.512C1168.3 703.599 1169.13 704.484 1170.27 704.484ZM1177.72 701.539L1177.76 700.277H1178.1V704.738H1177.72V703.468C1177.4 704.265 1176.69 704.826 1175.68 704.826C1174.33 704.826 1173.39 703.827 1173.39 702.495C1173.39 701.163 1174.33 700.19 1175.7 700.19C1176.66 700.19 1177.37 700.707 1177.72 701.513V701.539ZM1175.75 704.484C1176.9 704.484 1177.72 703.599 1177.72 702.503C1177.72 701.408 1176.9 700.532 1175.75 700.532C1174.6 700.532 1173.76 701.355 1173.76 702.503C1173.76 703.652 1174.6 704.484 1175.75 704.484ZM1181.92 702.354C1182.64 702.442 1183.03 702.907 1183.03 703.494C1183.03 704.247 1182.45 704.738 1181.33 704.738H1179.37V700.277H1181.24C1182.27 700.277 1182.72 700.724 1182.72 701.373C1182.72 701.899 1182.46 702.241 1181.92 702.354ZM1181.25 700.575H1179.72V702.258H1181.25C1182 702.258 1182.37 701.995 1182.37 701.417C1182.37 700.9 1182 700.575 1181.25 700.575ZM1179.72 704.44H1181.35C1182.23 704.44 1182.68 704.081 1182.68 703.494C1182.68 702.898 1182.23 702.53 1181.42 702.53H1179.72V704.44Z" fill="black"/>
<path d="M814.085 718.104L816.863 720.514H816.372L813.682 718.174C813.699 718.901 813.699 719.664 813.699 720.514H813.322V716.053H813.699C813.699 716.824 813.699 717.429 813.682 718.016L816.372 716.053H816.854L814.085 718.104ZM817.052 720.522V720.181C817.446 720.146 817.981 719.962 817.981 718.945V716.053H821.302V720.514H820.926V716.386H818.34V718.971C818.34 720.181 817.622 720.505 817.052 720.522ZM826.641 717.315L826.685 716.053H827.027V720.514H826.641V719.243C826.325 720.04 825.616 720.601 824.608 720.601C823.249 720.601 822.312 719.602 822.312 718.27C822.312 716.938 823.258 715.965 824.625 715.965C825.581 715.965 826.29 716.482 826.641 717.289V717.315ZM824.669 720.26C825.826 720.26 826.641 719.374 826.641 718.279C826.641 717.183 825.826 716.307 824.669 716.307C823.521 716.307 822.688 717.131 822.688 718.279C822.688 719.427 823.521 720.26 824.669 720.26ZM830.377 720.601C829.054 720.601 828.037 719.585 828.037 718.279C828.037 716.964 829.054 715.965 830.377 715.965C830.964 715.965 831.481 716.167 831.885 716.579L831.876 716.982C831.508 716.596 831.035 716.307 830.404 716.307C829.29 716.307 828.423 717.166 828.423 718.279C828.423 719.392 829.29 720.26 830.404 720.26C831.035 720.26 831.508 719.962 831.876 719.585L831.885 719.988C831.481 720.391 830.964 720.601 830.377 720.601ZM834.999 720.601C833.676 720.601 832.659 719.585 832.659 718.279C832.659 716.964 833.676 715.965 834.999 715.965C835.586 715.965 836.103 716.167 836.506 716.579L836.498 716.982C836.129 716.596 835.656 716.307 835.025 716.307C833.912 716.307 833.045 717.166 833.045 718.279C833.045 719.392 833.912 720.26 835.025 720.26C835.656 720.26 836.129 719.962 836.498 719.585L836.506 719.988C836.103 720.391 835.586 720.601 834.999 720.601ZM840.42 718.104L843.198 720.514H842.707L840.017 718.174C840.034 718.901 840.034 719.664 840.034 720.514H839.657V716.053H840.034C840.034 716.824 840.034 717.429 840.017 718.016L842.707 716.053H843.189L840.42 718.104ZM845.646 720.601C844.323 720.601 843.297 719.585 843.297 718.279C843.297 716.964 844.323 715.965 845.646 715.965C846.961 715.965 847.986 716.964 847.986 718.279C847.986 719.585 846.961 720.601 845.646 720.601ZM845.646 720.26C846.75 720.26 847.609 719.383 847.609 718.27C847.609 717.166 846.75 716.307 845.646 716.307C844.533 716.307 843.665 717.166 843.665 718.27C843.665 719.383 844.533 720.26 845.646 720.26ZM851.396 715.965C852.755 715.965 853.701 716.955 853.701 718.296C853.701 719.629 852.746 720.601 851.387 720.601C850.432 720.601 849.714 720.075 849.363 719.269V722.529H848.986V716.053H849.319L849.363 717.315V717.324C849.687 716.526 850.397 715.965 851.396 715.965ZM851.335 720.26C852.483 720.26 853.316 719.427 853.316 718.288C853.316 717.131 852.483 716.307 851.335 716.307C850.187 716.307 849.363 717.183 849.363 718.288C849.363 719.374 850.187 720.26 851.335 720.26ZM855.08 717.683H856.368C857.438 717.683 858.2 718.156 858.2 719.094C858.2 720.032 857.438 720.514 856.368 720.514H854.703V716.053H855.08V717.683ZM859.024 720.514V716.053H859.401V720.514H859.024ZM855.08 720.181H856.342C857.201 720.181 857.823 719.839 857.823 719.094C857.823 718.349 857.201 718.007 856.342 718.007H855.08V720.181Z" fill="black"/>
<path d="M814.085 733.879L816.863 736.289H816.372L813.682 733.949C813.699 734.676 813.699 735.439 813.699 736.289H813.322V731.828H813.699C813.699 732.599 813.699 733.204 813.682 733.791L816.372 731.828H816.854L814.085 733.879ZM817.052 736.298V735.956C817.446 735.921 817.981 735.737 817.981 734.72V731.828H821.302V736.289H820.926V732.161H818.34V734.747C818.34 735.956 817.622 736.28 817.052 736.298ZM826.641 733.09L826.685 731.828H827.027V736.289H826.641V735.018C826.325 735.816 825.616 736.377 824.608 736.377C823.249 736.377 822.312 735.378 822.312 734.045C822.312 732.713 823.258 731.741 824.625 731.741C825.581 731.741 826.29 732.258 826.641 733.064V733.09ZM824.669 736.035C825.826 736.035 826.641 735.15 826.641 734.054C826.641 732.959 825.826 732.082 824.669 732.082C823.521 732.082 822.688 732.906 822.688 734.054C822.688 735.202 823.521 736.035 824.669 736.035ZM830.377 736.377C829.054 736.377 828.037 735.36 828.037 734.054C828.037 732.74 829.054 731.741 830.377 731.741C830.964 731.741 831.481 731.942 831.885 732.354L831.876 732.757C831.508 732.372 831.035 732.082 830.404 732.082C829.29 732.082 828.423 732.941 828.423 734.054C828.423 735.167 829.29 736.035 830.404 736.035C831.035 736.035 831.508 735.737 831.876 735.36L831.885 735.763C831.481 736.166 830.964 736.377 830.377 736.377ZM834.999 736.377C833.676 736.377 832.659 735.36 832.659 734.054C832.659 732.74 833.676 731.741 834.999 731.741C835.586 731.741 836.103 731.942 836.506 732.354L836.498 732.757C836.129 732.372 835.656 732.082 835.025 732.082C833.912 732.082 833.045 732.941 833.045 734.054C833.045 735.167 833.912 736.035 835.025 736.035C835.656 736.035 836.129 735.737 836.498 735.36L836.506 735.763C836.103 736.166 835.586 736.377 834.999 736.377ZM840.42 733.879L843.198 736.289H842.707L840.017 733.949C840.034 734.676 840.034 735.439 840.034 736.289H839.657V731.828H840.034C840.034 732.599 840.034 733.204 840.017 733.791L842.707 731.828H843.189L840.42 733.879ZM843.387 736.298V735.956C843.781 735.921 844.316 735.737 844.316 734.72V731.828H847.637V736.289H847.26V732.161H844.675V734.747C844.675 735.956 843.956 736.28 843.387 736.298ZM850.89 731.741C852.248 731.741 853.142 732.766 853.134 734.142H849.023C849.058 735.307 849.882 736.052 850.951 736.052C851.872 736.052 852.415 735.518 852.634 735.018L852.976 735.071C852.739 735.746 852.012 736.377 850.951 736.377C849.645 736.377 848.646 735.456 848.646 734.037C848.646 732.766 849.593 731.741 850.89 731.741ZM850.89 732.056C849.847 732.056 849.076 732.845 849.023 733.835H852.739C852.704 732.862 851.977 732.056 850.89 732.056ZM855.462 736.289H855.085V732.161H853.499V731.828H857.04V732.161H855.462V736.289ZM859.554 736.377C858.23 736.377 857.205 735.36 857.205 734.054C857.205 732.74 858.23 731.741 859.554 731.741C860.868 731.741 861.894 732.74 861.894 734.054C861.894 735.36 860.868 736.377 859.554 736.377ZM859.554 736.035C860.658 736.035 861.517 735.159 861.517 734.045C861.517 732.941 860.658 732.082 859.554 732.082C858.441 732.082 857.573 732.941 857.573 734.045C857.573 735.159 858.441 736.035 859.554 736.035ZM863.656 733.879L866.434 736.289H865.944L863.253 733.949C863.271 734.676 863.271 735.439 863.271 736.289H862.894V731.828H863.271C863.271 732.599 863.271 733.204 863.253 733.791L865.944 731.828H866.426L863.656 733.879Z" fill="black"/>
<path d="M414.13 145.565C410.492 143.288 407.299 138.472 407.299 133.029C407.299 127.297 410.702 122.979 414.13 120.78L414.392 121.12C412.036 124.34 410.649 128.396 410.649 133.029C410.649 137.687 411.827 142.215 414.392 145.225L414.13 145.565ZM414.509 140.933L414.77 140.278L416.471 140.174C416.969 140.147 417.152 139.886 417.152 139.388V129.338L413.828 129.522V128.815C416.105 128.344 419.089 127.323 421.025 125.91L421.444 126.172C421.287 127.454 421.182 128.736 421.182 130.254V140.069L424.061 139.833L423.8 140.933H414.509ZM423.79 145.225C426.355 142.215 427.532 137.687 427.532 133.029C427.532 128.396 426.145 124.34 423.79 121.12L424.052 120.78C427.48 122.979 430.882 127.297 430.882 133.029C430.882 138.472 427.689 143.288 424.052 145.565L423.79 145.225Z" fill="#FF66E7"/>
<path d="M716.052 145.565C712.414 143.288 709.221 138.472 709.221 133.029C709.221 127.297 712.623 122.979 716.052 120.78L716.314 121.12C713.958 124.34 712.571 128.396 712.571 133.029C712.571 137.687 713.749 142.215 716.314 145.225L716.052 145.565ZM716.135 140.357C719.538 138.315 723.071 134.808 723.071 131.354C723.071 129.783 722.181 128.763 720.532 128.763C719.302 128.763 718.203 129.286 717.156 130.281L716.894 129.81C718.36 127.428 720.297 125.884 722.783 125.884C725.583 125.884 727.363 127.454 727.363 129.862C727.363 132.924 723.699 135.515 721.317 137.164H725.374C726.735 137.164 727.677 136.693 728.672 134.782H729.274L728.07 141.456C726.918 140.985 725.06 140.933 723.699 140.933H716.397L716.135 140.357ZM729.009 145.225C731.574 142.215 732.751 137.687 732.751 133.029C732.751 128.396 731.364 124.34 729.009 121.12L729.27 120.78C732.699 122.979 736.101 127.297 736.101 133.029C736.101 138.472 732.908 143.288 729.27 145.565L729.009 145.225Z" fill="#FF66E7"/>
<path d="M1095.97 145.565C1092.33 143.288 1089.14 138.472 1089.14 133.029C1089.14 127.297 1092.54 122.979 1095.97 120.78L1096.23 121.12C1093.88 124.34 1092.49 128.396 1092.49 133.029C1092.49 137.687 1093.67 142.215 1096.23 145.225L1095.97 145.565ZM1096.58 146.481C1100.79 145.303 1103.88 142.11 1103.88 139.153C1103.88 136.85 1102.07 135.594 1099.82 135.594L1099.56 135.332C1102.25 133.578 1103.14 131.668 1103.14 130.15C1103.14 129.077 1102.49 128.422 1101.29 128.422C1100.11 128.422 1099.19 128.946 1097.99 129.862L1097.73 129.391C1099.09 127.428 1101.18 125.884 1103.56 125.884C1105.63 125.884 1107.25 127.114 1107.25 128.815C1107.25 130.883 1105.4 132.531 1102.75 133.866C1105.42 133.971 1108.22 134.808 1108.22 137.635C1108.22 141.535 1103.09 145.879 1096.84 146.952L1096.58 146.481ZM1108.21 145.225C1110.78 142.215 1111.95 137.687 1111.95 133.029C1111.95 128.396 1110.57 124.34 1108.21 121.12L1108.47 120.78C1111.9 122.979 1115.3 127.297 1115.3 133.029C1115.3 138.472 1112.11 143.288 1108.47 145.565L1108.21 145.225Z" fill="#FF66E7"/>
<path d="M1396.14 145.565C1392.5 143.288 1389.31 138.472 1389.31 133.029C1389.31 127.297 1392.71 122.979 1396.14 120.78L1396.4 121.12C1394.04 124.34 1392.66 128.396 1392.66 133.029C1392.66 137.687 1393.83 142.215 1396.4 145.225L1396.14 145.565ZM1404.28 146.952V140.933H1396.27L1396.01 140.462L1407.42 125.936L1407.89 126.198V137.87H1410.48L1410.22 140.933H1407.89V146.952H1404.28ZM1399.12 137.87H1404.28V131.354L1399.12 137.87ZM1410.68 145.225C1413.24 142.215 1414.42 137.687 1414.42 133.029C1414.42 128.396 1413.03 124.34 1410.68 121.12L1410.94 120.78C1414.37 122.979 1417.77 127.297 1417.77 133.029C1417.77 138.472 1414.58 143.288 1410.94 145.565L1410.68 145.225Z" fill="#FF66E7"/>
<path d="M1095.97 409.361C1092.33 407.084 1089.14 402.268 1089.14 396.825C1089.14 391.093 1092.54 386.775 1095.97 384.576L1096.23 384.916C1093.88 388.135 1092.49 392.192 1092.49 396.825C1092.49 401.483 1093.67 406.011 1096.23 409.021L1095.97 409.361ZM1096.39 410.277C1100.61 409.099 1103.69 405.906 1103.69 402.896C1103.69 400.515 1100.71 399.363 1098.04 398.578L1098.77 397.4C1099.92 395.123 1100.06 391.983 1099.72 389.941H1103.04C1104.24 389.941 1106.34 389.863 1107.54 389.444V393.71H1100.74L1100.34 395.699C1103.96 396.537 1107.83 398.343 1107.83 401.823C1107.83 405.723 1102.91 409.675 1096.65 410.748L1096.39 410.277ZM1108.24 409.021C1110.8 406.011 1111.98 401.483 1111.98 396.825C1111.98 392.192 1110.59 388.135 1108.24 384.916L1108.5 384.576C1111.93 386.775 1115.33 391.093 1115.33 396.825C1115.33 402.268 1112.14 407.084 1108.5 409.361L1108.24 409.021Z" fill="#FF66E7"/>
<path d="M1397.02 409.361C1393.38 407.084 1390.19 402.268 1390.19 396.825C1390.19 391.093 1393.59 386.775 1397.02 384.576L1397.28 384.916C1394.92 388.135 1393.54 392.192 1393.54 396.825C1393.54 401.483 1394.71 406.011 1397.28 409.021L1397.02 409.361ZM1403.52 404.99C1399.43 404.99 1396.79 402.425 1396.79 398.369C1396.79 391.224 1402.84 387.193 1409.01 385.885L1409.27 386.356C1404.01 388.109 1401.63 391.643 1401.16 395.856C1402.18 394.626 1403.65 393.658 1405.56 393.658C1408.36 393.658 1410.32 395.752 1410.32 398.578C1410.32 402.059 1407.21 404.99 1403.52 404.99ZM1401.08 397.479C1401.08 402.164 1402.34 404.1 1404.12 404.1C1405.51 404.1 1406.34 402.687 1406.34 399.416C1406.34 397.427 1405.43 395.699 1403.83 395.699C1402.94 395.699 1401.87 396.118 1401.08 396.903V397.479ZM1410.84 409.021C1413.41 406.011 1414.59 401.483 1414.59 396.825C1414.59 392.192 1413.2 388.135 1410.84 384.916L1411.1 384.576C1414.53 386.775 1417.94 391.093 1417.94 396.825C1417.94 402.268 1414.74 407.084 1411.1 409.361L1410.84 409.021Z" fill="#FF66E7"/>
<rect x="222.104" y="173.192" width="95.9522" height="163.51" stroke="black" stroke-width="1.95821"/>
<path d="M271.957 276.943H317.092" stroke="black" stroke-width="1.95821"/>
<path d="M252.996 266.124H317.967" stroke="black" stroke-width="1.95821"/>
<path d="M221.125 255.033L318.844 255.033" stroke="black" stroke-width="1.95821"/>
<path d="M568.107 233.407V172.213H599.928V233.407L643.008 331.317H525.234L568.107 233.407Z" stroke="black" stroke-width="1.95821"/>
<path d="M568.594 233.896H599.436" stroke="black" stroke-width="1.95821"/>
<path d="M586.023 298.414H627.773" stroke="black" stroke-width="1.95821"/>
<path d="M565.062 308.931L632.993 309.638" stroke="black" stroke-width="1.95821"/>
<path d="M530.055 320.156H637.612" stroke="black" stroke-width="1.95821"/>
<rect x="923.664" y="173.195" width="59.2756" height="157.253" stroke="black" stroke-width="1.96009"/>
<path d="M972.219 255.006V330.72" stroke="black" stroke-width="1.95821"/>
<path d="M934.715 247.93V172.215" stroke="black" stroke-width="1.95821"/>
<path d="M950.988 295.341V330.721" stroke="black" stroke-width="1.95821"/>
<path d="M955.984 207.596V172.215" stroke="black" stroke-width="1.95821"/>
<path d="M961.25 269.156V330.723" stroke="black" stroke-width="1.95821"/>
<path d="M945.469 233.779V172.213" stroke="black" stroke-width="1.95821"/>
<path d="M1222.9 291.994L1241.54 253.979H1291.19L1313.07 290.3L1293.05 330.693H1243.43L1222.9 291.994Z" stroke="black" stroke-width="1.92385"/>
<path d="M1222.17 214.368L1242.05 173.175H1291.59L1311.6 213.259L1291.43 253.857H1242.25L1222.17 214.368Z" stroke="black" stroke-width="1.92385"/>
<path d="M1277.75 173.3L1295.12 208.118" stroke="black" stroke-width="1.92385"/>
<path d="M1254.82 330.86L1237.07 296.232" stroke="black" stroke-width="1.92385"/>
<path d="M1265.46 172.605L1275.37 192.664" stroke="black" stroke-width="1.92385"/>
<path d="M1266.74 330.768L1256.61 310.817" stroke="black" stroke-width="1.92385"/>
<path d="M942.402 567.03H980.526" stroke="black" stroke-width="1.95821"/>
<path d="M1002.58 464.055H1019.09" stroke="black" stroke-width="1.95875"/>
<path d="M926.625 577.548H980.524" stroke="black" stroke-width="1.95821"/>
<path d="M995.75 470.798H1019.09" stroke="black" stroke-width="1.95875"/>
<path d="M900.773 588.94H980.526" stroke="black" stroke-width="1.95821"/>
<path d="M984.555 477.484H1019.08" stroke="black" stroke-width="1.95875"/>
<rect x="886.418" y="503.81" width="94.9136" height="94.9136" stroke="black" stroke-width="1.96009"/>
<rect x="977.699" y="442.248" width="42.4058" height="42.4058" stroke="black" stroke-width="1.96009"/>
<mask id="path-66-inside-1_280_2109" fill="white">
<path d="M1319.44 441.628L1318.85 600.873L1221.97 600.513L1222.56 441.268L1319.44 441.628Z"/>
</mask>
<path d="M1318.85 600.873L1318.84 602.833L1320.8 602.841L1320.81 600.881L1318.85 600.873ZM1221.97 600.513L1220.01 600.506L1220.01 602.466L1221.97 602.473L1221.97 600.513ZM1317.48 441.621L1316.89 600.866L1320.81 600.881L1321.4 441.635L1317.48 441.621ZM1318.85 598.913L1221.98 598.553L1221.97 602.473L1318.84 602.833L1318.85 598.913ZM1223.93 600.521L1224.52 441.275L1220.6 441.26L1220.01 600.506L1223.93 600.521Z" fill="black" mask="url(#path-66-inside-1_280_2109)"/>
<path d="M1233.23 599.209L1233.54 516.419" stroke="black" stroke-width="1.96009"/>
<path d="M1306.98 600.583L1306.67 517.793" stroke="black" stroke-width="1.96009"/>
<path d="M1243.84 599.25L1244.01 555.378" stroke="black" stroke-width="1.96009"/>
<path d="M1296.36 600.622L1296.2 556.75" stroke="black" stroke-width="1.96009"/>
<path d="M1254.46 599.289L1254.55 574.523" stroke="black" stroke-width="1.96009"/>
<path d="M1264.43 599.875V586.43" stroke="black" stroke-width="1.96009"/>
<path d="M1275.05 599.875V586.43" stroke="black" stroke-width="1.96009"/>
<path d="M1285.75 600.663L1285.66 575.897" stroke="black" stroke-width="1.96009"/>
</g>
<defs>
<clipPath id="clip0_280_2109">
<rect width="1528.44" height="764.221" fill="white" transform="translate(0.269531)"/>
</clipPath>
</defs>
</svg>
