<svg width="1530" height="765" viewBox="0 0 1530 765" fill="none" xmlns="http://www.w3.org/2000/svg">
<g clip-path="url(#clip0_280_2886)">
<rect width="1528.44" height="764.221" transform="translate(0.589844)" fill="white"/>
<rect x="-27.0156" y="-23.6631" width="1590.23" height="802.783" fill="#FF66E7"/>
<path d="M1120.19 84.1348V389.999" stroke="white" stroke-opacity="0.3" stroke-width="1.3086"/>
<path d="M18.9961 -7.8877V777.925" stroke="white" stroke-opacity="0.3" stroke-width="1.3086"/>
<path d="M1510.62 -0.438477V785.375" stroke="white" stroke-opacity="0.3" stroke-width="1.3086"/>
<path d="M1419.11 -9.21973V776.593" stroke="white" stroke-opacity="0.3" stroke-width="1.3086"/>
<path d="M100.934 2.62988V788.443" stroke="white" stroke-opacity="0.3" stroke-width="1.3086"/>
<path d="M790.984 -23.5547V790.393" stroke="white" stroke-opacity="0.3" stroke-width="1.3086"/>
<path d="M1497.62 385.052C1495.63 385.052 1493.86 383.67 1493.86 381.425V378.172C1493.86 375.926 1495.63 374.544 1497.62 374.544C1499.59 374.544 1501.37 375.926 1501.37 378.172V381.425C1501.37 383.67 1499.59 385.052 1497.62 385.052ZM1497.62 383.857C1498.97 383.857 1500.09 382.85 1500.09 381.425V378.172C1500.09 376.746 1498.97 375.739 1497.62 375.739C1496.25 375.739 1495.14 376.746 1495.14 378.172V381.425C1495.14 382.85 1496.25 383.857 1497.62 383.857ZM1506.28 374.544C1508.44 374.544 1509.91 376.084 1509.91 378.042C1509.91 378.661 1509.74 379.467 1509.16 380.388L1506.37 384.923L1504.94 384.908L1507.22 381.223C1506.86 381.396 1506.44 381.482 1505.95 381.482C1504.08 381.482 1502.67 380.072 1502.67 378.1C1502.67 376.084 1504.14 374.544 1506.28 374.544ZM1506.28 380.46C1507.66 380.46 1508.63 379.481 1508.63 378.1C1508.63 376.732 1507.64 375.739 1506.28 375.739C1504.93 375.739 1503.95 376.732 1503.95 378.1C1503.95 379.467 1504.93 380.46 1506.28 380.46Z" fill="white"/>
<path d="M23.516 384.176C21.5295 384.176 19.759 382.794 19.759 380.549V377.296C19.759 375.05 21.5295 373.668 23.516 373.668C25.488 373.668 27.273 375.05 27.273 377.296V380.549C27.273 382.794 25.488 384.176 23.516 384.176ZM23.516 382.981C24.8691 382.981 25.9919 381.974 25.9919 380.549V377.296C25.9919 375.871 24.8691 374.863 23.516 374.863C22.1485 374.863 21.0401 375.871 21.0401 377.296V380.549C21.0401 381.974 22.1485 382.981 23.516 382.981ZM33.8938 378.562C35.0022 379.037 35.6212 379.987 35.6212 381.11C35.6212 382.909 34.1241 384.176 32.0657 384.176C29.9929 384.176 28.5102 382.909 28.5102 381.11C28.5102 379.973 29.1292 379.037 30.2376 378.562C29.4315 378.102 28.9565 377.353 28.9565 376.389C28.9565 374.705 30.3815 373.668 32.0657 373.668C33.7499 373.668 35.1749 374.705 35.1749 376.389C35.1749 377.368 34.6999 378.13 33.8938 378.562ZM32.0657 374.733C31.1444 374.733 30.1944 375.309 30.1944 376.403C30.1944 377.497 31.1444 378.087 32.0657 378.087C33.0013 378.087 33.9658 377.497 33.9658 376.403C33.9658 375.309 33.0013 374.733 32.0657 374.733ZM32.0657 383.039C33.3612 383.039 34.3544 382.247 34.3544 381.067C34.3544 379.887 33.3612 379.095 32.0657 379.095C30.7846 379.095 29.7914 379.887 29.7914 381.067C29.7914 382.247 30.7846 383.039 32.0657 383.039Z" fill="white"/>
<path d="M-27.0156 78.4375L1529.03 85.8869" stroke="white" stroke-opacity="0.3" stroke-width="1.3146"/>
<path d="M101.375 384.302L1419.48 391.751" stroke="white" stroke-opacity="0.3" stroke-width="1.3146"/>
<path d="M-36.2227 670.446L1529.03 677.896" stroke="white" stroke-opacity="0.3" stroke-width="1.3146"/>
<path d="M201.011 183.243C187.284 183.243 176.158 180.353 168.789 171.828L136.134 134.404V133.104L185.261 82.9652L167.055 83.9767L168.5 79.2084H207.513L206.068 83.2542C194.219 83.3987 188.151 85.8551 180.926 93.2242L146.104 128.914L180.059 167.493C186.995 175.151 192.341 178.041 201.733 182.376L201.011 183.243ZM100.877 181.798L102.322 177.752L110.558 177.608C113.448 177.463 115.182 175.729 115.182 172.695V82.9652L100.877 83.9767L102.322 79.2084H141.913L140.468 83.2542L132.377 83.3987C129.342 83.5432 127.609 85.4216 127.609 88.7449V178.041L141.913 177.03L140.468 181.798H100.877ZM220.123 183.243C214.632 183.243 211.598 178.041 211.598 172.406C233.705 165.759 238.907 145.964 238.907 114.465V83.2542L218.389 83.9767L219.834 79.2084H309.419L307.974 83.2542L299.738 83.3987C296.704 83.5432 294.97 85.4216 294.97 88.7449V178.041L309.275 177.03L307.83 181.798H268.383L269.828 177.752L277.92 177.608C281.099 177.463 282.544 175.874 282.544 172.695V83.2542H243.242V112.731C243.242 147.987 240.063 171.394 220.123 183.243ZM383.739 181.798L385.184 177.752L390.386 177.608C396.743 177.463 400.356 176.018 397.61 170.094L388.941 151.599H343.281L332.011 178.041L349.783 177.03L348.338 181.798H315.394L316.839 177.752L323.052 177.608C327.387 177.463 329.41 173.273 332.155 166.626L362.499 95.1026C358.164 87.011 353.829 83.3987 343.137 81.8093L343.859 79.2084H368.278L414.66 178.041L424.197 177.03L422.752 181.798H383.739ZM344.871 147.553H387.062L365.099 100.304C365.099 100.304 365.099 100.16 364.955 100.16L344.871 147.553ZM475.459 183.243C443.959 183.243 422.864 160.991 422.864 133.826C422.864 98.7149 446.56 77.7635 477.337 77.7635C489.763 77.7635 500.745 81.0868 509.125 85.2771L511.437 112.153H509.27C500.311 91.3458 489.619 82.5317 472.713 82.5317C454.218 82.5317 437.313 100.015 437.313 129.492C437.313 157.523 454.074 178.475 477.193 178.475C493.52 178.475 503.201 169.372 512.304 147.409H514.472L508.114 177.174C499.878 180.786 490.052 183.243 475.459 183.243ZM578.748 183.243C547.249 183.243 526.153 160.991 526.153 133.826C526.153 98.7149 549.85 77.7635 580.626 77.7635C593.053 77.7635 604.034 81.0868 612.415 85.2771L614.727 112.153H612.559C603.601 91.3458 592.908 82.5317 576.003 82.5317C557.508 82.5317 540.602 100.015 540.602 129.492C540.602 157.523 557.363 178.475 580.482 178.475C596.81 178.475 606.491 169.372 615.594 147.409H617.761L611.403 177.174C603.167 180.786 593.342 183.243 578.748 183.243Z" fill="white"/>
<path d="M843.797 675.78C812.298 675.78 791.202 653.528 791.202 626.364C791.202 591.252 814.899 570.301 845.675 570.301C858.102 570.301 869.083 573.624 877.464 577.814L879.776 604.69H877.608C868.65 583.883 857.957 575.069 841.052 575.069C822.557 575.069 805.651 592.552 805.651 622.029C805.651 650.06 822.412 671.012 845.531 671.012C861.859 671.012 871.54 661.909 880.643 639.946H882.81L876.452 669.711C868.216 673.324 858.391 675.78 843.797 675.78ZM945.5 675.78C917.469 675.78 894.35 653.817 894.35 624.196C894.35 593.419 916.313 570.301 945.5 570.301C973.532 570.301 996.651 592.263 996.651 621.884C996.651 652.661 974.688 675.78 945.5 675.78ZM908.655 620.15C908.655 648.471 924.982 670.867 948.679 670.867C968.33 670.867 982.346 651.361 982.346 625.93C982.346 597.61 966.018 575.213 942.322 575.213C922.671 575.213 908.655 594.72 908.655 620.15ZM1105.55 675.78C1091.82 675.78 1080.7 672.89 1073.33 664.365L1040.67 626.942V625.641L1089.8 575.502L1071.59 576.514L1073.04 571.746H1112.05L1110.61 575.791C1098.76 575.936 1092.69 578.392 1085.47 585.761L1050.64 621.451L1084.6 660.03C1091.53 667.688 1096.88 670.578 1106.27 674.913L1105.55 675.78ZM1005.42 674.335L1006.86 670.289L1015.1 670.145C1017.99 670 1019.72 668.266 1019.72 665.232V575.502L1005.42 576.514L1006.86 571.746H1046.45L1045.01 575.791L1036.92 575.936C1033.88 576.08 1032.15 577.959 1032.15 581.282V670.578L1046.45 669.567L1045.01 674.335H1005.42ZM1158.57 675.78C1130.54 675.78 1107.42 653.817 1107.42 624.196C1107.42 593.419 1129.38 570.301 1158.57 570.301C1186.6 570.301 1209.72 592.263 1209.72 621.884C1209.72 652.661 1187.76 675.78 1158.57 675.78ZM1121.72 620.15C1121.72 648.471 1138.05 670.867 1161.75 670.867C1181.4 670.867 1195.42 651.361 1195.42 625.93C1195.42 597.61 1179.09 575.213 1155.39 575.213C1135.74 575.213 1121.72 594.72 1121.72 620.15ZM1218.49 674.335L1219.93 670.289L1227.88 670.145C1232.21 670 1232.79 667.544 1232.79 661.764V575.502L1218.49 576.514L1219.93 571.746H1264C1285.24 571.746 1297.96 582.004 1297.96 595.731C1297.96 608.013 1289.87 616.972 1277.29 620.15C1293.62 623.185 1303.59 632.288 1303.59 644.714C1303.59 664.076 1287.84 674.335 1267.61 674.335H1218.49ZM1245.22 670.289H1265.3C1279.32 670.289 1289.14 661.475 1289.14 646.592C1289.14 631.854 1278.6 622.896 1263.13 622.896H1245.22V670.289ZM1245.22 618.85H1265.88C1276.28 618.85 1284.66 609.747 1284.66 597.61C1284.66 585.328 1275.56 575.791 1259.09 575.791H1245.22V618.85Z" fill="white"/>
<path d="M1127.05 97.5529C1123.54 97.5529 1120.91 94.8668 1120.91 91.308C1120.91 87.7493 1123.54 85.0631 1127.05 85.0631C1130.54 85.0631 1133.17 87.7493 1133.17 91.308C1133.17 94.8668 1130.54 97.5529 1127.05 97.5529ZM1127.05 96.1329C1129.68 96.1329 1131.65 93.9771 1131.65 91.308C1131.65 88.639 1129.68 86.4832 1127.05 86.4832C1124.4 86.4832 1122.43 88.639 1122.43 91.308C1122.43 93.9771 1124.4 96.1329 1127.05 96.1329ZM1139.45 88.7074C1141.96 88.7074 1143.79 90.4868 1143.79 93.0874C1143.79 95.688 1141.9 97.5529 1139.23 97.5529C1136.81 97.5529 1134.62 95.9618 1134.62 92.7281V91.1198C1134.62 87.7322 1136.23 85.8673 1138.94 85.3198L1142.75 84.5327V85.8159L1139.28 86.5345C1137.48 86.9109 1136.16 87.8691 1136.06 90.7092C1136.75 89.272 1138.11 88.7074 1139.45 88.7074ZM1139.24 96.2013C1141.04 96.2013 1142.32 94.901 1142.32 93.0703C1142.32 91.2567 1141.04 89.9735 1139.24 89.9735C1137.41 89.9735 1136.11 91.2567 1136.11 93.0703C1136.11 94.901 1137.41 96.2013 1139.24 96.2013ZM1157.81 88.5705V95.996H1159.01V99.3836H1157.64V97.3818H1145.38V88.5705H1146.85V96.0473H1150.85V88.5705H1152.34V96.0473H1156.34V88.5705H1157.81ZM1161.83 95.3116L1167.33 88.5705H1168.71V97.3818H1167.22V90.7263L1161.73 97.3818H1160.36V88.5705H1161.83V95.3116ZM1175.1 87.6466C1173.75 87.6466 1172.48 86.928 1172.48 85.2513H1173.66C1173.66 86.0212 1174.14 86.6372 1175.1 86.6372C1176.07 86.6372 1176.54 86.0212 1176.54 85.2513H1177.72C1177.72 86.928 1176.45 87.6466 1175.1 87.6466ZM1172.38 95.3116L1177.87 88.5705H1179.26V97.3818H1177.77V90.7263L1172.27 97.3818H1170.91V88.5705H1172.38V95.3116ZM1185.33 88.5705H1193.35V97.3818H1191.86V89.9051H1186.8V97.3818H1185.33V88.5705ZM1194.78 97.4161V96.0815C1195.5 96.0473 1196.36 95.6709 1196.36 94.0455V88.5705H1203.28V97.3818H1201.81V89.9051H1197.79V94.0797C1197.79 96.4922 1196.37 97.4332 1194.78 97.4161ZM1213 90.5723L1213.23 88.5705H1214.51V97.3818H1213V95.3116C1212.46 96.6632 1211.16 97.5529 1209.41 97.5529C1206.74 97.5529 1205 95.534 1205 92.9505C1205 90.3328 1206.78 88.3823 1209.5 88.3823C1211.02 88.3823 1212.32 89.1865 1213 90.4868V90.5723ZM1209.77 96.2184C1211.65 96.2184 1212.99 94.7983 1212.99 92.9676C1212.99 91.154 1211.65 89.734 1209.77 89.734C1207.87 89.734 1206.52 91.0856 1206.52 92.9676C1206.52 94.8668 1207.87 96.2184 1209.77 96.2184ZM1223.29 92.3175V88.5705H1224.78V97.3818H1223.29V93.6178H1218.18V97.3818H1216.7V88.5705H1218.18V92.3175H1223.29Z" fill="white"/>
<path d="M1131.12 134.629H1129.48C1129.05 133.431 1128.69 132.388 1128.37 131.447H1123.3L1122.21 134.629H1120.63L1125 122.481H1126.72L1131.12 134.629ZM1123.75 130.18H1127.92C1126.21 125.27 1125.92 124.312 1125.8 123.474C1125.68 124.312 1125.42 125.287 1123.75 130.18ZM1132.64 125.818H1140.67V134.629H1139.18V127.152H1134.12V134.629H1132.64V125.818ZM1142.85 125.818H1150.88V134.629H1149.39V127.152H1144.32V134.629H1142.85V125.818ZM1160.59 127.819L1160.81 125.818H1162.1V134.629H1160.59V132.559C1160.04 133.91 1158.74 134.8 1157 134.8C1154.33 134.8 1152.58 132.781 1152.58 130.198C1152.58 127.58 1154.36 125.629 1157.08 125.629C1158.61 125.629 1159.91 126.434 1160.59 127.734V127.819ZM1157.36 133.465C1159.24 133.465 1160.57 132.045 1160.57 130.215C1160.57 128.401 1159.24 126.981 1157.36 126.981C1155.46 126.981 1154.11 128.333 1154.11 130.215C1154.11 132.114 1155.46 133.465 1157.36 133.465ZM1169.37 125.647C1172.06 125.647 1173.79 127.665 1173.79 130.249C1173.79 132.867 1172.01 134.8 1169.3 134.8C1167.76 134.8 1166.46 134.013 1165.78 132.696V138.564H1164.29V125.818H1165.56L1165.78 127.837V127.871C1166.33 126.536 1167.63 125.647 1169.37 125.647ZM1169.01 133.465C1170.91 133.465 1172.28 132.114 1172.28 130.232C1172.28 128.333 1170.91 126.981 1169.01 126.981C1167.13 126.981 1165.8 128.401 1165.8 130.232C1165.8 132.045 1167.13 133.465 1169.01 133.465ZM1183.03 127.819L1183.25 125.818H1184.53V134.629H1183.03V132.559C1182.48 133.91 1181.18 134.8 1179.44 134.8C1176.77 134.8 1175.02 132.781 1175.02 130.198C1175.02 127.58 1176.8 125.629 1179.52 125.629C1181.04 125.629 1182.34 126.434 1183.03 127.734V127.819ZM1179.8 133.465C1181.68 133.465 1183.01 132.045 1183.01 130.215C1183.01 128.401 1181.68 126.981 1179.8 126.981C1177.9 126.981 1176.54 128.333 1176.54 130.215C1176.54 132.114 1177.9 133.465 1179.8 133.465ZM1190.01 134.629H1188.53V127.152H1185.7V125.818H1192.82V127.152H1190.01V134.629ZM1205.71 125.818V133.243H1206.89V136.631H1205.52V134.629H1198.2V136.631H1196.83V133.243H1197.91C1198.22 133.243 1198.58 132.798 1198.59 131.583L1198.73 125.818H1205.71ZM1199.53 133.243H1204.24V127.152H1200.13L1200.03 131.498C1200 132.627 1199.7 133.14 1199.53 133.243ZM1207.5 134.663V133.329C1208.22 133.294 1209.07 132.918 1209.07 131.293V125.818H1216V134.629H1214.53V127.152H1210.51V131.327C1210.51 133.739 1209.09 134.68 1207.5 134.663ZM1220.69 125.818H1224.76V134.629H1223.34C1223.34 131.652 1223.34 130.882 1223.44 130.625H1223.41L1219.25 134.629H1217.46C1220.07 132.234 1221.01 131.412 1221.56 131.087H1220.52C1219.11 131.087 1217.61 130.3 1217.61 128.435C1217.61 126.827 1218.77 125.818 1220.69 125.818ZM1219.03 128.572C1219.03 129.445 1219.66 130.044 1220.83 130.044H1223.34V127.101H1220.83C1219.66 127.101 1219.03 127.7 1219.03 128.572ZM1235.05 134.8C1232.31 134.8 1230.38 132.832 1230.38 130.215C1230.38 127.597 1232.31 125.629 1235.05 125.629C1236.16 125.629 1237.14 125.989 1237.89 126.673V128.162C1237.19 127.46 1236.31 126.981 1235.19 126.981C1233.32 126.981 1231.88 128.384 1231.88 130.215C1231.88 132.045 1233.32 133.465 1235.19 133.465C1236.31 133.465 1237.19 132.969 1237.89 132.285V133.756C1237.14 134.458 1236.16 134.8 1235.05 134.8ZM1243.97 134.8C1241.28 134.8 1239.27 132.832 1239.27 130.215C1239.27 127.597 1241.28 125.629 1243.97 125.629C1246.64 125.629 1248.66 127.597 1248.66 130.215C1248.66 132.832 1246.64 134.8 1243.97 134.8ZM1243.97 133.448C1245.8 133.448 1247.2 132.045 1247.2 130.198C1247.2 128.367 1245.8 126.981 1243.97 126.981C1242.14 126.981 1240.72 128.367 1240.72 130.198C1240.72 132.045 1242.14 133.448 1243.97 133.448ZM1253.26 129.89L1258.04 134.629H1256.24L1251.76 130.18C1251.84 131.395 1251.86 132.764 1251.86 134.629H1250.37V125.818H1251.86C1251.86 127.665 1251.86 128.692 1251.77 129.599L1256.22 125.818H1258.02L1253.26 129.89ZM1266 127.819L1266.23 125.818H1267.51V134.629H1266V132.559C1265.46 133.91 1264.15 134.8 1262.41 134.8C1259.74 134.8 1258 132.781 1258 130.198C1258 127.58 1259.77 125.629 1262.5 125.629C1264.02 125.629 1265.32 126.434 1266 127.734V127.819ZM1262.77 133.465C1264.65 133.465 1265.99 132.045 1265.99 130.215C1265.99 128.401 1264.65 126.981 1262.77 126.981C1260.87 126.981 1259.52 128.333 1259.52 130.215C1259.52 132.114 1260.87 133.465 1262.77 133.465Z" fill="white"/>
<path d="M1128.5 110.667C1129.85 111.044 1130.83 112.036 1130.83 113.627C1130.83 115.663 1129.12 117.272 1126.12 117.272C1122.92 117.272 1121.19 115.578 1121.19 113.2H1122.68C1122.68 114.928 1124.24 115.903 1126.12 115.903C1128.11 115.903 1129.29 114.876 1129.29 113.593C1129.29 112.053 1127.75 111.506 1125.93 111.506H1124.84V110.188H1125.97C1127.9 110.154 1128.76 109.265 1128.76 108.152C1128.76 106.955 1127.61 106.151 1125.97 106.151C1124.19 106.151 1122.9 107.229 1122.9 108.768H1121.42C1121.42 106.493 1123.13 104.782 1126.04 104.782C1128.58 104.782 1130.28 106.014 1130.28 108.05C1130.28 109.299 1129.66 110.257 1128.5 110.667ZM1140.08 110.291L1140.3 108.289H1141.58V117.101H1140.08V115.03C1139.53 116.382 1138.23 117.272 1136.49 117.272C1133.82 117.272 1132.07 115.253 1132.07 112.669C1132.07 110.052 1133.85 108.101 1136.57 108.101C1138.09 108.101 1139.39 108.905 1140.08 110.206V110.291ZM1136.85 115.937C1138.73 115.937 1140.06 114.517 1140.06 112.686C1140.06 110.873 1138.73 109.453 1136.85 109.453C1134.95 109.453 1133.59 110.804 1133.59 112.686C1133.59 114.586 1134.95 115.937 1136.85 115.937ZM1148.33 112.669L1151.5 108.289H1152.9V117.101H1151.41C1151.41 113.73 1151.44 112.019 1151.61 109.966C1150.81 111.403 1149.97 112.669 1148.33 114.757C1146.74 112.738 1145.92 111.489 1145.06 110.017C1145.23 112.019 1145.25 113.73 1145.25 117.101H1143.78V108.289H1145.16L1148.33 112.669ZM1159.09 108.101C1161.78 108.101 1163.65 110.034 1163.59 113.148H1156.1C1156.2 114.876 1157.54 116.023 1159.25 116.023C1160.7 116.023 1161.63 115.219 1162.02 114.38L1163.34 114.534C1162.88 116.023 1161.32 117.272 1159.23 117.272C1156.58 117.272 1154.61 115.458 1154.61 112.686C1154.61 110.103 1156.49 108.101 1159.09 108.101ZM1159.09 109.333C1157.47 109.333 1156.22 110.462 1156.1 112.002H1162.04C1161.99 110.496 1160.8 109.333 1159.09 109.333ZM1168.5 117.101H1167.01V109.624H1164.19V108.289H1171.31V109.624H1168.5V117.101ZM1175.36 112.361L1180.13 117.101H1178.34L1173.85 112.652C1173.94 113.867 1173.96 115.236 1173.96 117.101H1172.47V108.289H1173.96C1173.96 110.137 1173.96 111.164 1173.87 112.07L1178.32 108.289H1180.11L1175.36 112.361ZM1188.1 110.291L1188.32 108.289H1189.6V117.101H1188.1V115.03C1187.55 116.382 1186.25 117.272 1184.51 117.272C1181.84 117.272 1180.09 115.253 1180.09 112.669C1180.09 110.052 1181.87 108.101 1184.59 108.101C1186.11 108.101 1187.41 108.905 1188.1 110.206V110.291ZM1184.87 115.937C1186.75 115.937 1188.08 114.517 1188.08 112.686C1188.08 110.873 1186.75 109.453 1184.87 109.453C1182.97 109.453 1181.61 110.804 1181.61 112.686C1181.61 114.586 1182.97 115.937 1184.87 115.937ZM1199.17 104.953V106.27C1198.29 106.27 1197.11 106.732 1197.11 108.306V116.314C1197.11 117.905 1198.29 118.367 1199.17 118.367V119.667C1197.06 119.667 1195.66 118.658 1195.66 116.194V108.426C1195.66 105.98 1197.06 104.953 1199.17 104.953ZM1204.86 117.272C1202.5 117.272 1200.4 115.629 1200.4 112.96V109.093C1200.4 106.424 1202.5 104.782 1204.86 104.782C1207.21 104.782 1209.33 106.424 1209.33 109.093V112.96C1209.33 115.629 1207.21 117.272 1204.86 117.272ZM1204.86 115.852C1206.47 115.852 1207.81 114.654 1207.81 112.96V109.093C1207.81 107.4 1206.47 106.202 1204.86 106.202C1203.24 106.202 1201.92 107.4 1201.92 109.093V112.96C1201.92 114.654 1203.24 115.852 1204.86 115.852ZM1217.35 110.719C1218.47 111.147 1219.32 112.07 1219.32 113.679C1219.32 115.509 1217.88 117.272 1215.18 117.272C1212.49 117.272 1210.75 115.509 1210.75 113.2H1212.24C1212.24 114.893 1213.54 115.886 1215.11 115.886C1216.81 115.886 1217.8 114.859 1217.8 113.593C1217.8 112.053 1216.45 111.506 1214.96 111.506H1213.98V110.188H1214.99C1216.5 110.154 1217.32 109.265 1217.32 108.152C1217.32 106.972 1216.38 106.168 1214.98 106.168C1213.47 106.168 1212.41 107.246 1212.41 108.768H1210.92C1210.92 106.578 1212.44 104.782 1215.06 104.782C1217.34 104.782 1218.84 106.134 1218.84 108.05C1218.84 109.282 1218.24 110.188 1217.35 110.719ZM1222.22 117.272C1221.7 117.272 1221.29 116.878 1221.29 116.348C1221.29 115.852 1221.7 115.441 1222.22 115.441C1222.71 115.441 1223.13 115.852 1223.13 116.348C1223.13 116.878 1222.71 117.272 1222.22 117.272ZM1228.79 117.272C1226.43 117.272 1224.33 115.629 1224.33 112.96V109.093C1224.33 106.424 1226.43 104.782 1228.79 104.782C1231.13 104.782 1233.26 106.424 1233.26 109.093V112.96C1233.26 115.629 1231.13 117.272 1228.79 117.272ZM1228.79 115.852C1230.4 115.852 1231.73 114.654 1231.73 112.96V109.093C1231.73 107.4 1230.4 106.202 1228.79 106.202C1227.17 106.202 1225.85 107.4 1225.85 109.093V112.96C1225.85 114.654 1227.17 115.852 1228.79 115.852ZM1241.72 117.101H1234.57V115.749H1237.38V106.698L1234.78 107.571V106.168L1238.92 104.953V115.749H1241.72V117.101ZM1244.19 117.272C1243.68 117.272 1243.27 116.878 1243.27 116.348C1243.27 115.852 1243.68 115.441 1244.19 115.441C1244.69 115.441 1245.1 115.852 1245.1 116.348C1245.1 116.878 1244.69 117.272 1244.19 117.272ZM1253.56 110.719C1254.67 111.147 1255.53 112.07 1255.53 113.679C1255.53 115.509 1254.09 117.272 1251.39 117.272C1248.7 117.272 1246.96 115.509 1246.96 113.2H1248.44C1248.44 114.893 1249.75 115.886 1251.32 115.886C1253.01 115.886 1254.01 114.859 1254.01 113.593C1254.01 112.053 1252.65 111.506 1251.17 111.506H1250.19V110.188H1251.2C1252.7 110.154 1253.53 109.265 1253.53 108.152C1253.53 106.972 1252.59 106.168 1251.18 106.168C1249.68 106.168 1248.62 107.246 1248.62 108.768H1247.13C1247.13 106.578 1248.65 104.782 1251.27 104.782C1253.54 104.782 1255.05 106.134 1255.05 108.05C1255.05 109.282 1254.45 110.188 1253.56 110.719ZM1256.37 106.305V104.953H1264.43V106.116L1259.93 117.101H1258.32L1262.81 106.305H1256.37ZM1265.05 119.667V118.35C1265.92 118.35 1267.1 117.888 1267.1 116.314V108.306C1267.1 106.715 1265.92 106.253 1265.05 106.253V104.953C1267.15 104.953 1268.54 105.962 1268.54 108.426V116.194C1268.54 118.64 1267.15 119.667 1265.05 119.667Z" fill="white"/>
</g>
<defs>
<clipPath id="clip0_280_2886">
<rect width="1528.44" height="764.221" fill="white" transform="translate(0.589844)"/>
</clipPath>
</defs>
</svg>
